G04 #@! TF.GenerationSoftware,KiCad,Pcbnew,5.99.0+really5.1.12+dfsg1-1*
G04 #@! TF.CreationDate,2021-12-24T17:13:21+08:00*
G04 #@! TF.ProjectId,PSLab,50534c61-622e-46b6-9963-61645f706362,v6.0-beta*
G04 #@! TF.SameCoordinates,Original*
G04 #@! TF.FileFunction,Soldermask,Bot*
G04 #@! TF.FilePolarity,Negative*
%FSLAX46Y46*%
G04 Gerber Fmt 4.6, Leading zero omitted, Abs format (unit mm)*
G04 Created by KiCad (PCBNEW 5.99.0+really5.1.12+dfsg1-1) date 2021-12-24 17:13:21*
%MOMM*%
%LPD*%
G01*
G04 APERTURE LIST*
%ADD10C,0.010000*%
%ADD11C,0.650000*%
%ADD12O,1.700000X1.700000*%
%ADD13R,1.700000X1.700000*%
%ADD14R,1.000000X1.000000*%
%ADD15R,1.727200X1.727200*%
%ADD16O,1.727200X1.727200*%
%ADD17C,5.600000*%
G04 APERTURE END LIST*
D10*
G36*
X103715699Y-54125810D02*
G01*
X103774166Y-54127924D01*
X103821649Y-54131394D01*
X103909812Y-54142772D01*
X103997316Y-54158883D01*
X104081210Y-54178975D01*
X104158539Y-54202293D01*
X104226351Y-54228084D01*
X104257656Y-54242616D01*
X104342126Y-54292598D01*
X104417007Y-54352732D01*
X104481907Y-54422464D01*
X104536433Y-54501243D01*
X104580191Y-54588515D01*
X104612789Y-54683728D01*
X104630897Y-54767233D01*
X104644899Y-54884588D01*
X104646925Y-54994614D01*
X104636909Y-55097546D01*
X104614787Y-55193622D01*
X104580493Y-55283075D01*
X104533963Y-55366144D01*
X104475131Y-55443064D01*
X104432545Y-55487677D01*
X104352386Y-55555450D01*
X104263217Y-55612411D01*
X104165181Y-55658488D01*
X104058422Y-55693611D01*
X103990140Y-55709415D01*
X103961402Y-55713698D01*
X103923035Y-55717463D01*
X103878790Y-55720544D01*
X103832419Y-55722772D01*
X103787673Y-55723977D01*
X103748302Y-55723993D01*
X103718058Y-55722649D01*
X103711222Y-55721943D01*
X103601013Y-55703204D01*
X103501759Y-55675896D01*
X103412996Y-55639741D01*
X103334257Y-55594459D01*
X103265077Y-55539770D01*
X103204992Y-55475393D01*
X103153535Y-55401050D01*
X103140958Y-55379045D01*
X103104642Y-55302644D01*
X103077108Y-55221120D01*
X103057773Y-55132243D01*
X103046054Y-55033785D01*
X103044417Y-55010250D01*
X103044681Y-54933052D01*
X103055238Y-54853952D01*
X103055968Y-54851076D01*
X103450938Y-54851076D01*
X103451165Y-54919931D01*
X103457655Y-54985086D01*
X103470402Y-55043523D01*
X103488669Y-55090791D01*
X103520249Y-55137917D01*
X103562557Y-55177316D01*
X103614262Y-55208584D01*
X103674030Y-55231317D01*
X103740530Y-55245112D01*
X103812428Y-55249564D01*
X103888392Y-55244271D01*
X103954639Y-55231933D01*
X104025646Y-55209339D01*
X104086855Y-55178331D01*
X104137677Y-55139697D01*
X104177520Y-55094224D01*
X104205796Y-55042700D01*
X104221914Y-54985911D01*
X104225285Y-54924647D01*
X104219519Y-54878367D01*
X104203505Y-54823181D01*
X104178208Y-54776791D01*
X104143976Y-54737978D01*
X104089587Y-54695520D01*
X104026011Y-54661647D01*
X103952162Y-54635855D01*
X103894034Y-54622390D01*
X103859926Y-54617089D01*
X103816764Y-54612222D01*
X103767819Y-54607975D01*
X103716360Y-54604534D01*
X103665657Y-54602088D01*
X103618978Y-54600822D01*
X103579595Y-54600924D01*
X103550777Y-54602580D01*
X103549643Y-54602711D01*
X103504480Y-54608084D01*
X103487891Y-54652480D01*
X103469296Y-54714332D01*
X103456980Y-54781537D01*
X103450938Y-54851076D01*
X103055968Y-54851076D01*
X103076522Y-54770152D01*
X103086182Y-54740375D01*
X103093630Y-54716245D01*
X103097717Y-54698246D01*
X103097762Y-54689566D01*
X103097130Y-54689222D01*
X103083116Y-54692277D01*
X103059990Y-54700475D01*
X103031119Y-54712370D01*
X102999870Y-54726516D01*
X102969608Y-54741465D01*
X102947482Y-54753544D01*
X102910467Y-54778688D01*
X102869600Y-54812507D01*
X102828385Y-54851633D01*
X102790322Y-54892698D01*
X102758914Y-54932333D01*
X102753531Y-54940102D01*
X102707323Y-55017732D01*
X102666454Y-55104136D01*
X102632987Y-55194366D01*
X102608983Y-55283470D01*
X102607461Y-55290753D01*
X102600465Y-55329531D01*
X102593531Y-55375794D01*
X102587113Y-55425607D01*
X102581667Y-55475035D01*
X102577647Y-55520145D01*
X102575507Y-55557002D01*
X102575278Y-55569360D01*
X102574508Y-55592192D01*
X102572501Y-55608089D01*
X102569986Y-55613360D01*
X102561833Y-55612848D01*
X102541445Y-55611475D01*
X102510666Y-55609366D01*
X102471339Y-55606649D01*
X102425306Y-55603451D01*
X102374410Y-55599898D01*
X102367139Y-55599389D01*
X102315651Y-55595795D01*
X102268712Y-55592539D01*
X102228178Y-55589747D01*
X102195905Y-55587548D01*
X102173748Y-55586067D01*
X102163563Y-55585432D01*
X102163209Y-55585419D01*
X102160622Y-55578704D01*
X102159335Y-55560218D01*
X102159226Y-55532228D01*
X102160175Y-55497000D01*
X102162061Y-55456804D01*
X102164765Y-55413905D01*
X102168165Y-55370572D01*
X102172140Y-55329072D01*
X102176571Y-55291672D01*
X102180103Y-55267778D01*
X102210208Y-55121637D01*
X102250555Y-54985195D01*
X102301166Y-54858420D01*
X102362062Y-54741279D01*
X102433267Y-54633742D01*
X102514802Y-54535775D01*
X102606689Y-54447347D01*
X102708951Y-54368426D01*
X102821610Y-54298979D01*
X102868765Y-54274258D01*
X102964551Y-54231238D01*
X103065848Y-54195580D01*
X103175328Y-54166450D01*
X103281050Y-54145471D01*
X103324872Y-54139516D01*
X103379782Y-54134480D01*
X103442781Y-54130441D01*
X103510871Y-54127476D01*
X103581053Y-54125664D01*
X103650328Y-54125082D01*
X103715699Y-54125810D01*
G37*
X103715699Y-54125810D02*
X103774166Y-54127924D01*
X103821649Y-54131394D01*
X103909812Y-54142772D01*
X103997316Y-54158883D01*
X104081210Y-54178975D01*
X104158539Y-54202293D01*
X104226351Y-54228084D01*
X104257656Y-54242616D01*
X104342126Y-54292598D01*
X104417007Y-54352732D01*
X104481907Y-54422464D01*
X104536433Y-54501243D01*
X104580191Y-54588515D01*
X104612789Y-54683728D01*
X104630897Y-54767233D01*
X104644899Y-54884588D01*
X104646925Y-54994614D01*
X104636909Y-55097546D01*
X104614787Y-55193622D01*
X104580493Y-55283075D01*
X104533963Y-55366144D01*
X104475131Y-55443064D01*
X104432545Y-55487677D01*
X104352386Y-55555450D01*
X104263217Y-55612411D01*
X104165181Y-55658488D01*
X104058422Y-55693611D01*
X103990140Y-55709415D01*
X103961402Y-55713698D01*
X103923035Y-55717463D01*
X103878790Y-55720544D01*
X103832419Y-55722772D01*
X103787673Y-55723977D01*
X103748302Y-55723993D01*
X103718058Y-55722649D01*
X103711222Y-55721943D01*
X103601013Y-55703204D01*
X103501759Y-55675896D01*
X103412996Y-55639741D01*
X103334257Y-55594459D01*
X103265077Y-55539770D01*
X103204992Y-55475393D01*
X103153535Y-55401050D01*
X103140958Y-55379045D01*
X103104642Y-55302644D01*
X103077108Y-55221120D01*
X103057773Y-55132243D01*
X103046054Y-55033785D01*
X103044417Y-55010250D01*
X103044681Y-54933052D01*
X103055238Y-54853952D01*
X103055968Y-54851076D01*
X103450938Y-54851076D01*
X103451165Y-54919931D01*
X103457655Y-54985086D01*
X103470402Y-55043523D01*
X103488669Y-55090791D01*
X103520249Y-55137917D01*
X103562557Y-55177316D01*
X103614262Y-55208584D01*
X103674030Y-55231317D01*
X103740530Y-55245112D01*
X103812428Y-55249564D01*
X103888392Y-55244271D01*
X103954639Y-55231933D01*
X104025646Y-55209339D01*
X104086855Y-55178331D01*
X104137677Y-55139697D01*
X104177520Y-55094224D01*
X104205796Y-55042700D01*
X104221914Y-54985911D01*
X104225285Y-54924647D01*
X104219519Y-54878367D01*
X104203505Y-54823181D01*
X104178208Y-54776791D01*
X104143976Y-54737978D01*
X104089587Y-54695520D01*
X104026011Y-54661647D01*
X103952162Y-54635855D01*
X103894034Y-54622390D01*
X103859926Y-54617089D01*
X103816764Y-54612222D01*
X103767819Y-54607975D01*
X103716360Y-54604534D01*
X103665657Y-54602088D01*
X103618978Y-54600822D01*
X103579595Y-54600924D01*
X103550777Y-54602580D01*
X103549643Y-54602711D01*
X103504480Y-54608084D01*
X103487891Y-54652480D01*
X103469296Y-54714332D01*
X103456980Y-54781537D01*
X103450938Y-54851076D01*
X103055968Y-54851076D01*
X103076522Y-54770152D01*
X103086182Y-54740375D01*
X103093630Y-54716245D01*
X103097717Y-54698246D01*
X103097762Y-54689566D01*
X103097130Y-54689222D01*
X103083116Y-54692277D01*
X103059990Y-54700475D01*
X103031119Y-54712370D01*
X102999870Y-54726516D01*
X102969608Y-54741465D01*
X102947482Y-54753544D01*
X102910467Y-54778688D01*
X102869600Y-54812507D01*
X102828385Y-54851633D01*
X102790322Y-54892698D01*
X102758914Y-54932333D01*
X102753531Y-54940102D01*
X102707323Y-55017732D01*
X102666454Y-55104136D01*
X102632987Y-55194366D01*
X102608983Y-55283470D01*
X102607461Y-55290753D01*
X102600465Y-55329531D01*
X102593531Y-55375794D01*
X102587113Y-55425607D01*
X102581667Y-55475035D01*
X102577647Y-55520145D01*
X102575507Y-55557002D01*
X102575278Y-55569360D01*
X102574508Y-55592192D01*
X102572501Y-55608089D01*
X102569986Y-55613360D01*
X102561833Y-55612848D01*
X102541445Y-55611475D01*
X102510666Y-55609366D01*
X102471339Y-55606649D01*
X102425306Y-55603451D01*
X102374410Y-55599898D01*
X102367139Y-55599389D01*
X102315651Y-55595795D01*
X102268712Y-55592539D01*
X102228178Y-55589747D01*
X102195905Y-55587548D01*
X102173748Y-55586067D01*
X102163563Y-55585432D01*
X102163209Y-55585419D01*
X102160622Y-55578704D01*
X102159335Y-55560218D01*
X102159226Y-55532228D01*
X102160175Y-55497000D01*
X102162061Y-55456804D01*
X102164765Y-55413905D01*
X102168165Y-55370572D01*
X102172140Y-55329072D01*
X102176571Y-55291672D01*
X102180103Y-55267778D01*
X102210208Y-55121637D01*
X102250555Y-54985195D01*
X102301166Y-54858420D01*
X102362062Y-54741279D01*
X102433267Y-54633742D01*
X102514802Y-54535775D01*
X102606689Y-54447347D01*
X102708951Y-54368426D01*
X102821610Y-54298979D01*
X102868765Y-54274258D01*
X102964551Y-54231238D01*
X103065848Y-54195580D01*
X103175328Y-54166450D01*
X103281050Y-54145471D01*
X103324872Y-54139516D01*
X103379782Y-54134480D01*
X103442781Y-54130441D01*
X103510871Y-54127476D01*
X103581053Y-54125664D01*
X103650328Y-54125082D01*
X103715699Y-54125810D01*
D11*
X105700000Y-59010000D03*
X105700000Y-64790000D03*
D12*
X144660000Y-79172000D03*
X144660000Y-76632000D03*
X144660000Y-74092000D03*
X144660000Y-71552000D03*
D13*
X144660000Y-69012000D03*
D14*
X109637000Y-62991500D03*
X109639600Y-58517700D03*
X109637000Y-60771500D03*
D15*
X103365500Y-91237000D03*
D16*
X103365500Y-88697000D03*
X105905500Y-91237000D03*
X105905500Y-88697000D03*
X108445500Y-91237000D03*
X108445500Y-88697000D03*
X110985500Y-91237000D03*
X110985500Y-88697000D03*
D17*
X113940000Y-97440000D03*
X190150000Y-49200000D03*
X115210000Y-49190000D03*
X196480000Y-97430000D03*
D13*
X196520000Y-54280000D03*
D12*
X193980000Y-54280000D03*
X196520000Y-56820000D03*
X193980000Y-56820000D03*
X196520000Y-59360000D03*
X193980000Y-59360000D03*
X196520000Y-61900000D03*
X193980000Y-61900000D03*
X196520000Y-64440000D03*
X193980000Y-64440000D03*
X196520000Y-66980000D03*
X193980000Y-66980000D03*
X196520000Y-69520000D03*
X193980000Y-69520000D03*
X196520000Y-72060000D03*
X193980000Y-72060000D03*
X196520000Y-74600000D03*
X193980000Y-74600000D03*
X196520000Y-77140000D03*
X193980000Y-77140000D03*
X196520000Y-79680000D03*
X193980000Y-79680000D03*
X196520000Y-82220000D03*
X193980000Y-82220000D03*
X196520000Y-84760000D03*
X193980000Y-84760000D03*
X196520000Y-87300000D03*
X193980000Y-87300000D03*
D13*
X166040000Y-49200000D03*
D12*
X168580000Y-49200000D03*
X171120000Y-49200000D03*
X173660000Y-49200000D03*
X176200000Y-49200000D03*
X178740000Y-49200000D03*
X181280000Y-49200000D03*
X183820000Y-49200000D03*
X173660000Y-97460000D03*
X171120000Y-97460000D03*
X168580000Y-97460000D03*
X166040000Y-97460000D03*
X163500000Y-97460000D03*
X160960000Y-97460000D03*
X158420000Y-97460000D03*
D13*
X155880000Y-97460000D03*
X140640000Y-49200000D03*
D12*
X143180000Y-49200000D03*
X145720000Y-49200000D03*
X148260000Y-49200000D03*
D13*
X153340000Y-49200000D03*
D12*
X155880000Y-49200000D03*
X158420000Y-49200000D03*
X160960000Y-49200000D03*
X150800000Y-97494000D03*
X148260000Y-97494000D03*
X145720000Y-97494000D03*
D13*
X143180000Y-97494000D03*
X122860000Y-49200000D03*
D12*
X125400000Y-49200000D03*
X127940000Y-49200000D03*
X130480000Y-49200000D03*
X133020000Y-49200000D03*
X135560000Y-49200000D03*
D14*
X109637000Y-65202000D03*
M02*
