G04 #@! TF.GenerationSoftware,KiCad,Pcbnew,5.99.0+really5.1.12+dfsg1-1*
G04 #@! TF.CreationDate,2021-12-24T17:13:21+08:00*
G04 #@! TF.ProjectId,PSLab,50534c61-622e-46b6-9963-61645f706362,v6.0-beta*
G04 #@! TF.SameCoordinates,Original*
G04 #@! TF.FileFunction,Copper,L4,Bot*
G04 #@! TF.FilePolarity,Positive*
%FSLAX46Y46*%
G04 Gerber Fmt 4.6, Leading zero omitted, Abs format (unit mm)*
G04 Created by KiCad (PCBNEW 5.99.0+really5.1.12+dfsg1-1) date 2021-12-24 17:13:21*
%MOMM*%
%LPD*%
G01*
G04 APERTURE LIST*
G04 #@! TA.AperFunction,EtchedComponent*
%ADD10C,0.010000*%
G04 #@! TD*
G04 #@! TA.AperFunction,ComponentPad*
%ADD11O,1.700000X1.700000*%
G04 #@! TD*
G04 #@! TA.AperFunction,ComponentPad*
%ADD12R,1.700000X1.700000*%
G04 #@! TD*
G04 #@! TA.AperFunction,SMDPad,CuDef*
%ADD13R,1.000000X1.000000*%
G04 #@! TD*
G04 #@! TA.AperFunction,ComponentPad*
%ADD14R,1.727200X1.727200*%
G04 #@! TD*
G04 #@! TA.AperFunction,ComponentPad*
%ADD15O,1.727200X1.727200*%
G04 #@! TD*
G04 #@! TA.AperFunction,ComponentPad*
%ADD16C,5.600000*%
G04 #@! TD*
G04 #@! TA.AperFunction,ViaPad*
%ADD17C,0.500000*%
G04 #@! TD*
G04 #@! TA.AperFunction,ViaPad*
%ADD18C,0.914400*%
G04 #@! TD*
G04 #@! TA.AperFunction,ViaPad*
%ADD19C,0.700000*%
G04 #@! TD*
G04 #@! TA.AperFunction,Conductor*
%ADD20C,0.150000*%
G04 #@! TD*
G04 #@! TA.AperFunction,Conductor*
%ADD21C,0.400000*%
G04 #@! TD*
G04 APERTURE END LIST*
D10*
G36*
X103715699Y-54125810D02*
G01*
X103774166Y-54127924D01*
X103821649Y-54131394D01*
X103909812Y-54142772D01*
X103997316Y-54158883D01*
X104081210Y-54178975D01*
X104158539Y-54202293D01*
X104226351Y-54228084D01*
X104257656Y-54242616D01*
X104342126Y-54292598D01*
X104417007Y-54352732D01*
X104481907Y-54422464D01*
X104536433Y-54501243D01*
X104580191Y-54588515D01*
X104612789Y-54683728D01*
X104630897Y-54767233D01*
X104644899Y-54884588D01*
X104646925Y-54994614D01*
X104636909Y-55097546D01*
X104614787Y-55193622D01*
X104580493Y-55283075D01*
X104533963Y-55366144D01*
X104475131Y-55443064D01*
X104432545Y-55487677D01*
X104352386Y-55555450D01*
X104263217Y-55612411D01*
X104165181Y-55658488D01*
X104058422Y-55693611D01*
X103990140Y-55709415D01*
X103961402Y-55713698D01*
X103923035Y-55717463D01*
X103878790Y-55720544D01*
X103832419Y-55722772D01*
X103787673Y-55723977D01*
X103748302Y-55723993D01*
X103718058Y-55722649D01*
X103711222Y-55721943D01*
X103601013Y-55703204D01*
X103501759Y-55675896D01*
X103412996Y-55639741D01*
X103334257Y-55594459D01*
X103265077Y-55539770D01*
X103204992Y-55475393D01*
X103153535Y-55401050D01*
X103140958Y-55379045D01*
X103104642Y-55302644D01*
X103077108Y-55221120D01*
X103057773Y-55132243D01*
X103046054Y-55033785D01*
X103044417Y-55010250D01*
X103044681Y-54933052D01*
X103055238Y-54853952D01*
X103055968Y-54851076D01*
X103450938Y-54851076D01*
X103451165Y-54919931D01*
X103457655Y-54985086D01*
X103470402Y-55043523D01*
X103488669Y-55090791D01*
X103520249Y-55137917D01*
X103562557Y-55177316D01*
X103614262Y-55208584D01*
X103674030Y-55231317D01*
X103740530Y-55245112D01*
X103812428Y-55249564D01*
X103888392Y-55244271D01*
X103954639Y-55231933D01*
X104025646Y-55209339D01*
X104086855Y-55178331D01*
X104137677Y-55139697D01*
X104177520Y-55094224D01*
X104205796Y-55042700D01*
X104221914Y-54985911D01*
X104225285Y-54924647D01*
X104219519Y-54878367D01*
X104203505Y-54823181D01*
X104178208Y-54776791D01*
X104143976Y-54737978D01*
X104089587Y-54695520D01*
X104026011Y-54661647D01*
X103952162Y-54635855D01*
X103894034Y-54622390D01*
X103859926Y-54617089D01*
X103816764Y-54612222D01*
X103767819Y-54607975D01*
X103716360Y-54604534D01*
X103665657Y-54602088D01*
X103618978Y-54600822D01*
X103579595Y-54600924D01*
X103550777Y-54602580D01*
X103549643Y-54602711D01*
X103504480Y-54608084D01*
X103487891Y-54652480D01*
X103469296Y-54714332D01*
X103456980Y-54781537D01*
X103450938Y-54851076D01*
X103055968Y-54851076D01*
X103076522Y-54770152D01*
X103086182Y-54740375D01*
X103093630Y-54716245D01*
X103097717Y-54698246D01*
X103097762Y-54689566D01*
X103097130Y-54689222D01*
X103083116Y-54692277D01*
X103059990Y-54700475D01*
X103031119Y-54712370D01*
X102999870Y-54726516D01*
X102969608Y-54741465D01*
X102947482Y-54753544D01*
X102910467Y-54778688D01*
X102869600Y-54812507D01*
X102828385Y-54851633D01*
X102790322Y-54892698D01*
X102758914Y-54932333D01*
X102753531Y-54940102D01*
X102707323Y-55017732D01*
X102666454Y-55104136D01*
X102632987Y-55194366D01*
X102608983Y-55283470D01*
X102607461Y-55290753D01*
X102600465Y-55329531D01*
X102593531Y-55375794D01*
X102587113Y-55425607D01*
X102581667Y-55475035D01*
X102577647Y-55520145D01*
X102575507Y-55557002D01*
X102575278Y-55569360D01*
X102574508Y-55592192D01*
X102572501Y-55608089D01*
X102569986Y-55613360D01*
X102561833Y-55612848D01*
X102541445Y-55611475D01*
X102510666Y-55609366D01*
X102471339Y-55606649D01*
X102425306Y-55603451D01*
X102374410Y-55599898D01*
X102367139Y-55599389D01*
X102315651Y-55595795D01*
X102268712Y-55592539D01*
X102228178Y-55589747D01*
X102195905Y-55587548D01*
X102173748Y-55586067D01*
X102163563Y-55585432D01*
X102163209Y-55585419D01*
X102160622Y-55578704D01*
X102159335Y-55560218D01*
X102159226Y-55532228D01*
X102160175Y-55497000D01*
X102162061Y-55456804D01*
X102164765Y-55413905D01*
X102168165Y-55370572D01*
X102172140Y-55329072D01*
X102176571Y-55291672D01*
X102180103Y-55267778D01*
X102210208Y-55121637D01*
X102250555Y-54985195D01*
X102301166Y-54858420D01*
X102362062Y-54741279D01*
X102433267Y-54633742D01*
X102514802Y-54535775D01*
X102606689Y-54447347D01*
X102708951Y-54368426D01*
X102821610Y-54298979D01*
X102868765Y-54274258D01*
X102964551Y-54231238D01*
X103065848Y-54195580D01*
X103175328Y-54166450D01*
X103281050Y-54145471D01*
X103324872Y-54139516D01*
X103379782Y-54134480D01*
X103442781Y-54130441D01*
X103510871Y-54127476D01*
X103581053Y-54125664D01*
X103650328Y-54125082D01*
X103715699Y-54125810D01*
G37*
X103715699Y-54125810D02*
X103774166Y-54127924D01*
X103821649Y-54131394D01*
X103909812Y-54142772D01*
X103997316Y-54158883D01*
X104081210Y-54178975D01*
X104158539Y-54202293D01*
X104226351Y-54228084D01*
X104257656Y-54242616D01*
X104342126Y-54292598D01*
X104417007Y-54352732D01*
X104481907Y-54422464D01*
X104536433Y-54501243D01*
X104580191Y-54588515D01*
X104612789Y-54683728D01*
X104630897Y-54767233D01*
X104644899Y-54884588D01*
X104646925Y-54994614D01*
X104636909Y-55097546D01*
X104614787Y-55193622D01*
X104580493Y-55283075D01*
X104533963Y-55366144D01*
X104475131Y-55443064D01*
X104432545Y-55487677D01*
X104352386Y-55555450D01*
X104263217Y-55612411D01*
X104165181Y-55658488D01*
X104058422Y-55693611D01*
X103990140Y-55709415D01*
X103961402Y-55713698D01*
X103923035Y-55717463D01*
X103878790Y-55720544D01*
X103832419Y-55722772D01*
X103787673Y-55723977D01*
X103748302Y-55723993D01*
X103718058Y-55722649D01*
X103711222Y-55721943D01*
X103601013Y-55703204D01*
X103501759Y-55675896D01*
X103412996Y-55639741D01*
X103334257Y-55594459D01*
X103265077Y-55539770D01*
X103204992Y-55475393D01*
X103153535Y-55401050D01*
X103140958Y-55379045D01*
X103104642Y-55302644D01*
X103077108Y-55221120D01*
X103057773Y-55132243D01*
X103046054Y-55033785D01*
X103044417Y-55010250D01*
X103044681Y-54933052D01*
X103055238Y-54853952D01*
X103055968Y-54851076D01*
X103450938Y-54851076D01*
X103451165Y-54919931D01*
X103457655Y-54985086D01*
X103470402Y-55043523D01*
X103488669Y-55090791D01*
X103520249Y-55137917D01*
X103562557Y-55177316D01*
X103614262Y-55208584D01*
X103674030Y-55231317D01*
X103740530Y-55245112D01*
X103812428Y-55249564D01*
X103888392Y-55244271D01*
X103954639Y-55231933D01*
X104025646Y-55209339D01*
X104086855Y-55178331D01*
X104137677Y-55139697D01*
X104177520Y-55094224D01*
X104205796Y-55042700D01*
X104221914Y-54985911D01*
X104225285Y-54924647D01*
X104219519Y-54878367D01*
X104203505Y-54823181D01*
X104178208Y-54776791D01*
X104143976Y-54737978D01*
X104089587Y-54695520D01*
X104026011Y-54661647D01*
X103952162Y-54635855D01*
X103894034Y-54622390D01*
X103859926Y-54617089D01*
X103816764Y-54612222D01*
X103767819Y-54607975D01*
X103716360Y-54604534D01*
X103665657Y-54602088D01*
X103618978Y-54600822D01*
X103579595Y-54600924D01*
X103550777Y-54602580D01*
X103549643Y-54602711D01*
X103504480Y-54608084D01*
X103487891Y-54652480D01*
X103469296Y-54714332D01*
X103456980Y-54781537D01*
X103450938Y-54851076D01*
X103055968Y-54851076D01*
X103076522Y-54770152D01*
X103086182Y-54740375D01*
X103093630Y-54716245D01*
X103097717Y-54698246D01*
X103097762Y-54689566D01*
X103097130Y-54689222D01*
X103083116Y-54692277D01*
X103059990Y-54700475D01*
X103031119Y-54712370D01*
X102999870Y-54726516D01*
X102969608Y-54741465D01*
X102947482Y-54753544D01*
X102910467Y-54778688D01*
X102869600Y-54812507D01*
X102828385Y-54851633D01*
X102790322Y-54892698D01*
X102758914Y-54932333D01*
X102753531Y-54940102D01*
X102707323Y-55017732D01*
X102666454Y-55104136D01*
X102632987Y-55194366D01*
X102608983Y-55283470D01*
X102607461Y-55290753D01*
X102600465Y-55329531D01*
X102593531Y-55375794D01*
X102587113Y-55425607D01*
X102581667Y-55475035D01*
X102577647Y-55520145D01*
X102575507Y-55557002D01*
X102575278Y-55569360D01*
X102574508Y-55592192D01*
X102572501Y-55608089D01*
X102569986Y-55613360D01*
X102561833Y-55612848D01*
X102541445Y-55611475D01*
X102510666Y-55609366D01*
X102471339Y-55606649D01*
X102425306Y-55603451D01*
X102374410Y-55599898D01*
X102367139Y-55599389D01*
X102315651Y-55595795D01*
X102268712Y-55592539D01*
X102228178Y-55589747D01*
X102195905Y-55587548D01*
X102173748Y-55586067D01*
X102163563Y-55585432D01*
X102163209Y-55585419D01*
X102160622Y-55578704D01*
X102159335Y-55560218D01*
X102159226Y-55532228D01*
X102160175Y-55497000D01*
X102162061Y-55456804D01*
X102164765Y-55413905D01*
X102168165Y-55370572D01*
X102172140Y-55329072D01*
X102176571Y-55291672D01*
X102180103Y-55267778D01*
X102210208Y-55121637D01*
X102250555Y-54985195D01*
X102301166Y-54858420D01*
X102362062Y-54741279D01*
X102433267Y-54633742D01*
X102514802Y-54535775D01*
X102606689Y-54447347D01*
X102708951Y-54368426D01*
X102821610Y-54298979D01*
X102868765Y-54274258D01*
X102964551Y-54231238D01*
X103065848Y-54195580D01*
X103175328Y-54166450D01*
X103281050Y-54145471D01*
X103324872Y-54139516D01*
X103379782Y-54134480D01*
X103442781Y-54130441D01*
X103510871Y-54127476D01*
X103581053Y-54125664D01*
X103650328Y-54125082D01*
X103715699Y-54125810D01*
G36*
X197147657Y-47296563D02*
G01*
X197235166Y-47308608D01*
X197319719Y-47329970D01*
X197405816Y-47361560D01*
X197418048Y-47366763D01*
X197513863Y-47415643D01*
X197604463Y-47476762D01*
X197688455Y-47548776D01*
X197764442Y-47630339D01*
X197831029Y-47720106D01*
X197886823Y-47816732D01*
X197888770Y-47820639D01*
X197929716Y-47911128D01*
X197960259Y-47997613D01*
X197981490Y-48084278D01*
X197994500Y-48175306D01*
X197999328Y-48244491D01*
X198000284Y-48333104D01*
X197994466Y-48414691D01*
X197981326Y-48494891D01*
X197970352Y-48542132D01*
X197953728Y-48607459D01*
X198024442Y-48643782D01*
X198123059Y-48702222D01*
X198213106Y-48771509D01*
X198294057Y-48850900D01*
X198365389Y-48939650D01*
X198426574Y-49037012D01*
X198477090Y-49142243D01*
X198516411Y-49254598D01*
X198544011Y-49373331D01*
X198545758Y-49383445D01*
X198551639Y-49433383D01*
X198554607Y-49492655D01*
X198554747Y-49556806D01*
X198552147Y-49621381D01*
X198546890Y-49681925D01*
X198539064Y-49733983D01*
X198539001Y-49734302D01*
X198508903Y-49853481D01*
X198466790Y-49965442D01*
X198412303Y-50070928D01*
X198345081Y-50170679D01*
X198298638Y-50227908D01*
X198248632Y-50285676D01*
X198290865Y-50344324D01*
X198353999Y-50443834D01*
X198404873Y-50549253D01*
X198443395Y-50659348D01*
X198469476Y-50772885D01*
X198483024Y-50888628D01*
X198483948Y-51005346D01*
X198472157Y-51121802D01*
X198447561Y-51236764D01*
X198410068Y-51348997D01*
X198371215Y-51435028D01*
X198313596Y-51533972D01*
X198245650Y-51624913D01*
X198168485Y-51706891D01*
X198083209Y-51778945D01*
X197990930Y-51840117D01*
X197892756Y-51889447D01*
X197812124Y-51919298D01*
X197743504Y-51938220D01*
X197677278Y-51950513D01*
X197608420Y-51956840D01*
X197531904Y-51957860D01*
X197520860Y-51957631D01*
X197417525Y-51955134D01*
X197408853Y-51993970D01*
X197377998Y-52100581D01*
X197334079Y-52204383D01*
X197278108Y-52303561D01*
X197211098Y-52396302D01*
X197141164Y-52473784D01*
X197054667Y-52551363D01*
X196963883Y-52615734D01*
X196867922Y-52667386D01*
X196765892Y-52706810D01*
X196671695Y-52731500D01*
X196644957Y-52735773D01*
X196609239Y-52739617D01*
X196568036Y-52742856D01*
X196524842Y-52745312D01*
X196483149Y-52746806D01*
X196446453Y-52747161D01*
X196418247Y-52746200D01*
X196407111Y-52744962D01*
X196391234Y-52742339D01*
X196366804Y-52738379D01*
X196340084Y-52734094D01*
X196257629Y-52715556D01*
X196172181Y-52686432D01*
X196087782Y-52648365D01*
X196008476Y-52603000D01*
X195993354Y-52593043D01*
X195904629Y-52524814D01*
X195823870Y-52445759D01*
X195752068Y-52357319D01*
X195690216Y-52260935D01*
X195639305Y-52158050D01*
X195600329Y-52050105D01*
X195587784Y-52003720D01*
X195572501Y-51941084D01*
X195480042Y-51940687D01*
X195372222Y-51933337D01*
X195267136Y-51912688D01*
X195165709Y-51879433D01*
X195068868Y-51834267D01*
X194977538Y-51777885D01*
X194892645Y-51710980D01*
X194815115Y-51634249D01*
X194745874Y-51548384D01*
X194685848Y-51454082D01*
X194635962Y-51352037D01*
X194612010Y-51289487D01*
X194592202Y-51228764D01*
X194577447Y-51174304D01*
X194567092Y-51122040D01*
X194560488Y-51067905D01*
X194556982Y-51007833D01*
X194555924Y-50939195D01*
X194556149Y-50887107D01*
X194557112Y-50845908D01*
X194559048Y-50812384D01*
X194562195Y-50783322D01*
X194566785Y-50755507D01*
X194570831Y-50735765D01*
X194593003Y-50647238D01*
X194619776Y-50566993D01*
X194653088Y-50489456D01*
X194664820Y-50465544D01*
X194704400Y-50387004D01*
X194684247Y-50375099D01*
X194663988Y-50360464D01*
X194637172Y-50337277D01*
X194606162Y-50307919D01*
X194573321Y-50274775D01*
X194541011Y-50240225D01*
X194511594Y-50206653D01*
X194488103Y-50177332D01*
X194426857Y-50085104D01*
X194374437Y-49983952D01*
X194332233Y-49876940D01*
X194301636Y-49767137D01*
X194301045Y-49764445D01*
X194296236Y-49735188D01*
X194291915Y-49695100D01*
X194288370Y-49647455D01*
X194285886Y-49595533D01*
X194285637Y-49588056D01*
X194284723Y-49551799D01*
X194362707Y-49551799D01*
X194363974Y-49609365D01*
X194367048Y-49664682D01*
X194371843Y-49713858D01*
X194378271Y-49753002D01*
X194378461Y-49753861D01*
X194410058Y-49864949D01*
X194453638Y-49970545D01*
X194508439Y-50069456D01*
X194573702Y-50160488D01*
X194648666Y-50242448D01*
X194732572Y-50314141D01*
X194737572Y-50317867D01*
X194761347Y-50336541D01*
X194780613Y-50353711D01*
X194792510Y-50366735D01*
X194794751Y-50370701D01*
X194793279Y-50385636D01*
X194782642Y-50411012D01*
X194766685Y-50440317D01*
X194712085Y-50547578D01*
X194671203Y-50657559D01*
X194644109Y-50769761D01*
X194630873Y-50883683D01*
X194631565Y-50998827D01*
X194646255Y-51114692D01*
X194662274Y-51186104D01*
X194696697Y-51294264D01*
X194741354Y-51393443D01*
X194797184Y-51485278D01*
X194865124Y-51571404D01*
X194911121Y-51620056D01*
X194992416Y-51692538D01*
X195077860Y-51751939D01*
X195168918Y-51799032D01*
X195267056Y-51834590D01*
X195360250Y-51856917D01*
X195393677Y-51862279D01*
X195427120Y-51865281D01*
X195464970Y-51866134D01*
X195511617Y-51865048D01*
X195521679Y-51864646D01*
X195558129Y-51863531D01*
X195589871Y-51863330D01*
X195614069Y-51864004D01*
X195627885Y-51865514D01*
X195629606Y-51866138D01*
X195634846Y-51875115D01*
X195641520Y-51894670D01*
X195648589Y-51921489D01*
X195652568Y-51939580D01*
X195681887Y-52050514D01*
X195722818Y-52155005D01*
X195774627Y-52252280D01*
X195836578Y-52341569D01*
X195907936Y-52422100D01*
X195987966Y-52493099D01*
X196075934Y-52553796D01*
X196171103Y-52603418D01*
X196272739Y-52641194D01*
X196336556Y-52657860D01*
X196387357Y-52665764D01*
X196447401Y-52669751D01*
X196512408Y-52669944D01*
X196578099Y-52666463D01*
X196640195Y-52659430D01*
X196694418Y-52648966D01*
X196699917Y-52647558D01*
X196799117Y-52614222D01*
X196893157Y-52568404D01*
X196981148Y-52511069D01*
X197062202Y-52443184D01*
X197135432Y-52365716D01*
X197199951Y-52279631D01*
X197254869Y-52185894D01*
X197299299Y-52085473D01*
X197332354Y-51979333D01*
X197338655Y-51952389D01*
X197345783Y-51924008D01*
X197353428Y-51900252D01*
X197360255Y-51885093D01*
X197362094Y-51882660D01*
X197368084Y-51878447D01*
X197377393Y-51876098D01*
X197392503Y-51875576D01*
X197415894Y-51876842D01*
X197450049Y-51879860D01*
X197463106Y-51881135D01*
X197570464Y-51884927D01*
X197675151Y-51874988D01*
X197776596Y-51851540D01*
X197874228Y-51814806D01*
X197967473Y-51765009D01*
X198055760Y-51702373D01*
X198138517Y-51627120D01*
X198152519Y-51612530D01*
X198224013Y-51526435D01*
X198284157Y-51432847D01*
X198332701Y-51332990D01*
X198369392Y-51228084D01*
X198393981Y-51119352D01*
X198406217Y-51008017D01*
X198405848Y-50895299D01*
X198392624Y-50782422D01*
X198366293Y-50670608D01*
X198353891Y-50631822D01*
X198333257Y-50579533D01*
X198306148Y-50522569D01*
X198274722Y-50464719D01*
X198241138Y-50409769D01*
X198207555Y-50361507D01*
X198181724Y-50329793D01*
X198165984Y-50311446D01*
X198156682Y-50296590D01*
X198154428Y-50282776D01*
X198159835Y-50267555D01*
X198173510Y-50248478D01*
X198196066Y-50223096D01*
X198212759Y-50205261D01*
X198287793Y-50116448D01*
X198350106Y-50022571D01*
X198400319Y-49922437D01*
X198439050Y-49814856D01*
X198461274Y-49726968D01*
X198471181Y-49663313D01*
X198476458Y-49591285D01*
X198477110Y-49515837D01*
X198473143Y-49441925D01*
X198464562Y-49374503D01*
X198460867Y-49355222D01*
X198431289Y-49242819D01*
X198391584Y-49139637D01*
X198341091Y-49044433D01*
X198279147Y-48955961D01*
X198205090Y-48872977D01*
X198203407Y-48871291D01*
X198160025Y-48829534D01*
X198120043Y-48795111D01*
X198079690Y-48765343D01*
X198035197Y-48737551D01*
X197982793Y-48709056D01*
X197956061Y-48695506D01*
X197921934Y-48678383D01*
X197898464Y-48665980D01*
X197883673Y-48656727D01*
X197875586Y-48649054D01*
X197872228Y-48641392D01*
X197871621Y-48632170D01*
X197871689Y-48628479D01*
X197873778Y-48610939D01*
X197878931Y-48584261D01*
X197886243Y-48552852D01*
X197890764Y-48535504D01*
X197908525Y-48459718D01*
X197919049Y-48387617D01*
X197922979Y-48313250D01*
X197921777Y-48247500D01*
X197910215Y-48133996D01*
X197885987Y-48024353D01*
X197849723Y-47919586D01*
X197802057Y-47820709D01*
X197743618Y-47728736D01*
X197675038Y-47644682D01*
X197596949Y-47569560D01*
X197509982Y-47504383D01*
X197430167Y-47457877D01*
X197331332Y-47414722D01*
X197230395Y-47385200D01*
X197128293Y-47369169D01*
X197025964Y-47366482D01*
X196924346Y-47376996D01*
X196824378Y-47400564D01*
X196726995Y-47437042D01*
X196633138Y-47486284D01*
X196543743Y-47548147D01*
X196477667Y-47605114D01*
X196452260Y-47628607D01*
X196434054Y-47643249D01*
X196420259Y-47650151D01*
X196408085Y-47650427D01*
X196394741Y-47645188D01*
X196387288Y-47641146D01*
X196292089Y-47591782D01*
X196202272Y-47554141D01*
X196116005Y-47527814D01*
X196031459Y-47512395D01*
X195946803Y-47507477D01*
X195860207Y-47512652D01*
X195828526Y-47516859D01*
X195725115Y-47539433D01*
X195626102Y-47574853D01*
X195532424Y-47622282D01*
X195445017Y-47680887D01*
X195364816Y-47749832D01*
X195292758Y-47828283D01*
X195229777Y-47915405D01*
X195176810Y-48010364D01*
X195134792Y-48112324D01*
X195124145Y-48145195D01*
X195113835Y-48180434D01*
X195104076Y-48216024D01*
X195096353Y-48246453D01*
X195093704Y-48258084D01*
X195090583Y-48280553D01*
X195088044Y-48313939D01*
X195086133Y-48355056D01*
X195084892Y-48400719D01*
X195084368Y-48447743D01*
X195084604Y-48492943D01*
X195085644Y-48533134D01*
X195087533Y-48565132D01*
X195089217Y-48579895D01*
X195090744Y-48608350D01*
X195085689Y-48623823D01*
X195075403Y-48630715D01*
X195055011Y-48639635D01*
X195028080Y-48649111D01*
X195013639Y-48653496D01*
X194926472Y-48683001D01*
X194846744Y-48719876D01*
X194769227Y-48766400D01*
X194681960Y-48832867D01*
X194603716Y-48909694D01*
X194535096Y-48995919D01*
X194476700Y-49090581D01*
X194429130Y-49192716D01*
X194392986Y-49301362D01*
X194370623Y-49404527D01*
X194365944Y-49445489D01*
X194363334Y-49495877D01*
X194362707Y-49551799D01*
X194284723Y-49551799D01*
X194284377Y-49538089D01*
X194284266Y-49498287D01*
X194285503Y-49464733D01*
X194288287Y-49433514D01*
X194292818Y-49400715D01*
X194296241Y-49379917D01*
X194320816Y-49268229D01*
X194355469Y-49164395D01*
X194401444Y-49065267D01*
X194457645Y-48971219D01*
X194490541Y-48926175D01*
X194531194Y-48877723D01*
X194576616Y-48828919D01*
X194623816Y-48782818D01*
X194669804Y-48742475D01*
X194711591Y-48710946D01*
X194713750Y-48709500D01*
X194766107Y-48677321D01*
X194823189Y-48646684D01*
X194880440Y-48619819D01*
X194933304Y-48598955D01*
X194952194Y-48592792D01*
X195006584Y-48576372D01*
X195006584Y-48434867D01*
X195006790Y-48383143D01*
X195007565Y-48342465D01*
X195009144Y-48309770D01*
X195011758Y-48281996D01*
X195015643Y-48256083D01*
X195021033Y-48228967D01*
X195022982Y-48220121D01*
X195056241Y-48101052D01*
X195100807Y-47989552D01*
X195156262Y-47886173D01*
X195222189Y-47791466D01*
X195298170Y-47705979D01*
X195383787Y-47630265D01*
X195478623Y-47564873D01*
X195549953Y-47525692D01*
X195640992Y-47486361D01*
X195733206Y-47458772D01*
X195829514Y-47442264D01*
X195932836Y-47436174D01*
X195945117Y-47436111D01*
X196046979Y-47441124D01*
X196142166Y-47456717D01*
X196234208Y-47483721D01*
X196326634Y-47522969D01*
X196338461Y-47528813D01*
X196407394Y-47563382D01*
X196460665Y-47516923D01*
X196551393Y-47446653D01*
X196647355Y-47389458D01*
X196748315Y-47345427D01*
X196854040Y-47314648D01*
X196964294Y-47297209D01*
X197052695Y-47292927D01*
X197147657Y-47296563D01*
G37*
X197147657Y-47296563D02*
X197235166Y-47308608D01*
X197319719Y-47329970D01*
X197405816Y-47361560D01*
X197418048Y-47366763D01*
X197513863Y-47415643D01*
X197604463Y-47476762D01*
X197688455Y-47548776D01*
X197764442Y-47630339D01*
X197831029Y-47720106D01*
X197886823Y-47816732D01*
X197888770Y-47820639D01*
X197929716Y-47911128D01*
X197960259Y-47997613D01*
X197981490Y-48084278D01*
X197994500Y-48175306D01*
X197999328Y-48244491D01*
X198000284Y-48333104D01*
X197994466Y-48414691D01*
X197981326Y-48494891D01*
X197970352Y-48542132D01*
X197953728Y-48607459D01*
X198024442Y-48643782D01*
X198123059Y-48702222D01*
X198213106Y-48771509D01*
X198294057Y-48850900D01*
X198365389Y-48939650D01*
X198426574Y-49037012D01*
X198477090Y-49142243D01*
X198516411Y-49254598D01*
X198544011Y-49373331D01*
X198545758Y-49383445D01*
X198551639Y-49433383D01*
X198554607Y-49492655D01*
X198554747Y-49556806D01*
X198552147Y-49621381D01*
X198546890Y-49681925D01*
X198539064Y-49733983D01*
X198539001Y-49734302D01*
X198508903Y-49853481D01*
X198466790Y-49965442D01*
X198412303Y-50070928D01*
X198345081Y-50170679D01*
X198298638Y-50227908D01*
X198248632Y-50285676D01*
X198290865Y-50344324D01*
X198353999Y-50443834D01*
X198404873Y-50549253D01*
X198443395Y-50659348D01*
X198469476Y-50772885D01*
X198483024Y-50888628D01*
X198483948Y-51005346D01*
X198472157Y-51121802D01*
X198447561Y-51236764D01*
X198410068Y-51348997D01*
X198371215Y-51435028D01*
X198313596Y-51533972D01*
X198245650Y-51624913D01*
X198168485Y-51706891D01*
X198083209Y-51778945D01*
X197990930Y-51840117D01*
X197892756Y-51889447D01*
X197812124Y-51919298D01*
X197743504Y-51938220D01*
X197677278Y-51950513D01*
X197608420Y-51956840D01*
X197531904Y-51957860D01*
X197520860Y-51957631D01*
X197417525Y-51955134D01*
X197408853Y-51993970D01*
X197377998Y-52100581D01*
X197334079Y-52204383D01*
X197278108Y-52303561D01*
X197211098Y-52396302D01*
X197141164Y-52473784D01*
X197054667Y-52551363D01*
X196963883Y-52615734D01*
X196867922Y-52667386D01*
X196765892Y-52706810D01*
X196671695Y-52731500D01*
X196644957Y-52735773D01*
X196609239Y-52739617D01*
X196568036Y-52742856D01*
X196524842Y-52745312D01*
X196483149Y-52746806D01*
X196446453Y-52747161D01*
X196418247Y-52746200D01*
X196407111Y-52744962D01*
X196391234Y-52742339D01*
X196366804Y-52738379D01*
X196340084Y-52734094D01*
X196257629Y-52715556D01*
X196172181Y-52686432D01*
X196087782Y-52648365D01*
X196008476Y-52603000D01*
X195993354Y-52593043D01*
X195904629Y-52524814D01*
X195823870Y-52445759D01*
X195752068Y-52357319D01*
X195690216Y-52260935D01*
X195639305Y-52158050D01*
X195600329Y-52050105D01*
X195587784Y-52003720D01*
X195572501Y-51941084D01*
X195480042Y-51940687D01*
X195372222Y-51933337D01*
X195267136Y-51912688D01*
X195165709Y-51879433D01*
X195068868Y-51834267D01*
X194977538Y-51777885D01*
X194892645Y-51710980D01*
X194815115Y-51634249D01*
X194745874Y-51548384D01*
X194685848Y-51454082D01*
X194635962Y-51352037D01*
X194612010Y-51289487D01*
X194592202Y-51228764D01*
X194577447Y-51174304D01*
X194567092Y-51122040D01*
X194560488Y-51067905D01*
X194556982Y-51007833D01*
X194555924Y-50939195D01*
X194556149Y-50887107D01*
X194557112Y-50845908D01*
X194559048Y-50812384D01*
X194562195Y-50783322D01*
X194566785Y-50755507D01*
X194570831Y-50735765D01*
X194593003Y-50647238D01*
X194619776Y-50566993D01*
X194653088Y-50489456D01*
X194664820Y-50465544D01*
X194704400Y-50387004D01*
X194684247Y-50375099D01*
X194663988Y-50360464D01*
X194637172Y-50337277D01*
X194606162Y-50307919D01*
X194573321Y-50274775D01*
X194541011Y-50240225D01*
X194511594Y-50206653D01*
X194488103Y-50177332D01*
X194426857Y-50085104D01*
X194374437Y-49983952D01*
X194332233Y-49876940D01*
X194301636Y-49767137D01*
X194301045Y-49764445D01*
X194296236Y-49735188D01*
X194291915Y-49695100D01*
X194288370Y-49647455D01*
X194285886Y-49595533D01*
X194285637Y-49588056D01*
X194284723Y-49551799D01*
X194362707Y-49551799D01*
X194363974Y-49609365D01*
X194367048Y-49664682D01*
X194371843Y-49713858D01*
X194378271Y-49753002D01*
X194378461Y-49753861D01*
X194410058Y-49864949D01*
X194453638Y-49970545D01*
X194508439Y-50069456D01*
X194573702Y-50160488D01*
X194648666Y-50242448D01*
X194732572Y-50314141D01*
X194737572Y-50317867D01*
X194761347Y-50336541D01*
X194780613Y-50353711D01*
X194792510Y-50366735D01*
X194794751Y-50370701D01*
X194793279Y-50385636D01*
X194782642Y-50411012D01*
X194766685Y-50440317D01*
X194712085Y-50547578D01*
X194671203Y-50657559D01*
X194644109Y-50769761D01*
X194630873Y-50883683D01*
X194631565Y-50998827D01*
X194646255Y-51114692D01*
X194662274Y-51186104D01*
X194696697Y-51294264D01*
X194741354Y-51393443D01*
X194797184Y-51485278D01*
X194865124Y-51571404D01*
X194911121Y-51620056D01*
X194992416Y-51692538D01*
X195077860Y-51751939D01*
X195168918Y-51799032D01*
X195267056Y-51834590D01*
X195360250Y-51856917D01*
X195393677Y-51862279D01*
X195427120Y-51865281D01*
X195464970Y-51866134D01*
X195511617Y-51865048D01*
X195521679Y-51864646D01*
X195558129Y-51863531D01*
X195589871Y-51863330D01*
X195614069Y-51864004D01*
X195627885Y-51865514D01*
X195629606Y-51866138D01*
X195634846Y-51875115D01*
X195641520Y-51894670D01*
X195648589Y-51921489D01*
X195652568Y-51939580D01*
X195681887Y-52050514D01*
X195722818Y-52155005D01*
X195774627Y-52252280D01*
X195836578Y-52341569D01*
X195907936Y-52422100D01*
X195987966Y-52493099D01*
X196075934Y-52553796D01*
X196171103Y-52603418D01*
X196272739Y-52641194D01*
X196336556Y-52657860D01*
X196387357Y-52665764D01*
X196447401Y-52669751D01*
X196512408Y-52669944D01*
X196578099Y-52666463D01*
X196640195Y-52659430D01*
X196694418Y-52648966D01*
X196699917Y-52647558D01*
X196799117Y-52614222D01*
X196893157Y-52568404D01*
X196981148Y-52511069D01*
X197062202Y-52443184D01*
X197135432Y-52365716D01*
X197199951Y-52279631D01*
X197254869Y-52185894D01*
X197299299Y-52085473D01*
X197332354Y-51979333D01*
X197338655Y-51952389D01*
X197345783Y-51924008D01*
X197353428Y-51900252D01*
X197360255Y-51885093D01*
X197362094Y-51882660D01*
X197368084Y-51878447D01*
X197377393Y-51876098D01*
X197392503Y-51875576D01*
X197415894Y-51876842D01*
X197450049Y-51879860D01*
X197463106Y-51881135D01*
X197570464Y-51884927D01*
X197675151Y-51874988D01*
X197776596Y-51851540D01*
X197874228Y-51814806D01*
X197967473Y-51765009D01*
X198055760Y-51702373D01*
X198138517Y-51627120D01*
X198152519Y-51612530D01*
X198224013Y-51526435D01*
X198284157Y-51432847D01*
X198332701Y-51332990D01*
X198369392Y-51228084D01*
X198393981Y-51119352D01*
X198406217Y-51008017D01*
X198405848Y-50895299D01*
X198392624Y-50782422D01*
X198366293Y-50670608D01*
X198353891Y-50631822D01*
X198333257Y-50579533D01*
X198306148Y-50522569D01*
X198274722Y-50464719D01*
X198241138Y-50409769D01*
X198207555Y-50361507D01*
X198181724Y-50329793D01*
X198165984Y-50311446D01*
X198156682Y-50296590D01*
X198154428Y-50282776D01*
X198159835Y-50267555D01*
X198173510Y-50248478D01*
X198196066Y-50223096D01*
X198212759Y-50205261D01*
X198287793Y-50116448D01*
X198350106Y-50022571D01*
X198400319Y-49922437D01*
X198439050Y-49814856D01*
X198461274Y-49726968D01*
X198471181Y-49663313D01*
X198476458Y-49591285D01*
X198477110Y-49515837D01*
X198473143Y-49441925D01*
X198464562Y-49374503D01*
X198460867Y-49355222D01*
X198431289Y-49242819D01*
X198391584Y-49139637D01*
X198341091Y-49044433D01*
X198279147Y-48955961D01*
X198205090Y-48872977D01*
X198203407Y-48871291D01*
X198160025Y-48829534D01*
X198120043Y-48795111D01*
X198079690Y-48765343D01*
X198035197Y-48737551D01*
X197982793Y-48709056D01*
X197956061Y-48695506D01*
X197921934Y-48678383D01*
X197898464Y-48665980D01*
X197883673Y-48656727D01*
X197875586Y-48649054D01*
X197872228Y-48641392D01*
X197871621Y-48632170D01*
X197871689Y-48628479D01*
X197873778Y-48610939D01*
X197878931Y-48584261D01*
X197886243Y-48552852D01*
X197890764Y-48535504D01*
X197908525Y-48459718D01*
X197919049Y-48387617D01*
X197922979Y-48313250D01*
X197921777Y-48247500D01*
X197910215Y-48133996D01*
X197885987Y-48024353D01*
X197849723Y-47919586D01*
X197802057Y-47820709D01*
X197743618Y-47728736D01*
X197675038Y-47644682D01*
X197596949Y-47569560D01*
X197509982Y-47504383D01*
X197430167Y-47457877D01*
X197331332Y-47414722D01*
X197230395Y-47385200D01*
X197128293Y-47369169D01*
X197025964Y-47366482D01*
X196924346Y-47376996D01*
X196824378Y-47400564D01*
X196726995Y-47437042D01*
X196633138Y-47486284D01*
X196543743Y-47548147D01*
X196477667Y-47605114D01*
X196452260Y-47628607D01*
X196434054Y-47643249D01*
X196420259Y-47650151D01*
X196408085Y-47650427D01*
X196394741Y-47645188D01*
X196387288Y-47641146D01*
X196292089Y-47591782D01*
X196202272Y-47554141D01*
X196116005Y-47527814D01*
X196031459Y-47512395D01*
X195946803Y-47507477D01*
X195860207Y-47512652D01*
X195828526Y-47516859D01*
X195725115Y-47539433D01*
X195626102Y-47574853D01*
X195532424Y-47622282D01*
X195445017Y-47680887D01*
X195364816Y-47749832D01*
X195292758Y-47828283D01*
X195229777Y-47915405D01*
X195176810Y-48010364D01*
X195134792Y-48112324D01*
X195124145Y-48145195D01*
X195113835Y-48180434D01*
X195104076Y-48216024D01*
X195096353Y-48246453D01*
X195093704Y-48258084D01*
X195090583Y-48280553D01*
X195088044Y-48313939D01*
X195086133Y-48355056D01*
X195084892Y-48400719D01*
X195084368Y-48447743D01*
X195084604Y-48492943D01*
X195085644Y-48533134D01*
X195087533Y-48565132D01*
X195089217Y-48579895D01*
X195090744Y-48608350D01*
X195085689Y-48623823D01*
X195075403Y-48630715D01*
X195055011Y-48639635D01*
X195028080Y-48649111D01*
X195013639Y-48653496D01*
X194926472Y-48683001D01*
X194846744Y-48719876D01*
X194769227Y-48766400D01*
X194681960Y-48832867D01*
X194603716Y-48909694D01*
X194535096Y-48995919D01*
X194476700Y-49090581D01*
X194429130Y-49192716D01*
X194392986Y-49301362D01*
X194370623Y-49404527D01*
X194365944Y-49445489D01*
X194363334Y-49495877D01*
X194362707Y-49551799D01*
X194284723Y-49551799D01*
X194284377Y-49538089D01*
X194284266Y-49498287D01*
X194285503Y-49464733D01*
X194288287Y-49433514D01*
X194292818Y-49400715D01*
X194296241Y-49379917D01*
X194320816Y-49268229D01*
X194355469Y-49164395D01*
X194401444Y-49065267D01*
X194457645Y-48971219D01*
X194490541Y-48926175D01*
X194531194Y-48877723D01*
X194576616Y-48828919D01*
X194623816Y-48782818D01*
X194669804Y-48742475D01*
X194711591Y-48710946D01*
X194713750Y-48709500D01*
X194766107Y-48677321D01*
X194823189Y-48646684D01*
X194880440Y-48619819D01*
X194933304Y-48598955D01*
X194952194Y-48592792D01*
X195006584Y-48576372D01*
X195006584Y-48434867D01*
X195006790Y-48383143D01*
X195007565Y-48342465D01*
X195009144Y-48309770D01*
X195011758Y-48281996D01*
X195015643Y-48256083D01*
X195021033Y-48228967D01*
X195022982Y-48220121D01*
X195056241Y-48101052D01*
X195100807Y-47989552D01*
X195156262Y-47886173D01*
X195222189Y-47791466D01*
X195298170Y-47705979D01*
X195383787Y-47630265D01*
X195478623Y-47564873D01*
X195549953Y-47525692D01*
X195640992Y-47486361D01*
X195733206Y-47458772D01*
X195829514Y-47442264D01*
X195932836Y-47436174D01*
X195945117Y-47436111D01*
X196046979Y-47441124D01*
X196142166Y-47456717D01*
X196234208Y-47483721D01*
X196326634Y-47522969D01*
X196338461Y-47528813D01*
X196407394Y-47563382D01*
X196460665Y-47516923D01*
X196551393Y-47446653D01*
X196647355Y-47389458D01*
X196748315Y-47345427D01*
X196854040Y-47314648D01*
X196964294Y-47297209D01*
X197052695Y-47292927D01*
X197147657Y-47296563D01*
G36*
X196296652Y-51519407D02*
G01*
X196304861Y-51528948D01*
X196309759Y-51549049D01*
X196311617Y-51560917D01*
X196312822Y-51608345D01*
X196301261Y-51649787D01*
X196276870Y-51685372D01*
X196239588Y-51715232D01*
X196236825Y-51716913D01*
X196202454Y-51734861D01*
X196156292Y-51754892D01*
X196100369Y-51776241D01*
X196036716Y-51798142D01*
X195967361Y-51819830D01*
X195951605Y-51824478D01*
X195915566Y-51835011D01*
X195883671Y-51844365D01*
X195858713Y-51851719D01*
X195843487Y-51856248D01*
X195840903Y-51857037D01*
X195834549Y-51857561D01*
X195830829Y-51852423D01*
X195829062Y-51838964D01*
X195828563Y-51814524D01*
X195828556Y-51808951D01*
X195828556Y-51757007D01*
X195887018Y-51744856D01*
X195924194Y-51736619D01*
X195966020Y-51726587D01*
X196003592Y-51716897D01*
X196004412Y-51716674D01*
X196063344Y-51700643D01*
X195995433Y-51677234D01*
X195959858Y-51665446D01*
X195922826Y-51653946D01*
X195890436Y-51644605D01*
X195879802Y-51641805D01*
X195832084Y-51629785D01*
X195830011Y-51579059D01*
X195829506Y-51551573D01*
X195831022Y-51535688D01*
X195834921Y-51528992D01*
X195837665Y-51528334D01*
X195851797Y-51530782D01*
X195876384Y-51537519D01*
X195908762Y-51547633D01*
X195946267Y-51560211D01*
X195986237Y-51574340D01*
X196026009Y-51589109D01*
X196062918Y-51603605D01*
X196087546Y-51613935D01*
X196120818Y-51627677D01*
X196149264Y-51638012D01*
X196170191Y-51644042D01*
X196180619Y-51644977D01*
X196198597Y-51634153D01*
X196214790Y-51616372D01*
X196224617Y-51597153D01*
X196225729Y-51590621D01*
X196224525Y-51571572D01*
X196221157Y-51552305D01*
X196215947Y-51530415D01*
X196256413Y-51522288D01*
X196281660Y-51517997D01*
X196296652Y-51519407D01*
G37*
X196296652Y-51519407D02*
X196304861Y-51528948D01*
X196309759Y-51549049D01*
X196311617Y-51560917D01*
X196312822Y-51608345D01*
X196301261Y-51649787D01*
X196276870Y-51685372D01*
X196239588Y-51715232D01*
X196236825Y-51716913D01*
X196202454Y-51734861D01*
X196156292Y-51754892D01*
X196100369Y-51776241D01*
X196036716Y-51798142D01*
X195967361Y-51819830D01*
X195951605Y-51824478D01*
X195915566Y-51835011D01*
X195883671Y-51844365D01*
X195858713Y-51851719D01*
X195843487Y-51856248D01*
X195840903Y-51857037D01*
X195834549Y-51857561D01*
X195830829Y-51852423D01*
X195829062Y-51838964D01*
X195828563Y-51814524D01*
X195828556Y-51808951D01*
X195828556Y-51757007D01*
X195887018Y-51744856D01*
X195924194Y-51736619D01*
X195966020Y-51726587D01*
X196003592Y-51716897D01*
X196004412Y-51716674D01*
X196063344Y-51700643D01*
X195995433Y-51677234D01*
X195959858Y-51665446D01*
X195922826Y-51653946D01*
X195890436Y-51644605D01*
X195879802Y-51641805D01*
X195832084Y-51629785D01*
X195830011Y-51579059D01*
X195829506Y-51551573D01*
X195831022Y-51535688D01*
X195834921Y-51528992D01*
X195837665Y-51528334D01*
X195851797Y-51530782D01*
X195876384Y-51537519D01*
X195908762Y-51547633D01*
X195946267Y-51560211D01*
X195986237Y-51574340D01*
X196026009Y-51589109D01*
X196062918Y-51603605D01*
X196087546Y-51613935D01*
X196120818Y-51627677D01*
X196149264Y-51638012D01*
X196170191Y-51644042D01*
X196180619Y-51644977D01*
X196198597Y-51634153D01*
X196214790Y-51616372D01*
X196224617Y-51597153D01*
X196225729Y-51590621D01*
X196224525Y-51571572D01*
X196221157Y-51552305D01*
X196215947Y-51530415D01*
X196256413Y-51522288D01*
X196281660Y-51517997D01*
X196296652Y-51519407D01*
G36*
X196588792Y-51127675D02*
G01*
X196657584Y-51129695D01*
X196659573Y-51208518D01*
X196661563Y-51287342D01*
X196948851Y-51290138D01*
X197021687Y-51290906D01*
X197081854Y-51291706D01*
X197130796Y-51292605D01*
X197169955Y-51293673D01*
X197200773Y-51294977D01*
X197224694Y-51296586D01*
X197243159Y-51298567D01*
X197257613Y-51300989D01*
X197269497Y-51303919D01*
X197274746Y-51305538D01*
X197324810Y-51327328D01*
X197362763Y-51356004D01*
X197388431Y-51391430D01*
X197388900Y-51392373D01*
X197395967Y-51408152D01*
X197400676Y-51423631D01*
X197403472Y-51442166D01*
X197404799Y-51467116D01*
X197405104Y-51501838D01*
X197405065Y-51514222D01*
X197404379Y-51555756D01*
X197402500Y-51586630D01*
X197399032Y-51610273D01*
X197393578Y-51630113D01*
X197390774Y-51637695D01*
X197382508Y-51656400D01*
X197373480Y-51667987D01*
X197360657Y-51673482D01*
X197341007Y-51673908D01*
X197311496Y-51670289D01*
X197299639Y-51668470D01*
X197270601Y-51663826D01*
X197253349Y-51659466D01*
X197245803Y-51653042D01*
X197245885Y-51642204D01*
X197251518Y-51624602D01*
X197254180Y-51617080D01*
X197262190Y-51586970D01*
X197267128Y-51554307D01*
X197267889Y-51539487D01*
X197263308Y-51504276D01*
X197249084Y-51479014D01*
X197224496Y-51462714D01*
X197207917Y-51457577D01*
X197195200Y-51456243D01*
X197169917Y-51454993D01*
X197133609Y-51453857D01*
X197087821Y-51452864D01*
X197034095Y-51452041D01*
X196973977Y-51451419D01*
X196909009Y-51451025D01*
X196849847Y-51450891D01*
X196520000Y-51450722D01*
X196520000Y-51125656D01*
X196588792Y-51127675D01*
G37*
X196588792Y-51127675D02*
X196657584Y-51129695D01*
X196659573Y-51208518D01*
X196661563Y-51287342D01*
X196948851Y-51290138D01*
X197021687Y-51290906D01*
X197081854Y-51291706D01*
X197130796Y-51292605D01*
X197169955Y-51293673D01*
X197200773Y-51294977D01*
X197224694Y-51296586D01*
X197243159Y-51298567D01*
X197257613Y-51300989D01*
X197269497Y-51303919D01*
X197274746Y-51305538D01*
X197324810Y-51327328D01*
X197362763Y-51356004D01*
X197388431Y-51391430D01*
X197388900Y-51392373D01*
X197395967Y-51408152D01*
X197400676Y-51423631D01*
X197403472Y-51442166D01*
X197404799Y-51467116D01*
X197405104Y-51501838D01*
X197405065Y-51514222D01*
X197404379Y-51555756D01*
X197402500Y-51586630D01*
X197399032Y-51610273D01*
X197393578Y-51630113D01*
X197390774Y-51637695D01*
X197382508Y-51656400D01*
X197373480Y-51667987D01*
X197360657Y-51673482D01*
X197341007Y-51673908D01*
X197311496Y-51670289D01*
X197299639Y-51668470D01*
X197270601Y-51663826D01*
X197253349Y-51659466D01*
X197245803Y-51653042D01*
X197245885Y-51642204D01*
X197251518Y-51624602D01*
X197254180Y-51617080D01*
X197262190Y-51586970D01*
X197267128Y-51554307D01*
X197267889Y-51539487D01*
X197263308Y-51504276D01*
X197249084Y-51479014D01*
X197224496Y-51462714D01*
X197207917Y-51457577D01*
X197195200Y-51456243D01*
X197169917Y-51454993D01*
X197133609Y-51453857D01*
X197087821Y-51452864D01*
X197034095Y-51452041D01*
X196973977Y-51451419D01*
X196909009Y-51451025D01*
X196849847Y-51450891D01*
X196520000Y-51450722D01*
X196520000Y-51125656D01*
X196588792Y-51127675D01*
G36*
X195929254Y-51170174D02*
G01*
X196177806Y-51172028D01*
X196186799Y-51214361D01*
X196190945Y-51243066D01*
X196193321Y-51278401D01*
X196193439Y-51312945D01*
X196193379Y-51314462D01*
X196191312Y-51346123D01*
X196187396Y-51368846D01*
X196180317Y-51387796D01*
X196170039Y-51406076D01*
X196142575Y-51437636D01*
X196105319Y-51461484D01*
X196060780Y-51476822D01*
X196011466Y-51482854D01*
X195959886Y-51478783D01*
X195948500Y-51476456D01*
X195902757Y-51462402D01*
X195868720Y-51443073D01*
X195844504Y-51416995D01*
X195828226Y-51382695D01*
X195828090Y-51382282D01*
X195823725Y-51356549D01*
X195823827Y-51324729D01*
X195824045Y-51323161D01*
X195908342Y-51323161D01*
X195915912Y-51347991D01*
X195935341Y-51366108D01*
X195966094Y-51376982D01*
X196002128Y-51380140D01*
X196029376Y-51378919D01*
X196054146Y-51375744D01*
X196066482Y-51372738D01*
X196088007Y-51358363D01*
X196103283Y-51334765D01*
X196109871Y-51306309D01*
X196109626Y-51295500D01*
X196107250Y-51270806D01*
X196014377Y-51268841D01*
X195921505Y-51266877D01*
X195913165Y-51292147D01*
X195908342Y-51323161D01*
X195824045Y-51323161D01*
X195828098Y-51294017D01*
X195832337Y-51279625D01*
X195833276Y-51274497D01*
X195829974Y-51271019D01*
X195820296Y-51268876D01*
X195802107Y-51267751D01*
X195773271Y-51267327D01*
X195749027Y-51267278D01*
X195660933Y-51267278D01*
X195667451Y-51233764D01*
X195672100Y-51210138D01*
X195676165Y-51189937D01*
X195677336Y-51184285D01*
X195680703Y-51168320D01*
X195929254Y-51170174D01*
G37*
X195929254Y-51170174D02*
X196177806Y-51172028D01*
X196186799Y-51214361D01*
X196190945Y-51243066D01*
X196193321Y-51278401D01*
X196193439Y-51312945D01*
X196193379Y-51314462D01*
X196191312Y-51346123D01*
X196187396Y-51368846D01*
X196180317Y-51387796D01*
X196170039Y-51406076D01*
X196142575Y-51437636D01*
X196105319Y-51461484D01*
X196060780Y-51476822D01*
X196011466Y-51482854D01*
X195959886Y-51478783D01*
X195948500Y-51476456D01*
X195902757Y-51462402D01*
X195868720Y-51443073D01*
X195844504Y-51416995D01*
X195828226Y-51382695D01*
X195828090Y-51382282D01*
X195823725Y-51356549D01*
X195823827Y-51324729D01*
X195824045Y-51323161D01*
X195908342Y-51323161D01*
X195915912Y-51347991D01*
X195935341Y-51366108D01*
X195966094Y-51376982D01*
X196002128Y-51380140D01*
X196029376Y-51378919D01*
X196054146Y-51375744D01*
X196066482Y-51372738D01*
X196088007Y-51358363D01*
X196103283Y-51334765D01*
X196109871Y-51306309D01*
X196109626Y-51295500D01*
X196107250Y-51270806D01*
X196014377Y-51268841D01*
X195921505Y-51266877D01*
X195913165Y-51292147D01*
X195908342Y-51323161D01*
X195824045Y-51323161D01*
X195828098Y-51294017D01*
X195832337Y-51279625D01*
X195833276Y-51274497D01*
X195829974Y-51271019D01*
X195820296Y-51268876D01*
X195802107Y-51267751D01*
X195773271Y-51267327D01*
X195749027Y-51267278D01*
X195660933Y-51267278D01*
X195667451Y-51233764D01*
X195672100Y-51210138D01*
X195676165Y-51189937D01*
X195677336Y-51184285D01*
X195680703Y-51168320D01*
X195929254Y-51170174D01*
G36*
X197278817Y-50513156D02*
G01*
X197313385Y-50528186D01*
X197346393Y-50553893D01*
X197374218Y-50586995D01*
X197388582Y-50612609D01*
X197394799Y-50627349D01*
X197399269Y-50641482D01*
X197402279Y-50657677D01*
X197404114Y-50678604D01*
X197405060Y-50706930D01*
X197405405Y-50745326D01*
X197405440Y-50769861D01*
X197404854Y-50815391D01*
X197403216Y-50861418D01*
X197400746Y-50903779D01*
X197397660Y-50938312D01*
X197395924Y-50951542D01*
X197386376Y-51013278D01*
X197180730Y-51012678D01*
X197104569Y-51012108D01*
X197042422Y-51010880D01*
X196994208Y-51008991D01*
X196959847Y-51006439D01*
X196939806Y-51003360D01*
X196891559Y-50986626D01*
X196853882Y-50961998D01*
X196824681Y-50927625D01*
X196801861Y-50881659D01*
X196801824Y-50881565D01*
X196794516Y-50860203D01*
X196789706Y-50838543D01*
X196786881Y-50812684D01*
X196785527Y-50778728D01*
X196785226Y-50755750D01*
X196786072Y-50710972D01*
X196789028Y-50667328D01*
X196793710Y-50627848D01*
X196799734Y-50595560D01*
X196806718Y-50573496D01*
X196808797Y-50569557D01*
X196814426Y-50565821D01*
X196826340Y-50564727D01*
X196846349Y-50566439D01*
X196876265Y-50571123D01*
X196917899Y-50578942D01*
X196922925Y-50579933D01*
X196941323Y-50583569D01*
X196931855Y-50623798D01*
X196925616Y-50660259D01*
X196922552Y-50700293D01*
X196922604Y-50739890D01*
X196925715Y-50775040D01*
X196931826Y-50801733D01*
X196934525Y-50808068D01*
X196952482Y-50830648D01*
X196978169Y-50848311D01*
X197005939Y-50857496D01*
X197013779Y-50858065D01*
X197031528Y-50858075D01*
X197029465Y-50783836D01*
X197141304Y-50783836D01*
X197141750Y-50816600D01*
X197145236Y-50841801D01*
X197145336Y-50842181D01*
X197148300Y-50849780D01*
X197154166Y-50854469D01*
X197165862Y-50856946D01*
X197186317Y-50857908D01*
X197211948Y-50858056D01*
X197274305Y-50858056D01*
X197279095Y-50832525D01*
X197281017Y-50811420D01*
X197281007Y-50783413D01*
X197279684Y-50762008D01*
X197273402Y-50721701D01*
X197262627Y-50693649D01*
X197246324Y-50676426D01*
X197223457Y-50668607D01*
X197211251Y-50667780D01*
X197182965Y-50672421D01*
X197163072Y-50687669D01*
X197150258Y-50714621D01*
X197148839Y-50719842D01*
X197143725Y-50749564D01*
X197141304Y-50783836D01*
X197029465Y-50783836D01*
X197029166Y-50773104D01*
X197028512Y-50732985D01*
X197029407Y-50702591D01*
X197032267Y-50677583D01*
X197037506Y-50653619D01*
X197042165Y-50637275D01*
X197063151Y-50588858D01*
X197093144Y-50550920D01*
X197131153Y-50523979D01*
X197176188Y-50508555D01*
X197227256Y-50505169D01*
X197278817Y-50513156D01*
G37*
X197278817Y-50513156D02*
X197313385Y-50528186D01*
X197346393Y-50553893D01*
X197374218Y-50586995D01*
X197388582Y-50612609D01*
X197394799Y-50627349D01*
X197399269Y-50641482D01*
X197402279Y-50657677D01*
X197404114Y-50678604D01*
X197405060Y-50706930D01*
X197405405Y-50745326D01*
X197405440Y-50769861D01*
X197404854Y-50815391D01*
X197403216Y-50861418D01*
X197400746Y-50903779D01*
X197397660Y-50938312D01*
X197395924Y-50951542D01*
X197386376Y-51013278D01*
X197180730Y-51012678D01*
X197104569Y-51012108D01*
X197042422Y-51010880D01*
X196994208Y-51008991D01*
X196959847Y-51006439D01*
X196939806Y-51003360D01*
X196891559Y-50986626D01*
X196853882Y-50961998D01*
X196824681Y-50927625D01*
X196801861Y-50881659D01*
X196801824Y-50881565D01*
X196794516Y-50860203D01*
X196789706Y-50838543D01*
X196786881Y-50812684D01*
X196785527Y-50778728D01*
X196785226Y-50755750D01*
X196786072Y-50710972D01*
X196789028Y-50667328D01*
X196793710Y-50627848D01*
X196799734Y-50595560D01*
X196806718Y-50573496D01*
X196808797Y-50569557D01*
X196814426Y-50565821D01*
X196826340Y-50564727D01*
X196846349Y-50566439D01*
X196876265Y-50571123D01*
X196917899Y-50578942D01*
X196922925Y-50579933D01*
X196941323Y-50583569D01*
X196931855Y-50623798D01*
X196925616Y-50660259D01*
X196922552Y-50700293D01*
X196922604Y-50739890D01*
X196925715Y-50775040D01*
X196931826Y-50801733D01*
X196934525Y-50808068D01*
X196952482Y-50830648D01*
X196978169Y-50848311D01*
X197005939Y-50857496D01*
X197013779Y-50858065D01*
X197031528Y-50858075D01*
X197029465Y-50783836D01*
X197141304Y-50783836D01*
X197141750Y-50816600D01*
X197145236Y-50841801D01*
X197145336Y-50842181D01*
X197148300Y-50849780D01*
X197154166Y-50854469D01*
X197165862Y-50856946D01*
X197186317Y-50857908D01*
X197211948Y-50858056D01*
X197274305Y-50858056D01*
X197279095Y-50832525D01*
X197281017Y-50811420D01*
X197281007Y-50783413D01*
X197279684Y-50762008D01*
X197273402Y-50721701D01*
X197262627Y-50693649D01*
X197246324Y-50676426D01*
X197223457Y-50668607D01*
X197211251Y-50667780D01*
X197182965Y-50672421D01*
X197163072Y-50687669D01*
X197150258Y-50714621D01*
X197148839Y-50719842D01*
X197143725Y-50749564D01*
X197141304Y-50783836D01*
X197029465Y-50783836D01*
X197029166Y-50773104D01*
X197028512Y-50732985D01*
X197029407Y-50702591D01*
X197032267Y-50677583D01*
X197037506Y-50653619D01*
X197042165Y-50637275D01*
X197063151Y-50588858D01*
X197093144Y-50550920D01*
X197131153Y-50523979D01*
X197176188Y-50508555D01*
X197227256Y-50505169D01*
X197278817Y-50513156D01*
G36*
X196043063Y-50403412D02*
G01*
X196067571Y-50405206D01*
X196086383Y-50409073D01*
X196103702Y-50415727D01*
X196114431Y-50420998D01*
X196149925Y-50446763D01*
X196175245Y-50482214D01*
X196190347Y-50527213D01*
X196195187Y-50581621D01*
X196189719Y-50645300D01*
X196188607Y-50652152D01*
X196180059Y-50702834D01*
X195660933Y-50702834D01*
X195667451Y-50669320D01*
X195672726Y-50640829D01*
X195677154Y-50622027D01*
X195683480Y-50610928D01*
X195694445Y-50605545D01*
X195712795Y-50603890D01*
X195741271Y-50603977D01*
X195757566Y-50604056D01*
X195834474Y-50604056D01*
X195827236Y-50577843D01*
X195824237Y-50557831D01*
X195908737Y-50557831D01*
X195912410Y-50584258D01*
X195912756Y-50585191D01*
X195919929Y-50604056D01*
X196110778Y-50604056D01*
X196110778Y-50576785D01*
X196104563Y-50545719D01*
X196086510Y-50521842D01*
X196057506Y-50506249D01*
X196052191Y-50504671D01*
X196022824Y-50500233D01*
X195989741Y-50500488D01*
X195958410Y-50504963D01*
X195934299Y-50513185D01*
X195930928Y-50515169D01*
X195915349Y-50533110D01*
X195908737Y-50557831D01*
X195824237Y-50557831D01*
X195823570Y-50553387D01*
X195823657Y-50526044D01*
X195824268Y-50520483D01*
X195834487Y-50482394D01*
X195854511Y-50452621D01*
X195886076Y-50428852D01*
X195897713Y-50422715D01*
X195918195Y-50413398D01*
X195936500Y-50407555D01*
X195957057Y-50404400D01*
X195984297Y-50403144D01*
X196008661Y-50402972D01*
X196043063Y-50403412D01*
G37*
X196043063Y-50403412D02*
X196067571Y-50405206D01*
X196086383Y-50409073D01*
X196103702Y-50415727D01*
X196114431Y-50420998D01*
X196149925Y-50446763D01*
X196175245Y-50482214D01*
X196190347Y-50527213D01*
X196195187Y-50581621D01*
X196189719Y-50645300D01*
X196188607Y-50652152D01*
X196180059Y-50702834D01*
X195660933Y-50702834D01*
X195667451Y-50669320D01*
X195672726Y-50640829D01*
X195677154Y-50622027D01*
X195683480Y-50610928D01*
X195694445Y-50605545D01*
X195712795Y-50603890D01*
X195741271Y-50603977D01*
X195757566Y-50604056D01*
X195834474Y-50604056D01*
X195827236Y-50577843D01*
X195824237Y-50557831D01*
X195908737Y-50557831D01*
X195912410Y-50584258D01*
X195912756Y-50585191D01*
X195919929Y-50604056D01*
X196110778Y-50604056D01*
X196110778Y-50576785D01*
X196104563Y-50545719D01*
X196086510Y-50521842D01*
X196057506Y-50506249D01*
X196052191Y-50504671D01*
X196022824Y-50500233D01*
X195989741Y-50500488D01*
X195958410Y-50504963D01*
X195934299Y-50513185D01*
X195930928Y-50515169D01*
X195915349Y-50533110D01*
X195908737Y-50557831D01*
X195824237Y-50557831D01*
X195823570Y-50553387D01*
X195823657Y-50526044D01*
X195824268Y-50520483D01*
X195834487Y-50482394D01*
X195854511Y-50452621D01*
X195886076Y-50428852D01*
X195897713Y-50422715D01*
X195918195Y-50413398D01*
X195936500Y-50407555D01*
X195957057Y-50404400D01*
X195984297Y-50403144D01*
X196008661Y-50402972D01*
X196043063Y-50403412D01*
G36*
X197394889Y-49990222D02*
G01*
X196929222Y-49990222D01*
X196929222Y-50018263D01*
X196930786Y-50035318D01*
X196936638Y-50048026D01*
X196948514Y-50056998D01*
X196968153Y-50062848D01*
X196997293Y-50066186D01*
X197037673Y-50067626D01*
X197069983Y-50067834D01*
X197169111Y-50067834D01*
X197169111Y-50203184D01*
X197050931Y-50200947D01*
X196932750Y-50198710D01*
X196930601Y-50228107D01*
X196930558Y-50248221D01*
X196935875Y-50260516D01*
X196947912Y-50270266D01*
X196954633Y-50273931D01*
X196963471Y-50276865D01*
X196976033Y-50279170D01*
X196993924Y-50280948D01*
X197018752Y-50282304D01*
X197052123Y-50283339D01*
X197095644Y-50284156D01*
X197150920Y-50284857D01*
X197181130Y-50285173D01*
X197394889Y-50287319D01*
X197394889Y-50420611D01*
X197184986Y-50419650D01*
X197131134Y-50419322D01*
X197081200Y-50418862D01*
X197037116Y-50418300D01*
X197000812Y-50417666D01*
X196974220Y-50416991D01*
X196959271Y-50416303D01*
X196957445Y-50416114D01*
X196915064Y-50408834D01*
X196883531Y-50400502D01*
X196859584Y-50389966D01*
X196839959Y-50376073D01*
X196837176Y-50373618D01*
X196819287Y-50353911D01*
X196805387Y-50332391D01*
X196801734Y-50323881D01*
X196794581Y-50287394D01*
X196793880Y-50245720D01*
X196799362Y-50205367D01*
X196807769Y-50178963D01*
X196822134Y-50146487D01*
X196807432Y-50116771D01*
X196797241Y-50083832D01*
X196793304Y-50040036D01*
X196795634Y-49987184D01*
X196804242Y-49927072D01*
X196806081Y-49917513D01*
X196818265Y-49856167D01*
X197394889Y-49856167D01*
X197394889Y-49990222D01*
G37*
X197394889Y-49990222D02*
X196929222Y-49990222D01*
X196929222Y-50018263D01*
X196930786Y-50035318D01*
X196936638Y-50048026D01*
X196948514Y-50056998D01*
X196968153Y-50062848D01*
X196997293Y-50066186D01*
X197037673Y-50067626D01*
X197069983Y-50067834D01*
X197169111Y-50067834D01*
X197169111Y-50203184D01*
X197050931Y-50200947D01*
X196932750Y-50198710D01*
X196930601Y-50228107D01*
X196930558Y-50248221D01*
X196935875Y-50260516D01*
X196947912Y-50270266D01*
X196954633Y-50273931D01*
X196963471Y-50276865D01*
X196976033Y-50279170D01*
X196993924Y-50280948D01*
X197018752Y-50282304D01*
X197052123Y-50283339D01*
X197095644Y-50284156D01*
X197150920Y-50284857D01*
X197181130Y-50285173D01*
X197394889Y-50287319D01*
X197394889Y-50420611D01*
X197184986Y-50419650D01*
X197131134Y-50419322D01*
X197081200Y-50418862D01*
X197037116Y-50418300D01*
X197000812Y-50417666D01*
X196974220Y-50416991D01*
X196959271Y-50416303D01*
X196957445Y-50416114D01*
X196915064Y-50408834D01*
X196883531Y-50400502D01*
X196859584Y-50389966D01*
X196839959Y-50376073D01*
X196837176Y-50373618D01*
X196819287Y-50353911D01*
X196805387Y-50332391D01*
X196801734Y-50323881D01*
X196794581Y-50287394D01*
X196793880Y-50245720D01*
X196799362Y-50205367D01*
X196807769Y-50178963D01*
X196822134Y-50146487D01*
X196807432Y-50116771D01*
X196797241Y-50083832D01*
X196793304Y-50040036D01*
X196795634Y-49987184D01*
X196804242Y-49927072D01*
X196806081Y-49917513D01*
X196818265Y-49856167D01*
X197394889Y-49856167D01*
X197394889Y-49990222D01*
G36*
X196062620Y-50034578D02*
G01*
X196108090Y-50050558D01*
X196144440Y-50076971D01*
X196171227Y-50113306D01*
X196188010Y-50159050D01*
X196194345Y-50213690D01*
X196193480Y-50243871D01*
X196190567Y-50272936D01*
X196186487Y-50299014D01*
X196182096Y-50316702D01*
X196181857Y-50317339D01*
X196176780Y-50328606D01*
X196170172Y-50334105D01*
X196158007Y-50335101D01*
X196136257Y-50332863D01*
X196133580Y-50332533D01*
X196111594Y-50329636D01*
X196096351Y-50327295D01*
X196091768Y-50326249D01*
X196092641Y-50319327D01*
X196096268Y-50302504D01*
X196101414Y-50281236D01*
X196108839Y-50233557D01*
X196105382Y-50193432D01*
X196091147Y-50161581D01*
X196082494Y-50151353D01*
X196067989Y-50137709D01*
X196057231Y-50130718D01*
X196049665Y-50131598D01*
X196044736Y-50141567D01*
X196041890Y-50161847D01*
X196040571Y-50193654D01*
X196040225Y-50238208D01*
X196040222Y-50244222D01*
X196040222Y-50357111D01*
X195996125Y-50356639D01*
X195966273Y-50354732D01*
X195936714Y-50350334D01*
X195921173Y-50346544D01*
X195883209Y-50327691D01*
X195852921Y-50298454D01*
X195832013Y-50261235D01*
X195822187Y-50218433D01*
X195821655Y-50206235D01*
X195821991Y-50203341D01*
X195905620Y-50203341D01*
X195912936Y-50228220D01*
X195931486Y-50248303D01*
X195943764Y-50255104D01*
X195959186Y-50261685D01*
X195967577Y-50265025D01*
X195967903Y-50265113D01*
X195968661Y-50258693D01*
X195969255Y-50241209D01*
X195969606Y-50215711D01*
X195969667Y-50198361D01*
X195968878Y-50163237D01*
X195965918Y-50141200D01*
X195959893Y-50131284D01*
X195949912Y-50132523D01*
X195935081Y-50143951D01*
X195926791Y-50151957D01*
X195910063Y-50176857D01*
X195905620Y-50203341D01*
X195821991Y-50203341D01*
X195827539Y-50155618D01*
X195845061Y-50112304D01*
X195873298Y-50077166D01*
X195911328Y-50051077D01*
X195958228Y-50034908D01*
X196008472Y-50029545D01*
X196062620Y-50034578D01*
G37*
X196062620Y-50034578D02*
X196108090Y-50050558D01*
X196144440Y-50076971D01*
X196171227Y-50113306D01*
X196188010Y-50159050D01*
X196194345Y-50213690D01*
X196193480Y-50243871D01*
X196190567Y-50272936D01*
X196186487Y-50299014D01*
X196182096Y-50316702D01*
X196181857Y-50317339D01*
X196176780Y-50328606D01*
X196170172Y-50334105D01*
X196158007Y-50335101D01*
X196136257Y-50332863D01*
X196133580Y-50332533D01*
X196111594Y-50329636D01*
X196096351Y-50327295D01*
X196091768Y-50326249D01*
X196092641Y-50319327D01*
X196096268Y-50302504D01*
X196101414Y-50281236D01*
X196108839Y-50233557D01*
X196105382Y-50193432D01*
X196091147Y-50161581D01*
X196082494Y-50151353D01*
X196067989Y-50137709D01*
X196057231Y-50130718D01*
X196049665Y-50131598D01*
X196044736Y-50141567D01*
X196041890Y-50161847D01*
X196040571Y-50193654D01*
X196040225Y-50238208D01*
X196040222Y-50244222D01*
X196040222Y-50357111D01*
X195996125Y-50356639D01*
X195966273Y-50354732D01*
X195936714Y-50350334D01*
X195921173Y-50346544D01*
X195883209Y-50327691D01*
X195852921Y-50298454D01*
X195832013Y-50261235D01*
X195822187Y-50218433D01*
X195821655Y-50206235D01*
X195821991Y-50203341D01*
X195905620Y-50203341D01*
X195912936Y-50228220D01*
X195931486Y-50248303D01*
X195943764Y-50255104D01*
X195959186Y-50261685D01*
X195967577Y-50265025D01*
X195967903Y-50265113D01*
X195968661Y-50258693D01*
X195969255Y-50241209D01*
X195969606Y-50215711D01*
X195969667Y-50198361D01*
X195968878Y-50163237D01*
X195965918Y-50141200D01*
X195959893Y-50131284D01*
X195949912Y-50132523D01*
X195935081Y-50143951D01*
X195926791Y-50151957D01*
X195910063Y-50176857D01*
X195905620Y-50203341D01*
X195821991Y-50203341D01*
X195827539Y-50155618D01*
X195845061Y-50112304D01*
X195873298Y-50077166D01*
X195911328Y-50051077D01*
X195958228Y-50034908D01*
X196008472Y-50029545D01*
X196062620Y-50034578D01*
G36*
X196188389Y-49778556D02*
G01*
X196051281Y-49778556D01*
X196004053Y-49778622D01*
X195969028Y-49778948D01*
X195944300Y-49779725D01*
X195927961Y-49781145D01*
X195918104Y-49783399D01*
X195912820Y-49786680D01*
X195910204Y-49791178D01*
X195909659Y-49792778D01*
X195908731Y-49811161D01*
X195913965Y-49832663D01*
X195923282Y-49851259D01*
X195932966Y-49860328D01*
X195943741Y-49862276D01*
X195966043Y-49864271D01*
X195997289Y-49866152D01*
X196034896Y-49867757D01*
X196066681Y-49868706D01*
X196188389Y-49871674D01*
X196188389Y-49969056D01*
X196073736Y-49968283D01*
X196032315Y-49967646D01*
X195993493Y-49966400D01*
X195960518Y-49964696D01*
X195936640Y-49962684D01*
X195928633Y-49961516D01*
X195888508Y-49948193D01*
X195857506Y-49926438D01*
X195838840Y-49900400D01*
X195829051Y-49868943D01*
X195824026Y-49828393D01*
X195823989Y-49783019D01*
X195829167Y-49737091D01*
X195829969Y-49732695D01*
X195839312Y-49683306D01*
X196013851Y-49681419D01*
X196188389Y-49679531D01*
X196188389Y-49778556D01*
G37*
X196188389Y-49778556D02*
X196051281Y-49778556D01*
X196004053Y-49778622D01*
X195969028Y-49778948D01*
X195944300Y-49779725D01*
X195927961Y-49781145D01*
X195918104Y-49783399D01*
X195912820Y-49786680D01*
X195910204Y-49791178D01*
X195909659Y-49792778D01*
X195908731Y-49811161D01*
X195913965Y-49832663D01*
X195923282Y-49851259D01*
X195932966Y-49860328D01*
X195943741Y-49862276D01*
X195966043Y-49864271D01*
X195997289Y-49866152D01*
X196034896Y-49867757D01*
X196066681Y-49868706D01*
X196188389Y-49871674D01*
X196188389Y-49969056D01*
X196073736Y-49968283D01*
X196032315Y-49967646D01*
X195993493Y-49966400D01*
X195960518Y-49964696D01*
X195936640Y-49962684D01*
X195928633Y-49961516D01*
X195888508Y-49948193D01*
X195857506Y-49926438D01*
X195838840Y-49900400D01*
X195829051Y-49868943D01*
X195824026Y-49828393D01*
X195823989Y-49783019D01*
X195829167Y-49737091D01*
X195829969Y-49732695D01*
X195839312Y-49683306D01*
X196013851Y-49681419D01*
X196188389Y-49679531D01*
X196188389Y-49778556D01*
G36*
X197170787Y-49226283D02*
G01*
X197235042Y-49241449D01*
X197290122Y-49266392D01*
X197335503Y-49300838D01*
X197370662Y-49344513D01*
X197384884Y-49371115D01*
X197393983Y-49392642D01*
X197400094Y-49412471D01*
X197403957Y-49434678D01*
X197406311Y-49463342D01*
X197407718Y-49497016D01*
X197406887Y-49576482D01*
X197399333Y-49651001D01*
X197387290Y-49709764D01*
X197380234Y-49736222D01*
X196512676Y-49736222D01*
X196516177Y-49720347D01*
X196519129Y-49705151D01*
X196523299Y-49681536D01*
X196527126Y-49658611D01*
X196531654Y-49631395D01*
X196535880Y-49607091D01*
X196538431Y-49593347D01*
X196542288Y-49573945D01*
X196808652Y-49573945D01*
X196798382Y-49544835D01*
X196791737Y-49515001D01*
X196789693Y-49489625D01*
X196927790Y-49489625D01*
X196931931Y-49527088D01*
X196939180Y-49548841D01*
X196949669Y-49573945D01*
X197267889Y-49573945D01*
X197267889Y-49522071D01*
X197264198Y-49479774D01*
X197252293Y-49446959D01*
X197230923Y-49422327D01*
X197198837Y-49404579D01*
X197154785Y-49392416D01*
X197140776Y-49389936D01*
X197099046Y-49386766D01*
X197053990Y-49389144D01*
X197011208Y-49396444D01*
X196976301Y-49408038D01*
X196975508Y-49408410D01*
X196950256Y-49427667D01*
X196934124Y-49455611D01*
X196927790Y-49489625D01*
X196789693Y-49489625D01*
X196788681Y-49477076D01*
X196789191Y-49436613D01*
X196793244Y-49399164D01*
X196799078Y-49374941D01*
X196820695Y-49332822D01*
X196854171Y-49296406D01*
X196898175Y-49266376D01*
X196951377Y-49243419D01*
X197012445Y-49228218D01*
X197080050Y-49221458D01*
X197097881Y-49221167D01*
X197170787Y-49226283D01*
G37*
X197170787Y-49226283D02*
X197235042Y-49241449D01*
X197290122Y-49266392D01*
X197335503Y-49300838D01*
X197370662Y-49344513D01*
X197384884Y-49371115D01*
X197393983Y-49392642D01*
X197400094Y-49412471D01*
X197403957Y-49434678D01*
X197406311Y-49463342D01*
X197407718Y-49497016D01*
X197406887Y-49576482D01*
X197399333Y-49651001D01*
X197387290Y-49709764D01*
X197380234Y-49736222D01*
X196512676Y-49736222D01*
X196516177Y-49720347D01*
X196519129Y-49705151D01*
X196523299Y-49681536D01*
X196527126Y-49658611D01*
X196531654Y-49631395D01*
X196535880Y-49607091D01*
X196538431Y-49593347D01*
X196542288Y-49573945D01*
X196808652Y-49573945D01*
X196798382Y-49544835D01*
X196791737Y-49515001D01*
X196789693Y-49489625D01*
X196927790Y-49489625D01*
X196931931Y-49527088D01*
X196939180Y-49548841D01*
X196949669Y-49573945D01*
X197267889Y-49573945D01*
X197267889Y-49522071D01*
X197264198Y-49479774D01*
X197252293Y-49446959D01*
X197230923Y-49422327D01*
X197198837Y-49404579D01*
X197154785Y-49392416D01*
X197140776Y-49389936D01*
X197099046Y-49386766D01*
X197053990Y-49389144D01*
X197011208Y-49396444D01*
X196976301Y-49408038D01*
X196975508Y-49408410D01*
X196950256Y-49427667D01*
X196934124Y-49455611D01*
X196927790Y-49489625D01*
X196789693Y-49489625D01*
X196788681Y-49477076D01*
X196789191Y-49436613D01*
X196793244Y-49399164D01*
X196799078Y-49374941D01*
X196820695Y-49332822D01*
X196854171Y-49296406D01*
X196898175Y-49266376D01*
X196951377Y-49243419D01*
X197012445Y-49228218D01*
X197080050Y-49221458D01*
X197097881Y-49221167D01*
X197170787Y-49226283D01*
G36*
X196034180Y-49287035D02*
G01*
X196079296Y-49296305D01*
X196114649Y-49314356D01*
X196141162Y-49341571D01*
X196150730Y-49357439D01*
X196158408Y-49381450D01*
X196162337Y-49412882D01*
X196162102Y-49445442D01*
X196158164Y-49469875D01*
X196155778Y-49483689D01*
X196161654Y-49488678D01*
X196172914Y-49489278D01*
X196197150Y-49483200D01*
X196214607Y-49465974D01*
X196224735Y-49439115D01*
X196226987Y-49404137D01*
X196220813Y-49362554D01*
X196220023Y-49359321D01*
X196214597Y-49335236D01*
X196211633Y-49316976D01*
X196211744Y-49308362D01*
X196211818Y-49308275D01*
X196220993Y-49304261D01*
X196238535Y-49299364D01*
X196258873Y-49294901D01*
X196276436Y-49292188D01*
X196281171Y-49291891D01*
X196290501Y-49298414D01*
X196298650Y-49316731D01*
X196305099Y-49344540D01*
X196309328Y-49379539D01*
X196310819Y-49419427D01*
X196310800Y-49423269D01*
X196306471Y-49474922D01*
X196293995Y-49515749D01*
X196272685Y-49546905D01*
X196241852Y-49569544D01*
X196217322Y-49579921D01*
X196204203Y-49582112D01*
X196180171Y-49583992D01*
X196147500Y-49585547D01*
X196108465Y-49586760D01*
X196065339Y-49587618D01*
X196020399Y-49588105D01*
X195975917Y-49588206D01*
X195934169Y-49587906D01*
X195897429Y-49587191D01*
X195867972Y-49586044D01*
X195848073Y-49584453D01*
X195840006Y-49582403D01*
X195837118Y-49573035D01*
X195832877Y-49553855D01*
X195828195Y-49528983D01*
X195828114Y-49528521D01*
X195822536Y-49468643D01*
X195823258Y-49460592D01*
X195906167Y-49460592D01*
X195906167Y-49489278D01*
X196074861Y-49489278D01*
X196079485Y-49464630D01*
X196081454Y-49442379D01*
X196079800Y-49422827D01*
X196079702Y-49422425D01*
X196068575Y-49404564D01*
X196047753Y-49392075D01*
X196020621Y-49385041D01*
X195990567Y-49383546D01*
X195960977Y-49387674D01*
X195935238Y-49397507D01*
X195916737Y-49413129D01*
X195913432Y-49418332D01*
X195908704Y-49434115D01*
X195906259Y-49455852D01*
X195906167Y-49460592D01*
X195823258Y-49460592D01*
X195827356Y-49414964D01*
X195842223Y-49368717D01*
X195866785Y-49331136D01*
X195890567Y-49309931D01*
X195907764Y-49299127D01*
X195924700Y-49292431D01*
X195946093Y-49288566D01*
X195976660Y-49286256D01*
X195978376Y-49286165D01*
X196034180Y-49287035D01*
G37*
X196034180Y-49287035D02*
X196079296Y-49296305D01*
X196114649Y-49314356D01*
X196141162Y-49341571D01*
X196150730Y-49357439D01*
X196158408Y-49381450D01*
X196162337Y-49412882D01*
X196162102Y-49445442D01*
X196158164Y-49469875D01*
X196155778Y-49483689D01*
X196161654Y-49488678D01*
X196172914Y-49489278D01*
X196197150Y-49483200D01*
X196214607Y-49465974D01*
X196224735Y-49439115D01*
X196226987Y-49404137D01*
X196220813Y-49362554D01*
X196220023Y-49359321D01*
X196214597Y-49335236D01*
X196211633Y-49316976D01*
X196211744Y-49308362D01*
X196211818Y-49308275D01*
X196220993Y-49304261D01*
X196238535Y-49299364D01*
X196258873Y-49294901D01*
X196276436Y-49292188D01*
X196281171Y-49291891D01*
X196290501Y-49298414D01*
X196298650Y-49316731D01*
X196305099Y-49344540D01*
X196309328Y-49379539D01*
X196310819Y-49419427D01*
X196310800Y-49423269D01*
X196306471Y-49474922D01*
X196293995Y-49515749D01*
X196272685Y-49546905D01*
X196241852Y-49569544D01*
X196217322Y-49579921D01*
X196204203Y-49582112D01*
X196180171Y-49583992D01*
X196147500Y-49585547D01*
X196108465Y-49586760D01*
X196065339Y-49587618D01*
X196020399Y-49588105D01*
X195975917Y-49588206D01*
X195934169Y-49587906D01*
X195897429Y-49587191D01*
X195867972Y-49586044D01*
X195848073Y-49584453D01*
X195840006Y-49582403D01*
X195837118Y-49573035D01*
X195832877Y-49553855D01*
X195828195Y-49528983D01*
X195828114Y-49528521D01*
X195822536Y-49468643D01*
X195823258Y-49460592D01*
X195906167Y-49460592D01*
X195906167Y-49489278D01*
X196074861Y-49489278D01*
X196079485Y-49464630D01*
X196081454Y-49442379D01*
X196079800Y-49422827D01*
X196079702Y-49422425D01*
X196068575Y-49404564D01*
X196047753Y-49392075D01*
X196020621Y-49385041D01*
X195990567Y-49383546D01*
X195960977Y-49387674D01*
X195935238Y-49397507D01*
X195916737Y-49413129D01*
X195913432Y-49418332D01*
X195908704Y-49434115D01*
X195906259Y-49455852D01*
X195906167Y-49460592D01*
X195823258Y-49460592D01*
X195827356Y-49414964D01*
X195842223Y-49368717D01*
X195866785Y-49331136D01*
X195890567Y-49309931D01*
X195907764Y-49299127D01*
X195924700Y-49292431D01*
X195946093Y-49288566D01*
X195976660Y-49286256D01*
X195978376Y-49286165D01*
X196034180Y-49287035D01*
G36*
X195913222Y-49009500D02*
G01*
X196003892Y-49009500D01*
X196040619Y-49010120D01*
X196074333Y-49011810D01*
X196101385Y-49014316D01*
X196118128Y-49017381D01*
X196118545Y-49017516D01*
X196150714Y-49034647D01*
X196176115Y-49060602D01*
X196189142Y-49085865D01*
X196193361Y-49110739D01*
X196193657Y-49143176D01*
X196190438Y-49177308D01*
X196184112Y-49207267D01*
X196179908Y-49218853D01*
X196174109Y-49230283D01*
X196167244Y-49235723D01*
X196155153Y-49236385D01*
X196133675Y-49233480D01*
X196131072Y-49233075D01*
X196091395Y-49226885D01*
X196101086Y-49194683D01*
X196108470Y-49166250D01*
X196109860Y-49146830D01*
X196105020Y-49132550D01*
X196096667Y-49122389D01*
X196090675Y-49117338D01*
X196082885Y-49113655D01*
X196071157Y-49111127D01*
X196053348Y-49109540D01*
X196027317Y-49108680D01*
X195990922Y-49108332D01*
X195955556Y-49108278D01*
X195828556Y-49108278D01*
X195828556Y-48910722D01*
X195913222Y-48910722D01*
X195913222Y-49009500D01*
G37*
X195913222Y-49009500D02*
X196003892Y-49009500D01*
X196040619Y-49010120D01*
X196074333Y-49011810D01*
X196101385Y-49014316D01*
X196118128Y-49017381D01*
X196118545Y-49017516D01*
X196150714Y-49034647D01*
X196176115Y-49060602D01*
X196189142Y-49085865D01*
X196193361Y-49110739D01*
X196193657Y-49143176D01*
X196190438Y-49177308D01*
X196184112Y-49207267D01*
X196179908Y-49218853D01*
X196174109Y-49230283D01*
X196167244Y-49235723D01*
X196155153Y-49236385D01*
X196133675Y-49233480D01*
X196131072Y-49233075D01*
X196091395Y-49226885D01*
X196101086Y-49194683D01*
X196108470Y-49166250D01*
X196109860Y-49146830D01*
X196105020Y-49132550D01*
X196096667Y-49122389D01*
X196090675Y-49117338D01*
X196082885Y-49113655D01*
X196071157Y-49111127D01*
X196053348Y-49109540D01*
X196027317Y-49108680D01*
X195990922Y-49108332D01*
X195955556Y-49108278D01*
X195828556Y-49108278D01*
X195828556Y-48910722D01*
X195913222Y-48910722D01*
X195913222Y-49009500D01*
G36*
X197272393Y-48617506D02*
G01*
X197317086Y-48633856D01*
X197353047Y-48661055D01*
X197380745Y-48699385D01*
X197388308Y-48714879D01*
X197397443Y-48744897D01*
X197404000Y-48785935D01*
X197407890Y-48835123D01*
X197409021Y-48889590D01*
X197407302Y-48946466D01*
X197402643Y-49002880D01*
X197398455Y-49034938D01*
X197386302Y-49115334D01*
X197173637Y-49114857D01*
X197100872Y-49114428D01*
X197041489Y-49113480D01*
X196994770Y-49111985D01*
X196959994Y-49109915D01*
X196936443Y-49107243D01*
X196927879Y-49105471D01*
X196881884Y-49086905D01*
X196844884Y-49058037D01*
X196816106Y-49018127D01*
X196800377Y-48983047D01*
X196793191Y-48960087D01*
X196788604Y-48935650D01*
X196786107Y-48905677D01*
X196785193Y-48866108D01*
X196785169Y-48861334D01*
X196786036Y-48820483D01*
X196788695Y-48779139D01*
X196792769Y-48740412D01*
X196797884Y-48707409D01*
X196803663Y-48683242D01*
X196807885Y-48673274D01*
X196815294Y-48670018D01*
X196832414Y-48670084D01*
X196860876Y-48673540D01*
X196876945Y-48676074D01*
X196941085Y-48686650D01*
X196931736Y-48726367D01*
X196925426Y-48762974D01*
X196922308Y-48802885D01*
X196922299Y-48842353D01*
X196925313Y-48877635D01*
X196931267Y-48904986D01*
X196935992Y-48915672D01*
X196957947Y-48940030D01*
X196986702Y-48955730D01*
X197011775Y-48960105D01*
X197031528Y-48960099D01*
X197031528Y-48904165D01*
X197140989Y-48904165D01*
X197141970Y-48930139D01*
X197144753Y-48947748D01*
X197145172Y-48948951D01*
X197149989Y-48954517D01*
X197160997Y-48957934D01*
X197180848Y-48959650D01*
X197211377Y-48960111D01*
X197241169Y-48959872D01*
X197259792Y-48958682D01*
X197270185Y-48955838D01*
X197275288Y-48950634D01*
X197277553Y-48944236D01*
X197281259Y-48917692D01*
X197281353Y-48883909D01*
X197278026Y-48849239D01*
X197274061Y-48828997D01*
X197260937Y-48798486D01*
X197241460Y-48778787D01*
X197218351Y-48769949D01*
X197194333Y-48772024D01*
X197172128Y-48785061D01*
X197154458Y-48809113D01*
X197147776Y-48826643D01*
X197144000Y-48847357D01*
X197141701Y-48874884D01*
X197140989Y-48904165D01*
X197031528Y-48904165D01*
X197031528Y-48863091D01*
X197032610Y-48809350D01*
X197036284Y-48766873D01*
X197043192Y-48732953D01*
X197053978Y-48704879D01*
X197069283Y-48679941D01*
X197077436Y-48669480D01*
X197110286Y-48639369D01*
X197150478Y-48620404D01*
X197199065Y-48612153D01*
X197218500Y-48611719D01*
X197272393Y-48617506D01*
G37*
X197272393Y-48617506D02*
X197317086Y-48633856D01*
X197353047Y-48661055D01*
X197380745Y-48699385D01*
X197388308Y-48714879D01*
X197397443Y-48744897D01*
X197404000Y-48785935D01*
X197407890Y-48835123D01*
X197409021Y-48889590D01*
X197407302Y-48946466D01*
X197402643Y-49002880D01*
X197398455Y-49034938D01*
X197386302Y-49115334D01*
X197173637Y-49114857D01*
X197100872Y-49114428D01*
X197041489Y-49113480D01*
X196994770Y-49111985D01*
X196959994Y-49109915D01*
X196936443Y-49107243D01*
X196927879Y-49105471D01*
X196881884Y-49086905D01*
X196844884Y-49058037D01*
X196816106Y-49018127D01*
X196800377Y-48983047D01*
X196793191Y-48960087D01*
X196788604Y-48935650D01*
X196786107Y-48905677D01*
X196785193Y-48866108D01*
X196785169Y-48861334D01*
X196786036Y-48820483D01*
X196788695Y-48779139D01*
X196792769Y-48740412D01*
X196797884Y-48707409D01*
X196803663Y-48683242D01*
X196807885Y-48673274D01*
X196815294Y-48670018D01*
X196832414Y-48670084D01*
X196860876Y-48673540D01*
X196876945Y-48676074D01*
X196941085Y-48686650D01*
X196931736Y-48726367D01*
X196925426Y-48762974D01*
X196922308Y-48802885D01*
X196922299Y-48842353D01*
X196925313Y-48877635D01*
X196931267Y-48904986D01*
X196935992Y-48915672D01*
X196957947Y-48940030D01*
X196986702Y-48955730D01*
X197011775Y-48960105D01*
X197031528Y-48960099D01*
X197031528Y-48904165D01*
X197140989Y-48904165D01*
X197141970Y-48930139D01*
X197144753Y-48947748D01*
X197145172Y-48948951D01*
X197149989Y-48954517D01*
X197160997Y-48957934D01*
X197180848Y-48959650D01*
X197211377Y-48960111D01*
X197241169Y-48959872D01*
X197259792Y-48958682D01*
X197270185Y-48955838D01*
X197275288Y-48950634D01*
X197277553Y-48944236D01*
X197281259Y-48917692D01*
X197281353Y-48883909D01*
X197278026Y-48849239D01*
X197274061Y-48828997D01*
X197260937Y-48798486D01*
X197241460Y-48778787D01*
X197218351Y-48769949D01*
X197194333Y-48772024D01*
X197172128Y-48785061D01*
X197154458Y-48809113D01*
X197147776Y-48826643D01*
X197144000Y-48847357D01*
X197141701Y-48874884D01*
X197140989Y-48904165D01*
X197031528Y-48904165D01*
X197031528Y-48863091D01*
X197032610Y-48809350D01*
X197036284Y-48766873D01*
X197043192Y-48732953D01*
X197053978Y-48704879D01*
X197069283Y-48679941D01*
X197077436Y-48669480D01*
X197110286Y-48639369D01*
X197150478Y-48620404D01*
X197199065Y-48612153D01*
X197218500Y-48611719D01*
X197272393Y-48617506D01*
G36*
X195762200Y-48988790D02*
G01*
X195781251Y-49005301D01*
X195792034Y-49028914D01*
X195793278Y-49041250D01*
X195787346Y-49067119D01*
X195771823Y-49086876D01*
X195750115Y-49099102D01*
X195725631Y-49102372D01*
X195701779Y-49095267D01*
X195688674Y-49084893D01*
X195676046Y-49062465D01*
X195672996Y-49035918D01*
X195679464Y-49010665D01*
X195689663Y-48996619D01*
X195712984Y-48982975D01*
X195738303Y-48980857D01*
X195762200Y-48988790D01*
G37*
X195762200Y-48988790D02*
X195781251Y-49005301D01*
X195792034Y-49028914D01*
X195793278Y-49041250D01*
X195787346Y-49067119D01*
X195771823Y-49086876D01*
X195750115Y-49099102D01*
X195725631Y-49102372D01*
X195701779Y-49095267D01*
X195688674Y-49084893D01*
X195676046Y-49062465D01*
X195672996Y-49035918D01*
X195679464Y-49010665D01*
X195689663Y-48996619D01*
X195712984Y-48982975D01*
X195738303Y-48980857D01*
X195762200Y-48988790D01*
G36*
X196165736Y-48556895D02*
G01*
X196173880Y-48572255D01*
X196178986Y-48584403D01*
X196187039Y-48615005D01*
X196191607Y-48653045D01*
X196192715Y-48694103D01*
X196190390Y-48733758D01*
X196184658Y-48767591D01*
X196177806Y-48787157D01*
X196155279Y-48818432D01*
X196126005Y-48838461D01*
X196092324Y-48846433D01*
X196056574Y-48841536D01*
X196040329Y-48834864D01*
X196018289Y-48818175D01*
X195998377Y-48790699D01*
X195979775Y-48751142D01*
X195969481Y-48722806D01*
X195959575Y-48697882D01*
X195948573Y-48677002D01*
X195940505Y-48666455D01*
X195929565Y-48657719D01*
X195922759Y-48658824D01*
X195916113Y-48666984D01*
X195909256Y-48685178D01*
X195906571Y-48712133D01*
X195908031Y-48743137D01*
X195913606Y-48773479D01*
X195916826Y-48783936D01*
X195922810Y-48802203D01*
X195925703Y-48813708D01*
X195925645Y-48815527D01*
X195916774Y-48818336D01*
X195899269Y-48821882D01*
X195878081Y-48825385D01*
X195858159Y-48828066D01*
X195844454Y-48829146D01*
X195841387Y-48828792D01*
X195835817Y-48818884D01*
X195830647Y-48798522D01*
X195826380Y-48771364D01*
X195823519Y-48741067D01*
X195822567Y-48711289D01*
X195823086Y-48695718D01*
X195829814Y-48651104D01*
X195843100Y-48613835D01*
X195861898Y-48586394D01*
X195872979Y-48577174D01*
X195905814Y-48563108D01*
X195940873Y-48560522D01*
X195974373Y-48568959D01*
X196002532Y-48587961D01*
X196007588Y-48593458D01*
X196018689Y-48610828D01*
X196030783Y-48636111D01*
X196040530Y-48661779D01*
X196049943Y-48688954D01*
X196059228Y-48713363D01*
X196066059Y-48729042D01*
X196077882Y-48743284D01*
X196091703Y-48748168D01*
X196103291Y-48742832D01*
X196106495Y-48737284D01*
X196110464Y-48715394D01*
X196110328Y-48685091D01*
X196106470Y-48651337D01*
X196099279Y-48619097D01*
X196096667Y-48610861D01*
X196089272Y-48589095D01*
X196084164Y-48573531D01*
X196082556Y-48568008D01*
X196088694Y-48565711D01*
X196103936Y-48561824D01*
X196123524Y-48557400D01*
X196142702Y-48553491D01*
X196156712Y-48551151D01*
X196159931Y-48550889D01*
X196165736Y-48556895D01*
G37*
X196165736Y-48556895D02*
X196173880Y-48572255D01*
X196178986Y-48584403D01*
X196187039Y-48615005D01*
X196191607Y-48653045D01*
X196192715Y-48694103D01*
X196190390Y-48733758D01*
X196184658Y-48767591D01*
X196177806Y-48787157D01*
X196155279Y-48818432D01*
X196126005Y-48838461D01*
X196092324Y-48846433D01*
X196056574Y-48841536D01*
X196040329Y-48834864D01*
X196018289Y-48818175D01*
X195998377Y-48790699D01*
X195979775Y-48751142D01*
X195969481Y-48722806D01*
X195959575Y-48697882D01*
X195948573Y-48677002D01*
X195940505Y-48666455D01*
X195929565Y-48657719D01*
X195922759Y-48658824D01*
X195916113Y-48666984D01*
X195909256Y-48685178D01*
X195906571Y-48712133D01*
X195908031Y-48743137D01*
X195913606Y-48773479D01*
X195916826Y-48783936D01*
X195922810Y-48802203D01*
X195925703Y-48813708D01*
X195925645Y-48815527D01*
X195916774Y-48818336D01*
X195899269Y-48821882D01*
X195878081Y-48825385D01*
X195858159Y-48828066D01*
X195844454Y-48829146D01*
X195841387Y-48828792D01*
X195835817Y-48818884D01*
X195830647Y-48798522D01*
X195826380Y-48771364D01*
X195823519Y-48741067D01*
X195822567Y-48711289D01*
X195823086Y-48695718D01*
X195829814Y-48651104D01*
X195843100Y-48613835D01*
X195861898Y-48586394D01*
X195872979Y-48577174D01*
X195905814Y-48563108D01*
X195940873Y-48560522D01*
X195974373Y-48568959D01*
X196002532Y-48587961D01*
X196007588Y-48593458D01*
X196018689Y-48610828D01*
X196030783Y-48636111D01*
X196040530Y-48661779D01*
X196049943Y-48688954D01*
X196059228Y-48713363D01*
X196066059Y-48729042D01*
X196077882Y-48743284D01*
X196091703Y-48748168D01*
X196103291Y-48742832D01*
X196106495Y-48737284D01*
X196110464Y-48715394D01*
X196110328Y-48685091D01*
X196106470Y-48651337D01*
X196099279Y-48619097D01*
X196096667Y-48610861D01*
X196089272Y-48589095D01*
X196084164Y-48573531D01*
X196082556Y-48568008D01*
X196088694Y-48565711D01*
X196103936Y-48561824D01*
X196123524Y-48557400D01*
X196142702Y-48553491D01*
X196156712Y-48551151D01*
X196159931Y-48550889D01*
X196165736Y-48556895D01*
G36*
X197394889Y-48155778D02*
G01*
X197133834Y-48155778D01*
X197133711Y-48210459D01*
X197129329Y-48278551D01*
X197116917Y-48340658D01*
X197097103Y-48394830D01*
X197070515Y-48439118D01*
X197054049Y-48457763D01*
X197024539Y-48483044D01*
X196993917Y-48500794D01*
X196958810Y-48512204D01*
X196915841Y-48518466D01*
X196876306Y-48520503D01*
X196828688Y-48520439D01*
X196792086Y-48517669D01*
X196770472Y-48513164D01*
X196721576Y-48491782D01*
X196681937Y-48462354D01*
X196650848Y-48423853D01*
X196627598Y-48375253D01*
X196611478Y-48315526D01*
X196604876Y-48273457D01*
X196602757Y-48244227D01*
X196602100Y-48206081D01*
X196602747Y-48162795D01*
X196603029Y-48155778D01*
X196745778Y-48155778D01*
X196745778Y-48216553D01*
X196748585Y-48263067D01*
X196757595Y-48298445D01*
X196773693Y-48324619D01*
X196797764Y-48343523D01*
X196805750Y-48347634D01*
X196837811Y-48356592D01*
X196875379Y-48357903D01*
X196912294Y-48351855D01*
X196938002Y-48341463D01*
X196961303Y-48321529D01*
X196977736Y-48291883D01*
X196987806Y-48251320D01*
X196991429Y-48214142D01*
X196994492Y-48155778D01*
X196745778Y-48155778D01*
X196603029Y-48155778D01*
X196604543Y-48118141D01*
X196607331Y-48075892D01*
X196610955Y-48039821D01*
X196615257Y-48013702D01*
X196615719Y-48011784D01*
X196620308Y-47993500D01*
X197394889Y-47993500D01*
X197394889Y-48155778D01*
G37*
X197394889Y-48155778D02*
X197133834Y-48155778D01*
X197133711Y-48210459D01*
X197129329Y-48278551D01*
X197116917Y-48340658D01*
X197097103Y-48394830D01*
X197070515Y-48439118D01*
X197054049Y-48457763D01*
X197024539Y-48483044D01*
X196993917Y-48500794D01*
X196958810Y-48512204D01*
X196915841Y-48518466D01*
X196876306Y-48520503D01*
X196828688Y-48520439D01*
X196792086Y-48517669D01*
X196770472Y-48513164D01*
X196721576Y-48491782D01*
X196681937Y-48462354D01*
X196650848Y-48423853D01*
X196627598Y-48375253D01*
X196611478Y-48315526D01*
X196604876Y-48273457D01*
X196602757Y-48244227D01*
X196602100Y-48206081D01*
X196602747Y-48162795D01*
X196603029Y-48155778D01*
X196745778Y-48155778D01*
X196745778Y-48216553D01*
X196748585Y-48263067D01*
X196757595Y-48298445D01*
X196773693Y-48324619D01*
X196797764Y-48343523D01*
X196805750Y-48347634D01*
X196837811Y-48356592D01*
X196875379Y-48357903D01*
X196912294Y-48351855D01*
X196938002Y-48341463D01*
X196961303Y-48321529D01*
X196977736Y-48291883D01*
X196987806Y-48251320D01*
X196991429Y-48214142D01*
X196994492Y-48155778D01*
X196745778Y-48155778D01*
X196603029Y-48155778D01*
X196604543Y-48118141D01*
X196607331Y-48075892D01*
X196610955Y-48039821D01*
X196615257Y-48013702D01*
X196615719Y-48011784D01*
X196620308Y-47993500D01*
X197394889Y-47993500D01*
X197394889Y-48155778D01*
G36*
X196034704Y-48164088D02*
G01*
X196069398Y-48167864D01*
X196085265Y-48171511D01*
X196122301Y-48189649D01*
X196152872Y-48218980D01*
X196175876Y-48257645D01*
X196190212Y-48303783D01*
X196194779Y-48355537D01*
X196194767Y-48356378D01*
X196192976Y-48386724D01*
X196189011Y-48416242D01*
X196183579Y-48441669D01*
X196177388Y-48459743D01*
X196171145Y-48467199D01*
X196170750Y-48467239D01*
X196160191Y-48466512D01*
X196140758Y-48464464D01*
X196126119Y-48462713D01*
X196104383Y-48459265D01*
X196094038Y-48455099D01*
X196092375Y-48448859D01*
X196093218Y-48446245D01*
X196102737Y-48412765D01*
X196107470Y-48375614D01*
X196106838Y-48341217D01*
X196104066Y-48326064D01*
X196093677Y-48300502D01*
X196078815Y-48278966D01*
X196062387Y-48264996D01*
X196051126Y-48261611D01*
X196046992Y-48263301D01*
X196044034Y-48269660D01*
X196042064Y-48282622D01*
X196040898Y-48304120D01*
X196040346Y-48336088D01*
X196040222Y-48374500D01*
X196040222Y-48487389D01*
X195992597Y-48487079D01*
X195963491Y-48485524D01*
X195936114Y-48481798D01*
X195919467Y-48477655D01*
X195879809Y-48458157D01*
X195851237Y-48431309D01*
X195832808Y-48395783D01*
X195823581Y-48350253D01*
X195822870Y-48341571D01*
X195824113Y-48322894D01*
X195906283Y-48322894D01*
X195910314Y-48349659D01*
X195923629Y-48373116D01*
X195944329Y-48389587D01*
X195964375Y-48395220D01*
X195966647Y-48388877D01*
X195968431Y-48371463D01*
X195969485Y-48346013D01*
X195969667Y-48328639D01*
X195969288Y-48299836D01*
X195968270Y-48277234D01*
X195966791Y-48263895D01*
X195965789Y-48261611D01*
X195952663Y-48265914D01*
X195935452Y-48276183D01*
X195920100Y-48288456D01*
X195913432Y-48296498D01*
X195906283Y-48322894D01*
X195824113Y-48322894D01*
X195826096Y-48293098D01*
X195841816Y-48249639D01*
X195868877Y-48212961D01*
X195906130Y-48184835D01*
X195932611Y-48172900D01*
X195960566Y-48166659D01*
X195996512Y-48163704D01*
X196034704Y-48164088D01*
G37*
X196034704Y-48164088D02*
X196069398Y-48167864D01*
X196085265Y-48171511D01*
X196122301Y-48189649D01*
X196152872Y-48218980D01*
X196175876Y-48257645D01*
X196190212Y-48303783D01*
X196194779Y-48355537D01*
X196194767Y-48356378D01*
X196192976Y-48386724D01*
X196189011Y-48416242D01*
X196183579Y-48441669D01*
X196177388Y-48459743D01*
X196171145Y-48467199D01*
X196170750Y-48467239D01*
X196160191Y-48466512D01*
X196140758Y-48464464D01*
X196126119Y-48462713D01*
X196104383Y-48459265D01*
X196094038Y-48455099D01*
X196092375Y-48448859D01*
X196093218Y-48446245D01*
X196102737Y-48412765D01*
X196107470Y-48375614D01*
X196106838Y-48341217D01*
X196104066Y-48326064D01*
X196093677Y-48300502D01*
X196078815Y-48278966D01*
X196062387Y-48264996D01*
X196051126Y-48261611D01*
X196046992Y-48263301D01*
X196044034Y-48269660D01*
X196042064Y-48282622D01*
X196040898Y-48304120D01*
X196040346Y-48336088D01*
X196040222Y-48374500D01*
X196040222Y-48487389D01*
X195992597Y-48487079D01*
X195963491Y-48485524D01*
X195936114Y-48481798D01*
X195919467Y-48477655D01*
X195879809Y-48458157D01*
X195851237Y-48431309D01*
X195832808Y-48395783D01*
X195823581Y-48350253D01*
X195822870Y-48341571D01*
X195824113Y-48322894D01*
X195906283Y-48322894D01*
X195910314Y-48349659D01*
X195923629Y-48373116D01*
X195944329Y-48389587D01*
X195964375Y-48395220D01*
X195966647Y-48388877D01*
X195968431Y-48371463D01*
X195969485Y-48346013D01*
X195969667Y-48328639D01*
X195969288Y-48299836D01*
X195968270Y-48277234D01*
X195966791Y-48263895D01*
X195965789Y-48261611D01*
X195952663Y-48265914D01*
X195935452Y-48276183D01*
X195920100Y-48288456D01*
X195913432Y-48296498D01*
X195906283Y-48322894D01*
X195824113Y-48322894D01*
X195826096Y-48293098D01*
X195841816Y-48249639D01*
X195868877Y-48212961D01*
X195906130Y-48184835D01*
X195932611Y-48172900D01*
X195960566Y-48166659D01*
X195996512Y-48163704D01*
X196034704Y-48164088D01*
G36*
X196186336Y-47822403D02*
G01*
X196188716Y-47838179D01*
X196190519Y-47863522D01*
X196191461Y-47893889D01*
X196191534Y-47905719D01*
X196190956Y-47938501D01*
X196188643Y-47962244D01*
X196183591Y-47982000D01*
X196174797Y-48002823D01*
X196170523Y-48011551D01*
X196141686Y-48054528D01*
X196103468Y-48086985D01*
X196056136Y-48108699D01*
X196052742Y-48109736D01*
X196023740Y-48115461D01*
X195986314Y-48118840D01*
X195945218Y-48119853D01*
X195905207Y-48118476D01*
X195871036Y-48114690D01*
X195853250Y-48110631D01*
X195805803Y-48090950D01*
X195769272Y-48064613D01*
X195741290Y-48029735D01*
X195732825Y-48014667D01*
X195725794Y-47993296D01*
X195720362Y-47962066D01*
X195716858Y-47925174D01*
X195716097Y-47901778D01*
X195798498Y-47901778D01*
X195802171Y-47934358D01*
X195811579Y-47967205D01*
X195832001Y-47992052D01*
X195864304Y-48009912D01*
X195867949Y-48011256D01*
X195898463Y-48018020D01*
X195936961Y-48020769D01*
X195977921Y-48019576D01*
X196015820Y-48014513D01*
X196036531Y-48009066D01*
X196068871Y-47991972D01*
X196091575Y-47967259D01*
X196102825Y-47937189D01*
X196103722Y-47925429D01*
X196103722Y-47901778D01*
X195798498Y-47901778D01*
X195716097Y-47901778D01*
X195715610Y-47886813D01*
X195716946Y-47851180D01*
X195718779Y-47835063D01*
X195723587Y-47803000D01*
X196181065Y-47803000D01*
X196186336Y-47822403D01*
G37*
X196186336Y-47822403D02*
X196188716Y-47838179D01*
X196190519Y-47863522D01*
X196191461Y-47893889D01*
X196191534Y-47905719D01*
X196190956Y-47938501D01*
X196188643Y-47962244D01*
X196183591Y-47982000D01*
X196174797Y-48002823D01*
X196170523Y-48011551D01*
X196141686Y-48054528D01*
X196103468Y-48086985D01*
X196056136Y-48108699D01*
X196052742Y-48109736D01*
X196023740Y-48115461D01*
X195986314Y-48118840D01*
X195945218Y-48119853D01*
X195905207Y-48118476D01*
X195871036Y-48114690D01*
X195853250Y-48110631D01*
X195805803Y-48090950D01*
X195769272Y-48064613D01*
X195741290Y-48029735D01*
X195732825Y-48014667D01*
X195725794Y-47993296D01*
X195720362Y-47962066D01*
X195716858Y-47925174D01*
X195716097Y-47901778D01*
X195798498Y-47901778D01*
X195802171Y-47934358D01*
X195811579Y-47967205D01*
X195832001Y-47992052D01*
X195864304Y-48009912D01*
X195867949Y-48011256D01*
X195898463Y-48018020D01*
X195936961Y-48020769D01*
X195977921Y-48019576D01*
X196015820Y-48014513D01*
X196036531Y-48009066D01*
X196068871Y-47991972D01*
X196091575Y-47967259D01*
X196102825Y-47937189D01*
X196103722Y-47925429D01*
X196103722Y-47901778D01*
X195798498Y-47901778D01*
X195716097Y-47901778D01*
X195715610Y-47886813D01*
X195716946Y-47851180D01*
X195718779Y-47835063D01*
X195723587Y-47803000D01*
X196181065Y-47803000D01*
X196186336Y-47822403D01*
D11*
X144660000Y-79172000D03*
X144660000Y-76632000D03*
X144660000Y-74092000D03*
X144660000Y-71552000D03*
D12*
X144660000Y-69012000D03*
D13*
X109637000Y-62991500D03*
X109639600Y-58517700D03*
X109637000Y-60771500D03*
D14*
X103365500Y-91237000D03*
D15*
X103365500Y-88697000D03*
X105905500Y-91237000D03*
X105905500Y-88697000D03*
X108445500Y-91237000D03*
X108445500Y-88697000D03*
X110985500Y-91237000D03*
X110985500Y-88697000D03*
D16*
X113940000Y-97440000D03*
X190150000Y-49200000D03*
X115210000Y-49190000D03*
X196480000Y-97430000D03*
D12*
X196520000Y-54280000D03*
D11*
X193980000Y-54280000D03*
X196520000Y-56820000D03*
X193980000Y-56820000D03*
X196520000Y-59360000D03*
X193980000Y-59360000D03*
X196520000Y-61900000D03*
X193980000Y-61900000D03*
X196520000Y-64440000D03*
X193980000Y-64440000D03*
X196520000Y-66980000D03*
X193980000Y-66980000D03*
X196520000Y-69520000D03*
X193980000Y-69520000D03*
X196520000Y-72060000D03*
X193980000Y-72060000D03*
X196520000Y-74600000D03*
X193980000Y-74600000D03*
X196520000Y-77140000D03*
X193980000Y-77140000D03*
X196520000Y-79680000D03*
X193980000Y-79680000D03*
X196520000Y-82220000D03*
X193980000Y-82220000D03*
X196520000Y-84760000D03*
X193980000Y-84760000D03*
X196520000Y-87300000D03*
X193980000Y-87300000D03*
D12*
X166040000Y-49200000D03*
D11*
X168580000Y-49200000D03*
X171120000Y-49200000D03*
X173660000Y-49200000D03*
X176200000Y-49200000D03*
X178740000Y-49200000D03*
X181280000Y-49200000D03*
X183820000Y-49200000D03*
X173660000Y-97460000D03*
X171120000Y-97460000D03*
X168580000Y-97460000D03*
X166040000Y-97460000D03*
X163500000Y-97460000D03*
X160960000Y-97460000D03*
X158420000Y-97460000D03*
D12*
X155880000Y-97460000D03*
X140640000Y-49200000D03*
D11*
X143180000Y-49200000D03*
X145720000Y-49200000D03*
X148260000Y-49200000D03*
D12*
X153340000Y-49200000D03*
D11*
X155880000Y-49200000D03*
X158420000Y-49200000D03*
X160960000Y-49200000D03*
X150800000Y-97494000D03*
X148260000Y-97494000D03*
X145720000Y-97494000D03*
D12*
X143180000Y-97494000D03*
X122860000Y-49200000D03*
D11*
X125400000Y-49200000D03*
X127940000Y-49200000D03*
X130480000Y-49200000D03*
X133020000Y-49200000D03*
X135560000Y-49200000D03*
D13*
X109637000Y-65202000D03*
D17*
X157259002Y-90112000D03*
X125000000Y-73200000D03*
X135600000Y-95600000D03*
X134000000Y-90400000D03*
X134000000Y-86600000D03*
X127813000Y-76822506D03*
X119050000Y-58134257D03*
X117970500Y-76695500D03*
X150068352Y-71849241D03*
X151100000Y-57900000D03*
X141412128Y-60787872D03*
X142800000Y-60600000D03*
X180250000Y-84250000D03*
X167000000Y-70750000D03*
X162500000Y-67000000D03*
X180000000Y-72500000D03*
X158500000Y-61750000D03*
X166738500Y-91427500D03*
X153811558Y-70320697D03*
X145700000Y-55500000D03*
X166738500Y-90157500D03*
X154991000Y-70345500D03*
X117970500Y-78918000D03*
X149617365Y-70153141D03*
X150500000Y-58700000D03*
X142350000Y-62450000D03*
X143300000Y-61100000D03*
X177750000Y-84000000D03*
X170500000Y-71750000D03*
X177500000Y-72500000D03*
X168250000Y-73000000D03*
X172516992Y-61392000D03*
X170750000Y-55750000D03*
X172000000Y-62000000D03*
X172750000Y-64750000D03*
X172000000Y-69474979D03*
X185700000Y-80400000D03*
X187100000Y-83800000D03*
X186460000Y-68170000D03*
X187310000Y-71470000D03*
X116637004Y-87681000D03*
X184500000Y-56200000D03*
X180600000Y-56100000D03*
X188074512Y-57328000D03*
X181534000Y-57327996D03*
X116637000Y-89840000D03*
X180200000Y-57200000D03*
X164400000Y-76900000D03*
X185788500Y-60249000D03*
X161468000Y-73457000D03*
X159817000Y-62217496D03*
X151700000Y-68000000D03*
X117970500Y-74536500D03*
X149900000Y-71100000D03*
X152900000Y-81400000D03*
X166000000Y-79600000D03*
X127559000Y-80442000D03*
X152959000Y-77330500D03*
D18*
X109620000Y-58534501D03*
D17*
X128000000Y-92400000D03*
X131260000Y-88860000D03*
X108500000Y-53800000D03*
X105800000Y-63200000D03*
X107900000Y-53300000D03*
X105700000Y-60600000D03*
X115500000Y-57900000D03*
X118095950Y-58300010D03*
D18*
X109637000Y-62991500D03*
D17*
X118600000Y-65700000D03*
D18*
X109637000Y-60771500D03*
D17*
X119651746Y-65355366D03*
X168900000Y-84600000D03*
X165212074Y-76657575D03*
X154546500Y-92888000D03*
X153594000Y-84094000D03*
X154546500Y-90983000D03*
X154265316Y-84596501D03*
X164760000Y-85720000D03*
X163160000Y-85620000D03*
X161510000Y-85620000D03*
X160210000Y-85720000D03*
X118900000Y-73800000D03*
X151600000Y-83000000D03*
X172000000Y-84000000D03*
X156700000Y-82100000D03*
X156800000Y-84200000D03*
X167600000Y-85500000D03*
X150101500Y-73393500D03*
X150183142Y-80072418D03*
X182900000Y-57700000D03*
X166100000Y-59000000D03*
X163300000Y-57400000D03*
X170000000Y-64400000D03*
X171600000Y-59200000D03*
X136322000Y-82029500D03*
X149086000Y-62154500D03*
X117860000Y-77770000D03*
X157860000Y-66320000D03*
X133860000Y-81120000D03*
X150400000Y-62400000D03*
X160324998Y-91427500D03*
X156297641Y-84612493D03*
X154740326Y-83507176D03*
X144100000Y-93700000D03*
X144132016Y-87872000D03*
X166549619Y-58218619D03*
X165675010Y-54800000D03*
X137300000Y-76400000D03*
X133600000Y-74200000D03*
X133600000Y-65600000D03*
X175056500Y-64122000D03*
X179700000Y-83800000D03*
X176300000Y-79900000D03*
X167700000Y-75700000D03*
X169500000Y-75600000D03*
X170800000Y-75600000D03*
X179600000Y-78200000D03*
X175500000Y-87400000D03*
X172200000Y-75600000D03*
X179540372Y-72959628D03*
X159800000Y-57800000D03*
X159400000Y-58800000D03*
X145402500Y-87871500D03*
X144600000Y-83875010D03*
X132575500Y-74224500D03*
X137200000Y-77400000D03*
X140500000Y-83700000D03*
X142036998Y-54407000D03*
X126635500Y-57000000D03*
X168120116Y-58138118D03*
X168500000Y-55250000D03*
X185725000Y-83680500D03*
X180645000Y-66091000D03*
X144155000Y-59500000D03*
X180643720Y-72590220D03*
X181534000Y-59423500D03*
X187503000Y-79870500D03*
X187503000Y-58979000D03*
X136100000Y-68100000D03*
X182486500Y-79870506D03*
X182038390Y-69393000D03*
X187535010Y-69393000D03*
X160324998Y-93586500D03*
X155314960Y-83811004D03*
X158737504Y-66472000D03*
X159200000Y-67000000D03*
X166600000Y-64300000D03*
X165100000Y-64500000D03*
X177900000Y-77200000D03*
X177700000Y-81700000D03*
X112827000Y-89776500D03*
X112827000Y-87681000D03*
X130300000Y-92700000D03*
X131000000Y-92700000D03*
X130300000Y-92000000D03*
X131700000Y-92700000D03*
X131700000Y-92000000D03*
X131700000Y-91300000D03*
X131000000Y-91300000D03*
X130300000Y-91300000D03*
X134700000Y-71600000D03*
X134700000Y-72200000D03*
X103600000Y-68800000D03*
X103600000Y-84500000D03*
X103000000Y-84500000D03*
X103600000Y-83900000D03*
X103000000Y-85100000D03*
X103000000Y-83900000D03*
X103600000Y-85100000D03*
X103600000Y-85700000D03*
X103000000Y-85700000D03*
X110500000Y-72200000D03*
X110500000Y-71600000D03*
X110500000Y-71000000D03*
X111100000Y-72200000D03*
X111100000Y-71600000D03*
X111100000Y-71000000D03*
X113500000Y-72800000D03*
X112300000Y-72800000D03*
X113500000Y-71600000D03*
X113500000Y-71000000D03*
X111100000Y-72800000D03*
X111700000Y-72800000D03*
X112900000Y-72800000D03*
X110500000Y-72800000D03*
X113500000Y-72200000D03*
D18*
X109637000Y-65202000D03*
D17*
X131000000Y-55000000D03*
D18*
X184900000Y-89411500D03*
D17*
X142293000Y-89147000D03*
D18*
X182707267Y-90123962D03*
X181352084Y-91989212D03*
X181352084Y-94294788D03*
X182707267Y-96160038D03*
X184900000Y-96872500D03*
X187092733Y-96160038D03*
X188447916Y-94294788D03*
X188447916Y-91989212D03*
X187092733Y-90123962D03*
D17*
X137084000Y-98603000D03*
X139243000Y-98603000D03*
X154546500Y-94031000D03*
X158039000Y-85839500D03*
X181534000Y-84823496D03*
X152959000Y-74219002D03*
X190741500Y-62789000D03*
X186931500Y-65011500D03*
X112827000Y-91999000D03*
X136322000Y-84188504D03*
X156320890Y-70345500D03*
X181534000Y-63932000D03*
X127846675Y-67419298D03*
X124000000Y-70000000D03*
D19*
X123400000Y-63400000D03*
D17*
X124600000Y-83600000D03*
X128025000Y-95200000D03*
X128600000Y-98200000D03*
X113300000Y-61900000D03*
X101500000Y-83000000D03*
X118128500Y-82671500D03*
X118900000Y-53500000D03*
X100800000Y-55100000D03*
X100800000Y-55800000D03*
X100800000Y-56500000D03*
X100800000Y-57200000D03*
X101600000Y-55100000D03*
X103400000Y-56500000D03*
X103400000Y-57100000D03*
X105000000Y-57200000D03*
X105000000Y-56600000D03*
X105000000Y-55900000D03*
X105000000Y-55100000D03*
X105800000Y-55100000D03*
X106500000Y-55100000D03*
X107900000Y-57600000D03*
X107900000Y-56100000D03*
X107900000Y-56900000D03*
X107900000Y-55300000D03*
X100800000Y-66300000D03*
X100800000Y-66900000D03*
X100800000Y-67500000D03*
X100800000Y-68200000D03*
X100800000Y-68800000D03*
X101500000Y-68800000D03*
X102300000Y-68800000D03*
X103000000Y-68800000D03*
X103600000Y-68000000D03*
X103570000Y-67230000D03*
X104970000Y-67230000D03*
X105000000Y-68100000D03*
X105000000Y-68800000D03*
X105800000Y-68800000D03*
X106500000Y-68800000D03*
X107200000Y-68800000D03*
X107900000Y-68800000D03*
X107900000Y-67900000D03*
X107900000Y-66400000D03*
X105000000Y-66400000D03*
X103600000Y-66400000D03*
X107900000Y-67100000D03*
X100800000Y-72600000D03*
X101400000Y-72600000D03*
X102000000Y-72600000D03*
X102600000Y-72600000D03*
X103200000Y-72600000D03*
X103800000Y-72600000D03*
X103800000Y-72000000D03*
X103800000Y-71400000D03*
X103800000Y-70800000D03*
X134700000Y-71000000D03*
X131010000Y-92040000D03*
X147860000Y-62520000D03*
X109400000Y-51500000D03*
X172115000Y-81055000D03*
X182760000Y-71870000D03*
X182860000Y-74420000D03*
X187610000Y-73220000D03*
X177460000Y-83020000D03*
X153400000Y-59100000D03*
X156800000Y-64300000D03*
X175300000Y-69500000D03*
X167900000Y-52900000D03*
X170800000Y-53100000D03*
X173600000Y-79100000D03*
X175900000Y-77300000D03*
X177900000Y-85100000D03*
X179600000Y-79300000D03*
X160500000Y-58100000D03*
X158975337Y-55424990D03*
X172700000Y-53700000D03*
X157100000Y-78500000D03*
X161500000Y-75000000D03*
X128700000Y-80100000D03*
X131235000Y-84565000D03*
X130500000Y-85100000D03*
X151800000Y-86400000D03*
X148700000Y-88500000D03*
X145736000Y-91364000D03*
X144515207Y-82839172D03*
X141400000Y-59300000D03*
X140900000Y-64200000D03*
X143700000Y-64700000D03*
X158000000Y-87300000D03*
X168600000Y-90200000D03*
X173100000Y-90000000D03*
X174800000Y-83000000D03*
X170900000Y-85400000D03*
X164300000Y-88300000D03*
X131100000Y-53900000D03*
X129700000Y-65300000D03*
X131200000Y-65400000D03*
X127800000Y-58500000D03*
X126400000Y-89700000D03*
X176900000Y-60700000D03*
X165605883Y-70265883D03*
X176898500Y-58407504D03*
X164750000Y-71250000D03*
X168500000Y-74700000D03*
X175000000Y-81800000D03*
X173500000Y-66750000D03*
X165750000Y-72250000D03*
X114700000Y-56000000D03*
X119200000Y-55500000D03*
X117000000Y-64900000D03*
X117000000Y-67200000D03*
X127960000Y-93520000D03*
X132060000Y-86620000D03*
X130000000Y-95000000D03*
X138225000Y-79475000D03*
X182300000Y-81000000D03*
X181300000Y-80200000D03*
X170300000Y-83300000D03*
X169200000Y-81700000D03*
X171500000Y-77500000D03*
X158500000Y-58250000D03*
X166750000Y-71500000D03*
X163750000Y-67500000D03*
X186924990Y-83000000D03*
X180000000Y-82750000D03*
X170000000Y-84400000D03*
X156700000Y-77400000D03*
X153600000Y-77900000D03*
X150613588Y-79585354D03*
X166100000Y-85000000D03*
X119400000Y-89050000D03*
D20*
X127940000Y-49200000D02*
X129540011Y-47599989D01*
X150099989Y-69475732D02*
X150099989Y-70475733D01*
X129540011Y-47599989D02*
X136624268Y-47599989D01*
X136624268Y-47599989D02*
X137500009Y-48475731D01*
X137500009Y-48475731D02*
X137500009Y-56875752D01*
X150099989Y-70475733D02*
X149950723Y-70624999D01*
X149950723Y-70624999D02*
X149671999Y-70624999D01*
X149671999Y-70624999D02*
X149424999Y-70871999D01*
X149714799Y-71849241D02*
X150068352Y-71849241D01*
X149424999Y-70871999D02*
X149424999Y-71559441D01*
X149424999Y-71559441D02*
X149714799Y-71849241D01*
X137500009Y-56875752D02*
X141412128Y-60787872D01*
X141412128Y-60787872D02*
X150099989Y-69475732D01*
X148800000Y-57900000D02*
X151100000Y-57900000D01*
X145900000Y-60800000D02*
X148800000Y-57900000D01*
X143900000Y-60800000D02*
X145900000Y-60800000D01*
X143700000Y-60600000D02*
X143900000Y-60800000D01*
X142800000Y-60600000D02*
X143700000Y-60600000D01*
X167750000Y-70250000D02*
X167250000Y-70750000D01*
X179000000Y-72250000D02*
X177000000Y-70250000D01*
X179000000Y-82500000D02*
X179000000Y-72250000D01*
X179750000Y-83250000D02*
X179000000Y-82500000D01*
X180250000Y-83500000D02*
X180000000Y-83250000D01*
X177000000Y-70250000D02*
X167750000Y-70250000D01*
X180000000Y-83250000D02*
X179750000Y-83250000D01*
X180250000Y-84250000D02*
X180250000Y-83500000D01*
X167250000Y-70750000D02*
X167000000Y-70750000D01*
X179000000Y-72250000D02*
X179250000Y-72250000D01*
X179750000Y-72250000D02*
X180000000Y-72500000D01*
X179250000Y-72250000D02*
X179750000Y-72250000D01*
X126475001Y-49716001D02*
X127423999Y-49716001D01*
X125024999Y-50275001D02*
X125916001Y-50275001D01*
X125916001Y-50275001D02*
X126475001Y-49716001D01*
X121717000Y-73517000D02*
X121717000Y-53583000D01*
X118538500Y-76695500D02*
X121717000Y-73517000D01*
X127423999Y-49716001D02*
X127940000Y-49200000D01*
X121717000Y-53583000D02*
X125024999Y-50275001D01*
X117970500Y-76695500D02*
X118538500Y-76695500D01*
X156832500Y-50787500D02*
X158420000Y-49200000D01*
X154915861Y-81553144D02*
X164790217Y-91427500D01*
X153811558Y-70320697D02*
X154915861Y-71425000D01*
X154915861Y-71425000D02*
X154915861Y-81553144D01*
X164790217Y-91427500D02*
X166738500Y-91427500D01*
X150425000Y-49200000D02*
X152012500Y-50787500D01*
X148260000Y-49200000D02*
X150425000Y-49200000D01*
X152012500Y-50787500D02*
X156832500Y-50787500D01*
X148260000Y-49200000D02*
X146800000Y-50660000D01*
X146800000Y-54400000D02*
X145700000Y-55500000D01*
X146800000Y-50660000D02*
X146800000Y-54400000D01*
X154991000Y-70345500D02*
X155626000Y-70980500D01*
X155626000Y-70980500D02*
X155626000Y-81839004D01*
X163944496Y-90157500D02*
X166738500Y-90157500D01*
X155626000Y-81839004D02*
X163944496Y-90157500D01*
X149617365Y-69717365D02*
X149617365Y-70153141D01*
X137200000Y-57300000D02*
X142350000Y-62450000D01*
X137200000Y-48600000D02*
X137200000Y-57300000D01*
X136500000Y-47900000D02*
X137200000Y-48600000D01*
X131780000Y-47900000D02*
X136500000Y-47900000D01*
X130480000Y-49200000D02*
X131780000Y-47900000D01*
X142350000Y-62450000D02*
X149617365Y-69717365D01*
X146100000Y-61100000D02*
X143300000Y-61100000D01*
X148900000Y-58300000D02*
X146100000Y-61100000D01*
X150100000Y-58300000D02*
X148900000Y-58300000D01*
X150500000Y-58700000D02*
X150100000Y-58300000D01*
X178500000Y-83250000D02*
X178500000Y-72500000D01*
X177750000Y-84000000D02*
X178500000Y-83250000D01*
X171500000Y-70750000D02*
X170500000Y-71750000D01*
X176750000Y-70750000D02*
X171750000Y-70750000D01*
X171750000Y-70750000D02*
X171500000Y-70750000D01*
X178000000Y-72500000D02*
X178250000Y-72250000D01*
X177500000Y-72500000D02*
X178000000Y-72500000D01*
X178250000Y-72250000D02*
X176750000Y-70750000D01*
X178500000Y-72500000D02*
X178250000Y-72250000D01*
X129714499Y-49965501D02*
X130480000Y-49200000D01*
X128765501Y-49965501D02*
X129714499Y-49965501D01*
X128456001Y-50275001D02*
X128765501Y-49965501D01*
X126524999Y-50275001D02*
X128456001Y-50275001D01*
X125500000Y-50700000D02*
X126100000Y-50700000D01*
X122542500Y-53657500D02*
X125500000Y-50700000D01*
X126100000Y-50700000D02*
X126524999Y-50275001D01*
X122542500Y-74157500D02*
X122542500Y-53657500D01*
X118618000Y-78082000D02*
X122542500Y-74157500D01*
X118618000Y-78270500D02*
X118618000Y-78082000D01*
X117970500Y-78918000D02*
X118618000Y-78270500D01*
X168580000Y-49200000D02*
X171880000Y-52500000D01*
X171880000Y-52500000D02*
X171880000Y-54620000D01*
X171880000Y-54620000D02*
X170750000Y-55750000D01*
X172750000Y-64750000D02*
X172750000Y-68724979D01*
X172750000Y-68724979D02*
X172000000Y-69474979D01*
X185700000Y-80400000D02*
X187400000Y-82100000D01*
X187400000Y-82100000D02*
X187400000Y-83500000D01*
X187400000Y-83500000D02*
X187100000Y-83800000D01*
X186460000Y-68170000D02*
X187060000Y-68770000D01*
X187060000Y-71220000D02*
X187310000Y-71470000D01*
X187060000Y-68770000D02*
X187060000Y-71220000D01*
X126018026Y-78299978D02*
X143787978Y-78299978D01*
X116637004Y-87681000D02*
X126018026Y-78299978D01*
X143787978Y-78299978D02*
X144660000Y-79172000D01*
X180700000Y-56200000D02*
X180600000Y-56100000D01*
X184500000Y-56200000D02*
X180700000Y-56200000D01*
X146160000Y-78132000D02*
X144660000Y-76632000D01*
X141820000Y-80320000D02*
X146160000Y-80320000D01*
X127877011Y-78599989D02*
X140099989Y-78599989D01*
X140099989Y-78599989D02*
X141820000Y-80320000D01*
X116637000Y-89840000D02*
X127877011Y-78599989D01*
X146160000Y-80320000D02*
X146160000Y-78132000D01*
X165225001Y-75721446D02*
X164400000Y-76546447D01*
X165225001Y-71426441D02*
X165225001Y-75721446D01*
X174851442Y-61800000D02*
X165225001Y-71426441D01*
X180200000Y-58500000D02*
X176900000Y-61800000D01*
X176900000Y-61800000D02*
X174851442Y-61800000D01*
X180200000Y-57200000D02*
X180200000Y-58500000D01*
X164400000Y-76546447D02*
X164400000Y-76900000D01*
X185788500Y-60249000D02*
X186849000Y-60249000D01*
X193580000Y-66980000D02*
X193980000Y-66980000D01*
X186849000Y-60249000D02*
X193580000Y-66980000D01*
X159817000Y-62217496D02*
X156424991Y-65609505D01*
X156424991Y-65609505D02*
X156424991Y-66384625D01*
X156424991Y-66384625D02*
X156924989Y-66884623D01*
X156924989Y-66884623D02*
X156924989Y-67924989D01*
X161468000Y-72468000D02*
X161468000Y-73457000D01*
X156924989Y-67924989D02*
X161468000Y-72468000D01*
X156424991Y-66384625D02*
X153315375Y-66384625D01*
X153315375Y-66384625D02*
X151700000Y-68000000D01*
X149900000Y-71100000D02*
X150400000Y-70600000D01*
X150400000Y-70600000D02*
X150400000Y-69000000D01*
X150400000Y-69000000D02*
X137900000Y-56500000D01*
X137900000Y-56500000D02*
X137900000Y-47900000D01*
X137900000Y-47900000D02*
X137000000Y-47000000D01*
X127600000Y-47000000D02*
X125400000Y-49200000D01*
X137000000Y-47000000D02*
X127600000Y-47000000D01*
X125100000Y-49200000D02*
X125400000Y-49200000D01*
X120828000Y-53472000D02*
X125100000Y-49200000D01*
X120828000Y-73372000D02*
X120828000Y-53472000D01*
X119663500Y-74536500D02*
X120828000Y-73372000D01*
X117970500Y-74536500D02*
X119663500Y-74536500D01*
X139650000Y-78900000D02*
X141500000Y-80750000D01*
X150800000Y-77330500D02*
X152959000Y-77330500D01*
X147380500Y-80750000D02*
X150800000Y-77330500D01*
X141500000Y-80750000D02*
X147380500Y-80750000D01*
X127559000Y-80442000D02*
X129101000Y-78900000D01*
X129101000Y-78900000D02*
X139650000Y-78900000D01*
D21*
X128000000Y-92400000D02*
X128000000Y-91600000D01*
X130740000Y-88860000D02*
X131260000Y-88860000D01*
X128000000Y-91600000D02*
X130740000Y-88860000D01*
D20*
X108500000Y-53800000D02*
X107400000Y-54900000D01*
X107400000Y-54900000D02*
X107400000Y-62200000D01*
X106400000Y-63200000D02*
X105800000Y-63200000D01*
X107400000Y-62200000D02*
X106400000Y-63200000D01*
X107900000Y-53300000D02*
X107000000Y-54200000D01*
X107000000Y-54200000D02*
X107000000Y-59300000D01*
X107000000Y-59300000D02*
X105700000Y-60600000D01*
X117695940Y-57900000D02*
X118095950Y-58300010D01*
X115500000Y-57900000D02*
X117695940Y-57900000D01*
X116291500Y-62991500D02*
X109637000Y-62991500D01*
X116291500Y-62991500D02*
X118600000Y-65300000D01*
X118600000Y-65300000D02*
X118600000Y-65700000D01*
X109637000Y-60771500D02*
X109637000Y-61037000D01*
X109637000Y-61037000D02*
X111100000Y-62500000D01*
X116796380Y-62500000D02*
X118548190Y-64251810D01*
X118548190Y-64251810D02*
X119651746Y-65355366D01*
X111100000Y-62500000D02*
X116796380Y-62500000D01*
X168279004Y-83220996D02*
X168279004Y-79724505D01*
X168900000Y-84600000D02*
X168900000Y-83841992D01*
X168900000Y-83841992D02*
X168279004Y-83220996D01*
X168279004Y-79724505D02*
X165212074Y-76657575D01*
X153594000Y-91935500D02*
X154546500Y-92888000D01*
X153594000Y-84094000D02*
X153594000Y-91935500D01*
X154265316Y-90701816D02*
X154265316Y-84596501D01*
X154546500Y-90983000D02*
X154265316Y-90701816D01*
X165015001Y-85975001D02*
X164760000Y-85720000D01*
X187684999Y-85975001D02*
X165015001Y-85975001D01*
X193980000Y-79680000D02*
X187684999Y-85975001D01*
X189924988Y-86275012D02*
X163815012Y-86275012D01*
X163815012Y-86275012D02*
X163160000Y-85620000D01*
X193980000Y-82220000D02*
X189924988Y-86275012D01*
X192164977Y-86575023D02*
X193980000Y-84760000D01*
X162465023Y-86575023D02*
X192164977Y-86575023D01*
X161510000Y-85620000D02*
X162465023Y-86575023D01*
X193580000Y-86900000D02*
X161390000Y-86900000D01*
X161095000Y-86605000D02*
X160210000Y-85720000D01*
X193980000Y-87300000D02*
X193580000Y-86900000D01*
X161390000Y-86900000D02*
X161095000Y-86605000D01*
X122860000Y-49200000D02*
X122860000Y-50040000D01*
X122860000Y-50040000D02*
X120300000Y-52600000D01*
X120300000Y-52600000D02*
X120300000Y-70200000D01*
X120300000Y-70200000D02*
X120300000Y-72400000D01*
X120300000Y-72400000D02*
X118900000Y-73800000D01*
X156800000Y-84200000D02*
X155200000Y-82600000D01*
X152000000Y-82600000D02*
X151600000Y-83000000D01*
X155200000Y-82600000D02*
X152000000Y-82600000D01*
X157400000Y-82800000D02*
X156700000Y-82100000D01*
X165600000Y-85500000D02*
X165000000Y-84900000D01*
X159600000Y-84900000D02*
X157500000Y-82800000D01*
X157500000Y-82800000D02*
X157400000Y-82800000D01*
X165000000Y-84900000D02*
X159600000Y-84900000D01*
X167600000Y-85500000D02*
X165600000Y-85500000D01*
X171300000Y-84000000D02*
X172000000Y-84000000D01*
X169600000Y-85300000D02*
X169400000Y-85500000D01*
X170000000Y-85300000D02*
X169600000Y-85300000D01*
X167600000Y-85500000D02*
X169400000Y-85500000D01*
X170000000Y-85300000D02*
X171300000Y-84000000D01*
X154229000Y-77521000D02*
X154229000Y-78410000D01*
X154229000Y-78410000D02*
X152566582Y-80072418D01*
X152566582Y-80072418D02*
X150183142Y-80072418D01*
X150101500Y-73393500D02*
X154229000Y-77521000D01*
X186042500Y-58153500D02*
X190233500Y-58153500D01*
X190233500Y-58153500D02*
X193980000Y-61900000D01*
X185589000Y-57700000D02*
X186042500Y-58153500D01*
X182900000Y-57700000D02*
X185589000Y-57700000D01*
X166100000Y-59000000D02*
X164900000Y-59000000D01*
X164900000Y-59000000D02*
X163300000Y-57400000D01*
X170000000Y-64400000D02*
X170000000Y-59800000D01*
X170600000Y-59200000D02*
X171600000Y-59200000D01*
X170000000Y-59800000D02*
X170600000Y-59200000D01*
X160324998Y-91427500D02*
X156297641Y-87400143D01*
X156297641Y-87400143D02*
X156297641Y-84612493D01*
X156297641Y-84612493D02*
X156297641Y-84121920D01*
X154990325Y-83257177D02*
X154740326Y-83507176D01*
X156297641Y-84121920D02*
X155432899Y-83257177D01*
X155432899Y-83257177D02*
X154990325Y-83257177D01*
X159886500Y-93586500D02*
X155314960Y-89014960D01*
X160324998Y-93586500D02*
X159886500Y-93586500D01*
X155314960Y-89014960D02*
X155314960Y-83811004D01*
X158737504Y-66472000D02*
X160828000Y-66472000D01*
X160828000Y-66472000D02*
X173030000Y-54270000D01*
X173030000Y-54270000D02*
X193970000Y-54270000D01*
X193970000Y-54270000D02*
X193980000Y-54280000D01*
X160880000Y-67000000D02*
X159200000Y-67000000D01*
X192138500Y-54978500D02*
X172901500Y-54978500D01*
X193980000Y-56820000D02*
X192138500Y-54978500D01*
X172901500Y-54978500D02*
X163890000Y-63990000D01*
X163890000Y-63990000D02*
X163890000Y-64090000D01*
X163890000Y-64090000D02*
X165100000Y-65300000D01*
X163890000Y-63990000D02*
X160880000Y-67000000D01*
X165600000Y-65300000D02*
X166600000Y-64300000D01*
X165500000Y-65300000D02*
X165600000Y-65300000D01*
X165100000Y-65300000D02*
X165500000Y-65300000D01*
X190510000Y-55470000D02*
X193980000Y-58940000D01*
X172930000Y-55470000D02*
X190510000Y-55470000D01*
X193980000Y-58940000D02*
X193980000Y-59360000D01*
X165300000Y-64300000D02*
X165100000Y-64500000D01*
X165300000Y-63100000D02*
X165300000Y-64300000D01*
X165300000Y-63100000D02*
X172930000Y-55470000D01*
X177900000Y-81500000D02*
X177700000Y-81700000D01*
X177900000Y-77200000D02*
X177900000Y-81500000D01*
X146956000Y-96190000D02*
X148260000Y-97494000D01*
X139053198Y-96190000D02*
X146956000Y-96190000D01*
X137788388Y-97454811D02*
X139053198Y-96190000D01*
X121954811Y-97454811D02*
X137788388Y-97454811D01*
X114276500Y-89776500D02*
X121954811Y-97454811D01*
X112827000Y-89776500D02*
X114276500Y-89776500D01*
X148958401Y-95652401D02*
X150800000Y-97494000D01*
X138947599Y-95652401D02*
X148958401Y-95652401D01*
X122146000Y-97000000D02*
X137600000Y-97000000D01*
X112827000Y-87681000D02*
X122146000Y-97000000D01*
X137600000Y-97000000D02*
X138947599Y-95652401D01*
X176900000Y-60700000D02*
X175171766Y-60700000D01*
X175171766Y-60700000D02*
X165605883Y-70265883D01*
X165000000Y-71000000D02*
X164750000Y-71250000D01*
X165000000Y-70148774D02*
X165000000Y-71000000D01*
X176741270Y-58407504D02*
X165000000Y-70148774D01*
X176898500Y-58407504D02*
X176741270Y-58407504D01*
X175000000Y-81800000D02*
X174600000Y-81800000D01*
X168500000Y-75700000D02*
X168500000Y-74700000D01*
X174600000Y-81800000D02*
X168500000Y-75700000D01*
X173500000Y-69575721D02*
X173125732Y-69949989D01*
X165750000Y-71325721D02*
X165750000Y-72250000D01*
X167125732Y-69949989D02*
X165750000Y-71325721D01*
X173125732Y-69949989D02*
X167125732Y-69949989D01*
X173500000Y-66750000D02*
X173500000Y-69575721D01*
X114700000Y-56000000D02*
X118200000Y-56000000D01*
X118700000Y-55500000D02*
X118200000Y-56000000D01*
X119200000Y-55500000D02*
X118700000Y-55500000D01*
X117000000Y-64900000D02*
X117000000Y-67200000D01*
X130750000Y-95750000D02*
X130000000Y-95000000D01*
X132000000Y-95750000D02*
X130750000Y-95750000D01*
X132500000Y-95250000D02*
X132000000Y-95750000D01*
X133750000Y-95250000D02*
X132500000Y-95250000D01*
X135500000Y-93500000D02*
X133750000Y-95250000D01*
X136650000Y-80100000D02*
X135500000Y-81250000D01*
X135500000Y-81250000D02*
X135500000Y-93500000D01*
X137600000Y-80100000D02*
X136650000Y-80100000D01*
X138225000Y-79475000D02*
X137600000Y-80100000D01*
X182300000Y-81000000D02*
X181500000Y-80200000D01*
X181500000Y-80200000D02*
X181300000Y-80200000D01*
X170300000Y-82800000D02*
X169200000Y-81700000D01*
X170300000Y-83300000D02*
X170300000Y-82800000D01*
X171500000Y-77500000D02*
X171500000Y-75250000D01*
X171500000Y-75250000D02*
X171500000Y-75000000D01*
X171500000Y-75000000D02*
X168750000Y-72250000D01*
X157750000Y-65500000D02*
X157500000Y-65500000D01*
X157500000Y-65500000D02*
X157250000Y-65750000D01*
X157250000Y-65750000D02*
X157250000Y-66750000D01*
X157250000Y-66750000D02*
X158500000Y-68000000D01*
X168750000Y-72250000D02*
X167500000Y-72250000D01*
X167500000Y-72250000D02*
X166750000Y-71500000D01*
X163250000Y-68000000D02*
X163750000Y-67500000D01*
X158500000Y-68000000D02*
X163250000Y-68000000D01*
X160325000Y-62925000D02*
X157750000Y-65500000D01*
X158500000Y-60050000D02*
X160325000Y-61875000D01*
X158500000Y-58250000D02*
X158500000Y-60050000D01*
X160325000Y-62925000D02*
X160325000Y-61875000D01*
X186824990Y-83100000D02*
X186924990Y-83000000D01*
X180750000Y-82750000D02*
X181100000Y-83100000D01*
X180000000Y-82750000D02*
X180750000Y-82750000D01*
X181100000Y-83100000D02*
X186824990Y-83100000D01*
X153600000Y-77900000D02*
X152298942Y-77900000D01*
X152298942Y-77900000D02*
X150613588Y-79585354D01*
X170000000Y-84400000D02*
X169300000Y-85100000D01*
X169300000Y-85100000D02*
X167903002Y-85100000D01*
X160203002Y-77400000D02*
X156700000Y-77400000D01*
X167903002Y-85100000D02*
X167551501Y-84748499D01*
X167551501Y-84748499D02*
X160203002Y-77400000D01*
X167403002Y-84600000D02*
X166500000Y-84600000D01*
X166500000Y-84600000D02*
X166100000Y-85000000D01*
X167551501Y-84748499D02*
X167403002Y-84600000D01*
X128860000Y-94420000D02*
X127960000Y-93520000D01*
X130660000Y-94420000D02*
X128860000Y-94420000D01*
X131460000Y-94520000D02*
X130760000Y-94520000D01*
X134560000Y-92620000D02*
X133760000Y-93420000D01*
X130760000Y-94520000D02*
X130660000Y-94420000D01*
X133760000Y-93420000D02*
X132560000Y-93420000D01*
X134560000Y-89620000D02*
X134560000Y-92620000D01*
X132060000Y-87120000D02*
X134560000Y-89620000D01*
X132560000Y-93420000D02*
X131460000Y-94520000D01*
X132060000Y-86620000D02*
X132060000Y-87120000D01*
M02*
