%TF.GenerationSoftware,KiCad,Pcbnew,5.99.0+really5.1.12+dfsg1-1*%
%TF.CreationDate,2021-12-16T16:23:16+08:00*%
%TF.ProjectId,PSLab,50534c61-622e-46b6-9963-61645f706362,v6.0-beta*%
%TF.SameCoordinates,Original*%
%TF.FileFunction,Soldermask,Bot*%
%TF.FilePolarity,Negative*%
%FSLAX46Y46*%
G04 Gerber Fmt 4.6, Leading zero omitted, Abs format (unit mm)*
G04 Created by KiCad (PCBNEW 5.99.0+really5.1.12+dfsg1-1) date 2021-12-16 16:23:16*
%MOMM*%
%LPD*%
G01*
G04 APERTURE LIST*
%ADD10C,0.010000*%
%ADD11C,0.650000*%
%ADD12O,1.700000X1.700000*%
%ADD13R,1.700000X1.700000*%
%ADD14R,1.000000X1.000000*%
%ADD15R,1.727200X1.727200*%
%ADD16O,1.727200X1.727200*%
%ADD17C,5.600000*%
G04 APERTURE END LIST*
D10*
%TO.C,Z9*%
G36*
X94655699Y-67705810D02*
G01*
X94714166Y-67707924D01*
X94761649Y-67711394D01*
X94849812Y-67722772D01*
X94937316Y-67738883D01*
X95021210Y-67758975D01*
X95098539Y-67782293D01*
X95166351Y-67808084D01*
X95197656Y-67822616D01*
X95282126Y-67872598D01*
X95357007Y-67932732D01*
X95421907Y-68002464D01*
X95476433Y-68081243D01*
X95520191Y-68168515D01*
X95552789Y-68263728D01*
X95570897Y-68347233D01*
X95584899Y-68464588D01*
X95586925Y-68574614D01*
X95576909Y-68677546D01*
X95554787Y-68773622D01*
X95520493Y-68863075D01*
X95473963Y-68946144D01*
X95415131Y-69023064D01*
X95372545Y-69067677D01*
X95292386Y-69135450D01*
X95203217Y-69192411D01*
X95105181Y-69238488D01*
X94998422Y-69273611D01*
X94930140Y-69289415D01*
X94901402Y-69293698D01*
X94863035Y-69297463D01*
X94818790Y-69300544D01*
X94772419Y-69302772D01*
X94727673Y-69303977D01*
X94688302Y-69303993D01*
X94658058Y-69302649D01*
X94651222Y-69301943D01*
X94541013Y-69283204D01*
X94441759Y-69255896D01*
X94352996Y-69219741D01*
X94274257Y-69174459D01*
X94205077Y-69119770D01*
X94144992Y-69055393D01*
X94093535Y-68981050D01*
X94080958Y-68959045D01*
X94044642Y-68882644D01*
X94017108Y-68801120D01*
X93997773Y-68712243D01*
X93986054Y-68613785D01*
X93984417Y-68590250D01*
X93984681Y-68513052D01*
X93995238Y-68433952D01*
X93995968Y-68431076D01*
X94390938Y-68431076D01*
X94391165Y-68499931D01*
X94397655Y-68565086D01*
X94410402Y-68623523D01*
X94428669Y-68670791D01*
X94460249Y-68717917D01*
X94502557Y-68757316D01*
X94554262Y-68788584D01*
X94614030Y-68811317D01*
X94680530Y-68825112D01*
X94752428Y-68829564D01*
X94828392Y-68824271D01*
X94894639Y-68811933D01*
X94965646Y-68789339D01*
X95026855Y-68758331D01*
X95077677Y-68719697D01*
X95117520Y-68674224D01*
X95145796Y-68622700D01*
X95161914Y-68565911D01*
X95165285Y-68504647D01*
X95159519Y-68458367D01*
X95143505Y-68403181D01*
X95118208Y-68356791D01*
X95083976Y-68317978D01*
X95029587Y-68275520D01*
X94966011Y-68241647D01*
X94892162Y-68215855D01*
X94834034Y-68202390D01*
X94799926Y-68197089D01*
X94756764Y-68192222D01*
X94707819Y-68187975D01*
X94656360Y-68184534D01*
X94605657Y-68182088D01*
X94558978Y-68180822D01*
X94519595Y-68180924D01*
X94490777Y-68182580D01*
X94489643Y-68182711D01*
X94444480Y-68188084D01*
X94427891Y-68232480D01*
X94409296Y-68294332D01*
X94396980Y-68361537D01*
X94390938Y-68431076D01*
X93995968Y-68431076D01*
X94016522Y-68350152D01*
X94026182Y-68320375D01*
X94033630Y-68296245D01*
X94037717Y-68278246D01*
X94037762Y-68269566D01*
X94037130Y-68269222D01*
X94023116Y-68272277D01*
X93999990Y-68280475D01*
X93971119Y-68292370D01*
X93939870Y-68306516D01*
X93909608Y-68321465D01*
X93887482Y-68333544D01*
X93850467Y-68358688D01*
X93809600Y-68392507D01*
X93768385Y-68431633D01*
X93730322Y-68472698D01*
X93698914Y-68512333D01*
X93693531Y-68520102D01*
X93647323Y-68597732D01*
X93606454Y-68684136D01*
X93572987Y-68774366D01*
X93548983Y-68863470D01*
X93547461Y-68870753D01*
X93540465Y-68909531D01*
X93533531Y-68955794D01*
X93527113Y-69005607D01*
X93521667Y-69055035D01*
X93517647Y-69100145D01*
X93515507Y-69137002D01*
X93515278Y-69149360D01*
X93514508Y-69172192D01*
X93512501Y-69188089D01*
X93509986Y-69193360D01*
X93501833Y-69192848D01*
X93481445Y-69191475D01*
X93450666Y-69189366D01*
X93411339Y-69186649D01*
X93365306Y-69183451D01*
X93314410Y-69179898D01*
X93307139Y-69179389D01*
X93255651Y-69175795D01*
X93208712Y-69172539D01*
X93168178Y-69169747D01*
X93135905Y-69167548D01*
X93113748Y-69166067D01*
X93103563Y-69165432D01*
X93103209Y-69165419D01*
X93100622Y-69158704D01*
X93099335Y-69140218D01*
X93099226Y-69112228D01*
X93100175Y-69077000D01*
X93102061Y-69036804D01*
X93104765Y-68993905D01*
X93108165Y-68950572D01*
X93112140Y-68909072D01*
X93116571Y-68871672D01*
X93120103Y-68847778D01*
X93150208Y-68701637D01*
X93190555Y-68565195D01*
X93241166Y-68438420D01*
X93302062Y-68321279D01*
X93373267Y-68213742D01*
X93454802Y-68115775D01*
X93546689Y-68027347D01*
X93648951Y-67948426D01*
X93761610Y-67878979D01*
X93808765Y-67854258D01*
X93904551Y-67811238D01*
X94005848Y-67775580D01*
X94115328Y-67746450D01*
X94221050Y-67725471D01*
X94264872Y-67719516D01*
X94319782Y-67714480D01*
X94382781Y-67710441D01*
X94450871Y-67707476D01*
X94521053Y-67705664D01*
X94590328Y-67705082D01*
X94655699Y-67705810D01*
G37*
X94655699Y-67705810D02*
X94714166Y-67707924D01*
X94761649Y-67711394D01*
X94849812Y-67722772D01*
X94937316Y-67738883D01*
X95021210Y-67758975D01*
X95098539Y-67782293D01*
X95166351Y-67808084D01*
X95197656Y-67822616D01*
X95282126Y-67872598D01*
X95357007Y-67932732D01*
X95421907Y-68002464D01*
X95476433Y-68081243D01*
X95520191Y-68168515D01*
X95552789Y-68263728D01*
X95570897Y-68347233D01*
X95584899Y-68464588D01*
X95586925Y-68574614D01*
X95576909Y-68677546D01*
X95554787Y-68773622D01*
X95520493Y-68863075D01*
X95473963Y-68946144D01*
X95415131Y-69023064D01*
X95372545Y-69067677D01*
X95292386Y-69135450D01*
X95203217Y-69192411D01*
X95105181Y-69238488D01*
X94998422Y-69273611D01*
X94930140Y-69289415D01*
X94901402Y-69293698D01*
X94863035Y-69297463D01*
X94818790Y-69300544D01*
X94772419Y-69302772D01*
X94727673Y-69303977D01*
X94688302Y-69303993D01*
X94658058Y-69302649D01*
X94651222Y-69301943D01*
X94541013Y-69283204D01*
X94441759Y-69255896D01*
X94352996Y-69219741D01*
X94274257Y-69174459D01*
X94205077Y-69119770D01*
X94144992Y-69055393D01*
X94093535Y-68981050D01*
X94080958Y-68959045D01*
X94044642Y-68882644D01*
X94017108Y-68801120D01*
X93997773Y-68712243D01*
X93986054Y-68613785D01*
X93984417Y-68590250D01*
X93984681Y-68513052D01*
X93995238Y-68433952D01*
X93995968Y-68431076D01*
X94390938Y-68431076D01*
X94391165Y-68499931D01*
X94397655Y-68565086D01*
X94410402Y-68623523D01*
X94428669Y-68670791D01*
X94460249Y-68717917D01*
X94502557Y-68757316D01*
X94554262Y-68788584D01*
X94614030Y-68811317D01*
X94680530Y-68825112D01*
X94752428Y-68829564D01*
X94828392Y-68824271D01*
X94894639Y-68811933D01*
X94965646Y-68789339D01*
X95026855Y-68758331D01*
X95077677Y-68719697D01*
X95117520Y-68674224D01*
X95145796Y-68622700D01*
X95161914Y-68565911D01*
X95165285Y-68504647D01*
X95159519Y-68458367D01*
X95143505Y-68403181D01*
X95118208Y-68356791D01*
X95083976Y-68317978D01*
X95029587Y-68275520D01*
X94966011Y-68241647D01*
X94892162Y-68215855D01*
X94834034Y-68202390D01*
X94799926Y-68197089D01*
X94756764Y-68192222D01*
X94707819Y-68187975D01*
X94656360Y-68184534D01*
X94605657Y-68182088D01*
X94558978Y-68180822D01*
X94519595Y-68180924D01*
X94490777Y-68182580D01*
X94489643Y-68182711D01*
X94444480Y-68188084D01*
X94427891Y-68232480D01*
X94409296Y-68294332D01*
X94396980Y-68361537D01*
X94390938Y-68431076D01*
X93995968Y-68431076D01*
X94016522Y-68350152D01*
X94026182Y-68320375D01*
X94033630Y-68296245D01*
X94037717Y-68278246D01*
X94037762Y-68269566D01*
X94037130Y-68269222D01*
X94023116Y-68272277D01*
X93999990Y-68280475D01*
X93971119Y-68292370D01*
X93939870Y-68306516D01*
X93909608Y-68321465D01*
X93887482Y-68333544D01*
X93850467Y-68358688D01*
X93809600Y-68392507D01*
X93768385Y-68431633D01*
X93730322Y-68472698D01*
X93698914Y-68512333D01*
X93693531Y-68520102D01*
X93647323Y-68597732D01*
X93606454Y-68684136D01*
X93572987Y-68774366D01*
X93548983Y-68863470D01*
X93547461Y-68870753D01*
X93540465Y-68909531D01*
X93533531Y-68955794D01*
X93527113Y-69005607D01*
X93521667Y-69055035D01*
X93517647Y-69100145D01*
X93515507Y-69137002D01*
X93515278Y-69149360D01*
X93514508Y-69172192D01*
X93512501Y-69188089D01*
X93509986Y-69193360D01*
X93501833Y-69192848D01*
X93481445Y-69191475D01*
X93450666Y-69189366D01*
X93411339Y-69186649D01*
X93365306Y-69183451D01*
X93314410Y-69179898D01*
X93307139Y-69179389D01*
X93255651Y-69175795D01*
X93208712Y-69172539D01*
X93168178Y-69169747D01*
X93135905Y-69167548D01*
X93113748Y-69166067D01*
X93103563Y-69165432D01*
X93103209Y-69165419D01*
X93100622Y-69158704D01*
X93099335Y-69140218D01*
X93099226Y-69112228D01*
X93100175Y-69077000D01*
X93102061Y-69036804D01*
X93104765Y-68993905D01*
X93108165Y-68950572D01*
X93112140Y-68909072D01*
X93116571Y-68871672D01*
X93120103Y-68847778D01*
X93150208Y-68701637D01*
X93190555Y-68565195D01*
X93241166Y-68438420D01*
X93302062Y-68321279D01*
X93373267Y-68213742D01*
X93454802Y-68115775D01*
X93546689Y-68027347D01*
X93648951Y-67948426D01*
X93761610Y-67878979D01*
X93808765Y-67854258D01*
X93904551Y-67811238D01*
X94005848Y-67775580D01*
X94115328Y-67746450D01*
X94221050Y-67725471D01*
X94264872Y-67719516D01*
X94319782Y-67714480D01*
X94382781Y-67710441D01*
X94450871Y-67707476D01*
X94521053Y-67705664D01*
X94590328Y-67705082D01*
X94655699Y-67705810D01*
%TD*%
D11*
%TO.C,SW3*%
X96640000Y-72590000D03*
X96640000Y-78370000D03*
%TD*%
D12*
%TO.C,Z1*%
X133612000Y-92752000D03*
X133612000Y-90212000D03*
X133612000Y-87672000D03*
X133612000Y-85132000D03*
D13*
X133612000Y-82592000D03*
%TD*%
D14*
%TO.C,Z4*%
X100577000Y-76571500D03*
%TD*%
%TO.C,Z3*%
X100579600Y-72097700D03*
%TD*%
%TO.C,Z5*%
X100577000Y-74351500D03*
%TD*%
D15*
%TO.C,J6*%
X94305500Y-104817000D03*
D16*
X94305500Y-102277000D03*
X96845500Y-104817000D03*
X96845500Y-102277000D03*
X99385500Y-104817000D03*
X99385500Y-102277000D03*
X101925500Y-104817000D03*
X101925500Y-102277000D03*
%TD*%
D17*
%TO.C,MH1*%
X104880000Y-111020000D03*
%TD*%
%TO.C,MH2*%
X181090000Y-62780000D03*
%TD*%
%TO.C,MH3*%
X106150000Y-62770000D03*
%TD*%
%TO.C,MH4*%
X187420000Y-111010000D03*
%TD*%
D13*
%TO.C,J1*%
X187460000Y-67860000D03*
D12*
X184920000Y-67860000D03*
X187460000Y-70400000D03*
X184920000Y-70400000D03*
X187460000Y-72940000D03*
X184920000Y-72940000D03*
X187460000Y-75480000D03*
X184920000Y-75480000D03*
X187460000Y-78020000D03*
X184920000Y-78020000D03*
X187460000Y-80560000D03*
X184920000Y-80560000D03*
X187460000Y-83100000D03*
X184920000Y-83100000D03*
X187460000Y-85640000D03*
X184920000Y-85640000D03*
X187460000Y-88180000D03*
X184920000Y-88180000D03*
X187460000Y-90720000D03*
X184920000Y-90720000D03*
X187460000Y-93260000D03*
X184920000Y-93260000D03*
X187460000Y-95800000D03*
X184920000Y-95800000D03*
X187460000Y-98340000D03*
X184920000Y-98340000D03*
X187460000Y-100880000D03*
X184920000Y-100880000D03*
%TD*%
D13*
%TO.C,J2*%
X156980000Y-62780000D03*
D12*
X159520000Y-62780000D03*
X162060000Y-62780000D03*
X164600000Y-62780000D03*
X167140000Y-62780000D03*
X169680000Y-62780000D03*
X172220000Y-62780000D03*
X174760000Y-62780000D03*
%TD*%
%TO.C,J3*%
X164600000Y-111040000D03*
X162060000Y-111040000D03*
X159520000Y-111040000D03*
X156980000Y-111040000D03*
X154440000Y-111040000D03*
X151900000Y-111040000D03*
X149360000Y-111040000D03*
D13*
X146820000Y-111040000D03*
%TD*%
%TO.C,J4*%
X131580000Y-62780000D03*
D12*
X134120000Y-62780000D03*
X136660000Y-62780000D03*
X139200000Y-62780000D03*
%TD*%
D13*
%TO.C,J5*%
X144280000Y-62780000D03*
D12*
X146820000Y-62780000D03*
X149360000Y-62780000D03*
X151900000Y-62780000D03*
%TD*%
%TO.C,J7*%
X141740000Y-111074000D03*
X139200000Y-111074000D03*
X136660000Y-111074000D03*
D13*
X134120000Y-111074000D03*
%TD*%
%TO.C,J9*%
X113800000Y-62780000D03*
D12*
X116340000Y-62780000D03*
X118880000Y-62780000D03*
X121420000Y-62780000D03*
X123960000Y-62780000D03*
X126500000Y-62780000D03*
%TD*%
D14*
%TO.C,Z2*%
X100577000Y-78782000D03*
%TD*%
D13*
%TO.C,J8*%
X93162500Y-111294000D03*
D12*
X93162500Y-108754000D03*
%TD*%
D13*
%TO.C,J11*%
X99703000Y-110024000D03*
D12*
X97163000Y-110024000D03*
%TD*%
M02*
