%TF.GenerationSoftware,KiCad,Pcbnew,5.99.0+really5.1.12+dfsg1-1*%
%TF.CreationDate,2021-12-16T16:23:16+08:00*%
%TF.ProjectId,PSLab,50534c61-622e-46b6-9963-61645f706362,v6.0-beta*%
%TF.SameCoordinates,Original*%
%TF.FileFunction,Soldermask,Top*%
%TF.FilePolarity,Negative*%
%FSLAX46Y46*%
G04 Gerber Fmt 4.6, Leading zero omitted, Abs format (unit mm)*
G04 Created by KiCad (PCBNEW 5.99.0+really5.1.12+dfsg1-1) date 2021-12-16 16:23:16*
%MOMM*%
%LPD*%
G01*
G04 APERTURE LIST*
%ADD10C,0.100000*%
%ADD11C,0.500000*%
%ADD12R,0.800000X1.200000*%
%ADD13R,2.000000X0.650000*%
%ADD14O,0.700000X0.200000*%
%ADD15O,0.200000X0.700000*%
%ADD16R,1.600000X1.600000*%
%ADD17R,0.650000X2.000000*%
%ADD18R,1.500000X2.020000*%
%ADD19R,1.450000X0.600000*%
%ADD20R,1.450000X0.300000*%
%ADD21C,0.650000*%
%ADD22R,2.600000X2.600000*%
%ADD23R,0.900000X1.300000*%
%ADD24R,1.060000X0.650000*%
%ADD25R,1.200000X0.900000*%
%ADD26R,1.500000X1.000000*%
%ADD27O,1.700000X1.700000*%
%ADD28R,1.700000X1.700000*%
%ADD29R,1.500000X0.550000*%
%ADD30R,0.550000X1.500000*%
%ADD31C,10.200000*%
%ADD32C,1.500000*%
%ADD33R,1.400000X0.300000*%
%ADD34R,0.800000X0.900000*%
%ADD35R,0.900000X0.800000*%
%ADD36R,1.000000X1.000000*%
%ADD37R,1.727200X1.727200*%
%ADD38O,1.727200X1.727200*%
%ADD39R,1.300000X1.700000*%
%ADD40R,1.700000X1.300000*%
%ADD41R,1.200000X0.700000*%
%ADD42R,1.200000X1.000000*%
%ADD43R,0.800000X1.000000*%
%ADD44R,2.800000X1.000000*%
%ADD45R,1.900000X1.300000*%
%ADD46C,5.600000*%
%ADD47R,1.200000X1.400000*%
%ADD48R,1.800000X1.000000*%
G04 APERTURE END LIST*
D10*
G36*
X153140000Y-79080000D02*
G01*
X151540000Y-79080000D01*
X151540000Y-78080000D01*
X153140000Y-78080000D01*
X153140000Y-79080000D01*
G37*
X153140000Y-79080000D02*
X151540000Y-79080000D01*
X151540000Y-78080000D01*
X153140000Y-78080000D01*
X153140000Y-79080000D01*
G36*
X152840000Y-77480000D02*
G01*
X151840000Y-77480000D01*
X151840000Y-75880000D01*
X152840000Y-75880000D01*
X152840000Y-77480000D01*
G37*
X152840000Y-77480000D02*
X151840000Y-77480000D01*
X151840000Y-75880000D01*
X152840000Y-75880000D01*
X152840000Y-77480000D01*
G36*
X123240000Y-110080000D02*
G01*
X121840000Y-110080000D01*
X121840000Y-109380000D01*
X123240000Y-109380000D01*
X123240000Y-110080000D01*
G37*
X123240000Y-110080000D02*
X121840000Y-110080000D01*
X121840000Y-109380000D01*
X123240000Y-109380000D01*
X123240000Y-110080000D01*
G36*
X110940000Y-73780000D02*
G01*
X110340000Y-73780000D01*
X110340000Y-72480000D01*
X110940000Y-72480000D01*
X110940000Y-73780000D01*
G37*
X110940000Y-73780000D02*
X110340000Y-73780000D01*
X110340000Y-72480000D01*
X110940000Y-72480000D01*
X110940000Y-73780000D01*
G36*
X124640000Y-110580000D02*
G01*
X123940000Y-110580000D01*
X123940000Y-107080000D01*
X124640000Y-107080000D01*
X124640000Y-110580000D01*
G37*
X124640000Y-110580000D02*
X123940000Y-110580000D01*
X123940000Y-107080000D01*
X124640000Y-107080000D01*
X124640000Y-110580000D01*
D11*
%TO.C,TP3*%
X136940000Y-72980000D03*
%TD*%
D12*
%TO.C,SW2*%
X134812000Y-75866000D03*
X132412000Y-75866000D03*
X132412000Y-79666000D03*
X134812000Y-79666000D03*
%TD*%
%TO.C,SW1*%
X134748000Y-95678000D03*
X132348000Y-95678000D03*
X132348000Y-99478000D03*
X134748000Y-99478000D03*
%TD*%
%TO.C,C8*%
G36*
G01*
X143768500Y-72805500D02*
X143268500Y-72805500D01*
G75*
G02*
X143043500Y-72580500I0J225000D01*
G01*
X143043500Y-72130500D01*
G75*
G02*
X143268500Y-71905500I225000J0D01*
G01*
X143768500Y-71905500D01*
G75*
G02*
X143993500Y-72130500I0J-225000D01*
G01*
X143993500Y-72580500D01*
G75*
G02*
X143768500Y-72805500I-225000J0D01*
G01*
G37*
G36*
G01*
X143768500Y-74355500D02*
X143268500Y-74355500D01*
G75*
G02*
X143043500Y-74130500I0J225000D01*
G01*
X143043500Y-73680500D01*
G75*
G02*
X143268500Y-73455500I225000J0D01*
G01*
X143768500Y-73455500D01*
G75*
G02*
X143993500Y-73680500I0J-225000D01*
G01*
X143993500Y-74130500D01*
G75*
G02*
X143768500Y-74355500I-225000J0D01*
G01*
G37*
%TD*%
%TO.C,C10*%
G36*
G01*
X145990500Y-72805500D02*
X145490500Y-72805500D01*
G75*
G02*
X145265500Y-72580500I0J225000D01*
G01*
X145265500Y-72130500D01*
G75*
G02*
X145490500Y-71905500I225000J0D01*
G01*
X145990500Y-71905500D01*
G75*
G02*
X146215500Y-72130500I0J-225000D01*
G01*
X146215500Y-72580500D01*
G75*
G02*
X145990500Y-72805500I-225000J0D01*
G01*
G37*
G36*
G01*
X145990500Y-74355500D02*
X145490500Y-74355500D01*
G75*
G02*
X145265500Y-74130500I0J225000D01*
G01*
X145265500Y-73680500D01*
G75*
G02*
X145490500Y-73455500I225000J0D01*
G01*
X145990500Y-73455500D01*
G75*
G02*
X146215500Y-73680500I0J-225000D01*
G01*
X146215500Y-74130500D01*
G75*
G02*
X145990500Y-74355500I-225000J0D01*
G01*
G37*
%TD*%
D13*
%TO.C,L1*%
X152916000Y-78441000D03*
X152916000Y-77091000D03*
%TD*%
D14*
%TO.C,U15*%
X110690000Y-75630000D03*
X110690000Y-75130000D03*
X110690000Y-74630000D03*
X110690000Y-74130000D03*
D15*
X109990000Y-73430000D03*
X109490000Y-73430000D03*
X108990000Y-73430000D03*
X108490000Y-73430000D03*
D14*
X107790000Y-74130000D03*
X107790000Y-74630000D03*
X107790000Y-75130000D03*
X107790000Y-75630000D03*
D15*
X108490000Y-76330000D03*
X108990000Y-76330000D03*
X109490000Y-76330000D03*
X109990000Y-76330000D03*
D16*
X109240000Y-74880000D03*
G36*
G01*
X110740000Y-76080000D02*
X110740000Y-76280000D01*
G75*
G02*
X110640000Y-76380000I-100000J0D01*
G01*
X110440000Y-76380000D01*
G75*
G02*
X110340000Y-76280000I0J100000D01*
G01*
X110340000Y-76080000D01*
G75*
G02*
X110440000Y-75980000I100000J0D01*
G01*
X110640000Y-75980000D01*
G75*
G02*
X110740000Y-76080000I0J-100000D01*
G01*
G37*
G36*
G01*
X110740000Y-73480000D02*
X110740000Y-73680000D01*
G75*
G02*
X110640000Y-73780000I-100000J0D01*
G01*
X110440000Y-73780000D01*
G75*
G02*
X110340000Y-73680000I0J100000D01*
G01*
X110340000Y-73480000D01*
G75*
G02*
X110440000Y-73380000I100000J0D01*
G01*
X110640000Y-73380000D01*
G75*
G02*
X110740000Y-73480000I0J-100000D01*
G01*
G37*
G36*
G01*
X108140000Y-76080000D02*
X108140000Y-76280000D01*
G75*
G02*
X108040000Y-76380000I-100000J0D01*
G01*
X107840000Y-76380000D01*
G75*
G02*
X107740000Y-76280000I0J100000D01*
G01*
X107740000Y-76080000D01*
G75*
G02*
X107840000Y-75980000I100000J0D01*
G01*
X108040000Y-75980000D01*
G75*
G02*
X108140000Y-76080000I0J-100000D01*
G01*
G37*
G36*
G01*
X108140000Y-73480000D02*
X108140000Y-73680000D01*
G75*
G02*
X108040000Y-73780000I-100000J0D01*
G01*
X107840000Y-73780000D01*
G75*
G02*
X107740000Y-73680000I0J100000D01*
G01*
X107740000Y-73480000D01*
G75*
G02*
X107840000Y-73380000I100000J0D01*
G01*
X108040000Y-73380000D01*
G75*
G02*
X108140000Y-73480000I0J-100000D01*
G01*
G37*
%TD*%
%TO.C,C44*%
G36*
G01*
X109815000Y-69730000D02*
X109815000Y-70230000D01*
G75*
G02*
X109590000Y-70455000I-225000J0D01*
G01*
X109140000Y-70455000D01*
G75*
G02*
X108915000Y-70230000I0J225000D01*
G01*
X108915000Y-69730000D01*
G75*
G02*
X109140000Y-69505000I225000J0D01*
G01*
X109590000Y-69505000D01*
G75*
G02*
X109815000Y-69730000I0J-225000D01*
G01*
G37*
G36*
G01*
X111365000Y-69730000D02*
X111365000Y-70230000D01*
G75*
G02*
X111140000Y-70455000I-225000J0D01*
G01*
X110690000Y-70455000D01*
G75*
G02*
X110465000Y-70230000I0J225000D01*
G01*
X110465000Y-69730000D01*
G75*
G02*
X110690000Y-69505000I225000J0D01*
G01*
X111140000Y-69505000D01*
G75*
G02*
X111365000Y-69730000I0J-225000D01*
G01*
G37*
%TD*%
%TO.C,C43*%
G36*
G01*
X109815000Y-68030000D02*
X109815000Y-68530000D01*
G75*
G02*
X109590000Y-68755000I-225000J0D01*
G01*
X109140000Y-68755000D01*
G75*
G02*
X108915000Y-68530000I0J225000D01*
G01*
X108915000Y-68030000D01*
G75*
G02*
X109140000Y-67805000I225000J0D01*
G01*
X109590000Y-67805000D01*
G75*
G02*
X109815000Y-68030000I0J-225000D01*
G01*
G37*
G36*
G01*
X111365000Y-68030000D02*
X111365000Y-68530000D01*
G75*
G02*
X111140000Y-68755000I-225000J0D01*
G01*
X110690000Y-68755000D01*
G75*
G02*
X110465000Y-68530000I0J225000D01*
G01*
X110465000Y-68030000D01*
G75*
G02*
X110690000Y-67805000I225000J0D01*
G01*
X111140000Y-67805000D01*
G75*
G02*
X111365000Y-68030000I0J-225000D01*
G01*
G37*
%TD*%
D17*
%TO.C,L3*%
X117615000Y-84780000D03*
X116265000Y-84780000D03*
%TD*%
D18*
%TO.C,SW3*%
X97140000Y-80810000D03*
X97140000Y-70150000D03*
X93140000Y-80810000D03*
X93140000Y-70150000D03*
D19*
X98085000Y-78730000D03*
X98085000Y-77930000D03*
X98085000Y-73030000D03*
X98085000Y-72230000D03*
X98085000Y-72230000D03*
X98085000Y-73030000D03*
X98085000Y-77930000D03*
X98085000Y-78730000D03*
D20*
X98085000Y-73730000D03*
X98085000Y-74230000D03*
X98085000Y-74730000D03*
X98085000Y-75730000D03*
X98085000Y-76230000D03*
X98085000Y-76730000D03*
X98085000Y-77230000D03*
X98085000Y-75230000D03*
D21*
X96640000Y-72590000D03*
X96640000Y-78370000D03*
%TD*%
D17*
%TO.C,L2*%
X122865000Y-109580000D03*
X124215000Y-109580000D03*
%TD*%
D22*
%TO.C,U17*%
X121350000Y-105620000D03*
G36*
G01*
X119975000Y-104032500D02*
X119975000Y-103332500D01*
G75*
G02*
X120037500Y-103270000I62500J0D01*
G01*
X120162500Y-103270000D01*
G75*
G02*
X120225000Y-103332500I0J-62500D01*
G01*
X120225000Y-104032500D01*
G75*
G02*
X120162500Y-104095000I-62500J0D01*
G01*
X120037500Y-104095000D01*
G75*
G02*
X119975000Y-104032500I0J62500D01*
G01*
G37*
G36*
G01*
X120475000Y-104032500D02*
X120475000Y-103332500D01*
G75*
G02*
X120537500Y-103270000I62500J0D01*
G01*
X120662500Y-103270000D01*
G75*
G02*
X120725000Y-103332500I0J-62500D01*
G01*
X120725000Y-104032500D01*
G75*
G02*
X120662500Y-104095000I-62500J0D01*
G01*
X120537500Y-104095000D01*
G75*
G02*
X120475000Y-104032500I0J62500D01*
G01*
G37*
G36*
G01*
X120975000Y-104032500D02*
X120975000Y-103332500D01*
G75*
G02*
X121037500Y-103270000I62500J0D01*
G01*
X121162500Y-103270000D01*
G75*
G02*
X121225000Y-103332500I0J-62500D01*
G01*
X121225000Y-104032500D01*
G75*
G02*
X121162500Y-104095000I-62500J0D01*
G01*
X121037500Y-104095000D01*
G75*
G02*
X120975000Y-104032500I0J62500D01*
G01*
G37*
G36*
G01*
X121475000Y-104032500D02*
X121475000Y-103332500D01*
G75*
G02*
X121537500Y-103270000I62500J0D01*
G01*
X121662500Y-103270000D01*
G75*
G02*
X121725000Y-103332500I0J-62500D01*
G01*
X121725000Y-104032500D01*
G75*
G02*
X121662500Y-104095000I-62500J0D01*
G01*
X121537500Y-104095000D01*
G75*
G02*
X121475000Y-104032500I0J62500D01*
G01*
G37*
G36*
G01*
X121975000Y-104032500D02*
X121975000Y-103332500D01*
G75*
G02*
X122037500Y-103270000I62500J0D01*
G01*
X122162500Y-103270000D01*
G75*
G02*
X122225000Y-103332500I0J-62500D01*
G01*
X122225000Y-104032500D01*
G75*
G02*
X122162500Y-104095000I-62500J0D01*
G01*
X122037500Y-104095000D01*
G75*
G02*
X121975000Y-104032500I0J62500D01*
G01*
G37*
G36*
G01*
X122475000Y-104032500D02*
X122475000Y-103332500D01*
G75*
G02*
X122537500Y-103270000I62500J0D01*
G01*
X122662500Y-103270000D01*
G75*
G02*
X122725000Y-103332500I0J-62500D01*
G01*
X122725000Y-104032500D01*
G75*
G02*
X122662500Y-104095000I-62500J0D01*
G01*
X122537500Y-104095000D01*
G75*
G02*
X122475000Y-104032500I0J62500D01*
G01*
G37*
G36*
G01*
X122875000Y-104432500D02*
X122875000Y-104307500D01*
G75*
G02*
X122937500Y-104245000I62500J0D01*
G01*
X123637500Y-104245000D01*
G75*
G02*
X123700000Y-104307500I0J-62500D01*
G01*
X123700000Y-104432500D01*
G75*
G02*
X123637500Y-104495000I-62500J0D01*
G01*
X122937500Y-104495000D01*
G75*
G02*
X122875000Y-104432500I0J62500D01*
G01*
G37*
G36*
G01*
X122875000Y-104932500D02*
X122875000Y-104807500D01*
G75*
G02*
X122937500Y-104745000I62500J0D01*
G01*
X123637500Y-104745000D01*
G75*
G02*
X123700000Y-104807500I0J-62500D01*
G01*
X123700000Y-104932500D01*
G75*
G02*
X123637500Y-104995000I-62500J0D01*
G01*
X122937500Y-104995000D01*
G75*
G02*
X122875000Y-104932500I0J62500D01*
G01*
G37*
G36*
G01*
X122875000Y-105432500D02*
X122875000Y-105307500D01*
G75*
G02*
X122937500Y-105245000I62500J0D01*
G01*
X123637500Y-105245000D01*
G75*
G02*
X123700000Y-105307500I0J-62500D01*
G01*
X123700000Y-105432500D01*
G75*
G02*
X123637500Y-105495000I-62500J0D01*
G01*
X122937500Y-105495000D01*
G75*
G02*
X122875000Y-105432500I0J62500D01*
G01*
G37*
G36*
G01*
X122875000Y-105932500D02*
X122875000Y-105807500D01*
G75*
G02*
X122937500Y-105745000I62500J0D01*
G01*
X123637500Y-105745000D01*
G75*
G02*
X123700000Y-105807500I0J-62500D01*
G01*
X123700000Y-105932500D01*
G75*
G02*
X123637500Y-105995000I-62500J0D01*
G01*
X122937500Y-105995000D01*
G75*
G02*
X122875000Y-105932500I0J62500D01*
G01*
G37*
G36*
G01*
X122875000Y-106432500D02*
X122875000Y-106307500D01*
G75*
G02*
X122937500Y-106245000I62500J0D01*
G01*
X123637500Y-106245000D01*
G75*
G02*
X123700000Y-106307500I0J-62500D01*
G01*
X123700000Y-106432500D01*
G75*
G02*
X123637500Y-106495000I-62500J0D01*
G01*
X122937500Y-106495000D01*
G75*
G02*
X122875000Y-106432500I0J62500D01*
G01*
G37*
G36*
G01*
X122875000Y-106932500D02*
X122875000Y-106807500D01*
G75*
G02*
X122937500Y-106745000I62500J0D01*
G01*
X123637500Y-106745000D01*
G75*
G02*
X123700000Y-106807500I0J-62500D01*
G01*
X123700000Y-106932500D01*
G75*
G02*
X123637500Y-106995000I-62500J0D01*
G01*
X122937500Y-106995000D01*
G75*
G02*
X122875000Y-106932500I0J62500D01*
G01*
G37*
G36*
G01*
X122475000Y-107907500D02*
X122475000Y-107207500D01*
G75*
G02*
X122537500Y-107145000I62500J0D01*
G01*
X122662500Y-107145000D01*
G75*
G02*
X122725000Y-107207500I0J-62500D01*
G01*
X122725000Y-107907500D01*
G75*
G02*
X122662500Y-107970000I-62500J0D01*
G01*
X122537500Y-107970000D01*
G75*
G02*
X122475000Y-107907500I0J62500D01*
G01*
G37*
G36*
G01*
X121975000Y-107907500D02*
X121975000Y-107207500D01*
G75*
G02*
X122037500Y-107145000I62500J0D01*
G01*
X122162500Y-107145000D01*
G75*
G02*
X122225000Y-107207500I0J-62500D01*
G01*
X122225000Y-107907500D01*
G75*
G02*
X122162500Y-107970000I-62500J0D01*
G01*
X122037500Y-107970000D01*
G75*
G02*
X121975000Y-107907500I0J62500D01*
G01*
G37*
G36*
G01*
X121475000Y-107907500D02*
X121475000Y-107207500D01*
G75*
G02*
X121537500Y-107145000I62500J0D01*
G01*
X121662500Y-107145000D01*
G75*
G02*
X121725000Y-107207500I0J-62500D01*
G01*
X121725000Y-107907500D01*
G75*
G02*
X121662500Y-107970000I-62500J0D01*
G01*
X121537500Y-107970000D01*
G75*
G02*
X121475000Y-107907500I0J62500D01*
G01*
G37*
G36*
G01*
X120975000Y-107907500D02*
X120975000Y-107207500D01*
G75*
G02*
X121037500Y-107145000I62500J0D01*
G01*
X121162500Y-107145000D01*
G75*
G02*
X121225000Y-107207500I0J-62500D01*
G01*
X121225000Y-107907500D01*
G75*
G02*
X121162500Y-107970000I-62500J0D01*
G01*
X121037500Y-107970000D01*
G75*
G02*
X120975000Y-107907500I0J62500D01*
G01*
G37*
G36*
G01*
X120475000Y-107907500D02*
X120475000Y-107207500D01*
G75*
G02*
X120537500Y-107145000I62500J0D01*
G01*
X120662500Y-107145000D01*
G75*
G02*
X120725000Y-107207500I0J-62500D01*
G01*
X120725000Y-107907500D01*
G75*
G02*
X120662500Y-107970000I-62500J0D01*
G01*
X120537500Y-107970000D01*
G75*
G02*
X120475000Y-107907500I0J62500D01*
G01*
G37*
G36*
G01*
X119975000Y-107907500D02*
X119975000Y-107207500D01*
G75*
G02*
X120037500Y-107145000I62500J0D01*
G01*
X120162500Y-107145000D01*
G75*
G02*
X120225000Y-107207500I0J-62500D01*
G01*
X120225000Y-107907500D01*
G75*
G02*
X120162500Y-107970000I-62500J0D01*
G01*
X120037500Y-107970000D01*
G75*
G02*
X119975000Y-107907500I0J62500D01*
G01*
G37*
G36*
G01*
X119000000Y-106932500D02*
X119000000Y-106807500D01*
G75*
G02*
X119062500Y-106745000I62500J0D01*
G01*
X119762500Y-106745000D01*
G75*
G02*
X119825000Y-106807500I0J-62500D01*
G01*
X119825000Y-106932500D01*
G75*
G02*
X119762500Y-106995000I-62500J0D01*
G01*
X119062500Y-106995000D01*
G75*
G02*
X119000000Y-106932500I0J62500D01*
G01*
G37*
G36*
G01*
X119000000Y-106432500D02*
X119000000Y-106307500D01*
G75*
G02*
X119062500Y-106245000I62500J0D01*
G01*
X119762500Y-106245000D01*
G75*
G02*
X119825000Y-106307500I0J-62500D01*
G01*
X119825000Y-106432500D01*
G75*
G02*
X119762500Y-106495000I-62500J0D01*
G01*
X119062500Y-106495000D01*
G75*
G02*
X119000000Y-106432500I0J62500D01*
G01*
G37*
G36*
G01*
X119000000Y-105932500D02*
X119000000Y-105807500D01*
G75*
G02*
X119062500Y-105745000I62500J0D01*
G01*
X119762500Y-105745000D01*
G75*
G02*
X119825000Y-105807500I0J-62500D01*
G01*
X119825000Y-105932500D01*
G75*
G02*
X119762500Y-105995000I-62500J0D01*
G01*
X119062500Y-105995000D01*
G75*
G02*
X119000000Y-105932500I0J62500D01*
G01*
G37*
G36*
G01*
X119000000Y-105432500D02*
X119000000Y-105307500D01*
G75*
G02*
X119062500Y-105245000I62500J0D01*
G01*
X119762500Y-105245000D01*
G75*
G02*
X119825000Y-105307500I0J-62500D01*
G01*
X119825000Y-105432500D01*
G75*
G02*
X119762500Y-105495000I-62500J0D01*
G01*
X119062500Y-105495000D01*
G75*
G02*
X119000000Y-105432500I0J62500D01*
G01*
G37*
G36*
G01*
X119000000Y-104932500D02*
X119000000Y-104807500D01*
G75*
G02*
X119062500Y-104745000I62500J0D01*
G01*
X119762500Y-104745000D01*
G75*
G02*
X119825000Y-104807500I0J-62500D01*
G01*
X119825000Y-104932500D01*
G75*
G02*
X119762500Y-104995000I-62500J0D01*
G01*
X119062500Y-104995000D01*
G75*
G02*
X119000000Y-104932500I0J62500D01*
G01*
G37*
G36*
G01*
X119000000Y-104432500D02*
X119000000Y-104307500D01*
G75*
G02*
X119062500Y-104245000I62500J0D01*
G01*
X119762500Y-104245000D01*
G75*
G02*
X119825000Y-104307500I0J-62500D01*
G01*
X119825000Y-104432500D01*
G75*
G02*
X119762500Y-104495000I-62500J0D01*
G01*
X119062500Y-104495000D01*
G75*
G02*
X119000000Y-104432500I0J62500D01*
G01*
G37*
%TD*%
D10*
%TO.C,U6*%
G36*
X112473500Y-104680000D02*
G01*
X112473500Y-101555000D01*
X112890000Y-101555000D01*
X112890000Y-100080000D01*
X113790000Y-100080000D01*
X113790000Y-101555000D01*
X114206500Y-101555000D01*
X114206500Y-104680000D01*
X112473500Y-104680000D01*
G37*
D23*
X111840000Y-100730000D03*
X114840000Y-100730000D03*
%TD*%
%TO.C,U5*%
G36*
G01*
X119740000Y-73810000D02*
X119740000Y-74110000D01*
G75*
G02*
X119590000Y-74260000I-150000J0D01*
G01*
X117940000Y-74260000D01*
G75*
G02*
X117790000Y-74110000I0J150000D01*
G01*
X117790000Y-73810000D01*
G75*
G02*
X117940000Y-73660000I150000J0D01*
G01*
X119590000Y-73660000D01*
G75*
G02*
X119740000Y-73810000I0J-150000D01*
G01*
G37*
G36*
G01*
X119740000Y-72540000D02*
X119740000Y-72840000D01*
G75*
G02*
X119590000Y-72990000I-150000J0D01*
G01*
X117940000Y-72990000D01*
G75*
G02*
X117790000Y-72840000I0J150000D01*
G01*
X117790000Y-72540000D01*
G75*
G02*
X117940000Y-72390000I150000J0D01*
G01*
X119590000Y-72390000D01*
G75*
G02*
X119740000Y-72540000I0J-150000D01*
G01*
G37*
G36*
G01*
X119740000Y-71270000D02*
X119740000Y-71570000D01*
G75*
G02*
X119590000Y-71720000I-150000J0D01*
G01*
X117940000Y-71720000D01*
G75*
G02*
X117790000Y-71570000I0J150000D01*
G01*
X117790000Y-71270000D01*
G75*
G02*
X117940000Y-71120000I150000J0D01*
G01*
X119590000Y-71120000D01*
G75*
G02*
X119740000Y-71270000I0J-150000D01*
G01*
G37*
G36*
G01*
X119740000Y-70000000D02*
X119740000Y-70300000D01*
G75*
G02*
X119590000Y-70450000I-150000J0D01*
G01*
X117940000Y-70450000D01*
G75*
G02*
X117790000Y-70300000I0J150000D01*
G01*
X117790000Y-70000000D01*
G75*
G02*
X117940000Y-69850000I150000J0D01*
G01*
X119590000Y-69850000D01*
G75*
G02*
X119740000Y-70000000I0J-150000D01*
G01*
G37*
G36*
G01*
X124690000Y-70000000D02*
X124690000Y-70300000D01*
G75*
G02*
X124540000Y-70450000I-150000J0D01*
G01*
X122890000Y-70450000D01*
G75*
G02*
X122740000Y-70300000I0J150000D01*
G01*
X122740000Y-70000000D01*
G75*
G02*
X122890000Y-69850000I150000J0D01*
G01*
X124540000Y-69850000D01*
G75*
G02*
X124690000Y-70000000I0J-150000D01*
G01*
G37*
G36*
G01*
X124690000Y-71270000D02*
X124690000Y-71570000D01*
G75*
G02*
X124540000Y-71720000I-150000J0D01*
G01*
X122890000Y-71720000D01*
G75*
G02*
X122740000Y-71570000I0J150000D01*
G01*
X122740000Y-71270000D01*
G75*
G02*
X122890000Y-71120000I150000J0D01*
G01*
X124540000Y-71120000D01*
G75*
G02*
X124690000Y-71270000I0J-150000D01*
G01*
G37*
G36*
G01*
X124690000Y-72540000D02*
X124690000Y-72840000D01*
G75*
G02*
X124540000Y-72990000I-150000J0D01*
G01*
X122890000Y-72990000D01*
G75*
G02*
X122740000Y-72840000I0J150000D01*
G01*
X122740000Y-72540000D01*
G75*
G02*
X122890000Y-72390000I150000J0D01*
G01*
X124540000Y-72390000D01*
G75*
G02*
X124690000Y-72540000I0J-150000D01*
G01*
G37*
G36*
G01*
X124690000Y-73810000D02*
X124690000Y-74110000D01*
G75*
G02*
X124540000Y-74260000I-150000J0D01*
G01*
X122890000Y-74260000D01*
G75*
G02*
X122740000Y-74110000I0J150000D01*
G01*
X122740000Y-73810000D01*
G75*
G02*
X122890000Y-73660000I150000J0D01*
G01*
X124540000Y-73660000D01*
G75*
G02*
X124690000Y-73810000I0J-150000D01*
G01*
G37*
%TD*%
D24*
%TO.C,U1*%
X115490000Y-81390000D03*
X115490000Y-82340000D03*
X115490000Y-80440000D03*
X117690000Y-80440000D03*
X117690000Y-81390000D03*
X117690000Y-82340000D03*
%TD*%
%TO.C,R69*%
G36*
G01*
X113715000Y-77905000D02*
X113715000Y-78455000D01*
G75*
G02*
X113515000Y-78655000I-200000J0D01*
G01*
X113115000Y-78655000D01*
G75*
G02*
X112915000Y-78455000I0J200000D01*
G01*
X112915000Y-77905000D01*
G75*
G02*
X113115000Y-77705000I200000J0D01*
G01*
X113515000Y-77705000D01*
G75*
G02*
X113715000Y-77905000I0J-200000D01*
G01*
G37*
G36*
G01*
X115365000Y-77905000D02*
X115365000Y-78455000D01*
G75*
G02*
X115165000Y-78655000I-200000J0D01*
G01*
X114765000Y-78655000D01*
G75*
G02*
X114565000Y-78455000I0J200000D01*
G01*
X114565000Y-77905000D01*
G75*
G02*
X114765000Y-77705000I200000J0D01*
G01*
X115165000Y-77705000D01*
G75*
G02*
X115365000Y-77905000I0J-200000D01*
G01*
G37*
%TD*%
%TO.C,R68*%
G36*
G01*
X116915000Y-77905000D02*
X116915000Y-78455000D01*
G75*
G02*
X116715000Y-78655000I-200000J0D01*
G01*
X116315000Y-78655000D01*
G75*
G02*
X116115000Y-78455000I0J200000D01*
G01*
X116115000Y-77905000D01*
G75*
G02*
X116315000Y-77705000I200000J0D01*
G01*
X116715000Y-77705000D01*
G75*
G02*
X116915000Y-77905000I0J-200000D01*
G01*
G37*
G36*
G01*
X118565000Y-77905000D02*
X118565000Y-78455000D01*
G75*
G02*
X118365000Y-78655000I-200000J0D01*
G01*
X117965000Y-78655000D01*
G75*
G02*
X117765000Y-78455000I0J200000D01*
G01*
X117765000Y-77905000D01*
G75*
G02*
X117965000Y-77705000I200000J0D01*
G01*
X118365000Y-77705000D01*
G75*
G02*
X118565000Y-77905000I0J-200000D01*
G01*
G37*
%TD*%
%TO.C,R62*%
G36*
G01*
X120365000Y-110255000D02*
X120365000Y-109705000D01*
G75*
G02*
X120565000Y-109505000I200000J0D01*
G01*
X120965000Y-109505000D01*
G75*
G02*
X121165000Y-109705000I0J-200000D01*
G01*
X121165000Y-110255000D01*
G75*
G02*
X120965000Y-110455000I-200000J0D01*
G01*
X120565000Y-110455000D01*
G75*
G02*
X120365000Y-110255000I0J200000D01*
G01*
G37*
G36*
G01*
X118715000Y-110255000D02*
X118715000Y-109705000D01*
G75*
G02*
X118915000Y-109505000I200000J0D01*
G01*
X119315000Y-109505000D01*
G75*
G02*
X119515000Y-109705000I0J-200000D01*
G01*
X119515000Y-110255000D01*
G75*
G02*
X119315000Y-110455000I-200000J0D01*
G01*
X118915000Y-110455000D01*
G75*
G02*
X118715000Y-110255000I0J200000D01*
G01*
G37*
%TD*%
%TO.C,R61*%
G36*
G01*
X122515000Y-100905000D02*
X122515000Y-101455000D01*
G75*
G02*
X122315000Y-101655000I-200000J0D01*
G01*
X121915000Y-101655000D01*
G75*
G02*
X121715000Y-101455000I0J200000D01*
G01*
X121715000Y-100905000D01*
G75*
G02*
X121915000Y-100705000I200000J0D01*
G01*
X122315000Y-100705000D01*
G75*
G02*
X122515000Y-100905000I0J-200000D01*
G01*
G37*
G36*
G01*
X124165000Y-100905000D02*
X124165000Y-101455000D01*
G75*
G02*
X123965000Y-101655000I-200000J0D01*
G01*
X123565000Y-101655000D01*
G75*
G02*
X123365000Y-101455000I0J200000D01*
G01*
X123365000Y-100905000D01*
G75*
G02*
X123565000Y-100705000I200000J0D01*
G01*
X123965000Y-100705000D01*
G75*
G02*
X124165000Y-100905000I0J-200000D01*
G01*
G37*
%TD*%
%TO.C,R4*%
G36*
G01*
X113465000Y-83605000D02*
X114015000Y-83605000D01*
G75*
G02*
X114215000Y-83805000I0J-200000D01*
G01*
X114215000Y-84205000D01*
G75*
G02*
X114015000Y-84405000I-200000J0D01*
G01*
X113465000Y-84405000D01*
G75*
G02*
X113265000Y-84205000I0J200000D01*
G01*
X113265000Y-83805000D01*
G75*
G02*
X113465000Y-83605000I200000J0D01*
G01*
G37*
G36*
G01*
X113465000Y-81955000D02*
X114015000Y-81955000D01*
G75*
G02*
X114215000Y-82155000I0J-200000D01*
G01*
X114215000Y-82555000D01*
G75*
G02*
X114015000Y-82755000I-200000J0D01*
G01*
X113465000Y-82755000D01*
G75*
G02*
X113265000Y-82555000I0J200000D01*
G01*
X113265000Y-82155000D01*
G75*
G02*
X113465000Y-81955000I200000J0D01*
G01*
G37*
%TD*%
D25*
%TO.C,D7*%
X120340000Y-85230000D03*
X120340000Y-81930000D03*
%TD*%
%TO.C,C45*%
G36*
G01*
X117590000Y-110255000D02*
X117090000Y-110255000D01*
G75*
G02*
X116865000Y-110030000I0J225000D01*
G01*
X116865000Y-109580000D01*
G75*
G02*
X117090000Y-109355000I225000J0D01*
G01*
X117590000Y-109355000D01*
G75*
G02*
X117815000Y-109580000I0J-225000D01*
G01*
X117815000Y-110030000D01*
G75*
G02*
X117590000Y-110255000I-225000J0D01*
G01*
G37*
G36*
G01*
X117590000Y-111805000D02*
X117090000Y-111805000D01*
G75*
G02*
X116865000Y-111580000I0J225000D01*
G01*
X116865000Y-111130000D01*
G75*
G02*
X117090000Y-110905000I225000J0D01*
G01*
X117590000Y-110905000D01*
G75*
G02*
X117815000Y-111130000I0J-225000D01*
G01*
X117815000Y-111580000D01*
G75*
G02*
X117590000Y-111805000I-225000J0D01*
G01*
G37*
%TD*%
%TO.C,C14*%
G36*
G01*
X120415000Y-111330000D02*
X120415000Y-111830000D01*
G75*
G02*
X120190000Y-112055000I-225000J0D01*
G01*
X119740000Y-112055000D01*
G75*
G02*
X119515000Y-111830000I0J225000D01*
G01*
X119515000Y-111330000D01*
G75*
G02*
X119740000Y-111105000I225000J0D01*
G01*
X120190000Y-111105000D01*
G75*
G02*
X120415000Y-111330000I0J-225000D01*
G01*
G37*
G36*
G01*
X121965000Y-111330000D02*
X121965000Y-111830000D01*
G75*
G02*
X121740000Y-112055000I-225000J0D01*
G01*
X121290000Y-112055000D01*
G75*
G02*
X121065000Y-111830000I0J225000D01*
G01*
X121065000Y-111330000D01*
G75*
G02*
X121290000Y-111105000I225000J0D01*
G01*
X121740000Y-111105000D01*
G75*
G02*
X121965000Y-111330000I0J-225000D01*
G01*
G37*
%TD*%
%TO.C,C12*%
G36*
G01*
X121465001Y-77505000D02*
X119614999Y-77505000D01*
G75*
G02*
X119365000Y-77255001I0J249999D01*
G01*
X119365000Y-76429999D01*
G75*
G02*
X119614999Y-76180000I249999J0D01*
G01*
X121465001Y-76180000D01*
G75*
G02*
X121715000Y-76429999I0J-249999D01*
G01*
X121715000Y-77255001D01*
G75*
G02*
X121465001Y-77505000I-249999J0D01*
G01*
G37*
G36*
G01*
X121465001Y-80580000D02*
X119614999Y-80580000D01*
G75*
G02*
X119365000Y-80330001I0J249999D01*
G01*
X119365000Y-79504999D01*
G75*
G02*
X119614999Y-79255000I249999J0D01*
G01*
X121465001Y-79255000D01*
G75*
G02*
X121715000Y-79504999I0J-249999D01*
G01*
X121715000Y-80330001D01*
G75*
G02*
X121465001Y-80580000I-249999J0D01*
G01*
G37*
%TD*%
%TO.C,C11*%
G36*
G01*
X117390000Y-104655000D02*
X116890000Y-104655000D01*
G75*
G02*
X116665000Y-104430000I0J225000D01*
G01*
X116665000Y-103980000D01*
G75*
G02*
X116890000Y-103755000I225000J0D01*
G01*
X117390000Y-103755000D01*
G75*
G02*
X117615000Y-103980000I0J-225000D01*
G01*
X117615000Y-104430000D01*
G75*
G02*
X117390000Y-104655000I-225000J0D01*
G01*
G37*
G36*
G01*
X117390000Y-106205000D02*
X116890000Y-106205000D01*
G75*
G02*
X116665000Y-105980000I0J225000D01*
G01*
X116665000Y-105530000D01*
G75*
G02*
X116890000Y-105305000I225000J0D01*
G01*
X117390000Y-105305000D01*
G75*
G02*
X117615000Y-105530000I0J-225000D01*
G01*
X117615000Y-105980000D01*
G75*
G02*
X117390000Y-106205000I-225000J0D01*
G01*
G37*
%TD*%
D26*
%TO.C,D5*%
X112239000Y-94009500D03*
X112239000Y-97209500D03*
X117139000Y-94009500D03*
X117139000Y-97209500D03*
%TD*%
D27*
%TO.C,Z1*%
X133612000Y-92752000D03*
X133612000Y-90212000D03*
X133612000Y-87672000D03*
X133612000Y-85132000D03*
D28*
X133612000Y-82592000D03*
%TD*%
%TO.C,U13*%
G36*
G01*
X168894000Y-93600500D02*
X168894000Y-93300500D01*
G75*
G02*
X169044000Y-93150500I150000J0D01*
G01*
X170694000Y-93150500D01*
G75*
G02*
X170844000Y-93300500I0J-150000D01*
G01*
X170844000Y-93600500D01*
G75*
G02*
X170694000Y-93750500I-150000J0D01*
G01*
X169044000Y-93750500D01*
G75*
G02*
X168894000Y-93600500I0J150000D01*
G01*
G37*
G36*
G01*
X168894000Y-94870500D02*
X168894000Y-94570500D01*
G75*
G02*
X169044000Y-94420500I150000J0D01*
G01*
X170694000Y-94420500D01*
G75*
G02*
X170844000Y-94570500I0J-150000D01*
G01*
X170844000Y-94870500D01*
G75*
G02*
X170694000Y-95020500I-150000J0D01*
G01*
X169044000Y-95020500D01*
G75*
G02*
X168894000Y-94870500I0J150000D01*
G01*
G37*
G36*
G01*
X168894000Y-96140500D02*
X168894000Y-95840500D01*
G75*
G02*
X169044000Y-95690500I150000J0D01*
G01*
X170694000Y-95690500D01*
G75*
G02*
X170844000Y-95840500I0J-150000D01*
G01*
X170844000Y-96140500D01*
G75*
G02*
X170694000Y-96290500I-150000J0D01*
G01*
X169044000Y-96290500D01*
G75*
G02*
X168894000Y-96140500I0J150000D01*
G01*
G37*
G36*
G01*
X168894000Y-97410500D02*
X168894000Y-97110500D01*
G75*
G02*
X169044000Y-96960500I150000J0D01*
G01*
X170694000Y-96960500D01*
G75*
G02*
X170844000Y-97110500I0J-150000D01*
G01*
X170844000Y-97410500D01*
G75*
G02*
X170694000Y-97560500I-150000J0D01*
G01*
X169044000Y-97560500D01*
G75*
G02*
X168894000Y-97410500I0J150000D01*
G01*
G37*
G36*
G01*
X163944000Y-97410500D02*
X163944000Y-97110500D01*
G75*
G02*
X164094000Y-96960500I150000J0D01*
G01*
X165744000Y-96960500D01*
G75*
G02*
X165894000Y-97110500I0J-150000D01*
G01*
X165894000Y-97410500D01*
G75*
G02*
X165744000Y-97560500I-150000J0D01*
G01*
X164094000Y-97560500D01*
G75*
G02*
X163944000Y-97410500I0J150000D01*
G01*
G37*
G36*
G01*
X163944000Y-96140500D02*
X163944000Y-95840500D01*
G75*
G02*
X164094000Y-95690500I150000J0D01*
G01*
X165744000Y-95690500D01*
G75*
G02*
X165894000Y-95840500I0J-150000D01*
G01*
X165894000Y-96140500D01*
G75*
G02*
X165744000Y-96290500I-150000J0D01*
G01*
X164094000Y-96290500D01*
G75*
G02*
X163944000Y-96140500I0J150000D01*
G01*
G37*
G36*
G01*
X163944000Y-94870500D02*
X163944000Y-94570500D01*
G75*
G02*
X164094000Y-94420500I150000J0D01*
G01*
X165744000Y-94420500D01*
G75*
G02*
X165894000Y-94570500I0J-150000D01*
G01*
X165894000Y-94870500D01*
G75*
G02*
X165744000Y-95020500I-150000J0D01*
G01*
X164094000Y-95020500D01*
G75*
G02*
X163944000Y-94870500I0J150000D01*
G01*
G37*
G36*
G01*
X163944000Y-93600500D02*
X163944000Y-93300500D01*
G75*
G02*
X164094000Y-93150500I150000J0D01*
G01*
X165744000Y-93150500D01*
G75*
G02*
X165894000Y-93300500I0J-150000D01*
G01*
X165894000Y-93600500D01*
G75*
G02*
X165744000Y-93750500I-150000J0D01*
G01*
X164094000Y-93750500D01*
G75*
G02*
X163944000Y-93600500I0J150000D01*
G01*
G37*
%TD*%
%TO.C,R30*%
G36*
G01*
X175757000Y-81025500D02*
X175757000Y-80475500D01*
G75*
G02*
X175957000Y-80275500I200000J0D01*
G01*
X176357000Y-80275500D01*
G75*
G02*
X176557000Y-80475500I0J-200000D01*
G01*
X176557000Y-81025500D01*
G75*
G02*
X176357000Y-81225500I-200000J0D01*
G01*
X175957000Y-81225500D01*
G75*
G02*
X175757000Y-81025500I0J200000D01*
G01*
G37*
G36*
G01*
X174107000Y-81025500D02*
X174107000Y-80475500D01*
G75*
G02*
X174307000Y-80275500I200000J0D01*
G01*
X174707000Y-80275500D01*
G75*
G02*
X174907000Y-80475500I0J-200000D01*
G01*
X174907000Y-81025500D01*
G75*
G02*
X174707000Y-81225500I-200000J0D01*
G01*
X174307000Y-81225500D01*
G75*
G02*
X174107000Y-81025500I0J200000D01*
G01*
G37*
%TD*%
%TO.C,U11*%
G36*
G01*
X179118000Y-72709000D02*
X179118000Y-72409000D01*
G75*
G02*
X179268000Y-72259000I150000J0D01*
G01*
X180918000Y-72259000D01*
G75*
G02*
X181068000Y-72409000I0J-150000D01*
G01*
X181068000Y-72709000D01*
G75*
G02*
X180918000Y-72859000I-150000J0D01*
G01*
X179268000Y-72859000D01*
G75*
G02*
X179118000Y-72709000I0J150000D01*
G01*
G37*
G36*
G01*
X179118000Y-73979000D02*
X179118000Y-73679000D01*
G75*
G02*
X179268000Y-73529000I150000J0D01*
G01*
X180918000Y-73529000D01*
G75*
G02*
X181068000Y-73679000I0J-150000D01*
G01*
X181068000Y-73979000D01*
G75*
G02*
X180918000Y-74129000I-150000J0D01*
G01*
X179268000Y-74129000D01*
G75*
G02*
X179118000Y-73979000I0J150000D01*
G01*
G37*
G36*
G01*
X179118000Y-75249000D02*
X179118000Y-74949000D01*
G75*
G02*
X179268000Y-74799000I150000J0D01*
G01*
X180918000Y-74799000D01*
G75*
G02*
X181068000Y-74949000I0J-150000D01*
G01*
X181068000Y-75249000D01*
G75*
G02*
X180918000Y-75399000I-150000J0D01*
G01*
X179268000Y-75399000D01*
G75*
G02*
X179118000Y-75249000I0J150000D01*
G01*
G37*
G36*
G01*
X179118000Y-76519000D02*
X179118000Y-76219000D01*
G75*
G02*
X179268000Y-76069000I150000J0D01*
G01*
X180918000Y-76069000D01*
G75*
G02*
X181068000Y-76219000I0J-150000D01*
G01*
X181068000Y-76519000D01*
G75*
G02*
X180918000Y-76669000I-150000J0D01*
G01*
X179268000Y-76669000D01*
G75*
G02*
X179118000Y-76519000I0J150000D01*
G01*
G37*
G36*
G01*
X174168000Y-76519000D02*
X174168000Y-76219000D01*
G75*
G02*
X174318000Y-76069000I150000J0D01*
G01*
X175968000Y-76069000D01*
G75*
G02*
X176118000Y-76219000I0J-150000D01*
G01*
X176118000Y-76519000D01*
G75*
G02*
X175968000Y-76669000I-150000J0D01*
G01*
X174318000Y-76669000D01*
G75*
G02*
X174168000Y-76519000I0J150000D01*
G01*
G37*
G36*
G01*
X174168000Y-75249000D02*
X174168000Y-74949000D01*
G75*
G02*
X174318000Y-74799000I150000J0D01*
G01*
X175968000Y-74799000D01*
G75*
G02*
X176118000Y-74949000I0J-150000D01*
G01*
X176118000Y-75249000D01*
G75*
G02*
X175968000Y-75399000I-150000J0D01*
G01*
X174318000Y-75399000D01*
G75*
G02*
X174168000Y-75249000I0J150000D01*
G01*
G37*
G36*
G01*
X174168000Y-73979000D02*
X174168000Y-73679000D01*
G75*
G02*
X174318000Y-73529000I150000J0D01*
G01*
X175968000Y-73529000D01*
G75*
G02*
X176118000Y-73679000I0J-150000D01*
G01*
X176118000Y-73979000D01*
G75*
G02*
X175968000Y-74129000I-150000J0D01*
G01*
X174318000Y-74129000D01*
G75*
G02*
X174168000Y-73979000I0J150000D01*
G01*
G37*
G36*
G01*
X174168000Y-72709000D02*
X174168000Y-72409000D01*
G75*
G02*
X174318000Y-72259000I150000J0D01*
G01*
X175968000Y-72259000D01*
G75*
G02*
X176118000Y-72409000I0J-150000D01*
G01*
X176118000Y-72709000D01*
G75*
G02*
X175968000Y-72859000I-150000J0D01*
G01*
X174318000Y-72859000D01*
G75*
G02*
X174168000Y-72709000I0J150000D01*
G01*
G37*
%TD*%
D29*
%TO.C,U3*%
X142390000Y-91799000D03*
X142390000Y-90999000D03*
X142390000Y-90199000D03*
X142390000Y-89399000D03*
X142390000Y-88599000D03*
X142390000Y-87799000D03*
X142390000Y-86999000D03*
X142390000Y-86199000D03*
X142390000Y-85399000D03*
X142390000Y-84599000D03*
X142390000Y-83799000D03*
D30*
X144090000Y-82099000D03*
X144890000Y-82099000D03*
X145690000Y-82099000D03*
X146490000Y-82099000D03*
X147290000Y-82099000D03*
X148090000Y-82099000D03*
X148890000Y-82099000D03*
X149690000Y-82099000D03*
X150490000Y-82099000D03*
X151290000Y-82099000D03*
X152090000Y-82099000D03*
D29*
X153790000Y-83799000D03*
X153790000Y-84599000D03*
X153790000Y-85399000D03*
X153790000Y-86199000D03*
X153790000Y-86999000D03*
X153790000Y-87799000D03*
X153790000Y-88599000D03*
X153790000Y-89399000D03*
X153790000Y-90199000D03*
X153790000Y-90999000D03*
X153790000Y-91799000D03*
D30*
X152090000Y-93499000D03*
X151290000Y-93499000D03*
X150490000Y-93499000D03*
X149690000Y-93499000D03*
X148890000Y-93499000D03*
X148090000Y-93499000D03*
X147290000Y-93499000D03*
X146490000Y-93499000D03*
X145690000Y-93499000D03*
X144890000Y-93499000D03*
X144090000Y-93499000D03*
%TD*%
%TO.C,U16*%
G36*
G01*
X105610000Y-73980000D02*
X105610000Y-74780000D01*
G75*
G02*
X105310000Y-75080000I-300000J0D01*
G01*
X104710000Y-75080000D01*
G75*
G02*
X104410000Y-74780000I0J300000D01*
G01*
X104410000Y-73980000D01*
G75*
G02*
X104710000Y-73680000I300000J0D01*
G01*
X105310000Y-73680000D01*
G75*
G02*
X105610000Y-73980000I0J-300000D01*
G01*
G37*
G36*
G01*
X103790000Y-73930000D02*
X103790000Y-74830000D01*
G75*
G02*
X103540000Y-75080000I-250000J0D01*
G01*
X103040000Y-75080000D01*
G75*
G02*
X102790000Y-74830000I0J250000D01*
G01*
X102790000Y-73930000D01*
G75*
G02*
X103040000Y-73680000I250000J0D01*
G01*
X103540000Y-73680000D01*
G75*
G02*
X103790000Y-73930000I0J-250000D01*
G01*
G37*
G36*
G01*
X103790000Y-76130000D02*
X103790000Y-77030000D01*
G75*
G02*
X103540000Y-77280000I-250000J0D01*
G01*
X103040000Y-77280000D01*
G75*
G02*
X102790000Y-77030000I0J250000D01*
G01*
X102790000Y-76130000D01*
G75*
G02*
X103040000Y-75880000I250000J0D01*
G01*
X103540000Y-75880000D01*
G75*
G02*
X103790000Y-76130000I0J-250000D01*
G01*
G37*
G36*
G01*
X105690000Y-76130000D02*
X105690000Y-77030000D01*
G75*
G02*
X105440000Y-77280000I-250000J0D01*
G01*
X104940000Y-77280000D01*
G75*
G02*
X104690000Y-77030000I0J250000D01*
G01*
X104690000Y-76130000D01*
G75*
G02*
X104940000Y-75880000I250000J0D01*
G01*
X105440000Y-75880000D01*
G75*
G02*
X105690000Y-76130000I0J-250000D01*
G01*
G37*
%TD*%
%TO.C,BT1*%
G36*
G01*
X167390000Y-108747000D02*
X167390000Y-104697000D01*
G75*
G02*
X167915000Y-104172000I525000J0D01*
G01*
X168965000Y-104172000D01*
G75*
G02*
X169490000Y-104697000I0J-525000D01*
G01*
X169490000Y-108747000D01*
G75*
G02*
X168965000Y-109272000I-525000J0D01*
G01*
X167915000Y-109272000D01*
G75*
G02*
X167390000Y-108747000I0J525000D01*
G01*
G37*
G36*
G01*
X182190000Y-108747000D02*
X182190000Y-104697000D01*
G75*
G02*
X182715000Y-104172000I525000J0D01*
G01*
X183765000Y-104172000D01*
G75*
G02*
X184290000Y-104697000I0J-525000D01*
G01*
X184290000Y-108747000D01*
G75*
G02*
X183765000Y-109272000I-525000J0D01*
G01*
X182715000Y-109272000D01*
G75*
G02*
X182190000Y-108747000I0J525000D01*
G01*
G37*
D31*
X175840000Y-106722000D03*
%TD*%
%TO.C,C39*%
G36*
G01*
X164847000Y-99233000D02*
X164847000Y-99733000D01*
G75*
G02*
X164622000Y-99958000I-225000J0D01*
G01*
X164172000Y-99958000D01*
G75*
G02*
X163947000Y-99733000I0J225000D01*
G01*
X163947000Y-99233000D01*
G75*
G02*
X164172000Y-99008000I225000J0D01*
G01*
X164622000Y-99008000D01*
G75*
G02*
X164847000Y-99233000I0J-225000D01*
G01*
G37*
G36*
G01*
X166397000Y-99233000D02*
X166397000Y-99733000D01*
G75*
G02*
X166172000Y-99958000I-225000J0D01*
G01*
X165722000Y-99958000D01*
G75*
G02*
X165497000Y-99733000I0J225000D01*
G01*
X165497000Y-99233000D01*
G75*
G02*
X165722000Y-99008000I225000J0D01*
G01*
X166172000Y-99008000D01*
G75*
G02*
X166397000Y-99233000I0J-225000D01*
G01*
G37*
%TD*%
D32*
%TO.C,FID1*%
X109609000Y-111104000D03*
%TD*%
%TO.C,FID2*%
X188000000Y-106000000D03*
%TD*%
%TO.C,FID3*%
X188000000Y-62400000D03*
%TD*%
D33*
%TO.C,U12*%
X152449000Y-72003500D03*
X152449000Y-72503500D03*
X152449000Y-73003500D03*
X152449000Y-73503500D03*
X152449000Y-74003500D03*
X148049000Y-74003500D03*
X148049000Y-73503500D03*
X148049000Y-73003500D03*
X148049000Y-72503500D03*
X148049000Y-72003500D03*
%TD*%
%TO.C,D3*%
G36*
G01*
X160269750Y-97774000D02*
X161182250Y-97774000D01*
G75*
G02*
X161426000Y-98017750I0J-243750D01*
G01*
X161426000Y-98505250D01*
G75*
G02*
X161182250Y-98749000I-243750J0D01*
G01*
X160269750Y-98749000D01*
G75*
G02*
X160026000Y-98505250I0J243750D01*
G01*
X160026000Y-98017750D01*
G75*
G02*
X160269750Y-97774000I243750J0D01*
G01*
G37*
G36*
G01*
X160269750Y-95899000D02*
X161182250Y-95899000D01*
G75*
G02*
X161426000Y-96142750I0J-243750D01*
G01*
X161426000Y-96630250D01*
G75*
G02*
X161182250Y-96874000I-243750J0D01*
G01*
X160269750Y-96874000D01*
G75*
G02*
X160026000Y-96630250I0J243750D01*
G01*
X160026000Y-96142750D01*
G75*
G02*
X160269750Y-95899000I243750J0D01*
G01*
G37*
%TD*%
%TO.C,D4*%
G36*
G01*
X94256250Y-65990000D02*
X93343750Y-65990000D01*
G75*
G02*
X93100000Y-65746250I0J243750D01*
G01*
X93100000Y-65258750D01*
G75*
G02*
X93343750Y-65015000I243750J0D01*
G01*
X94256250Y-65015000D01*
G75*
G02*
X94500000Y-65258750I0J-243750D01*
G01*
X94500000Y-65746250D01*
G75*
G02*
X94256250Y-65990000I-243750J0D01*
G01*
G37*
G36*
G01*
X94256250Y-67865000D02*
X93343750Y-67865000D01*
G75*
G02*
X93100000Y-67621250I0J243750D01*
G01*
X93100000Y-67133750D01*
G75*
G02*
X93343750Y-66890000I243750J0D01*
G01*
X94256250Y-66890000D01*
G75*
G02*
X94500000Y-67133750I0J-243750D01*
G01*
X94500000Y-67621250D01*
G75*
G02*
X94256250Y-67865000I-243750J0D01*
G01*
G37*
%TD*%
%TO.C,U8*%
G36*
G01*
X179054000Y-93600500D02*
X179054000Y-93300500D01*
G75*
G02*
X179204000Y-93150500I150000J0D01*
G01*
X180854000Y-93150500D01*
G75*
G02*
X181004000Y-93300500I0J-150000D01*
G01*
X181004000Y-93600500D01*
G75*
G02*
X180854000Y-93750500I-150000J0D01*
G01*
X179204000Y-93750500D01*
G75*
G02*
X179054000Y-93600500I0J150000D01*
G01*
G37*
G36*
G01*
X179054000Y-94870500D02*
X179054000Y-94570500D01*
G75*
G02*
X179204000Y-94420500I150000J0D01*
G01*
X180854000Y-94420500D01*
G75*
G02*
X181004000Y-94570500I0J-150000D01*
G01*
X181004000Y-94870500D01*
G75*
G02*
X180854000Y-95020500I-150000J0D01*
G01*
X179204000Y-95020500D01*
G75*
G02*
X179054000Y-94870500I0J150000D01*
G01*
G37*
G36*
G01*
X179054000Y-96140500D02*
X179054000Y-95840500D01*
G75*
G02*
X179204000Y-95690500I150000J0D01*
G01*
X180854000Y-95690500D01*
G75*
G02*
X181004000Y-95840500I0J-150000D01*
G01*
X181004000Y-96140500D01*
G75*
G02*
X180854000Y-96290500I-150000J0D01*
G01*
X179204000Y-96290500D01*
G75*
G02*
X179054000Y-96140500I0J150000D01*
G01*
G37*
G36*
G01*
X179054000Y-97410500D02*
X179054000Y-97110500D01*
G75*
G02*
X179204000Y-96960500I150000J0D01*
G01*
X180854000Y-96960500D01*
G75*
G02*
X181004000Y-97110500I0J-150000D01*
G01*
X181004000Y-97410500D01*
G75*
G02*
X180854000Y-97560500I-150000J0D01*
G01*
X179204000Y-97560500D01*
G75*
G02*
X179054000Y-97410500I0J150000D01*
G01*
G37*
G36*
G01*
X174104000Y-97410500D02*
X174104000Y-97110500D01*
G75*
G02*
X174254000Y-96960500I150000J0D01*
G01*
X175904000Y-96960500D01*
G75*
G02*
X176054000Y-97110500I0J-150000D01*
G01*
X176054000Y-97410500D01*
G75*
G02*
X175904000Y-97560500I-150000J0D01*
G01*
X174254000Y-97560500D01*
G75*
G02*
X174104000Y-97410500I0J150000D01*
G01*
G37*
G36*
G01*
X174104000Y-96140500D02*
X174104000Y-95840500D01*
G75*
G02*
X174254000Y-95690500I150000J0D01*
G01*
X175904000Y-95690500D01*
G75*
G02*
X176054000Y-95840500I0J-150000D01*
G01*
X176054000Y-96140500D01*
G75*
G02*
X175904000Y-96290500I-150000J0D01*
G01*
X174254000Y-96290500D01*
G75*
G02*
X174104000Y-96140500I0J150000D01*
G01*
G37*
G36*
G01*
X174104000Y-94870500D02*
X174104000Y-94570500D01*
G75*
G02*
X174254000Y-94420500I150000J0D01*
G01*
X175904000Y-94420500D01*
G75*
G02*
X176054000Y-94570500I0J-150000D01*
G01*
X176054000Y-94870500D01*
G75*
G02*
X175904000Y-95020500I-150000J0D01*
G01*
X174254000Y-95020500D01*
G75*
G02*
X174104000Y-94870500I0J150000D01*
G01*
G37*
G36*
G01*
X174104000Y-93600500D02*
X174104000Y-93300500D01*
G75*
G02*
X174254000Y-93150500I150000J0D01*
G01*
X175904000Y-93150500D01*
G75*
G02*
X176054000Y-93300500I0J-150000D01*
G01*
X176054000Y-93600500D01*
G75*
G02*
X175904000Y-93750500I-150000J0D01*
G01*
X174254000Y-93750500D01*
G75*
G02*
X174104000Y-93600500I0J150000D01*
G01*
G37*
%TD*%
%TO.C,U10*%
G36*
G01*
X134208000Y-107334000D02*
X134208000Y-107634000D01*
G75*
G02*
X134058000Y-107784000I-150000J0D01*
G01*
X132408000Y-107784000D01*
G75*
G02*
X132258000Y-107634000I0J150000D01*
G01*
X132258000Y-107334000D01*
G75*
G02*
X132408000Y-107184000I150000J0D01*
G01*
X134058000Y-107184000D01*
G75*
G02*
X134208000Y-107334000I0J-150000D01*
G01*
G37*
G36*
G01*
X134208000Y-106064000D02*
X134208000Y-106364000D01*
G75*
G02*
X134058000Y-106514000I-150000J0D01*
G01*
X132408000Y-106514000D01*
G75*
G02*
X132258000Y-106364000I0J150000D01*
G01*
X132258000Y-106064000D01*
G75*
G02*
X132408000Y-105914000I150000J0D01*
G01*
X134058000Y-105914000D01*
G75*
G02*
X134208000Y-106064000I0J-150000D01*
G01*
G37*
G36*
G01*
X134208000Y-104794000D02*
X134208000Y-105094000D01*
G75*
G02*
X134058000Y-105244000I-150000J0D01*
G01*
X132408000Y-105244000D01*
G75*
G02*
X132258000Y-105094000I0J150000D01*
G01*
X132258000Y-104794000D01*
G75*
G02*
X132408000Y-104644000I150000J0D01*
G01*
X134058000Y-104644000D01*
G75*
G02*
X134208000Y-104794000I0J-150000D01*
G01*
G37*
G36*
G01*
X134208000Y-103524000D02*
X134208000Y-103824000D01*
G75*
G02*
X134058000Y-103974000I-150000J0D01*
G01*
X132408000Y-103974000D01*
G75*
G02*
X132258000Y-103824000I0J150000D01*
G01*
X132258000Y-103524000D01*
G75*
G02*
X132408000Y-103374000I150000J0D01*
G01*
X134058000Y-103374000D01*
G75*
G02*
X134208000Y-103524000I0J-150000D01*
G01*
G37*
G36*
G01*
X139158000Y-103524000D02*
X139158000Y-103824000D01*
G75*
G02*
X139008000Y-103974000I-150000J0D01*
G01*
X137358000Y-103974000D01*
G75*
G02*
X137208000Y-103824000I0J150000D01*
G01*
X137208000Y-103524000D01*
G75*
G02*
X137358000Y-103374000I150000J0D01*
G01*
X139008000Y-103374000D01*
G75*
G02*
X139158000Y-103524000I0J-150000D01*
G01*
G37*
G36*
G01*
X139158000Y-104794000D02*
X139158000Y-105094000D01*
G75*
G02*
X139008000Y-105244000I-150000J0D01*
G01*
X137358000Y-105244000D01*
G75*
G02*
X137208000Y-105094000I0J150000D01*
G01*
X137208000Y-104794000D01*
G75*
G02*
X137358000Y-104644000I150000J0D01*
G01*
X139008000Y-104644000D01*
G75*
G02*
X139158000Y-104794000I0J-150000D01*
G01*
G37*
G36*
G01*
X139158000Y-106064000D02*
X139158000Y-106364000D01*
G75*
G02*
X139008000Y-106514000I-150000J0D01*
G01*
X137358000Y-106514000D01*
G75*
G02*
X137208000Y-106364000I0J150000D01*
G01*
X137208000Y-106064000D01*
G75*
G02*
X137358000Y-105914000I150000J0D01*
G01*
X139008000Y-105914000D01*
G75*
G02*
X139158000Y-106064000I0J-150000D01*
G01*
G37*
G36*
G01*
X139158000Y-107334000D02*
X139158000Y-107634000D01*
G75*
G02*
X139008000Y-107784000I-150000J0D01*
G01*
X137358000Y-107784000D01*
G75*
G02*
X137208000Y-107634000I0J150000D01*
G01*
X137208000Y-107334000D01*
G75*
G02*
X137358000Y-107184000I150000J0D01*
G01*
X139008000Y-107184000D01*
G75*
G02*
X139158000Y-107334000I0J-150000D01*
G01*
G37*
%TD*%
%TO.C,U9*%
G36*
G01*
X179054000Y-83123000D02*
X179054000Y-82823000D01*
G75*
G02*
X179204000Y-82673000I150000J0D01*
G01*
X180854000Y-82673000D01*
G75*
G02*
X181004000Y-82823000I0J-150000D01*
G01*
X181004000Y-83123000D01*
G75*
G02*
X180854000Y-83273000I-150000J0D01*
G01*
X179204000Y-83273000D01*
G75*
G02*
X179054000Y-83123000I0J150000D01*
G01*
G37*
G36*
G01*
X179054000Y-84393000D02*
X179054000Y-84093000D01*
G75*
G02*
X179204000Y-83943000I150000J0D01*
G01*
X180854000Y-83943000D01*
G75*
G02*
X181004000Y-84093000I0J-150000D01*
G01*
X181004000Y-84393000D01*
G75*
G02*
X180854000Y-84543000I-150000J0D01*
G01*
X179204000Y-84543000D01*
G75*
G02*
X179054000Y-84393000I0J150000D01*
G01*
G37*
G36*
G01*
X179054000Y-85663000D02*
X179054000Y-85363000D01*
G75*
G02*
X179204000Y-85213000I150000J0D01*
G01*
X180854000Y-85213000D01*
G75*
G02*
X181004000Y-85363000I0J-150000D01*
G01*
X181004000Y-85663000D01*
G75*
G02*
X180854000Y-85813000I-150000J0D01*
G01*
X179204000Y-85813000D01*
G75*
G02*
X179054000Y-85663000I0J150000D01*
G01*
G37*
G36*
G01*
X179054000Y-86933000D02*
X179054000Y-86633000D01*
G75*
G02*
X179204000Y-86483000I150000J0D01*
G01*
X180854000Y-86483000D01*
G75*
G02*
X181004000Y-86633000I0J-150000D01*
G01*
X181004000Y-86933000D01*
G75*
G02*
X180854000Y-87083000I-150000J0D01*
G01*
X179204000Y-87083000D01*
G75*
G02*
X179054000Y-86933000I0J150000D01*
G01*
G37*
G36*
G01*
X174104000Y-86933000D02*
X174104000Y-86633000D01*
G75*
G02*
X174254000Y-86483000I150000J0D01*
G01*
X175904000Y-86483000D01*
G75*
G02*
X176054000Y-86633000I0J-150000D01*
G01*
X176054000Y-86933000D01*
G75*
G02*
X175904000Y-87083000I-150000J0D01*
G01*
X174254000Y-87083000D01*
G75*
G02*
X174104000Y-86933000I0J150000D01*
G01*
G37*
G36*
G01*
X174104000Y-85663000D02*
X174104000Y-85363000D01*
G75*
G02*
X174254000Y-85213000I150000J0D01*
G01*
X175904000Y-85213000D01*
G75*
G02*
X176054000Y-85363000I0J-150000D01*
G01*
X176054000Y-85663000D01*
G75*
G02*
X175904000Y-85813000I-150000J0D01*
G01*
X174254000Y-85813000D01*
G75*
G02*
X174104000Y-85663000I0J150000D01*
G01*
G37*
G36*
G01*
X174104000Y-84393000D02*
X174104000Y-84093000D01*
G75*
G02*
X174254000Y-83943000I150000J0D01*
G01*
X175904000Y-83943000D01*
G75*
G02*
X176054000Y-84093000I0J-150000D01*
G01*
X176054000Y-84393000D01*
G75*
G02*
X175904000Y-84543000I-150000J0D01*
G01*
X174254000Y-84543000D01*
G75*
G02*
X174104000Y-84393000I0J150000D01*
G01*
G37*
G36*
G01*
X174104000Y-83123000D02*
X174104000Y-82823000D01*
G75*
G02*
X174254000Y-82673000I150000J0D01*
G01*
X175904000Y-82673000D01*
G75*
G02*
X176054000Y-82823000I0J-150000D01*
G01*
X176054000Y-83123000D01*
G75*
G02*
X175904000Y-83273000I-150000J0D01*
G01*
X174254000Y-83273000D01*
G75*
G02*
X174104000Y-83123000I0J150000D01*
G01*
G37*
%TD*%
%TO.C,U14*%
G36*
G01*
X168894000Y-83123000D02*
X168894000Y-82823000D01*
G75*
G02*
X169044000Y-82673000I150000J0D01*
G01*
X170694000Y-82673000D01*
G75*
G02*
X170844000Y-82823000I0J-150000D01*
G01*
X170844000Y-83123000D01*
G75*
G02*
X170694000Y-83273000I-150000J0D01*
G01*
X169044000Y-83273000D01*
G75*
G02*
X168894000Y-83123000I0J150000D01*
G01*
G37*
G36*
G01*
X168894000Y-84393000D02*
X168894000Y-84093000D01*
G75*
G02*
X169044000Y-83943000I150000J0D01*
G01*
X170694000Y-83943000D01*
G75*
G02*
X170844000Y-84093000I0J-150000D01*
G01*
X170844000Y-84393000D01*
G75*
G02*
X170694000Y-84543000I-150000J0D01*
G01*
X169044000Y-84543000D01*
G75*
G02*
X168894000Y-84393000I0J150000D01*
G01*
G37*
G36*
G01*
X168894000Y-85663000D02*
X168894000Y-85363000D01*
G75*
G02*
X169044000Y-85213000I150000J0D01*
G01*
X170694000Y-85213000D01*
G75*
G02*
X170844000Y-85363000I0J-150000D01*
G01*
X170844000Y-85663000D01*
G75*
G02*
X170694000Y-85813000I-150000J0D01*
G01*
X169044000Y-85813000D01*
G75*
G02*
X168894000Y-85663000I0J150000D01*
G01*
G37*
G36*
G01*
X168894000Y-86933000D02*
X168894000Y-86633000D01*
G75*
G02*
X169044000Y-86483000I150000J0D01*
G01*
X170694000Y-86483000D01*
G75*
G02*
X170844000Y-86633000I0J-150000D01*
G01*
X170844000Y-86933000D01*
G75*
G02*
X170694000Y-87083000I-150000J0D01*
G01*
X169044000Y-87083000D01*
G75*
G02*
X168894000Y-86933000I0J150000D01*
G01*
G37*
G36*
G01*
X163944000Y-86933000D02*
X163944000Y-86633000D01*
G75*
G02*
X164094000Y-86483000I150000J0D01*
G01*
X165744000Y-86483000D01*
G75*
G02*
X165894000Y-86633000I0J-150000D01*
G01*
X165894000Y-86933000D01*
G75*
G02*
X165744000Y-87083000I-150000J0D01*
G01*
X164094000Y-87083000D01*
G75*
G02*
X163944000Y-86933000I0J150000D01*
G01*
G37*
G36*
G01*
X163944000Y-85663000D02*
X163944000Y-85363000D01*
G75*
G02*
X164094000Y-85213000I150000J0D01*
G01*
X165744000Y-85213000D01*
G75*
G02*
X165894000Y-85363000I0J-150000D01*
G01*
X165894000Y-85663000D01*
G75*
G02*
X165744000Y-85813000I-150000J0D01*
G01*
X164094000Y-85813000D01*
G75*
G02*
X163944000Y-85663000I0J150000D01*
G01*
G37*
G36*
G01*
X163944000Y-84393000D02*
X163944000Y-84093000D01*
G75*
G02*
X164094000Y-83943000I150000J0D01*
G01*
X165744000Y-83943000D01*
G75*
G02*
X165894000Y-84093000I0J-150000D01*
G01*
X165894000Y-84393000D01*
G75*
G02*
X165744000Y-84543000I-150000J0D01*
G01*
X164094000Y-84543000D01*
G75*
G02*
X163944000Y-84393000I0J150000D01*
G01*
G37*
G36*
G01*
X163944000Y-83123000D02*
X163944000Y-82823000D01*
G75*
G02*
X164094000Y-82673000I150000J0D01*
G01*
X165744000Y-82673000D01*
G75*
G02*
X165894000Y-82823000I0J-150000D01*
G01*
X165894000Y-83123000D01*
G75*
G02*
X165744000Y-83273000I-150000J0D01*
G01*
X164094000Y-83273000D01*
G75*
G02*
X163944000Y-83123000I0J150000D01*
G01*
G37*
%TD*%
%TO.C,U4*%
G36*
G01*
X157068000Y-107397000D02*
X157068000Y-107697000D01*
G75*
G02*
X156918000Y-107847000I-150000J0D01*
G01*
X155268000Y-107847000D01*
G75*
G02*
X155118000Y-107697000I0J150000D01*
G01*
X155118000Y-107397000D01*
G75*
G02*
X155268000Y-107247000I150000J0D01*
G01*
X156918000Y-107247000D01*
G75*
G02*
X157068000Y-107397000I0J-150000D01*
G01*
G37*
G36*
G01*
X157068000Y-106127000D02*
X157068000Y-106427000D01*
G75*
G02*
X156918000Y-106577000I-150000J0D01*
G01*
X155268000Y-106577000D01*
G75*
G02*
X155118000Y-106427000I0J150000D01*
G01*
X155118000Y-106127000D01*
G75*
G02*
X155268000Y-105977000I150000J0D01*
G01*
X156918000Y-105977000D01*
G75*
G02*
X157068000Y-106127000I0J-150000D01*
G01*
G37*
G36*
G01*
X157068000Y-104857000D02*
X157068000Y-105157000D01*
G75*
G02*
X156918000Y-105307000I-150000J0D01*
G01*
X155268000Y-105307000D01*
G75*
G02*
X155118000Y-105157000I0J150000D01*
G01*
X155118000Y-104857000D01*
G75*
G02*
X155268000Y-104707000I150000J0D01*
G01*
X156918000Y-104707000D01*
G75*
G02*
X157068000Y-104857000I0J-150000D01*
G01*
G37*
G36*
G01*
X157068000Y-103587000D02*
X157068000Y-103887000D01*
G75*
G02*
X156918000Y-104037000I-150000J0D01*
G01*
X155268000Y-104037000D01*
G75*
G02*
X155118000Y-103887000I0J150000D01*
G01*
X155118000Y-103587000D01*
G75*
G02*
X155268000Y-103437000I150000J0D01*
G01*
X156918000Y-103437000D01*
G75*
G02*
X157068000Y-103587000I0J-150000D01*
G01*
G37*
G36*
G01*
X162018000Y-103587000D02*
X162018000Y-103887000D01*
G75*
G02*
X161868000Y-104037000I-150000J0D01*
G01*
X160218000Y-104037000D01*
G75*
G02*
X160068000Y-103887000I0J150000D01*
G01*
X160068000Y-103587000D01*
G75*
G02*
X160218000Y-103437000I150000J0D01*
G01*
X161868000Y-103437000D01*
G75*
G02*
X162018000Y-103587000I0J-150000D01*
G01*
G37*
G36*
G01*
X162018000Y-104857000D02*
X162018000Y-105157000D01*
G75*
G02*
X161868000Y-105307000I-150000J0D01*
G01*
X160218000Y-105307000D01*
G75*
G02*
X160068000Y-105157000I0J150000D01*
G01*
X160068000Y-104857000D01*
G75*
G02*
X160218000Y-104707000I150000J0D01*
G01*
X161868000Y-104707000D01*
G75*
G02*
X162018000Y-104857000I0J-150000D01*
G01*
G37*
G36*
G01*
X162018000Y-106127000D02*
X162018000Y-106427000D01*
G75*
G02*
X161868000Y-106577000I-150000J0D01*
G01*
X160218000Y-106577000D01*
G75*
G02*
X160068000Y-106427000I0J150000D01*
G01*
X160068000Y-106127000D01*
G75*
G02*
X160218000Y-105977000I150000J0D01*
G01*
X161868000Y-105977000D01*
G75*
G02*
X162018000Y-106127000I0J-150000D01*
G01*
G37*
G36*
G01*
X162018000Y-107397000D02*
X162018000Y-107697000D01*
G75*
G02*
X161868000Y-107847000I-150000J0D01*
G01*
X160218000Y-107847000D01*
G75*
G02*
X160068000Y-107697000I0J150000D01*
G01*
X160068000Y-107397000D01*
G75*
G02*
X160218000Y-107247000I150000J0D01*
G01*
X161868000Y-107247000D01*
G75*
G02*
X162018000Y-107397000I0J-150000D01*
G01*
G37*
%TD*%
D34*
%TO.C,Q2*%
X124940000Y-82893500D03*
X126840000Y-82893500D03*
X125890000Y-80893500D03*
%TD*%
%TO.C,Q3*%
X133195000Y-72098500D03*
X135095000Y-72098500D03*
X134145000Y-70098500D03*
%TD*%
D35*
%TO.C,Q1*%
X166426000Y-73067000D03*
X164426000Y-74017000D03*
X164426000Y-72117000D03*
%TD*%
%TO.C,C6*%
G36*
G01*
X128779000Y-99741000D02*
X128779000Y-100241000D01*
G75*
G02*
X128554000Y-100466000I-225000J0D01*
G01*
X128104000Y-100466000D01*
G75*
G02*
X127879000Y-100241000I0J225000D01*
G01*
X127879000Y-99741000D01*
G75*
G02*
X128104000Y-99516000I225000J0D01*
G01*
X128554000Y-99516000D01*
G75*
G02*
X128779000Y-99741000I0J-225000D01*
G01*
G37*
G36*
G01*
X130329000Y-99741000D02*
X130329000Y-100241000D01*
G75*
G02*
X130104000Y-100466000I-225000J0D01*
G01*
X129654000Y-100466000D01*
G75*
G02*
X129429000Y-100241000I0J225000D01*
G01*
X129429000Y-99741000D01*
G75*
G02*
X129654000Y-99516000I225000J0D01*
G01*
X130104000Y-99516000D01*
G75*
G02*
X130329000Y-99741000I0J-225000D01*
G01*
G37*
%TD*%
%TO.C,C7*%
G36*
G01*
X129933000Y-110603000D02*
X130433000Y-110603000D01*
G75*
G02*
X130658000Y-110828000I0J-225000D01*
G01*
X130658000Y-111278000D01*
G75*
G02*
X130433000Y-111503000I-225000J0D01*
G01*
X129933000Y-111503000D01*
G75*
G02*
X129708000Y-111278000I0J225000D01*
G01*
X129708000Y-110828000D01*
G75*
G02*
X129933000Y-110603000I225000J0D01*
G01*
G37*
G36*
G01*
X129933000Y-109053000D02*
X130433000Y-109053000D01*
G75*
G02*
X130658000Y-109278000I0J-225000D01*
G01*
X130658000Y-109728000D01*
G75*
G02*
X130433000Y-109953000I-225000J0D01*
G01*
X129933000Y-109953000D01*
G75*
G02*
X129708000Y-109728000I0J225000D01*
G01*
X129708000Y-109278000D01*
G75*
G02*
X129933000Y-109053000I225000J0D01*
G01*
G37*
%TD*%
%TO.C,C15*%
G36*
G01*
X109490000Y-101505000D02*
X109990000Y-101505000D01*
G75*
G02*
X110215000Y-101730000I0J-225000D01*
G01*
X110215000Y-102180000D01*
G75*
G02*
X109990000Y-102405000I-225000J0D01*
G01*
X109490000Y-102405000D01*
G75*
G02*
X109265000Y-102180000I0J225000D01*
G01*
X109265000Y-101730000D01*
G75*
G02*
X109490000Y-101505000I225000J0D01*
G01*
G37*
G36*
G01*
X109490000Y-99955000D02*
X109990000Y-99955000D01*
G75*
G02*
X110215000Y-100180000I0J-225000D01*
G01*
X110215000Y-100630000D01*
G75*
G02*
X109990000Y-100855000I-225000J0D01*
G01*
X109490000Y-100855000D01*
G75*
G02*
X109265000Y-100630000I0J225000D01*
G01*
X109265000Y-100180000D01*
G75*
G02*
X109490000Y-99955000I225000J0D01*
G01*
G37*
%TD*%
%TO.C,C20*%
G36*
G01*
X116690000Y-101705000D02*
X117190000Y-101705000D01*
G75*
G02*
X117415000Y-101930000I0J-225000D01*
G01*
X117415000Y-102380000D01*
G75*
G02*
X117190000Y-102605000I-225000J0D01*
G01*
X116690000Y-102605000D01*
G75*
G02*
X116465000Y-102380000I0J225000D01*
G01*
X116465000Y-101930000D01*
G75*
G02*
X116690000Y-101705000I225000J0D01*
G01*
G37*
G36*
G01*
X116690000Y-100155000D02*
X117190000Y-100155000D01*
G75*
G02*
X117415000Y-100380000I0J-225000D01*
G01*
X117415000Y-100830000D01*
G75*
G02*
X117190000Y-101055000I-225000J0D01*
G01*
X116690000Y-101055000D01*
G75*
G02*
X116465000Y-100830000I0J225000D01*
G01*
X116465000Y-100380000D01*
G75*
G02*
X116690000Y-100155000I225000J0D01*
G01*
G37*
%TD*%
%TO.C,C22*%
G36*
G01*
X169291000Y-99233000D02*
X169291000Y-99733000D01*
G75*
G02*
X169066000Y-99958000I-225000J0D01*
G01*
X168616000Y-99958000D01*
G75*
G02*
X168391000Y-99733000I0J225000D01*
G01*
X168391000Y-99233000D01*
G75*
G02*
X168616000Y-99008000I225000J0D01*
G01*
X169066000Y-99008000D01*
G75*
G02*
X169291000Y-99233000I0J-225000D01*
G01*
G37*
G36*
G01*
X170841000Y-99233000D02*
X170841000Y-99733000D01*
G75*
G02*
X170616000Y-99958000I-225000J0D01*
G01*
X170166000Y-99958000D01*
G75*
G02*
X169941000Y-99733000I0J225000D01*
G01*
X169941000Y-99233000D01*
G75*
G02*
X170166000Y-99008000I225000J0D01*
G01*
X170616000Y-99008000D01*
G75*
G02*
X170841000Y-99233000I0J-225000D01*
G01*
G37*
%TD*%
%TO.C,C23*%
G36*
G01*
X175657000Y-89255500D02*
X175657000Y-88755500D01*
G75*
G02*
X175882000Y-88530500I225000J0D01*
G01*
X176332000Y-88530500D01*
G75*
G02*
X176557000Y-88755500I0J-225000D01*
G01*
X176557000Y-89255500D01*
G75*
G02*
X176332000Y-89480500I-225000J0D01*
G01*
X175882000Y-89480500D01*
G75*
G02*
X175657000Y-89255500I0J225000D01*
G01*
G37*
G36*
G01*
X174107000Y-89255500D02*
X174107000Y-88755500D01*
G75*
G02*
X174332000Y-88530500I225000J0D01*
G01*
X174782000Y-88530500D01*
G75*
G02*
X175007000Y-88755500I0J-225000D01*
G01*
X175007000Y-89255500D01*
G75*
G02*
X174782000Y-89480500I-225000J0D01*
G01*
X174332000Y-89480500D01*
G75*
G02*
X174107000Y-89255500I0J225000D01*
G01*
G37*
%TD*%
%TO.C,C24*%
G36*
G01*
X148606000Y-70015000D02*
X148606000Y-69515000D01*
G75*
G02*
X148831000Y-69290000I225000J0D01*
G01*
X149281000Y-69290000D01*
G75*
G02*
X149506000Y-69515000I0J-225000D01*
G01*
X149506000Y-70015000D01*
G75*
G02*
X149281000Y-70240000I-225000J0D01*
G01*
X148831000Y-70240000D01*
G75*
G02*
X148606000Y-70015000I0J225000D01*
G01*
G37*
G36*
G01*
X147056000Y-70015000D02*
X147056000Y-69515000D01*
G75*
G02*
X147281000Y-69290000I225000J0D01*
G01*
X147731000Y-69290000D01*
G75*
G02*
X147956000Y-69515000I0J-225000D01*
G01*
X147956000Y-70015000D01*
G75*
G02*
X147731000Y-70240000I-225000J0D01*
G01*
X147281000Y-70240000D01*
G75*
G02*
X147056000Y-70015000I0J225000D01*
G01*
G37*
%TD*%
%TO.C,C25*%
G36*
G01*
X180101000Y-91414500D02*
X180101000Y-90914500D01*
G75*
G02*
X180326000Y-90689500I225000J0D01*
G01*
X180776000Y-90689500D01*
G75*
G02*
X181001000Y-90914500I0J-225000D01*
G01*
X181001000Y-91414500D01*
G75*
G02*
X180776000Y-91639500I-225000J0D01*
G01*
X180326000Y-91639500D01*
G75*
G02*
X180101000Y-91414500I0J225000D01*
G01*
G37*
G36*
G01*
X178551000Y-91414500D02*
X178551000Y-90914500D01*
G75*
G02*
X178776000Y-90689500I225000J0D01*
G01*
X179226000Y-90689500D01*
G75*
G02*
X179451000Y-90914500I0J-225000D01*
G01*
X179451000Y-91414500D01*
G75*
G02*
X179226000Y-91639500I-225000J0D01*
G01*
X178776000Y-91639500D01*
G75*
G02*
X178551000Y-91414500I0J225000D01*
G01*
G37*
%TD*%
%TO.C,C26*%
G36*
G01*
X172224000Y-96887000D02*
X172724000Y-96887000D01*
G75*
G02*
X172949000Y-97112000I0J-225000D01*
G01*
X172949000Y-97562000D01*
G75*
G02*
X172724000Y-97787000I-225000J0D01*
G01*
X172224000Y-97787000D01*
G75*
G02*
X171999000Y-97562000I0J225000D01*
G01*
X171999000Y-97112000D01*
G75*
G02*
X172224000Y-96887000I225000J0D01*
G01*
G37*
G36*
G01*
X172224000Y-95337000D02*
X172724000Y-95337000D01*
G75*
G02*
X172949000Y-95562000I0J-225000D01*
G01*
X172949000Y-96012000D01*
G75*
G02*
X172724000Y-96237000I-225000J0D01*
G01*
X172224000Y-96237000D01*
G75*
G02*
X171999000Y-96012000I0J225000D01*
G01*
X171999000Y-95562000D01*
G75*
G02*
X172224000Y-95337000I225000J0D01*
G01*
G37*
%TD*%
%TO.C,C27*%
G36*
G01*
X155703000Y-67356000D02*
X155703000Y-67856000D01*
G75*
G02*
X155478000Y-68081000I-225000J0D01*
G01*
X155028000Y-68081000D01*
G75*
G02*
X154803000Y-67856000I0J225000D01*
G01*
X154803000Y-67356000D01*
G75*
G02*
X155028000Y-67131000I225000J0D01*
G01*
X155478000Y-67131000D01*
G75*
G02*
X155703000Y-67356000I0J-225000D01*
G01*
G37*
G36*
G01*
X157253000Y-67356000D02*
X157253000Y-67856000D01*
G75*
G02*
X157028000Y-68081000I-225000J0D01*
G01*
X156578000Y-68081000D01*
G75*
G02*
X156353000Y-67856000I0J225000D01*
G01*
X156353000Y-67356000D01*
G75*
G02*
X156578000Y-67131000I225000J0D01*
G01*
X157028000Y-67131000D01*
G75*
G02*
X157253000Y-67356000I0J-225000D01*
G01*
G37*
%TD*%
%TO.C,C28*%
G36*
G01*
X169291000Y-88755500D02*
X169291000Y-89255500D01*
G75*
G02*
X169066000Y-89480500I-225000J0D01*
G01*
X168616000Y-89480500D01*
G75*
G02*
X168391000Y-89255500I0J225000D01*
G01*
X168391000Y-88755500D01*
G75*
G02*
X168616000Y-88530500I225000J0D01*
G01*
X169066000Y-88530500D01*
G75*
G02*
X169291000Y-88755500I0J-225000D01*
G01*
G37*
G36*
G01*
X170841000Y-88755500D02*
X170841000Y-89255500D01*
G75*
G02*
X170616000Y-89480500I-225000J0D01*
G01*
X170166000Y-89480500D01*
G75*
G02*
X169941000Y-89255500I0J225000D01*
G01*
X169941000Y-88755500D01*
G75*
G02*
X170166000Y-88530500I225000J0D01*
G01*
X170616000Y-88530500D01*
G75*
G02*
X170841000Y-88755500I0J-225000D01*
G01*
G37*
%TD*%
%TO.C,C29*%
G36*
G01*
X175657000Y-78841500D02*
X175657000Y-78341500D01*
G75*
G02*
X175882000Y-78116500I225000J0D01*
G01*
X176332000Y-78116500D01*
G75*
G02*
X176557000Y-78341500I0J-225000D01*
G01*
X176557000Y-78841500D01*
G75*
G02*
X176332000Y-79066500I-225000J0D01*
G01*
X175882000Y-79066500D01*
G75*
G02*
X175657000Y-78841500I0J225000D01*
G01*
G37*
G36*
G01*
X174107000Y-78841500D02*
X174107000Y-78341500D01*
G75*
G02*
X174332000Y-78116500I225000J0D01*
G01*
X174782000Y-78116500D01*
G75*
G02*
X175007000Y-78341500I0J-225000D01*
G01*
X175007000Y-78841500D01*
G75*
G02*
X174782000Y-79066500I-225000J0D01*
G01*
X174332000Y-79066500D01*
G75*
G02*
X174107000Y-78841500I0J225000D01*
G01*
G37*
%TD*%
%TO.C,C30*%
G36*
G01*
X130433000Y-102460000D02*
X129933000Y-102460000D01*
G75*
G02*
X129708000Y-102235000I0J225000D01*
G01*
X129708000Y-101785000D01*
G75*
G02*
X129933000Y-101560000I225000J0D01*
G01*
X130433000Y-101560000D01*
G75*
G02*
X130658000Y-101785000I0J-225000D01*
G01*
X130658000Y-102235000D01*
G75*
G02*
X130433000Y-102460000I-225000J0D01*
G01*
G37*
G36*
G01*
X130433000Y-104010000D02*
X129933000Y-104010000D01*
G75*
G02*
X129708000Y-103785000I0J225000D01*
G01*
X129708000Y-103335000D01*
G75*
G02*
X129933000Y-103110000I225000J0D01*
G01*
X130433000Y-103110000D01*
G75*
G02*
X130658000Y-103335000I0J-225000D01*
G01*
X130658000Y-103785000D01*
G75*
G02*
X130433000Y-104010000I-225000J0D01*
G01*
G37*
%TD*%
%TO.C,C31*%
G36*
G01*
X172224000Y-86409500D02*
X172724000Y-86409500D01*
G75*
G02*
X172949000Y-86634500I0J-225000D01*
G01*
X172949000Y-87084500D01*
G75*
G02*
X172724000Y-87309500I-225000J0D01*
G01*
X172224000Y-87309500D01*
G75*
G02*
X171999000Y-87084500I0J225000D01*
G01*
X171999000Y-86634500D01*
G75*
G02*
X172224000Y-86409500I225000J0D01*
G01*
G37*
G36*
G01*
X172224000Y-84859500D02*
X172724000Y-84859500D01*
G75*
G02*
X172949000Y-85084500I0J-225000D01*
G01*
X172949000Y-85534500D01*
G75*
G02*
X172724000Y-85759500I-225000J0D01*
G01*
X172224000Y-85759500D01*
G75*
G02*
X171999000Y-85534500I0J225000D01*
G01*
X171999000Y-85084500D01*
G75*
G02*
X172224000Y-84859500I225000J0D01*
G01*
G37*
%TD*%
%TO.C,C32*%
G36*
G01*
X161115000Y-67856000D02*
X161115000Y-67356000D01*
G75*
G02*
X161340000Y-67131000I225000J0D01*
G01*
X161790000Y-67131000D01*
G75*
G02*
X162015000Y-67356000I0J-225000D01*
G01*
X162015000Y-67856000D01*
G75*
G02*
X161790000Y-68081000I-225000J0D01*
G01*
X161340000Y-68081000D01*
G75*
G02*
X161115000Y-67856000I0J225000D01*
G01*
G37*
G36*
G01*
X159565000Y-67856000D02*
X159565000Y-67356000D01*
G75*
G02*
X159790000Y-67131000I225000J0D01*
G01*
X160240000Y-67131000D01*
G75*
G02*
X160465000Y-67356000I0J-225000D01*
G01*
X160465000Y-67856000D01*
G75*
G02*
X160240000Y-68081000I-225000J0D01*
G01*
X159790000Y-68081000D01*
G75*
G02*
X159565000Y-67856000I0J225000D01*
G01*
G37*
%TD*%
%TO.C,C33*%
G36*
G01*
X141732500Y-99042500D02*
X141732500Y-99542500D01*
G75*
G02*
X141507500Y-99767500I-225000J0D01*
G01*
X141057500Y-99767500D01*
G75*
G02*
X140832500Y-99542500I0J225000D01*
G01*
X140832500Y-99042500D01*
G75*
G02*
X141057500Y-98817500I225000J0D01*
G01*
X141507500Y-98817500D01*
G75*
G02*
X141732500Y-99042500I0J-225000D01*
G01*
G37*
G36*
G01*
X143282500Y-99042500D02*
X143282500Y-99542500D01*
G75*
G02*
X143057500Y-99767500I-225000J0D01*
G01*
X142607500Y-99767500D01*
G75*
G02*
X142382500Y-99542500I0J225000D01*
G01*
X142382500Y-99042500D01*
G75*
G02*
X142607500Y-98817500I225000J0D01*
G01*
X143057500Y-98817500D01*
G75*
G02*
X143282500Y-99042500I0J-225000D01*
G01*
G37*
%TD*%
%TO.C,C34*%
G36*
G01*
X169291000Y-78278000D02*
X169291000Y-78778000D01*
G75*
G02*
X169066000Y-79003000I-225000J0D01*
G01*
X168616000Y-79003000D01*
G75*
G02*
X168391000Y-78778000I0J225000D01*
G01*
X168391000Y-78278000D01*
G75*
G02*
X168616000Y-78053000I225000J0D01*
G01*
X169066000Y-78053000D01*
G75*
G02*
X169291000Y-78278000I0J-225000D01*
G01*
G37*
G36*
G01*
X170841000Y-78278000D02*
X170841000Y-78778000D01*
G75*
G02*
X170616000Y-79003000I-225000J0D01*
G01*
X170166000Y-79003000D01*
G75*
G02*
X169941000Y-78778000I0J225000D01*
G01*
X169941000Y-78278000D01*
G75*
G02*
X170166000Y-78053000I225000J0D01*
G01*
X170616000Y-78053000D01*
G75*
G02*
X170841000Y-78278000I0J-225000D01*
G01*
G37*
%TD*%
%TO.C,C35*%
G36*
G01*
X133160000Y-101202000D02*
X133160000Y-101702000D01*
G75*
G02*
X132935000Y-101927000I-225000J0D01*
G01*
X132485000Y-101927000D01*
G75*
G02*
X132260000Y-101702000I0J225000D01*
G01*
X132260000Y-101202000D01*
G75*
G02*
X132485000Y-100977000I225000J0D01*
G01*
X132935000Y-100977000D01*
G75*
G02*
X133160000Y-101202000I0J-225000D01*
G01*
G37*
G36*
G01*
X134710000Y-101202000D02*
X134710000Y-101702000D01*
G75*
G02*
X134485000Y-101927000I-225000J0D01*
G01*
X134035000Y-101927000D01*
G75*
G02*
X133810000Y-101702000I0J225000D01*
G01*
X133810000Y-101202000D01*
G75*
G02*
X134035000Y-100977000I225000J0D01*
G01*
X134485000Y-100977000D01*
G75*
G02*
X134710000Y-101202000I0J-225000D01*
G01*
G37*
%TD*%
%TO.C,C36*%
G36*
G01*
X141546000Y-106207000D02*
X141046000Y-106207000D01*
G75*
G02*
X140821000Y-105982000I0J225000D01*
G01*
X140821000Y-105532000D01*
G75*
G02*
X141046000Y-105307000I225000J0D01*
G01*
X141546000Y-105307000D01*
G75*
G02*
X141771000Y-105532000I0J-225000D01*
G01*
X141771000Y-105982000D01*
G75*
G02*
X141546000Y-106207000I-225000J0D01*
G01*
G37*
G36*
G01*
X141546000Y-107757000D02*
X141046000Y-107757000D01*
G75*
G02*
X140821000Y-107532000I0J225000D01*
G01*
X140821000Y-107082000D01*
G75*
G02*
X141046000Y-106857000I225000J0D01*
G01*
X141546000Y-106857000D01*
G75*
G02*
X141771000Y-107082000I0J-225000D01*
G01*
X141771000Y-107532000D01*
G75*
G02*
X141546000Y-107757000I-225000J0D01*
G01*
G37*
%TD*%
%TO.C,C37*%
G36*
G01*
X172224000Y-75995500D02*
X172724000Y-75995500D01*
G75*
G02*
X172949000Y-76220500I0J-225000D01*
G01*
X172949000Y-76670500D01*
G75*
G02*
X172724000Y-76895500I-225000J0D01*
G01*
X172224000Y-76895500D01*
G75*
G02*
X171999000Y-76670500I0J225000D01*
G01*
X171999000Y-76220500D01*
G75*
G02*
X172224000Y-75995500I225000J0D01*
G01*
G37*
G36*
G01*
X172224000Y-74445500D02*
X172724000Y-74445500D01*
G75*
G02*
X172949000Y-74670500I0J-225000D01*
G01*
X172949000Y-75120500D01*
G75*
G02*
X172724000Y-75345500I-225000J0D01*
G01*
X172224000Y-75345500D01*
G75*
G02*
X171999000Y-75120500I0J225000D01*
G01*
X171999000Y-74670500D01*
G75*
G02*
X172224000Y-74445500I225000J0D01*
G01*
G37*
%TD*%
%TO.C,C38*%
G36*
G01*
X138255000Y-101702000D02*
X138255000Y-101202000D01*
G75*
G02*
X138480000Y-100977000I225000J0D01*
G01*
X138930000Y-100977000D01*
G75*
G02*
X139155000Y-101202000I0J-225000D01*
G01*
X139155000Y-101702000D01*
G75*
G02*
X138930000Y-101927000I-225000J0D01*
G01*
X138480000Y-101927000D01*
G75*
G02*
X138255000Y-101702000I0J225000D01*
G01*
G37*
G36*
G01*
X136705000Y-101702000D02*
X136705000Y-101202000D01*
G75*
G02*
X136930000Y-100977000I225000J0D01*
G01*
X137380000Y-100977000D01*
G75*
G02*
X137605000Y-101202000I0J-225000D01*
G01*
X137605000Y-101702000D01*
G75*
G02*
X137380000Y-101927000I-225000J0D01*
G01*
X136930000Y-101927000D01*
G75*
G02*
X136705000Y-101702000I0J225000D01*
G01*
G37*
%TD*%
%TO.C,C40*%
G36*
G01*
X137605000Y-99042500D02*
X137605000Y-99542500D01*
G75*
G02*
X137380000Y-99767500I-225000J0D01*
G01*
X136930000Y-99767500D01*
G75*
G02*
X136705000Y-99542500I0J225000D01*
G01*
X136705000Y-99042500D01*
G75*
G02*
X136930000Y-98817500I225000J0D01*
G01*
X137380000Y-98817500D01*
G75*
G02*
X137605000Y-99042500I0J-225000D01*
G01*
G37*
G36*
G01*
X139155000Y-99042500D02*
X139155000Y-99542500D01*
G75*
G02*
X138930000Y-99767500I-225000J0D01*
G01*
X138480000Y-99767500D01*
G75*
G02*
X138255000Y-99542500I0J225000D01*
G01*
X138255000Y-99042500D01*
G75*
G02*
X138480000Y-98817500I225000J0D01*
G01*
X138930000Y-98817500D01*
G75*
G02*
X139155000Y-99042500I0J-225000D01*
G01*
G37*
%TD*%
%TO.C,C41*%
G36*
G01*
X164847000Y-88755500D02*
X164847000Y-89255500D01*
G75*
G02*
X164622000Y-89480500I-225000J0D01*
G01*
X164172000Y-89480500D01*
G75*
G02*
X163947000Y-89255500I0J225000D01*
G01*
X163947000Y-88755500D01*
G75*
G02*
X164172000Y-88530500I225000J0D01*
G01*
X164622000Y-88530500D01*
G75*
G02*
X164847000Y-88755500I0J-225000D01*
G01*
G37*
G36*
G01*
X166397000Y-88755500D02*
X166397000Y-89255500D01*
G75*
G02*
X166172000Y-89480500I-225000J0D01*
G01*
X165722000Y-89480500D01*
G75*
G02*
X165497000Y-89255500I0J225000D01*
G01*
X165497000Y-88755500D01*
G75*
G02*
X165722000Y-88530500I225000J0D01*
G01*
X166172000Y-88530500D01*
G75*
G02*
X166397000Y-88755500I0J-225000D01*
G01*
G37*
%TD*%
%TO.C,C42*%
G36*
G01*
X180165000Y-67856000D02*
X180165000Y-67356000D01*
G75*
G02*
X180390000Y-67131000I225000J0D01*
G01*
X180840000Y-67131000D01*
G75*
G02*
X181065000Y-67356000I0J-225000D01*
G01*
X181065000Y-67856000D01*
G75*
G02*
X180840000Y-68081000I-225000J0D01*
G01*
X180390000Y-68081000D01*
G75*
G02*
X180165000Y-67856000I0J225000D01*
G01*
G37*
G36*
G01*
X178615000Y-67856000D02*
X178615000Y-67356000D01*
G75*
G02*
X178840000Y-67131000I225000J0D01*
G01*
X179290000Y-67131000D01*
G75*
G02*
X179515000Y-67356000I0J-225000D01*
G01*
X179515000Y-67856000D01*
G75*
G02*
X179290000Y-68081000I-225000J0D01*
G01*
X178840000Y-68081000D01*
G75*
G02*
X178615000Y-67856000I0J225000D01*
G01*
G37*
%TD*%
%TO.C,C9*%
G36*
G01*
X151765000Y-101202000D02*
X151765000Y-101702000D01*
G75*
G02*
X151540000Y-101927000I-225000J0D01*
G01*
X151090000Y-101927000D01*
G75*
G02*
X150865000Y-101702000I0J225000D01*
G01*
X150865000Y-101202000D01*
G75*
G02*
X151090000Y-100977000I225000J0D01*
G01*
X151540000Y-100977000D01*
G75*
G02*
X151765000Y-101202000I0J-225000D01*
G01*
G37*
G36*
G01*
X153315000Y-101202000D02*
X153315000Y-101702000D01*
G75*
G02*
X153090000Y-101927000I-225000J0D01*
G01*
X152640000Y-101927000D01*
G75*
G02*
X152415000Y-101702000I0J225000D01*
G01*
X152415000Y-101202000D01*
G75*
G02*
X152640000Y-100977000I225000J0D01*
G01*
X153090000Y-100977000D01*
G75*
G02*
X153315000Y-101202000I0J-225000D01*
G01*
G37*
%TD*%
%TO.C,C1*%
G36*
G01*
X156670000Y-101702000D02*
X156670000Y-101202000D01*
G75*
G02*
X156895000Y-100977000I225000J0D01*
G01*
X157345000Y-100977000D01*
G75*
G02*
X157570000Y-101202000I0J-225000D01*
G01*
X157570000Y-101702000D01*
G75*
G02*
X157345000Y-101927000I-225000J0D01*
G01*
X156895000Y-101927000D01*
G75*
G02*
X156670000Y-101702000I0J225000D01*
G01*
G37*
G36*
G01*
X155120000Y-101702000D02*
X155120000Y-101202000D01*
G75*
G02*
X155345000Y-100977000I225000J0D01*
G01*
X155795000Y-100977000D01*
G75*
G02*
X156020000Y-101202000I0J-225000D01*
G01*
X156020000Y-101702000D01*
G75*
G02*
X155795000Y-101927000I-225000J0D01*
G01*
X155345000Y-101927000D01*
G75*
G02*
X155120000Y-101702000I0J225000D01*
G01*
G37*
%TD*%
%TO.C,C4*%
G36*
G01*
X139323000Y-87347000D02*
X138823000Y-87347000D01*
G75*
G02*
X138598000Y-87122000I0J225000D01*
G01*
X138598000Y-86672000D01*
G75*
G02*
X138823000Y-86447000I225000J0D01*
G01*
X139323000Y-86447000D01*
G75*
G02*
X139548000Y-86672000I0J-225000D01*
G01*
X139548000Y-87122000D01*
G75*
G02*
X139323000Y-87347000I-225000J0D01*
G01*
G37*
G36*
G01*
X139323000Y-88897000D02*
X138823000Y-88897000D01*
G75*
G02*
X138598000Y-88672000I0J225000D01*
G01*
X138598000Y-88222000D01*
G75*
G02*
X138823000Y-87997000I225000J0D01*
G01*
X139323000Y-87997000D01*
G75*
G02*
X139548000Y-88222000I0J-225000D01*
G01*
X139548000Y-88672000D01*
G75*
G02*
X139323000Y-88897000I-225000J0D01*
G01*
G37*
%TD*%
%TO.C,C13*%
G36*
G01*
X148848000Y-77441000D02*
X148348000Y-77441000D01*
G75*
G02*
X148123000Y-77216000I0J225000D01*
G01*
X148123000Y-76766000D01*
G75*
G02*
X148348000Y-76541000I225000J0D01*
G01*
X148848000Y-76541000D01*
G75*
G02*
X149073000Y-76766000I0J-225000D01*
G01*
X149073000Y-77216000D01*
G75*
G02*
X148848000Y-77441000I-225000J0D01*
G01*
G37*
G36*
G01*
X148848000Y-78991000D02*
X148348000Y-78991000D01*
G75*
G02*
X148123000Y-78766000I0J225000D01*
G01*
X148123000Y-78316000D01*
G75*
G02*
X148348000Y-78091000I225000J0D01*
G01*
X148848000Y-78091000D01*
G75*
G02*
X149073000Y-78316000I0J-225000D01*
G01*
X149073000Y-78766000D01*
G75*
G02*
X148848000Y-78991000I-225000J0D01*
G01*
G37*
%TD*%
%TO.C,C17*%
G36*
G01*
X157301500Y-88187500D02*
X157801500Y-88187500D01*
G75*
G02*
X158026500Y-88412500I0J-225000D01*
G01*
X158026500Y-88862500D01*
G75*
G02*
X157801500Y-89087500I-225000J0D01*
G01*
X157301500Y-89087500D01*
G75*
G02*
X157076500Y-88862500I0J225000D01*
G01*
X157076500Y-88412500D01*
G75*
G02*
X157301500Y-88187500I225000J0D01*
G01*
G37*
G36*
G01*
X157301500Y-86637500D02*
X157801500Y-86637500D01*
G75*
G02*
X158026500Y-86862500I0J-225000D01*
G01*
X158026500Y-87312500D01*
G75*
G02*
X157801500Y-87537500I-225000J0D01*
G01*
X157301500Y-87537500D01*
G75*
G02*
X157076500Y-87312500I0J225000D01*
G01*
X157076500Y-86862500D01*
G75*
G02*
X157301500Y-86637500I225000J0D01*
G01*
G37*
%TD*%
%TO.C,C21*%
G36*
G01*
X148729000Y-97649000D02*
X149229000Y-97649000D01*
G75*
G02*
X149454000Y-97874000I0J-225000D01*
G01*
X149454000Y-98324000D01*
G75*
G02*
X149229000Y-98549000I-225000J0D01*
G01*
X148729000Y-98549000D01*
G75*
G02*
X148504000Y-98324000I0J225000D01*
G01*
X148504000Y-97874000D01*
G75*
G02*
X148729000Y-97649000I225000J0D01*
G01*
G37*
G36*
G01*
X148729000Y-96099000D02*
X149229000Y-96099000D01*
G75*
G02*
X149454000Y-96324000I0J-225000D01*
G01*
X149454000Y-96774000D01*
G75*
G02*
X149229000Y-96999000I-225000J0D01*
G01*
X148729000Y-96999000D01*
G75*
G02*
X148504000Y-96774000I0J225000D01*
G01*
X148504000Y-96324000D01*
G75*
G02*
X148729000Y-96099000I225000J0D01*
G01*
G37*
%TD*%
%TO.C,C2*%
G36*
G01*
X105515000Y-105430000D02*
X105515000Y-105930000D01*
G75*
G02*
X105290000Y-106155000I-225000J0D01*
G01*
X104840000Y-106155000D01*
G75*
G02*
X104615000Y-105930000I0J225000D01*
G01*
X104615000Y-105430000D01*
G75*
G02*
X104840000Y-105205000I225000J0D01*
G01*
X105290000Y-105205000D01*
G75*
G02*
X105515000Y-105430000I0J-225000D01*
G01*
G37*
G36*
G01*
X107065000Y-105430000D02*
X107065000Y-105930000D01*
G75*
G02*
X106840000Y-106155000I-225000J0D01*
G01*
X106390000Y-106155000D01*
G75*
G02*
X106165000Y-105930000I0J225000D01*
G01*
X106165000Y-105430000D01*
G75*
G02*
X106390000Y-105205000I225000J0D01*
G01*
X106840000Y-105205000D01*
G75*
G02*
X107065000Y-105430000I0J-225000D01*
G01*
G37*
%TD*%
%TO.C,C3*%
G36*
G01*
X136664000Y-78091000D02*
X137164000Y-78091000D01*
G75*
G02*
X137389000Y-78316000I0J-225000D01*
G01*
X137389000Y-78766000D01*
G75*
G02*
X137164000Y-78991000I-225000J0D01*
G01*
X136664000Y-78991000D01*
G75*
G02*
X136439000Y-78766000I0J225000D01*
G01*
X136439000Y-78316000D01*
G75*
G02*
X136664000Y-78091000I225000J0D01*
G01*
G37*
G36*
G01*
X136664000Y-76541000D02*
X137164000Y-76541000D01*
G75*
G02*
X137389000Y-76766000I0J-225000D01*
G01*
X137389000Y-77216000D01*
G75*
G02*
X137164000Y-77441000I-225000J0D01*
G01*
X136664000Y-77441000D01*
G75*
G02*
X136439000Y-77216000I0J225000D01*
G01*
X136439000Y-76766000D01*
G75*
G02*
X136664000Y-76541000I225000J0D01*
G01*
G37*
%TD*%
%TO.C,C5*%
G36*
G01*
X129492000Y-98018500D02*
X129492000Y-97518500D01*
G75*
G02*
X129717000Y-97293500I225000J0D01*
G01*
X130167000Y-97293500D01*
G75*
G02*
X130392000Y-97518500I0J-225000D01*
G01*
X130392000Y-98018500D01*
G75*
G02*
X130167000Y-98243500I-225000J0D01*
G01*
X129717000Y-98243500D01*
G75*
G02*
X129492000Y-98018500I0J225000D01*
G01*
G37*
G36*
G01*
X127942000Y-98018500D02*
X127942000Y-97518500D01*
G75*
G02*
X128167000Y-97293500I225000J0D01*
G01*
X128617000Y-97293500D01*
G75*
G02*
X128842000Y-97518500I0J-225000D01*
G01*
X128842000Y-98018500D01*
G75*
G02*
X128617000Y-98243500I-225000J0D01*
G01*
X128167000Y-98243500D01*
G75*
G02*
X127942000Y-98018500I0J225000D01*
G01*
G37*
%TD*%
%TO.C,C16*%
G36*
G01*
X128212000Y-74471500D02*
X126362000Y-74471500D01*
G75*
G02*
X126112000Y-74221500I0J250000D01*
G01*
X126112000Y-72646500D01*
G75*
G02*
X126362000Y-72396500I250000J0D01*
G01*
X128212000Y-72396500D01*
G75*
G02*
X128462000Y-72646500I0J-250000D01*
G01*
X128462000Y-74221500D01*
G75*
G02*
X128212000Y-74471500I-250000J0D01*
G01*
G37*
G36*
G01*
X128212000Y-69546500D02*
X126362000Y-69546500D01*
G75*
G02*
X126112000Y-69296500I0J250000D01*
G01*
X126112000Y-67721500D01*
G75*
G02*
X126362000Y-67471500I250000J0D01*
G01*
X128212000Y-67471500D01*
G75*
G02*
X128462000Y-67721500I0J-250000D01*
G01*
X128462000Y-69296500D01*
G75*
G02*
X128212000Y-69546500I-250000J0D01*
G01*
G37*
%TD*%
%TO.C,C18*%
G36*
G01*
X116211000Y-74471500D02*
X114361000Y-74471500D01*
G75*
G02*
X114111000Y-74221500I0J250000D01*
G01*
X114111000Y-72646500D01*
G75*
G02*
X114361000Y-72396500I250000J0D01*
G01*
X116211000Y-72396500D01*
G75*
G02*
X116461000Y-72646500I0J-250000D01*
G01*
X116461000Y-74221500D01*
G75*
G02*
X116211000Y-74471500I-250000J0D01*
G01*
G37*
G36*
G01*
X116211000Y-69546500D02*
X114361000Y-69546500D01*
G75*
G02*
X114111000Y-69296500I0J250000D01*
G01*
X114111000Y-67721500D01*
G75*
G02*
X114361000Y-67471500I250000J0D01*
G01*
X116211000Y-67471500D01*
G75*
G02*
X116461000Y-67721500I0J-250000D01*
G01*
X116461000Y-69296500D01*
G75*
G02*
X116211000Y-69546500I-250000J0D01*
G01*
G37*
%TD*%
%TO.C,R52*%
G36*
G01*
X160301000Y-101177000D02*
X160301000Y-101727000D01*
G75*
G02*
X160101000Y-101927000I-200000J0D01*
G01*
X159701000Y-101927000D01*
G75*
G02*
X159501000Y-101727000I0J200000D01*
G01*
X159501000Y-101177000D01*
G75*
G02*
X159701000Y-100977000I200000J0D01*
G01*
X160101000Y-100977000D01*
G75*
G02*
X160301000Y-101177000I0J-200000D01*
G01*
G37*
G36*
G01*
X161951000Y-101177000D02*
X161951000Y-101727000D01*
G75*
G02*
X161751000Y-101927000I-200000J0D01*
G01*
X161351000Y-101927000D01*
G75*
G02*
X161151000Y-101727000I0J200000D01*
G01*
X161151000Y-101177000D01*
G75*
G02*
X161351000Y-100977000I200000J0D01*
G01*
X161751000Y-100977000D01*
G75*
G02*
X161951000Y-101177000I0J-200000D01*
G01*
G37*
%TD*%
%TO.C,R42*%
G36*
G01*
X130458000Y-107757000D02*
X129908000Y-107757000D01*
G75*
G02*
X129708000Y-107557000I0J200000D01*
G01*
X129708000Y-107157000D01*
G75*
G02*
X129908000Y-106957000I200000J0D01*
G01*
X130458000Y-106957000D01*
G75*
G02*
X130658000Y-107157000I0J-200000D01*
G01*
X130658000Y-107557000D01*
G75*
G02*
X130458000Y-107757000I-200000J0D01*
G01*
G37*
G36*
G01*
X130458000Y-106107000D02*
X129908000Y-106107000D01*
G75*
G02*
X129708000Y-105907000I0J200000D01*
G01*
X129708000Y-105507000D01*
G75*
G02*
X129908000Y-105307000I200000J0D01*
G01*
X130458000Y-105307000D01*
G75*
G02*
X130658000Y-105507000I0J-200000D01*
G01*
X130658000Y-105907000D01*
G75*
G02*
X130458000Y-106107000I-200000J0D01*
G01*
G37*
%TD*%
%TO.C,R21*%
G36*
G01*
X143179000Y-106957000D02*
X143729000Y-106957000D01*
G75*
G02*
X143929000Y-107157000I0J-200000D01*
G01*
X143929000Y-107557000D01*
G75*
G02*
X143729000Y-107757000I-200000J0D01*
G01*
X143179000Y-107757000D01*
G75*
G02*
X142979000Y-107557000I0J200000D01*
G01*
X142979000Y-107157000D01*
G75*
G02*
X143179000Y-106957000I200000J0D01*
G01*
G37*
G36*
G01*
X143179000Y-105307000D02*
X143729000Y-105307000D01*
G75*
G02*
X143929000Y-105507000I0J-200000D01*
G01*
X143929000Y-105907000D01*
G75*
G02*
X143729000Y-106107000I-200000J0D01*
G01*
X143179000Y-106107000D01*
G75*
G02*
X142979000Y-105907000I0J200000D01*
G01*
X142979000Y-105507000D01*
G75*
G02*
X143179000Y-105307000I200000J0D01*
G01*
G37*
%TD*%
%TO.C,R5*%
G36*
G01*
X123475000Y-83225000D02*
X122925000Y-83225000D01*
G75*
G02*
X122725000Y-83025000I0J200000D01*
G01*
X122725000Y-82625000D01*
G75*
G02*
X122925000Y-82425000I200000J0D01*
G01*
X123475000Y-82425000D01*
G75*
G02*
X123675000Y-82625000I0J-200000D01*
G01*
X123675000Y-83025000D01*
G75*
G02*
X123475000Y-83225000I-200000J0D01*
G01*
G37*
G36*
G01*
X123475000Y-81575000D02*
X122925000Y-81575000D01*
G75*
G02*
X122725000Y-81375000I0J200000D01*
G01*
X122725000Y-80975000D01*
G75*
G02*
X122925000Y-80775000I200000J0D01*
G01*
X123475000Y-80775000D01*
G75*
G02*
X123675000Y-80975000I0J-200000D01*
G01*
X123675000Y-81375000D01*
G75*
G02*
X123475000Y-81575000I-200000J0D01*
G01*
G37*
%TD*%
%TO.C,R11*%
G36*
G01*
X129935000Y-68262000D02*
X129935000Y-67712000D01*
G75*
G02*
X130135000Y-67512000I200000J0D01*
G01*
X130535000Y-67512000D01*
G75*
G02*
X130735000Y-67712000I0J-200000D01*
G01*
X130735000Y-68262000D01*
G75*
G02*
X130535000Y-68462000I-200000J0D01*
G01*
X130135000Y-68462000D01*
G75*
G02*
X129935000Y-68262000I0J200000D01*
G01*
G37*
G36*
G01*
X131585000Y-68262000D02*
X131585000Y-67712000D01*
G75*
G02*
X131785000Y-67512000I200000J0D01*
G01*
X132185000Y-67512000D01*
G75*
G02*
X132385000Y-67712000I0J-200000D01*
G01*
X132385000Y-68262000D01*
G75*
G02*
X132185000Y-68462000I-200000J0D01*
G01*
X131785000Y-68462000D01*
G75*
G02*
X131585000Y-68262000I0J200000D01*
G01*
G37*
%TD*%
%TO.C,R13*%
G36*
G01*
X118863000Y-68450000D02*
X118313000Y-68450000D01*
G75*
G02*
X118113000Y-68250000I0J200000D01*
G01*
X118113000Y-67850000D01*
G75*
G02*
X118313000Y-67650000I200000J0D01*
G01*
X118863000Y-67650000D01*
G75*
G02*
X119063000Y-67850000I0J-200000D01*
G01*
X119063000Y-68250000D01*
G75*
G02*
X118863000Y-68450000I-200000J0D01*
G01*
G37*
G36*
G01*
X118863000Y-66800000D02*
X118313000Y-66800000D01*
G75*
G02*
X118113000Y-66600000I0J200000D01*
G01*
X118113000Y-66200000D01*
G75*
G02*
X118313000Y-66000000I200000J0D01*
G01*
X118863000Y-66000000D01*
G75*
G02*
X119063000Y-66200000I0J-200000D01*
G01*
X119063000Y-66600000D01*
G75*
G02*
X118863000Y-66800000I-200000J0D01*
G01*
G37*
%TD*%
%TO.C,R14*%
G36*
G01*
X170041000Y-76644000D02*
X170041000Y-76094000D01*
G75*
G02*
X170241000Y-75894000I200000J0D01*
G01*
X170641000Y-75894000D01*
G75*
G02*
X170841000Y-76094000I0J-200000D01*
G01*
X170841000Y-76644000D01*
G75*
G02*
X170641000Y-76844000I-200000J0D01*
G01*
X170241000Y-76844000D01*
G75*
G02*
X170041000Y-76644000I0J200000D01*
G01*
G37*
G36*
G01*
X168391000Y-76644000D02*
X168391000Y-76094000D01*
G75*
G02*
X168591000Y-75894000I200000J0D01*
G01*
X168991000Y-75894000D01*
G75*
G02*
X169191000Y-76094000I0J-200000D01*
G01*
X169191000Y-76644000D01*
G75*
G02*
X168991000Y-76844000I-200000J0D01*
G01*
X168591000Y-76844000D01*
G75*
G02*
X168391000Y-76644000I0J200000D01*
G01*
G37*
%TD*%
%TO.C,R15*%
G36*
G01*
X141021000Y-103210000D02*
X141571000Y-103210000D01*
G75*
G02*
X141771000Y-103410000I0J-200000D01*
G01*
X141771000Y-103810000D01*
G75*
G02*
X141571000Y-104010000I-200000J0D01*
G01*
X141021000Y-104010000D01*
G75*
G02*
X140821000Y-103810000I0J200000D01*
G01*
X140821000Y-103410000D01*
G75*
G02*
X141021000Y-103210000I200000J0D01*
G01*
G37*
G36*
G01*
X141021000Y-101560000D02*
X141571000Y-101560000D01*
G75*
G02*
X141771000Y-101760000I0J-200000D01*
G01*
X141771000Y-102160000D01*
G75*
G02*
X141571000Y-102360000I-200000J0D01*
G01*
X141021000Y-102360000D01*
G75*
G02*
X140821000Y-102160000I0J200000D01*
G01*
X140821000Y-101760000D01*
G75*
G02*
X141021000Y-101560000I200000J0D01*
G01*
G37*
%TD*%
%TO.C,R16*%
G36*
G01*
X174907000Y-99208000D02*
X174907000Y-99758000D01*
G75*
G02*
X174707000Y-99958000I-200000J0D01*
G01*
X174307000Y-99958000D01*
G75*
G02*
X174107000Y-99758000I0J200000D01*
G01*
X174107000Y-99208000D01*
G75*
G02*
X174307000Y-99008000I200000J0D01*
G01*
X174707000Y-99008000D01*
G75*
G02*
X174907000Y-99208000I0J-200000D01*
G01*
G37*
G36*
G01*
X176557000Y-99208000D02*
X176557000Y-99758000D01*
G75*
G02*
X176357000Y-99958000I-200000J0D01*
G01*
X175957000Y-99958000D01*
G75*
G02*
X175757000Y-99758000I0J200000D01*
G01*
X175757000Y-99208000D01*
G75*
G02*
X175957000Y-99008000I200000J0D01*
G01*
X176357000Y-99008000D01*
G75*
G02*
X176557000Y-99208000I0J-200000D01*
G01*
G37*
%TD*%
%TO.C,R17*%
G36*
G01*
X180201000Y-99758000D02*
X180201000Y-99208000D01*
G75*
G02*
X180401000Y-99008000I200000J0D01*
G01*
X180801000Y-99008000D01*
G75*
G02*
X181001000Y-99208000I0J-200000D01*
G01*
X181001000Y-99758000D01*
G75*
G02*
X180801000Y-99958000I-200000J0D01*
G01*
X180401000Y-99958000D01*
G75*
G02*
X180201000Y-99758000I0J200000D01*
G01*
G37*
G36*
G01*
X178551000Y-99758000D02*
X178551000Y-99208000D01*
G75*
G02*
X178751000Y-99008000I200000J0D01*
G01*
X179151000Y-99008000D01*
G75*
G02*
X179351000Y-99208000I0J-200000D01*
G01*
X179351000Y-99758000D01*
G75*
G02*
X179151000Y-99958000I-200000J0D01*
G01*
X178751000Y-99958000D01*
G75*
G02*
X178551000Y-99758000I0J200000D01*
G01*
G37*
%TD*%
%TO.C,R18*%
G36*
G01*
X152388000Y-70040000D02*
X152388000Y-69490000D01*
G75*
G02*
X152588000Y-69290000I200000J0D01*
G01*
X152988000Y-69290000D01*
G75*
G02*
X153188000Y-69490000I0J-200000D01*
G01*
X153188000Y-70040000D01*
G75*
G02*
X152988000Y-70240000I-200000J0D01*
G01*
X152588000Y-70240000D01*
G75*
G02*
X152388000Y-70040000I0J200000D01*
G01*
G37*
G36*
G01*
X150738000Y-70040000D02*
X150738000Y-69490000D01*
G75*
G02*
X150938000Y-69290000I200000J0D01*
G01*
X151338000Y-69290000D01*
G75*
G02*
X151538000Y-69490000I0J-200000D01*
G01*
X151538000Y-70040000D01*
G75*
G02*
X151338000Y-70240000I-200000J0D01*
G01*
X150938000Y-70240000D01*
G75*
G02*
X150738000Y-70040000I0J200000D01*
G01*
G37*
%TD*%
%TO.C,R19*%
G36*
G01*
X151538000Y-67331000D02*
X151538000Y-67881000D01*
G75*
G02*
X151338000Y-68081000I-200000J0D01*
G01*
X150938000Y-68081000D01*
G75*
G02*
X150738000Y-67881000I0J200000D01*
G01*
X150738000Y-67331000D01*
G75*
G02*
X150938000Y-67131000I200000J0D01*
G01*
X151338000Y-67131000D01*
G75*
G02*
X151538000Y-67331000I0J-200000D01*
G01*
G37*
G36*
G01*
X153188000Y-67331000D02*
X153188000Y-67881000D01*
G75*
G02*
X152988000Y-68081000I-200000J0D01*
G01*
X152588000Y-68081000D01*
G75*
G02*
X152388000Y-67881000I0J200000D01*
G01*
X152388000Y-67331000D01*
G75*
G02*
X152588000Y-67131000I200000J0D01*
G01*
X152988000Y-67131000D01*
G75*
G02*
X153188000Y-67331000I0J-200000D01*
G01*
G37*
%TD*%
%TO.C,R20*%
G36*
G01*
X174907000Y-90889500D02*
X174907000Y-91439500D01*
G75*
G02*
X174707000Y-91639500I-200000J0D01*
G01*
X174307000Y-91639500D01*
G75*
G02*
X174107000Y-91439500I0J200000D01*
G01*
X174107000Y-90889500D01*
G75*
G02*
X174307000Y-90689500I200000J0D01*
G01*
X174707000Y-90689500D01*
G75*
G02*
X174907000Y-90889500I0J-200000D01*
G01*
G37*
G36*
G01*
X176557000Y-90889500D02*
X176557000Y-91439500D01*
G75*
G02*
X176357000Y-91639500I-200000J0D01*
G01*
X175957000Y-91639500D01*
G75*
G02*
X175757000Y-91439500I0J200000D01*
G01*
X175757000Y-90889500D01*
G75*
G02*
X175957000Y-90689500I200000J0D01*
G01*
X176357000Y-90689500D01*
G75*
G02*
X176557000Y-90889500I0J-200000D01*
G01*
G37*
%TD*%
%TO.C,R22*%
G36*
G01*
X165597000Y-91439500D02*
X165597000Y-90889500D01*
G75*
G02*
X165797000Y-90689500I200000J0D01*
G01*
X166197000Y-90689500D01*
G75*
G02*
X166397000Y-90889500I0J-200000D01*
G01*
X166397000Y-91439500D01*
G75*
G02*
X166197000Y-91639500I-200000J0D01*
G01*
X165797000Y-91639500D01*
G75*
G02*
X165597000Y-91439500I0J200000D01*
G01*
G37*
G36*
G01*
X163947000Y-91439500D02*
X163947000Y-90889500D01*
G75*
G02*
X164147000Y-90689500I200000J0D01*
G01*
X164547000Y-90689500D01*
G75*
G02*
X164747000Y-90889500I0J-200000D01*
G01*
X164747000Y-91439500D01*
G75*
G02*
X164547000Y-91639500I-200000J0D01*
G01*
X164147000Y-91639500D01*
G75*
G02*
X163947000Y-91439500I0J200000D01*
G01*
G37*
%TD*%
%TO.C,R23*%
G36*
G01*
X169191000Y-90889500D02*
X169191000Y-91439500D01*
G75*
G02*
X168991000Y-91639500I-200000J0D01*
G01*
X168591000Y-91639500D01*
G75*
G02*
X168391000Y-91439500I0J200000D01*
G01*
X168391000Y-90889500D01*
G75*
G02*
X168591000Y-90689500I200000J0D01*
G01*
X168991000Y-90689500D01*
G75*
G02*
X169191000Y-90889500I0J-200000D01*
G01*
G37*
G36*
G01*
X170841000Y-90889500D02*
X170841000Y-91439500D01*
G75*
G02*
X170641000Y-91639500I-200000J0D01*
G01*
X170241000Y-91639500D01*
G75*
G02*
X170041000Y-91439500I0J200000D01*
G01*
X170041000Y-90889500D01*
G75*
G02*
X170241000Y-90689500I200000J0D01*
G01*
X170641000Y-90689500D01*
G75*
G02*
X170841000Y-90889500I0J-200000D01*
G01*
G37*
%TD*%
%TO.C,R24*%
G36*
G01*
X180201000Y-89280500D02*
X180201000Y-88730500D01*
G75*
G02*
X180401000Y-88530500I200000J0D01*
G01*
X180801000Y-88530500D01*
G75*
G02*
X181001000Y-88730500I0J-200000D01*
G01*
X181001000Y-89280500D01*
G75*
G02*
X180801000Y-89480500I-200000J0D01*
G01*
X180401000Y-89480500D01*
G75*
G02*
X180201000Y-89280500I0J200000D01*
G01*
G37*
G36*
G01*
X178551000Y-89280500D02*
X178551000Y-88730500D01*
G75*
G02*
X178751000Y-88530500I200000J0D01*
G01*
X179151000Y-88530500D01*
G75*
G02*
X179351000Y-88730500I0J-200000D01*
G01*
X179351000Y-89280500D01*
G75*
G02*
X179151000Y-89480500I-200000J0D01*
G01*
X178751000Y-89480500D01*
G75*
G02*
X178551000Y-89280500I0J200000D01*
G01*
G37*
%TD*%
%TO.C,R25*%
G36*
G01*
X165660000Y-67881000D02*
X165660000Y-67331000D01*
G75*
G02*
X165860000Y-67131000I200000J0D01*
G01*
X166260000Y-67131000D01*
G75*
G02*
X166460000Y-67331000I0J-200000D01*
G01*
X166460000Y-67881000D01*
G75*
G02*
X166260000Y-68081000I-200000J0D01*
G01*
X165860000Y-68081000D01*
G75*
G02*
X165660000Y-67881000I0J200000D01*
G01*
G37*
G36*
G01*
X164010000Y-67881000D02*
X164010000Y-67331000D01*
G75*
G02*
X164210000Y-67131000I200000J0D01*
G01*
X164610000Y-67131000D01*
G75*
G02*
X164810000Y-67331000I0J-200000D01*
G01*
X164810000Y-67881000D01*
G75*
G02*
X164610000Y-68081000I-200000J0D01*
G01*
X164210000Y-68081000D01*
G75*
G02*
X164010000Y-67881000I0J200000D01*
G01*
G37*
%TD*%
%TO.C,R26*%
G36*
G01*
X164810000Y-69553500D02*
X164810000Y-70103500D01*
G75*
G02*
X164610000Y-70303500I-200000J0D01*
G01*
X164210000Y-70303500D01*
G75*
G02*
X164010000Y-70103500I0J200000D01*
G01*
X164010000Y-69553500D01*
G75*
G02*
X164210000Y-69353500I200000J0D01*
G01*
X164610000Y-69353500D01*
G75*
G02*
X164810000Y-69553500I0J-200000D01*
G01*
G37*
G36*
G01*
X166460000Y-69553500D02*
X166460000Y-70103500D01*
G75*
G02*
X166260000Y-70303500I-200000J0D01*
G01*
X165860000Y-70303500D01*
G75*
G02*
X165660000Y-70103500I0J200000D01*
G01*
X165660000Y-69553500D01*
G75*
G02*
X165860000Y-69353500I200000J0D01*
G01*
X166260000Y-69353500D01*
G75*
G02*
X166460000Y-69553500I0J-200000D01*
G01*
G37*
%TD*%
%TO.C,R27*%
G36*
G01*
X148706000Y-67881000D02*
X148706000Y-67331000D01*
G75*
G02*
X148906000Y-67131000I200000J0D01*
G01*
X149306000Y-67131000D01*
G75*
G02*
X149506000Y-67331000I0J-200000D01*
G01*
X149506000Y-67881000D01*
G75*
G02*
X149306000Y-68081000I-200000J0D01*
G01*
X148906000Y-68081000D01*
G75*
G02*
X148706000Y-67881000I0J200000D01*
G01*
G37*
G36*
G01*
X147056000Y-67881000D02*
X147056000Y-67331000D01*
G75*
G02*
X147256000Y-67131000I200000J0D01*
G01*
X147656000Y-67131000D01*
G75*
G02*
X147856000Y-67331000I0J-200000D01*
G01*
X147856000Y-67881000D01*
G75*
G02*
X147656000Y-68081000I-200000J0D01*
G01*
X147256000Y-68081000D01*
G75*
G02*
X147056000Y-67881000I0J200000D01*
G01*
G37*
%TD*%
%TO.C,R28*%
G36*
G01*
X169191000Y-80475500D02*
X169191000Y-81025500D01*
G75*
G02*
X168991000Y-81225500I-200000J0D01*
G01*
X168591000Y-81225500D01*
G75*
G02*
X168391000Y-81025500I0J200000D01*
G01*
X168391000Y-80475500D01*
G75*
G02*
X168591000Y-80275500I200000J0D01*
G01*
X168991000Y-80275500D01*
G75*
G02*
X169191000Y-80475500I0J-200000D01*
G01*
G37*
G36*
G01*
X170841000Y-80475500D02*
X170841000Y-81025500D01*
G75*
G02*
X170641000Y-81225500I-200000J0D01*
G01*
X170241000Y-81225500D01*
G75*
G02*
X170041000Y-81025500I0J200000D01*
G01*
X170041000Y-80475500D01*
G75*
G02*
X170241000Y-80275500I200000J0D01*
G01*
X170641000Y-80275500D01*
G75*
G02*
X170841000Y-80475500I0J-200000D01*
G01*
G37*
%TD*%
%TO.C,R29*%
G36*
G01*
X165597000Y-81025500D02*
X165597000Y-80475500D01*
G75*
G02*
X165797000Y-80275500I200000J0D01*
G01*
X166197000Y-80275500D01*
G75*
G02*
X166397000Y-80475500I0J-200000D01*
G01*
X166397000Y-81025500D01*
G75*
G02*
X166197000Y-81225500I-200000J0D01*
G01*
X165797000Y-81225500D01*
G75*
G02*
X165597000Y-81025500I0J200000D01*
G01*
G37*
G36*
G01*
X163947000Y-81025500D02*
X163947000Y-80475500D01*
G75*
G02*
X164147000Y-80275500I200000J0D01*
G01*
X164547000Y-80275500D01*
G75*
G02*
X164747000Y-80475500I0J-200000D01*
G01*
X164747000Y-81025500D01*
G75*
G02*
X164547000Y-81225500I-200000J0D01*
G01*
X164147000Y-81225500D01*
G75*
G02*
X163947000Y-81025500I0J200000D01*
G01*
G37*
%TD*%
%TO.C,R31*%
G36*
G01*
X169191000Y-73871500D02*
X169191000Y-74421500D01*
G75*
G02*
X168991000Y-74621500I-200000J0D01*
G01*
X168591000Y-74621500D01*
G75*
G02*
X168391000Y-74421500I0J200000D01*
G01*
X168391000Y-73871500D01*
G75*
G02*
X168591000Y-73671500I200000J0D01*
G01*
X168991000Y-73671500D01*
G75*
G02*
X169191000Y-73871500I0J-200000D01*
G01*
G37*
G36*
G01*
X170841000Y-73871500D02*
X170841000Y-74421500D01*
G75*
G02*
X170641000Y-74621500I-200000J0D01*
G01*
X170241000Y-74621500D01*
G75*
G02*
X170041000Y-74421500I0J200000D01*
G01*
X170041000Y-73871500D01*
G75*
G02*
X170241000Y-73671500I200000J0D01*
G01*
X170641000Y-73671500D01*
G75*
G02*
X170841000Y-73871500I0J-200000D01*
G01*
G37*
%TD*%
%TO.C,R32*%
G36*
G01*
X170041000Y-72262500D02*
X170041000Y-71712500D01*
G75*
G02*
X170241000Y-71512500I200000J0D01*
G01*
X170641000Y-71512500D01*
G75*
G02*
X170841000Y-71712500I0J-200000D01*
G01*
X170841000Y-72262500D01*
G75*
G02*
X170641000Y-72462500I-200000J0D01*
G01*
X170241000Y-72462500D01*
G75*
G02*
X170041000Y-72262500I0J200000D01*
G01*
G37*
G36*
G01*
X168391000Y-72262500D02*
X168391000Y-71712500D01*
G75*
G02*
X168591000Y-71512500I200000J0D01*
G01*
X168991000Y-71512500D01*
G75*
G02*
X169191000Y-71712500I0J-200000D01*
G01*
X169191000Y-72262500D01*
G75*
G02*
X168991000Y-72462500I-200000J0D01*
G01*
X168591000Y-72462500D01*
G75*
G02*
X168391000Y-72262500I0J200000D01*
G01*
G37*
%TD*%
%TO.C,R33*%
G36*
G01*
X170041000Y-70103500D02*
X170041000Y-69553500D01*
G75*
G02*
X170241000Y-69353500I200000J0D01*
G01*
X170641000Y-69353500D01*
G75*
G02*
X170841000Y-69553500I0J-200000D01*
G01*
X170841000Y-70103500D01*
G75*
G02*
X170641000Y-70303500I-200000J0D01*
G01*
X170241000Y-70303500D01*
G75*
G02*
X170041000Y-70103500I0J200000D01*
G01*
G37*
G36*
G01*
X168391000Y-70103500D02*
X168391000Y-69553500D01*
G75*
G02*
X168591000Y-69353500I200000J0D01*
G01*
X168991000Y-69353500D01*
G75*
G02*
X169191000Y-69553500I0J-200000D01*
G01*
X169191000Y-70103500D01*
G75*
G02*
X168991000Y-70303500I-200000J0D01*
G01*
X168591000Y-70303500D01*
G75*
G02*
X168391000Y-70103500I0J200000D01*
G01*
G37*
%TD*%
%TO.C,R34*%
G36*
G01*
X178551000Y-81025500D02*
X178551000Y-80475500D01*
G75*
G02*
X178751000Y-80275500I200000J0D01*
G01*
X179151000Y-80275500D01*
G75*
G02*
X179351000Y-80475500I0J-200000D01*
G01*
X179351000Y-81025500D01*
G75*
G02*
X179151000Y-81225500I-200000J0D01*
G01*
X178751000Y-81225500D01*
G75*
G02*
X178551000Y-81025500I0J200000D01*
G01*
G37*
G36*
G01*
X180201000Y-81025500D02*
X180201000Y-80475500D01*
G75*
G02*
X180401000Y-80275500I200000J0D01*
G01*
X180801000Y-80275500D01*
G75*
G02*
X181001000Y-80475500I0J-200000D01*
G01*
X181001000Y-81025500D01*
G75*
G02*
X180801000Y-81225500I-200000J0D01*
G01*
X180401000Y-81225500D01*
G75*
G02*
X180201000Y-81025500I0J200000D01*
G01*
G37*
%TD*%
%TO.C,R35*%
G36*
G01*
X156453000Y-76644000D02*
X156453000Y-76094000D01*
G75*
G02*
X156653000Y-75894000I200000J0D01*
G01*
X157053000Y-75894000D01*
G75*
G02*
X157253000Y-76094000I0J-200000D01*
G01*
X157253000Y-76644000D01*
G75*
G02*
X157053000Y-76844000I-200000J0D01*
G01*
X156653000Y-76844000D01*
G75*
G02*
X156453000Y-76644000I0J200000D01*
G01*
G37*
G36*
G01*
X154803000Y-76644000D02*
X154803000Y-76094000D01*
G75*
G02*
X155003000Y-75894000I200000J0D01*
G01*
X155403000Y-75894000D01*
G75*
G02*
X155603000Y-76094000I0J-200000D01*
G01*
X155603000Y-76644000D01*
G75*
G02*
X155403000Y-76844000I-200000J0D01*
G01*
X155003000Y-76844000D01*
G75*
G02*
X154803000Y-76644000I0J200000D01*
G01*
G37*
%TD*%
%TO.C,R36*%
G36*
G01*
X165597000Y-76707500D02*
X165597000Y-76157500D01*
G75*
G02*
X165797000Y-75957500I200000J0D01*
G01*
X166197000Y-75957500D01*
G75*
G02*
X166397000Y-76157500I0J-200000D01*
G01*
X166397000Y-76707500D01*
G75*
G02*
X166197000Y-76907500I-200000J0D01*
G01*
X165797000Y-76907500D01*
G75*
G02*
X165597000Y-76707500I0J200000D01*
G01*
G37*
G36*
G01*
X163947000Y-76707500D02*
X163947000Y-76157500D01*
G75*
G02*
X164147000Y-75957500I200000J0D01*
G01*
X164547000Y-75957500D01*
G75*
G02*
X164747000Y-76157500I0J-200000D01*
G01*
X164747000Y-76707500D01*
G75*
G02*
X164547000Y-76907500I-200000J0D01*
G01*
X164147000Y-76907500D01*
G75*
G02*
X163947000Y-76707500I0J200000D01*
G01*
G37*
%TD*%
%TO.C,R37*%
G36*
G01*
X161151000Y-76644000D02*
X161151000Y-76094000D01*
G75*
G02*
X161351000Y-75894000I200000J0D01*
G01*
X161751000Y-75894000D01*
G75*
G02*
X161951000Y-76094000I0J-200000D01*
G01*
X161951000Y-76644000D01*
G75*
G02*
X161751000Y-76844000I-200000J0D01*
G01*
X161351000Y-76844000D01*
G75*
G02*
X161151000Y-76644000I0J200000D01*
G01*
G37*
G36*
G01*
X159501000Y-76644000D02*
X159501000Y-76094000D01*
G75*
G02*
X159701000Y-75894000I200000J0D01*
G01*
X160101000Y-75894000D01*
G75*
G02*
X160301000Y-76094000I0J-200000D01*
G01*
X160301000Y-76644000D01*
G75*
G02*
X160101000Y-76844000I-200000J0D01*
G01*
X159701000Y-76844000D01*
G75*
G02*
X159501000Y-76644000I0J200000D01*
G01*
G37*
%TD*%
%TO.C,R38*%
G36*
G01*
X175033500Y-69553500D02*
X175033500Y-70103500D01*
G75*
G02*
X174833500Y-70303500I-200000J0D01*
G01*
X174433500Y-70303500D01*
G75*
G02*
X174233500Y-70103500I0J200000D01*
G01*
X174233500Y-69553500D01*
G75*
G02*
X174433500Y-69353500I200000J0D01*
G01*
X174833500Y-69353500D01*
G75*
G02*
X175033500Y-69553500I0J-200000D01*
G01*
G37*
G36*
G01*
X176683500Y-69553500D02*
X176683500Y-70103500D01*
G75*
G02*
X176483500Y-70303500I-200000J0D01*
G01*
X176083500Y-70303500D01*
G75*
G02*
X175883500Y-70103500I0J200000D01*
G01*
X175883500Y-69553500D01*
G75*
G02*
X176083500Y-69353500I200000J0D01*
G01*
X176483500Y-69353500D01*
G75*
G02*
X176683500Y-69553500I0J-200000D01*
G01*
G37*
%TD*%
%TO.C,R39*%
G36*
G01*
X169191000Y-67331000D02*
X169191000Y-67881000D01*
G75*
G02*
X168991000Y-68081000I-200000J0D01*
G01*
X168591000Y-68081000D01*
G75*
G02*
X168391000Y-67881000I0J200000D01*
G01*
X168391000Y-67331000D01*
G75*
G02*
X168591000Y-67131000I200000J0D01*
G01*
X168991000Y-67131000D01*
G75*
G02*
X169191000Y-67331000I0J-200000D01*
G01*
G37*
G36*
G01*
X170841000Y-67331000D02*
X170841000Y-67881000D01*
G75*
G02*
X170641000Y-68081000I-200000J0D01*
G01*
X170241000Y-68081000D01*
G75*
G02*
X170041000Y-67881000I0J200000D01*
G01*
X170041000Y-67331000D01*
G75*
G02*
X170241000Y-67131000I200000J0D01*
G01*
X170641000Y-67131000D01*
G75*
G02*
X170841000Y-67331000I0J-200000D01*
G01*
G37*
%TD*%
%TO.C,R40*%
G36*
G01*
X146903000Y-101177000D02*
X146903000Y-101727000D01*
G75*
G02*
X146703000Y-101927000I-200000J0D01*
G01*
X146303000Y-101927000D01*
G75*
G02*
X146103000Y-101727000I0J200000D01*
G01*
X146103000Y-101177000D01*
G75*
G02*
X146303000Y-100977000I200000J0D01*
G01*
X146703000Y-100977000D01*
G75*
G02*
X146903000Y-101177000I0J-200000D01*
G01*
G37*
G36*
G01*
X148553000Y-101177000D02*
X148553000Y-101727000D01*
G75*
G02*
X148353000Y-101927000I-200000J0D01*
G01*
X147953000Y-101927000D01*
G75*
G02*
X147753000Y-101727000I0J200000D01*
G01*
X147753000Y-101177000D01*
G75*
G02*
X147953000Y-100977000I200000J0D01*
G01*
X148353000Y-100977000D01*
G75*
G02*
X148553000Y-101177000I0J-200000D01*
G01*
G37*
%TD*%
%TO.C,R41*%
G36*
G01*
X128299000Y-102360000D02*
X127749000Y-102360000D01*
G75*
G02*
X127549000Y-102160000I0J200000D01*
G01*
X127549000Y-101760000D01*
G75*
G02*
X127749000Y-101560000I200000J0D01*
G01*
X128299000Y-101560000D01*
G75*
G02*
X128499000Y-101760000I0J-200000D01*
G01*
X128499000Y-102160000D01*
G75*
G02*
X128299000Y-102360000I-200000J0D01*
G01*
G37*
G36*
G01*
X128299000Y-104010000D02*
X127749000Y-104010000D01*
G75*
G02*
X127549000Y-103810000I0J200000D01*
G01*
X127549000Y-103410000D01*
G75*
G02*
X127749000Y-103210000I200000J0D01*
G01*
X128299000Y-103210000D01*
G75*
G02*
X128499000Y-103410000I0J-200000D01*
G01*
X128499000Y-103810000D01*
G75*
G02*
X128299000Y-104010000I-200000J0D01*
G01*
G37*
%TD*%
%TO.C,R43*%
G36*
G01*
X128299000Y-106107000D02*
X127749000Y-106107000D01*
G75*
G02*
X127549000Y-105907000I0J200000D01*
G01*
X127549000Y-105507000D01*
G75*
G02*
X127749000Y-105307000I200000J0D01*
G01*
X128299000Y-105307000D01*
G75*
G02*
X128499000Y-105507000I0J-200000D01*
G01*
X128499000Y-105907000D01*
G75*
G02*
X128299000Y-106107000I-200000J0D01*
G01*
G37*
G36*
G01*
X128299000Y-107757000D02*
X127749000Y-107757000D01*
G75*
G02*
X127549000Y-107557000I0J200000D01*
G01*
X127549000Y-107157000D01*
G75*
G02*
X127749000Y-106957000I200000J0D01*
G01*
X128299000Y-106957000D01*
G75*
G02*
X128499000Y-107157000I0J-200000D01*
G01*
X128499000Y-107557000D01*
G75*
G02*
X128299000Y-107757000I-200000J0D01*
G01*
G37*
%TD*%
%TO.C,R44*%
G36*
G01*
X143729000Y-102360000D02*
X143179000Y-102360000D01*
G75*
G02*
X142979000Y-102160000I0J200000D01*
G01*
X142979000Y-101760000D01*
G75*
G02*
X143179000Y-101560000I200000J0D01*
G01*
X143729000Y-101560000D01*
G75*
G02*
X143929000Y-101760000I0J-200000D01*
G01*
X143929000Y-102160000D01*
G75*
G02*
X143729000Y-102360000I-200000J0D01*
G01*
G37*
G36*
G01*
X143729000Y-104010000D02*
X143179000Y-104010000D01*
G75*
G02*
X142979000Y-103810000I0J200000D01*
G01*
X142979000Y-103410000D01*
G75*
G02*
X143179000Y-103210000I200000J0D01*
G01*
X143729000Y-103210000D01*
G75*
G02*
X143929000Y-103410000I0J-200000D01*
G01*
X143929000Y-103810000D01*
G75*
G02*
X143729000Y-104010000I-200000J0D01*
G01*
G37*
%TD*%
%TO.C,R45*%
G36*
G01*
X180201000Y-78866500D02*
X180201000Y-78316500D01*
G75*
G02*
X180401000Y-78116500I200000J0D01*
G01*
X180801000Y-78116500D01*
G75*
G02*
X181001000Y-78316500I0J-200000D01*
G01*
X181001000Y-78866500D01*
G75*
G02*
X180801000Y-79066500I-200000J0D01*
G01*
X180401000Y-79066500D01*
G75*
G02*
X180201000Y-78866500I0J200000D01*
G01*
G37*
G36*
G01*
X178551000Y-78866500D02*
X178551000Y-78316500D01*
G75*
G02*
X178751000Y-78116500I200000J0D01*
G01*
X179151000Y-78116500D01*
G75*
G02*
X179351000Y-78316500I0J-200000D01*
G01*
X179351000Y-78866500D01*
G75*
G02*
X179151000Y-79066500I-200000J0D01*
G01*
X178751000Y-79066500D01*
G75*
G02*
X178551000Y-78866500I0J200000D01*
G01*
G37*
%TD*%
%TO.C,R46*%
G36*
G01*
X179415000Y-69553500D02*
X179415000Y-70103500D01*
G75*
G02*
X179215000Y-70303500I-200000J0D01*
G01*
X178815000Y-70303500D01*
G75*
G02*
X178615000Y-70103500I0J200000D01*
G01*
X178615000Y-69553500D01*
G75*
G02*
X178815000Y-69353500I200000J0D01*
G01*
X179215000Y-69353500D01*
G75*
G02*
X179415000Y-69553500I0J-200000D01*
G01*
G37*
G36*
G01*
X181065000Y-69553500D02*
X181065000Y-70103500D01*
G75*
G02*
X180865000Y-70303500I-200000J0D01*
G01*
X180465000Y-70303500D01*
G75*
G02*
X180265000Y-70103500I0J200000D01*
G01*
X180265000Y-69553500D01*
G75*
G02*
X180465000Y-69353500I200000J0D01*
G01*
X180865000Y-69353500D01*
G75*
G02*
X181065000Y-69553500I0J-200000D01*
G01*
G37*
%TD*%
%TO.C,R47*%
G36*
G01*
X175033000Y-67331000D02*
X175033000Y-67881000D01*
G75*
G02*
X174833000Y-68081000I-200000J0D01*
G01*
X174433000Y-68081000D01*
G75*
G02*
X174233000Y-67881000I0J200000D01*
G01*
X174233000Y-67331000D01*
G75*
G02*
X174433000Y-67131000I200000J0D01*
G01*
X174833000Y-67131000D01*
G75*
G02*
X175033000Y-67331000I0J-200000D01*
G01*
G37*
G36*
G01*
X176683000Y-67331000D02*
X176683000Y-67881000D01*
G75*
G02*
X176483000Y-68081000I-200000J0D01*
G01*
X176083000Y-68081000D01*
G75*
G02*
X175883000Y-67881000I0J200000D01*
G01*
X175883000Y-67331000D01*
G75*
G02*
X176083000Y-67131000I200000J0D01*
G01*
X176483000Y-67131000D01*
G75*
G02*
X176683000Y-67331000I0J-200000D01*
G01*
G37*
%TD*%
%TO.C,R53*%
G36*
G01*
X96215000Y-66255000D02*
X95665000Y-66255000D01*
G75*
G02*
X95465000Y-66055000I0J200000D01*
G01*
X95465000Y-65655000D01*
G75*
G02*
X95665000Y-65455000I200000J0D01*
G01*
X96215000Y-65455000D01*
G75*
G02*
X96415000Y-65655000I0J-200000D01*
G01*
X96415000Y-66055000D01*
G75*
G02*
X96215000Y-66255000I-200000J0D01*
G01*
G37*
G36*
G01*
X96215000Y-67905000D02*
X95665000Y-67905000D01*
G75*
G02*
X95465000Y-67705000I0J200000D01*
G01*
X95465000Y-67305000D01*
G75*
G02*
X95665000Y-67105000I200000J0D01*
G01*
X96215000Y-67105000D01*
G75*
G02*
X96415000Y-67305000I0J-200000D01*
G01*
X96415000Y-67705000D01*
G75*
G02*
X96215000Y-67905000I-200000J0D01*
G01*
G37*
%TD*%
%TO.C,R54*%
G36*
G01*
X107556000Y-83017000D02*
X108106000Y-83017000D01*
G75*
G02*
X108306000Y-83217000I0J-200000D01*
G01*
X108306000Y-83617000D01*
G75*
G02*
X108106000Y-83817000I-200000J0D01*
G01*
X107556000Y-83817000D01*
G75*
G02*
X107356000Y-83617000I0J200000D01*
G01*
X107356000Y-83217000D01*
G75*
G02*
X107556000Y-83017000I200000J0D01*
G01*
G37*
G36*
G01*
X107556000Y-81367000D02*
X108106000Y-81367000D01*
G75*
G02*
X108306000Y-81567000I0J-200000D01*
G01*
X108306000Y-81967000D01*
G75*
G02*
X108106000Y-82167000I-200000J0D01*
G01*
X107556000Y-82167000D01*
G75*
G02*
X107356000Y-81967000I0J200000D01*
G01*
X107356000Y-81567000D01*
G75*
G02*
X107556000Y-81367000I200000J0D01*
G01*
G37*
%TD*%
%TO.C,R55*%
G36*
G01*
X105397000Y-83017000D02*
X105947000Y-83017000D01*
G75*
G02*
X106147000Y-83217000I0J-200000D01*
G01*
X106147000Y-83617000D01*
G75*
G02*
X105947000Y-83817000I-200000J0D01*
G01*
X105397000Y-83817000D01*
G75*
G02*
X105197000Y-83617000I0J200000D01*
G01*
X105197000Y-83217000D01*
G75*
G02*
X105397000Y-83017000I200000J0D01*
G01*
G37*
G36*
G01*
X105397000Y-81367000D02*
X105947000Y-81367000D01*
G75*
G02*
X106147000Y-81567000I0J-200000D01*
G01*
X106147000Y-81967000D01*
G75*
G02*
X105947000Y-82167000I-200000J0D01*
G01*
X105397000Y-82167000D01*
G75*
G02*
X105197000Y-81967000I0J200000D01*
G01*
X105197000Y-81567000D01*
G75*
G02*
X105397000Y-81367000I200000J0D01*
G01*
G37*
%TD*%
%TO.C,R50*%
G36*
G01*
X128299000Y-109917000D02*
X127749000Y-109917000D01*
G75*
G02*
X127549000Y-109717000I0J200000D01*
G01*
X127549000Y-109317000D01*
G75*
G02*
X127749000Y-109117000I200000J0D01*
G01*
X128299000Y-109117000D01*
G75*
G02*
X128499000Y-109317000I0J-200000D01*
G01*
X128499000Y-109717000D01*
G75*
G02*
X128299000Y-109917000I-200000J0D01*
G01*
G37*
G36*
G01*
X128299000Y-111567000D02*
X127749000Y-111567000D01*
G75*
G02*
X127549000Y-111367000I0J200000D01*
G01*
X127549000Y-110967000D01*
G75*
G02*
X127749000Y-110767000I200000J0D01*
G01*
X128299000Y-110767000D01*
G75*
G02*
X128499000Y-110967000I0J-200000D01*
G01*
X128499000Y-111367000D01*
G75*
G02*
X128299000Y-111567000I-200000J0D01*
G01*
G37*
%TD*%
%TO.C,R51*%
G36*
G01*
X106773000Y-69213000D02*
X106223000Y-69213000D01*
G75*
G02*
X106023000Y-69013000I0J200000D01*
G01*
X106023000Y-68613000D01*
G75*
G02*
X106223000Y-68413000I200000J0D01*
G01*
X106773000Y-68413000D01*
G75*
G02*
X106973000Y-68613000I0J-200000D01*
G01*
X106973000Y-69013000D01*
G75*
G02*
X106773000Y-69213000I-200000J0D01*
G01*
G37*
G36*
G01*
X106773000Y-70863000D02*
X106223000Y-70863000D01*
G75*
G02*
X106023000Y-70663000I0J200000D01*
G01*
X106023000Y-70263000D01*
G75*
G02*
X106223000Y-70063000I200000J0D01*
G01*
X106773000Y-70063000D01*
G75*
G02*
X106973000Y-70263000I0J-200000D01*
G01*
X106973000Y-70663000D01*
G75*
G02*
X106773000Y-70863000I-200000J0D01*
G01*
G37*
%TD*%
%TO.C,R59*%
G36*
G01*
X99815000Y-65705000D02*
X99815000Y-66255000D01*
G75*
G02*
X99615000Y-66455000I-200000J0D01*
G01*
X99215000Y-66455000D01*
G75*
G02*
X99015000Y-66255000I0J200000D01*
G01*
X99015000Y-65705000D01*
G75*
G02*
X99215000Y-65505000I200000J0D01*
G01*
X99615000Y-65505000D01*
G75*
G02*
X99815000Y-65705000I0J-200000D01*
G01*
G37*
G36*
G01*
X101465000Y-65705000D02*
X101465000Y-66255000D01*
G75*
G02*
X101265000Y-66455000I-200000J0D01*
G01*
X100865000Y-66455000D01*
G75*
G02*
X100665000Y-66255000I0J200000D01*
G01*
X100665000Y-65705000D01*
G75*
G02*
X100865000Y-65505000I200000J0D01*
G01*
X101265000Y-65505000D01*
G75*
G02*
X101465000Y-65705000I0J-200000D01*
G01*
G37*
%TD*%
%TO.C,R60*%
G36*
G01*
X99115000Y-63705000D02*
X99115000Y-64255000D01*
G75*
G02*
X98915000Y-64455000I-200000J0D01*
G01*
X98515000Y-64455000D01*
G75*
G02*
X98315000Y-64255000I0J200000D01*
G01*
X98315000Y-63705000D01*
G75*
G02*
X98515000Y-63505000I200000J0D01*
G01*
X98915000Y-63505000D01*
G75*
G02*
X99115000Y-63705000I0J-200000D01*
G01*
G37*
G36*
G01*
X100765000Y-63705000D02*
X100765000Y-64255000D01*
G75*
G02*
X100565000Y-64455000I-200000J0D01*
G01*
X100165000Y-64455000D01*
G75*
G02*
X99965000Y-64255000I0J200000D01*
G01*
X99965000Y-63705000D01*
G75*
G02*
X100165000Y-63505000I200000J0D01*
G01*
X100565000Y-63505000D01*
G75*
G02*
X100765000Y-63705000I0J-200000D01*
G01*
G37*
%TD*%
%TO.C,R48*%
G36*
G01*
X104063000Y-70063000D02*
X104613000Y-70063000D01*
G75*
G02*
X104813000Y-70263000I0J-200000D01*
G01*
X104813000Y-70663000D01*
G75*
G02*
X104613000Y-70863000I-200000J0D01*
G01*
X104063000Y-70863000D01*
G75*
G02*
X103863000Y-70663000I0J200000D01*
G01*
X103863000Y-70263000D01*
G75*
G02*
X104063000Y-70063000I200000J0D01*
G01*
G37*
G36*
G01*
X104063000Y-68413000D02*
X104613000Y-68413000D01*
G75*
G02*
X104813000Y-68613000I0J-200000D01*
G01*
X104813000Y-69013000D01*
G75*
G02*
X104613000Y-69213000I-200000J0D01*
G01*
X104063000Y-69213000D01*
G75*
G02*
X103863000Y-69013000I0J200000D01*
G01*
X103863000Y-68613000D01*
G75*
G02*
X104063000Y-68413000I200000J0D01*
G01*
G37*
%TD*%
%TO.C,R58*%
G36*
G01*
X101905000Y-70063000D02*
X102455000Y-70063000D01*
G75*
G02*
X102655000Y-70263000I0J-200000D01*
G01*
X102655000Y-70663000D01*
G75*
G02*
X102455000Y-70863000I-200000J0D01*
G01*
X101905000Y-70863000D01*
G75*
G02*
X101705000Y-70663000I0J200000D01*
G01*
X101705000Y-70263000D01*
G75*
G02*
X101905000Y-70063000I200000J0D01*
G01*
G37*
G36*
G01*
X101905000Y-68413000D02*
X102455000Y-68413000D01*
G75*
G02*
X102655000Y-68613000I0J-200000D01*
G01*
X102655000Y-69013000D01*
G75*
G02*
X102455000Y-69213000I-200000J0D01*
G01*
X101905000Y-69213000D01*
G75*
G02*
X101705000Y-69013000I0J200000D01*
G01*
X101705000Y-68613000D01*
G75*
G02*
X101905000Y-68413000I200000J0D01*
G01*
G37*
%TD*%
%TO.C,R6*%
G36*
G01*
X151413000Y-96899000D02*
X150863000Y-96899000D01*
G75*
G02*
X150663000Y-96699000I0J200000D01*
G01*
X150663000Y-96299000D01*
G75*
G02*
X150863000Y-96099000I200000J0D01*
G01*
X151413000Y-96099000D01*
G75*
G02*
X151613000Y-96299000I0J-200000D01*
G01*
X151613000Y-96699000D01*
G75*
G02*
X151413000Y-96899000I-200000J0D01*
G01*
G37*
G36*
G01*
X151413000Y-98549000D02*
X150863000Y-98549000D01*
G75*
G02*
X150663000Y-98349000I0J200000D01*
G01*
X150663000Y-97949000D01*
G75*
G02*
X150863000Y-97749000I200000J0D01*
G01*
X151413000Y-97749000D01*
G75*
G02*
X151613000Y-97949000I0J-200000D01*
G01*
X151613000Y-98349000D01*
G75*
G02*
X151413000Y-98549000I-200000J0D01*
G01*
G37*
%TD*%
%TO.C,R7*%
G36*
G01*
X153572000Y-96899000D02*
X153022000Y-96899000D01*
G75*
G02*
X152822000Y-96699000I0J200000D01*
G01*
X152822000Y-96299000D01*
G75*
G02*
X153022000Y-96099000I200000J0D01*
G01*
X153572000Y-96099000D01*
G75*
G02*
X153772000Y-96299000I0J-200000D01*
G01*
X153772000Y-96699000D01*
G75*
G02*
X153572000Y-96899000I-200000J0D01*
G01*
G37*
G36*
G01*
X153572000Y-98549000D02*
X153022000Y-98549000D01*
G75*
G02*
X152822000Y-98349000I0J200000D01*
G01*
X152822000Y-97949000D01*
G75*
G02*
X153022000Y-97749000I200000J0D01*
G01*
X153572000Y-97749000D01*
G75*
G02*
X153772000Y-97949000I0J-200000D01*
G01*
X153772000Y-98349000D01*
G75*
G02*
X153572000Y-98549000I-200000J0D01*
G01*
G37*
%TD*%
%TO.C,R8*%
G36*
G01*
X155731000Y-96899000D02*
X155181000Y-96899000D01*
G75*
G02*
X154981000Y-96699000I0J200000D01*
G01*
X154981000Y-96299000D01*
G75*
G02*
X155181000Y-96099000I200000J0D01*
G01*
X155731000Y-96099000D01*
G75*
G02*
X155931000Y-96299000I0J-200000D01*
G01*
X155931000Y-96699000D01*
G75*
G02*
X155731000Y-96899000I-200000J0D01*
G01*
G37*
G36*
G01*
X155731000Y-98549000D02*
X155181000Y-98549000D01*
G75*
G02*
X154981000Y-98349000I0J200000D01*
G01*
X154981000Y-97949000D01*
G75*
G02*
X155181000Y-97749000I200000J0D01*
G01*
X155731000Y-97749000D01*
G75*
G02*
X155931000Y-97949000I0J-200000D01*
G01*
X155931000Y-98349000D01*
G75*
G02*
X155731000Y-98549000I-200000J0D01*
G01*
G37*
%TD*%
%TO.C,R9*%
G36*
G01*
X157827000Y-96899000D02*
X157277000Y-96899000D01*
G75*
G02*
X157077000Y-96699000I0J200000D01*
G01*
X157077000Y-96299000D01*
G75*
G02*
X157277000Y-96099000I200000J0D01*
G01*
X157827000Y-96099000D01*
G75*
G02*
X158027000Y-96299000I0J-200000D01*
G01*
X158027000Y-96699000D01*
G75*
G02*
X157827000Y-96899000I-200000J0D01*
G01*
G37*
G36*
G01*
X157827000Y-98549000D02*
X157277000Y-98549000D01*
G75*
G02*
X157077000Y-98349000I0J200000D01*
G01*
X157077000Y-97949000D01*
G75*
G02*
X157277000Y-97749000I200000J0D01*
G01*
X157827000Y-97749000D01*
G75*
G02*
X158027000Y-97949000I0J-200000D01*
G01*
X158027000Y-98349000D01*
G75*
G02*
X157827000Y-98549000I-200000J0D01*
G01*
G37*
%TD*%
%TO.C,R49*%
G36*
G01*
X157826500Y-90739500D02*
X157276500Y-90739500D01*
G75*
G02*
X157076500Y-90539500I0J200000D01*
G01*
X157076500Y-90139500D01*
G75*
G02*
X157276500Y-89939500I200000J0D01*
G01*
X157826500Y-89939500D01*
G75*
G02*
X158026500Y-90139500I0J-200000D01*
G01*
X158026500Y-90539500D01*
G75*
G02*
X157826500Y-90739500I-200000J0D01*
G01*
G37*
G36*
G01*
X157826500Y-92389500D02*
X157276500Y-92389500D01*
G75*
G02*
X157076500Y-92189500I0J200000D01*
G01*
X157076500Y-91789500D01*
G75*
G02*
X157276500Y-91589500I200000J0D01*
G01*
X157826500Y-91589500D01*
G75*
G02*
X158026500Y-91789500I0J-200000D01*
G01*
X158026500Y-92189500D01*
G75*
G02*
X157826500Y-92389500I-200000J0D01*
G01*
G37*
%TD*%
%TO.C,R1*%
G36*
G01*
X151032000Y-77341000D02*
X150482000Y-77341000D01*
G75*
G02*
X150282000Y-77141000I0J200000D01*
G01*
X150282000Y-76741000D01*
G75*
G02*
X150482000Y-76541000I200000J0D01*
G01*
X151032000Y-76541000D01*
G75*
G02*
X151232000Y-76741000I0J-200000D01*
G01*
X151232000Y-77141000D01*
G75*
G02*
X151032000Y-77341000I-200000J0D01*
G01*
G37*
G36*
G01*
X151032000Y-78991000D02*
X150482000Y-78991000D01*
G75*
G02*
X150282000Y-78791000I0J200000D01*
G01*
X150282000Y-78391000D01*
G75*
G02*
X150482000Y-78191000I200000J0D01*
G01*
X151032000Y-78191000D01*
G75*
G02*
X151232000Y-78391000I0J-200000D01*
G01*
X151232000Y-78791000D01*
G75*
G02*
X151032000Y-78991000I-200000J0D01*
G01*
G37*
%TD*%
%TO.C,R2*%
G36*
G01*
X139285000Y-77341000D02*
X138735000Y-77341000D01*
G75*
G02*
X138535000Y-77141000I0J200000D01*
G01*
X138535000Y-76741000D01*
G75*
G02*
X138735000Y-76541000I200000J0D01*
G01*
X139285000Y-76541000D01*
G75*
G02*
X139485000Y-76741000I0J-200000D01*
G01*
X139485000Y-77141000D01*
G75*
G02*
X139285000Y-77341000I-200000J0D01*
G01*
G37*
G36*
G01*
X139285000Y-78991000D02*
X138735000Y-78991000D01*
G75*
G02*
X138535000Y-78791000I0J200000D01*
G01*
X138535000Y-78391000D01*
G75*
G02*
X138735000Y-78191000I200000J0D01*
G01*
X139285000Y-78191000D01*
G75*
G02*
X139485000Y-78391000I0J-200000D01*
G01*
X139485000Y-78791000D01*
G75*
G02*
X139285000Y-78991000I-200000J0D01*
G01*
G37*
%TD*%
%TO.C,R3*%
G36*
G01*
X141443000Y-77341000D02*
X140893000Y-77341000D01*
G75*
G02*
X140693000Y-77141000I0J200000D01*
G01*
X140693000Y-76741000D01*
G75*
G02*
X140893000Y-76541000I200000J0D01*
G01*
X141443000Y-76541000D01*
G75*
G02*
X141643000Y-76741000I0J-200000D01*
G01*
X141643000Y-77141000D01*
G75*
G02*
X141443000Y-77341000I-200000J0D01*
G01*
G37*
G36*
G01*
X141443000Y-78991000D02*
X140893000Y-78991000D01*
G75*
G02*
X140693000Y-78791000I0J200000D01*
G01*
X140693000Y-78391000D01*
G75*
G02*
X140893000Y-78191000I200000J0D01*
G01*
X141443000Y-78191000D01*
G75*
G02*
X141643000Y-78391000I0J-200000D01*
G01*
X141643000Y-78791000D01*
G75*
G02*
X141443000Y-78991000I-200000J0D01*
G01*
G37*
%TD*%
%TO.C,R10*%
G36*
G01*
X156453000Y-78803000D02*
X156453000Y-78253000D01*
G75*
G02*
X156653000Y-78053000I200000J0D01*
G01*
X157053000Y-78053000D01*
G75*
G02*
X157253000Y-78253000I0J-200000D01*
G01*
X157253000Y-78803000D01*
G75*
G02*
X157053000Y-79003000I-200000J0D01*
G01*
X156653000Y-79003000D01*
G75*
G02*
X156453000Y-78803000I0J200000D01*
G01*
G37*
G36*
G01*
X154803000Y-78803000D02*
X154803000Y-78253000D01*
G75*
G02*
X155003000Y-78053000I200000J0D01*
G01*
X155403000Y-78053000D01*
G75*
G02*
X155603000Y-78253000I0J-200000D01*
G01*
X155603000Y-78803000D01*
G75*
G02*
X155403000Y-79003000I-200000J0D01*
G01*
X155003000Y-79003000D01*
G75*
G02*
X154803000Y-78803000I0J200000D01*
G01*
G37*
%TD*%
%TO.C,R12*%
G36*
G01*
X165596500Y-78866500D02*
X165596500Y-78316500D01*
G75*
G02*
X165796500Y-78116500I200000J0D01*
G01*
X166196500Y-78116500D01*
G75*
G02*
X166396500Y-78316500I0J-200000D01*
G01*
X166396500Y-78866500D01*
G75*
G02*
X166196500Y-79066500I-200000J0D01*
G01*
X165796500Y-79066500D01*
G75*
G02*
X165596500Y-78866500I0J200000D01*
G01*
G37*
G36*
G01*
X163946500Y-78866500D02*
X163946500Y-78316500D01*
G75*
G02*
X164146500Y-78116500I200000J0D01*
G01*
X164546500Y-78116500D01*
G75*
G02*
X164746500Y-78316500I0J-200000D01*
G01*
X164746500Y-78866500D01*
G75*
G02*
X164546500Y-79066500I-200000J0D01*
G01*
X164146500Y-79066500D01*
G75*
G02*
X163946500Y-78866500I0J200000D01*
G01*
G37*
%TD*%
%TO.C,R56*%
G36*
G01*
X105247000Y-100986000D02*
X105247000Y-101536000D01*
G75*
G02*
X105047000Y-101736000I-200000J0D01*
G01*
X104647000Y-101736000D01*
G75*
G02*
X104447000Y-101536000I0J200000D01*
G01*
X104447000Y-100986000D01*
G75*
G02*
X104647000Y-100786000I200000J0D01*
G01*
X105047000Y-100786000D01*
G75*
G02*
X105247000Y-100986000I0J-200000D01*
G01*
G37*
G36*
G01*
X106897000Y-100986000D02*
X106897000Y-101536000D01*
G75*
G02*
X106697000Y-101736000I-200000J0D01*
G01*
X106297000Y-101736000D01*
G75*
G02*
X106097000Y-101536000I0J200000D01*
G01*
X106097000Y-100986000D01*
G75*
G02*
X106297000Y-100786000I200000J0D01*
G01*
X106697000Y-100786000D01*
G75*
G02*
X106897000Y-100986000I0J-200000D01*
G01*
G37*
%TD*%
%TO.C,R57*%
G36*
G01*
X105247000Y-103145000D02*
X105247000Y-103695000D01*
G75*
G02*
X105047000Y-103895000I-200000J0D01*
G01*
X104647000Y-103895000D01*
G75*
G02*
X104447000Y-103695000I0J200000D01*
G01*
X104447000Y-103145000D01*
G75*
G02*
X104647000Y-102945000I200000J0D01*
G01*
X105047000Y-102945000D01*
G75*
G02*
X105247000Y-103145000I0J-200000D01*
G01*
G37*
G36*
G01*
X106897000Y-103145000D02*
X106897000Y-103695000D01*
G75*
G02*
X106697000Y-103895000I-200000J0D01*
G01*
X106297000Y-103895000D01*
G75*
G02*
X106097000Y-103695000I0J200000D01*
G01*
X106097000Y-103145000D01*
G75*
G02*
X106297000Y-102945000I200000J0D01*
G01*
X106697000Y-102945000D01*
G75*
G02*
X106897000Y-103145000I0J-200000D01*
G01*
G37*
%TD*%
D36*
%TO.C,TP4*%
X187968000Y-103928000D03*
%TD*%
D37*
%TO.C,J6*%
X94305500Y-104817000D03*
D38*
X94305500Y-102277000D03*
X96845500Y-104817000D03*
X96845500Y-102277000D03*
X99385500Y-104817000D03*
X99385500Y-102277000D03*
X101925500Y-104817000D03*
X101925500Y-102277000D03*
%TD*%
%TO.C,D1*%
G36*
G01*
X126101000Y-85784000D02*
X126101000Y-84734000D01*
G75*
G02*
X126426000Y-84409000I325000J0D01*
G01*
X127076000Y-84409000D01*
G75*
G02*
X127401000Y-84734000I0J-325000D01*
G01*
X127401000Y-85784000D01*
G75*
G02*
X127076000Y-86109000I-325000J0D01*
G01*
X126426000Y-86109000D01*
G75*
G02*
X126101000Y-85784000I0J325000D01*
G01*
G37*
D39*
X123251000Y-85259000D03*
%TD*%
D40*
%TO.C,D2*%
X130780000Y-73801000D03*
G36*
G01*
X131305000Y-70951000D02*
X130255000Y-70951000D01*
G75*
G02*
X129930000Y-70626000I0J325000D01*
G01*
X129930000Y-69976000D01*
G75*
G02*
X130255000Y-69651000I325000J0D01*
G01*
X131305000Y-69651000D01*
G75*
G02*
X131630000Y-69976000I0J-325000D01*
G01*
X131630000Y-70626000D01*
G75*
G02*
X131305000Y-70951000I-325000J0D01*
G01*
G37*
%TD*%
%TO.C,F1*%
G36*
G01*
X101915000Y-79655000D02*
X103165000Y-79655000D01*
G75*
G02*
X103415000Y-79905000I0J-250000D01*
G01*
X103415000Y-80655000D01*
G75*
G02*
X103165000Y-80905000I-250000J0D01*
G01*
X101915000Y-80905000D01*
G75*
G02*
X101665000Y-80655000I0J250000D01*
G01*
X101665000Y-79905000D01*
G75*
G02*
X101915000Y-79655000I250000J0D01*
G01*
G37*
G36*
G01*
X101915000Y-82455000D02*
X103165000Y-82455000D01*
G75*
G02*
X103415000Y-82705000I0J-250000D01*
G01*
X103415000Y-83455000D01*
G75*
G02*
X103165000Y-83705000I-250000J0D01*
G01*
X101915000Y-83705000D01*
G75*
G02*
X101665000Y-83455000I0J250000D01*
G01*
X101665000Y-82705000D01*
G75*
G02*
X101915000Y-82455000I250000J0D01*
G01*
G37*
%TD*%
D41*
%TO.C,P1*%
X107555000Y-86051500D03*
X107555000Y-87001500D03*
X107555000Y-94701500D03*
X107555000Y-93601500D03*
X107555000Y-92501500D03*
X107555000Y-91401500D03*
X107555000Y-90301500D03*
X107555000Y-89201500D03*
X107555000Y-88101500D03*
D42*
X107555000Y-96251500D03*
X103255000Y-85101500D03*
D43*
X97055000Y-85101500D03*
D44*
X92905000Y-85101500D03*
D45*
X92455000Y-98601500D03*
%TD*%
D46*
%TO.C,MH1*%
X104880000Y-111020000D03*
%TD*%
%TO.C,MH2*%
X181090000Y-62780000D03*
%TD*%
%TO.C,MH3*%
X106150000Y-62770000D03*
%TD*%
%TO.C,MH4*%
X187420000Y-111010000D03*
%TD*%
%TO.C,C19*%
G36*
G01*
X121649000Y-66172997D02*
X121649000Y-68023003D01*
G75*
G02*
X121399003Y-68273000I-249997J0D01*
G01*
X120573997Y-68273000D01*
G75*
G02*
X120324000Y-68023003I0J249997D01*
G01*
X120324000Y-66172997D01*
G75*
G02*
X120573997Y-65923000I249997J0D01*
G01*
X121399003Y-65923000D01*
G75*
G02*
X121649000Y-66172997I0J-249997D01*
G01*
G37*
G36*
G01*
X124724000Y-66172997D02*
X124724000Y-68023003D01*
G75*
G02*
X124474003Y-68273000I-249997J0D01*
G01*
X123648997Y-68273000D01*
G75*
G02*
X123399000Y-68023003I0J249997D01*
G01*
X123399000Y-66172997D01*
G75*
G02*
X123648997Y-65923000I249997J0D01*
G01*
X124474003Y-65923000D01*
G75*
G02*
X124724000Y-66172997I0J-249997D01*
G01*
G37*
%TD*%
D28*
%TO.C,J1*%
X187460000Y-67860000D03*
D27*
X184920000Y-67860000D03*
X187460000Y-70400000D03*
X184920000Y-70400000D03*
X187460000Y-72940000D03*
X184920000Y-72940000D03*
X187460000Y-75480000D03*
X184920000Y-75480000D03*
X187460000Y-78020000D03*
X184920000Y-78020000D03*
X187460000Y-80560000D03*
X184920000Y-80560000D03*
X187460000Y-83100000D03*
X184920000Y-83100000D03*
X187460000Y-85640000D03*
X184920000Y-85640000D03*
X187460000Y-88180000D03*
X184920000Y-88180000D03*
X187460000Y-90720000D03*
X184920000Y-90720000D03*
X187460000Y-93260000D03*
X184920000Y-93260000D03*
X187460000Y-95800000D03*
X184920000Y-95800000D03*
X187460000Y-98340000D03*
X184920000Y-98340000D03*
X187460000Y-100880000D03*
X184920000Y-100880000D03*
%TD*%
D47*
%TO.C,Y1*%
X145511000Y-78294500D03*
X145511000Y-76094500D03*
X143811000Y-76094500D03*
X143811000Y-78294500D03*
%TD*%
D48*
%TO.C,X2*%
X164156000Y-107591000D03*
X164156000Y-105091000D03*
%TD*%
D28*
%TO.C,J2*%
X156980000Y-62780000D03*
D27*
X159520000Y-62780000D03*
X162060000Y-62780000D03*
X164600000Y-62780000D03*
X167140000Y-62780000D03*
X169680000Y-62780000D03*
X172220000Y-62780000D03*
X174760000Y-62780000D03*
%TD*%
%TO.C,J3*%
X164600000Y-111040000D03*
X162060000Y-111040000D03*
X159520000Y-111040000D03*
X156980000Y-111040000D03*
X154440000Y-111040000D03*
X151900000Y-111040000D03*
X149360000Y-111040000D03*
D28*
X146820000Y-111040000D03*
%TD*%
%TO.C,J4*%
X131580000Y-62780000D03*
D27*
X134120000Y-62780000D03*
X136660000Y-62780000D03*
X139200000Y-62780000D03*
%TD*%
D28*
%TO.C,J5*%
X144280000Y-62780000D03*
D27*
X146820000Y-62780000D03*
X149360000Y-62780000D03*
X151900000Y-62780000D03*
%TD*%
%TO.C,J7*%
X141740000Y-111074000D03*
X139200000Y-111074000D03*
X136660000Y-111074000D03*
D28*
X134120000Y-111074000D03*
%TD*%
%TO.C,J9*%
X113800000Y-62780000D03*
D27*
X116340000Y-62780000D03*
X118880000Y-62780000D03*
X121420000Y-62780000D03*
X123960000Y-62780000D03*
X126500000Y-62780000D03*
%TD*%
%TO.C,U7*%
G36*
G01*
X154777000Y-70264500D02*
X154777000Y-70064500D01*
G75*
G02*
X154877000Y-69964500I100000J0D01*
G01*
X156152000Y-69964500D01*
G75*
G02*
X156252000Y-70064500I0J-100000D01*
G01*
X156252000Y-70264500D01*
G75*
G02*
X156152000Y-70364500I-100000J0D01*
G01*
X154877000Y-70364500D01*
G75*
G02*
X154777000Y-70264500I0J100000D01*
G01*
G37*
G36*
G01*
X154777000Y-70914500D02*
X154777000Y-70714500D01*
G75*
G02*
X154877000Y-70614500I100000J0D01*
G01*
X156152000Y-70614500D01*
G75*
G02*
X156252000Y-70714500I0J-100000D01*
G01*
X156252000Y-70914500D01*
G75*
G02*
X156152000Y-71014500I-100000J0D01*
G01*
X154877000Y-71014500D01*
G75*
G02*
X154777000Y-70914500I0J100000D01*
G01*
G37*
G36*
G01*
X154777000Y-71564500D02*
X154777000Y-71364500D01*
G75*
G02*
X154877000Y-71264500I100000J0D01*
G01*
X156152000Y-71264500D01*
G75*
G02*
X156252000Y-71364500I0J-100000D01*
G01*
X156252000Y-71564500D01*
G75*
G02*
X156152000Y-71664500I-100000J0D01*
G01*
X154877000Y-71664500D01*
G75*
G02*
X154777000Y-71564500I0J100000D01*
G01*
G37*
G36*
G01*
X154777000Y-72214500D02*
X154777000Y-72014500D01*
G75*
G02*
X154877000Y-71914500I100000J0D01*
G01*
X156152000Y-71914500D01*
G75*
G02*
X156252000Y-72014500I0J-100000D01*
G01*
X156252000Y-72214500D01*
G75*
G02*
X156152000Y-72314500I-100000J0D01*
G01*
X154877000Y-72314500D01*
G75*
G02*
X154777000Y-72214500I0J100000D01*
G01*
G37*
G36*
G01*
X154777000Y-72864500D02*
X154777000Y-72664500D01*
G75*
G02*
X154877000Y-72564500I100000J0D01*
G01*
X156152000Y-72564500D01*
G75*
G02*
X156252000Y-72664500I0J-100000D01*
G01*
X156252000Y-72864500D01*
G75*
G02*
X156152000Y-72964500I-100000J0D01*
G01*
X154877000Y-72964500D01*
G75*
G02*
X154777000Y-72864500I0J100000D01*
G01*
G37*
G36*
G01*
X154777000Y-73514500D02*
X154777000Y-73314500D01*
G75*
G02*
X154877000Y-73214500I100000J0D01*
G01*
X156152000Y-73214500D01*
G75*
G02*
X156252000Y-73314500I0J-100000D01*
G01*
X156252000Y-73514500D01*
G75*
G02*
X156152000Y-73614500I-100000J0D01*
G01*
X154877000Y-73614500D01*
G75*
G02*
X154777000Y-73514500I0J100000D01*
G01*
G37*
G36*
G01*
X154777000Y-74164500D02*
X154777000Y-73964500D01*
G75*
G02*
X154877000Y-73864500I100000J0D01*
G01*
X156152000Y-73864500D01*
G75*
G02*
X156252000Y-73964500I0J-100000D01*
G01*
X156252000Y-74164500D01*
G75*
G02*
X156152000Y-74264500I-100000J0D01*
G01*
X154877000Y-74264500D01*
G75*
G02*
X154777000Y-74164500I0J100000D01*
G01*
G37*
G36*
G01*
X160502000Y-74164500D02*
X160502000Y-73964500D01*
G75*
G02*
X160602000Y-73864500I100000J0D01*
G01*
X161877000Y-73864500D01*
G75*
G02*
X161977000Y-73964500I0J-100000D01*
G01*
X161977000Y-74164500D01*
G75*
G02*
X161877000Y-74264500I-100000J0D01*
G01*
X160602000Y-74264500D01*
G75*
G02*
X160502000Y-74164500I0J100000D01*
G01*
G37*
G36*
G01*
X160502000Y-73514500D02*
X160502000Y-73314500D01*
G75*
G02*
X160602000Y-73214500I100000J0D01*
G01*
X161877000Y-73214500D01*
G75*
G02*
X161977000Y-73314500I0J-100000D01*
G01*
X161977000Y-73514500D01*
G75*
G02*
X161877000Y-73614500I-100000J0D01*
G01*
X160602000Y-73614500D01*
G75*
G02*
X160502000Y-73514500I0J100000D01*
G01*
G37*
G36*
G01*
X160502000Y-72864500D02*
X160502000Y-72664500D01*
G75*
G02*
X160602000Y-72564500I100000J0D01*
G01*
X161877000Y-72564500D01*
G75*
G02*
X161977000Y-72664500I0J-100000D01*
G01*
X161977000Y-72864500D01*
G75*
G02*
X161877000Y-72964500I-100000J0D01*
G01*
X160602000Y-72964500D01*
G75*
G02*
X160502000Y-72864500I0J100000D01*
G01*
G37*
G36*
G01*
X160502000Y-72214500D02*
X160502000Y-72014500D01*
G75*
G02*
X160602000Y-71914500I100000J0D01*
G01*
X161877000Y-71914500D01*
G75*
G02*
X161977000Y-72014500I0J-100000D01*
G01*
X161977000Y-72214500D01*
G75*
G02*
X161877000Y-72314500I-100000J0D01*
G01*
X160602000Y-72314500D01*
G75*
G02*
X160502000Y-72214500I0J100000D01*
G01*
G37*
G36*
G01*
X160502000Y-71564500D02*
X160502000Y-71364500D01*
G75*
G02*
X160602000Y-71264500I100000J0D01*
G01*
X161877000Y-71264500D01*
G75*
G02*
X161977000Y-71364500I0J-100000D01*
G01*
X161977000Y-71564500D01*
G75*
G02*
X161877000Y-71664500I-100000J0D01*
G01*
X160602000Y-71664500D01*
G75*
G02*
X160502000Y-71564500I0J100000D01*
G01*
G37*
G36*
G01*
X160502000Y-70914500D02*
X160502000Y-70714500D01*
G75*
G02*
X160602000Y-70614500I100000J0D01*
G01*
X161877000Y-70614500D01*
G75*
G02*
X161977000Y-70714500I0J-100000D01*
G01*
X161977000Y-70914500D01*
G75*
G02*
X161877000Y-71014500I-100000J0D01*
G01*
X160602000Y-71014500D01*
G75*
G02*
X160502000Y-70914500I0J100000D01*
G01*
G37*
G36*
G01*
X160502000Y-70264500D02*
X160502000Y-70064500D01*
G75*
G02*
X160602000Y-69964500I100000J0D01*
G01*
X161877000Y-69964500D01*
G75*
G02*
X161977000Y-70064500I0J-100000D01*
G01*
X161977000Y-70264500D01*
G75*
G02*
X161877000Y-70364500I-100000J0D01*
G01*
X160602000Y-70364500D01*
G75*
G02*
X160502000Y-70264500I0J100000D01*
G01*
G37*
%TD*%
D11*
%TO.C,TP1*%
X164727000Y-102912000D03*
%TD*%
%TO.C,TP2*%
X128176000Y-82909500D03*
%TD*%
%TO.C,TP5*%
X134145000Y-68876000D03*
%TD*%
%TO.C,TP6*%
X125890000Y-79671000D03*
%TD*%
%TO.C,R67*%
G36*
G01*
X130392000Y-95334500D02*
X130392000Y-95884500D01*
G75*
G02*
X130192000Y-96084500I-200000J0D01*
G01*
X129792000Y-96084500D01*
G75*
G02*
X129592000Y-95884500I0J200000D01*
G01*
X129592000Y-95334500D01*
G75*
G02*
X129792000Y-95134500I200000J0D01*
G01*
X130192000Y-95134500D01*
G75*
G02*
X130392000Y-95334500I0J-200000D01*
G01*
G37*
G36*
G01*
X128742000Y-95334500D02*
X128742000Y-95884500D01*
G75*
G02*
X128542000Y-96084500I-200000J0D01*
G01*
X128142000Y-96084500D01*
G75*
G02*
X127942000Y-95884500I0J200000D01*
G01*
X127942000Y-95334500D01*
G75*
G02*
X128142000Y-95134500I200000J0D01*
G01*
X128542000Y-95134500D01*
G75*
G02*
X128742000Y-95334500I0J-200000D01*
G01*
G37*
%TD*%
%TO.C,U2*%
G36*
G01*
X146077500Y-103792000D02*
X146077500Y-103592000D01*
G75*
G02*
X146177500Y-103492000I100000J0D01*
G01*
X147452500Y-103492000D01*
G75*
G02*
X147552500Y-103592000I0J-100000D01*
G01*
X147552500Y-103792000D01*
G75*
G02*
X147452500Y-103892000I-100000J0D01*
G01*
X146177500Y-103892000D01*
G75*
G02*
X146077500Y-103792000I0J100000D01*
G01*
G37*
G36*
G01*
X146077500Y-104442000D02*
X146077500Y-104242000D01*
G75*
G02*
X146177500Y-104142000I100000J0D01*
G01*
X147452500Y-104142000D01*
G75*
G02*
X147552500Y-104242000I0J-100000D01*
G01*
X147552500Y-104442000D01*
G75*
G02*
X147452500Y-104542000I-100000J0D01*
G01*
X146177500Y-104542000D01*
G75*
G02*
X146077500Y-104442000I0J100000D01*
G01*
G37*
G36*
G01*
X146077500Y-105092000D02*
X146077500Y-104892000D01*
G75*
G02*
X146177500Y-104792000I100000J0D01*
G01*
X147452500Y-104792000D01*
G75*
G02*
X147552500Y-104892000I0J-100000D01*
G01*
X147552500Y-105092000D01*
G75*
G02*
X147452500Y-105192000I-100000J0D01*
G01*
X146177500Y-105192000D01*
G75*
G02*
X146077500Y-105092000I0J100000D01*
G01*
G37*
G36*
G01*
X146077500Y-105742000D02*
X146077500Y-105542000D01*
G75*
G02*
X146177500Y-105442000I100000J0D01*
G01*
X147452500Y-105442000D01*
G75*
G02*
X147552500Y-105542000I0J-100000D01*
G01*
X147552500Y-105742000D01*
G75*
G02*
X147452500Y-105842000I-100000J0D01*
G01*
X146177500Y-105842000D01*
G75*
G02*
X146077500Y-105742000I0J100000D01*
G01*
G37*
G36*
G01*
X146077500Y-106392000D02*
X146077500Y-106192000D01*
G75*
G02*
X146177500Y-106092000I100000J0D01*
G01*
X147452500Y-106092000D01*
G75*
G02*
X147552500Y-106192000I0J-100000D01*
G01*
X147552500Y-106392000D01*
G75*
G02*
X147452500Y-106492000I-100000J0D01*
G01*
X146177500Y-106492000D01*
G75*
G02*
X146077500Y-106392000I0J100000D01*
G01*
G37*
G36*
G01*
X146077500Y-107042000D02*
X146077500Y-106842000D01*
G75*
G02*
X146177500Y-106742000I100000J0D01*
G01*
X147452500Y-106742000D01*
G75*
G02*
X147552500Y-106842000I0J-100000D01*
G01*
X147552500Y-107042000D01*
G75*
G02*
X147452500Y-107142000I-100000J0D01*
G01*
X146177500Y-107142000D01*
G75*
G02*
X146077500Y-107042000I0J100000D01*
G01*
G37*
G36*
G01*
X146077500Y-107692000D02*
X146077500Y-107492000D01*
G75*
G02*
X146177500Y-107392000I100000J0D01*
G01*
X147452500Y-107392000D01*
G75*
G02*
X147552500Y-107492000I0J-100000D01*
G01*
X147552500Y-107692000D01*
G75*
G02*
X147452500Y-107792000I-100000J0D01*
G01*
X146177500Y-107792000D01*
G75*
G02*
X146077500Y-107692000I0J100000D01*
G01*
G37*
G36*
G01*
X151802500Y-107692000D02*
X151802500Y-107492000D01*
G75*
G02*
X151902500Y-107392000I100000J0D01*
G01*
X153177500Y-107392000D01*
G75*
G02*
X153277500Y-107492000I0J-100000D01*
G01*
X153277500Y-107692000D01*
G75*
G02*
X153177500Y-107792000I-100000J0D01*
G01*
X151902500Y-107792000D01*
G75*
G02*
X151802500Y-107692000I0J100000D01*
G01*
G37*
G36*
G01*
X151802500Y-107042000D02*
X151802500Y-106842000D01*
G75*
G02*
X151902500Y-106742000I100000J0D01*
G01*
X153177500Y-106742000D01*
G75*
G02*
X153277500Y-106842000I0J-100000D01*
G01*
X153277500Y-107042000D01*
G75*
G02*
X153177500Y-107142000I-100000J0D01*
G01*
X151902500Y-107142000D01*
G75*
G02*
X151802500Y-107042000I0J100000D01*
G01*
G37*
G36*
G01*
X151802500Y-106392000D02*
X151802500Y-106192000D01*
G75*
G02*
X151902500Y-106092000I100000J0D01*
G01*
X153177500Y-106092000D01*
G75*
G02*
X153277500Y-106192000I0J-100000D01*
G01*
X153277500Y-106392000D01*
G75*
G02*
X153177500Y-106492000I-100000J0D01*
G01*
X151902500Y-106492000D01*
G75*
G02*
X151802500Y-106392000I0J100000D01*
G01*
G37*
G36*
G01*
X151802500Y-105742000D02*
X151802500Y-105542000D01*
G75*
G02*
X151902500Y-105442000I100000J0D01*
G01*
X153177500Y-105442000D01*
G75*
G02*
X153277500Y-105542000I0J-100000D01*
G01*
X153277500Y-105742000D01*
G75*
G02*
X153177500Y-105842000I-100000J0D01*
G01*
X151902500Y-105842000D01*
G75*
G02*
X151802500Y-105742000I0J100000D01*
G01*
G37*
G36*
G01*
X151802500Y-105092000D02*
X151802500Y-104892000D01*
G75*
G02*
X151902500Y-104792000I100000J0D01*
G01*
X153177500Y-104792000D01*
G75*
G02*
X153277500Y-104892000I0J-100000D01*
G01*
X153277500Y-105092000D01*
G75*
G02*
X153177500Y-105192000I-100000J0D01*
G01*
X151902500Y-105192000D01*
G75*
G02*
X151802500Y-105092000I0J100000D01*
G01*
G37*
G36*
G01*
X151802500Y-104442000D02*
X151802500Y-104242000D01*
G75*
G02*
X151902500Y-104142000I100000J0D01*
G01*
X153177500Y-104142000D01*
G75*
G02*
X153277500Y-104242000I0J-100000D01*
G01*
X153277500Y-104442000D01*
G75*
G02*
X153177500Y-104542000I-100000J0D01*
G01*
X151902500Y-104542000D01*
G75*
G02*
X151802500Y-104442000I0J100000D01*
G01*
G37*
G36*
G01*
X151802500Y-103792000D02*
X151802500Y-103592000D01*
G75*
G02*
X151902500Y-103492000I100000J0D01*
G01*
X153177500Y-103492000D01*
G75*
G02*
X153277500Y-103592000I0J-100000D01*
G01*
X153277500Y-103792000D01*
G75*
G02*
X153177500Y-103892000I-100000J0D01*
G01*
X151902500Y-103892000D01*
G75*
G02*
X151802500Y-103792000I0J100000D01*
G01*
G37*
%TD*%
D28*
%TO.C,J8*%
X93162500Y-111294000D03*
D27*
X93162500Y-108754000D03*
%TD*%
D28*
%TO.C,J11*%
X99703000Y-110024000D03*
D27*
X97163000Y-110024000D03*
%TD*%
M02*
