M48
; DRILL file {KiCad 5.99.0+really5.1.12+dfsg1-1} date Thu 16 Dec 2021 04:23:33 PM CST
; FORMAT={3:3/ absolute / metric / suppress leading zeros}
; #@! TF.CreationDate,2021-12-16T16:23:33+08:00
; #@! TF.GenerationSoftware,Kicad,Pcbnew,5.99.0+really5.1.12+dfsg1-1
FMAT,2
METRIC,TZ
T1C0.300
T2C0.400
T3C0.406
T4C1.000
T5C1.016
T6C3.200
T7C0.650
%
G90
G05
T1
X91740Y-68680
X91740Y-69380
X91740Y-70080
X91740Y-70780
X91740Y-79880
X91740Y-80480
X91740Y-81080
X91740Y-81780
X91740Y-82380
X91740Y-86180
X92340Y-86180
X92440Y-82380
X92440Y-96580
X92540Y-68680
X92940Y-86180
X93240Y-68680
X93240Y-82380
X93540Y-86180
X93940Y-82380
X93940Y-97480
X93940Y-98080
X93940Y-98680
X93940Y-99280
X93988Y-91418
X94140Y-86180
X94340Y-68680
X94340Y-69380
X94340Y-70080
X94340Y-70680
X94510Y-80810
X94540Y-79980
X94540Y-81580
X94540Y-82380
X94540Y-97480
X94540Y-98080
X94540Y-98680
X94540Y-99280
X94740Y-84380
X94740Y-84980
X94740Y-85580
X94740Y-86180
X95910Y-80810
X95940Y-68680
X95940Y-69480
X95940Y-70180
X95940Y-70780
X95940Y-79980
X95940Y-81680
X95940Y-82380
X96640Y-74180
X96740Y-68680
X96740Y-76780
X96740Y-82380
X97440Y-68680
X97440Y-82380
X98140Y-82380
X98840Y-66880
X98840Y-68880
X98840Y-69680
X98840Y-70480
X98840Y-71180
X98840Y-79980
X98840Y-80680
X98840Y-81480
X98840Y-82380
X99440Y-67380
X100340Y-65080
X100529Y-82769
X100529Y-94086
X101440Y-84580
X101440Y-85180
X101440Y-85780
X101440Y-86380
X102040Y-84580
X102040Y-85180
X102040Y-85780
X102040Y-86380
X102116Y-63835
X102640Y-86380
X103240Y-86380
X103767Y-101261
X103767Y-103357
X103767Y-105579
X103840Y-86380
X104240Y-75480
X104338Y-67796
X104440Y-84580
X104440Y-85180
X104440Y-85780
X104440Y-86380
X106440Y-71480
X107577Y-103420
X107577Y-101261
X107740Y-69380
X107740Y-99980
X107940Y-78480
X107940Y-80780
X108911Y-88117
X108911Y-90276
X108911Y-92498
X108911Y-93641
X109040Y-71380
X109068Y-96251
X109540Y-79280
X109840Y-67080
X110592Y-78935
X111768Y-85894
X114740Y-71580
X114940Y-83580
X115140Y-102180
X115540Y-97180
X115940Y-71580
X115940Y-86780
X117540Y-75380
X118115Y-104205
X118340Y-105980
X118365Y-108780
X118499Y-94022
X118740Y-83580
X118740Y-101580
X118753Y-90403
X118787Y-80999
X118940Y-111780
X120640Y-104880
X120640Y-105580
X120640Y-106280
X120976Y-69680
X121340Y-104880
X121340Y-106280
X121350Y-105620
X121600Y-102440
X121940Y-69180
X121940Y-108780
X121992Y-72686
X122040Y-104880
X122040Y-105580
X122040Y-106280
X122115Y-100205
X123340Y-107980
X124340Y-103980
X124940Y-100180
X125140Y-101580
X125340Y-66580
X125340Y-67680
X125368Y-77322
X125640Y-84580
X125640Y-85180
X125640Y-85780
X126540Y-109180
X127040Y-81680
X127262Y-95610
X127262Y-97769
X128024Y-112183
X128443Y-77322
X130183Y-112183
X131400Y-100400
X131440Y-97280
X132342Y-91482
X132977Y-67987
X133100Y-96100
X133233Y-102727
X133548Y-99278
X134000Y-98800
X135040Y-107280
X135072Y-101452
X135095Y-73080
X135540Y-97380
X135700Y-96400
X136343Y-101452
X137100Y-76100
X139645Y-85386
X139806Y-101452
X140026Y-75735
X141004Y-83799
X141013Y-85399
X141042Y-86974
X141169Y-93387
X142629Y-95673
X143518Y-71035
X143899Y-87799
X143899Y-90911
X144752Y-83901
X144788Y-95673
X145487Y-104563
X145487Y-106468
X145487Y-107611
X145690Y-96562
X145739Y-71037
X145931Y-83926
X146185Y-68686
X146490Y-97324
X147261Y-83926
X147290Y-98149
X147391Y-87037
X148090Y-91863
X148199Y-103692
X148598Y-75798
X148979Y-99419
X149140Y-68580
X149551Y-72496
X149551Y-74019
X149677Y-83926
X149678Y-80052
X150047Y-101437
X150439Y-89386
X150439Y-91736
X150757Y-75797
X151099Y-73504
X151138Y-71988
X151265Y-105007
X151265Y-107167
X151421Y-88437
X152408Y-87037
X152408Y-90593
X152535Y-99293
X153361Y-81576
X153742Y-75798
X154186Y-67606
X154694Y-99293
X155647Y-83799
X156790Y-99292
X157490Y-71799
X157526Y-68841
X157552Y-84624
X157679Y-103738
X157679Y-105007
X157996Y-78528
X158314Y-65447
X158758Y-99293
X158822Y-90339
X158949Y-74598
X159012Y-88498
X159139Y-71797
X159457Y-103738
X159901Y-79925
X160726Y-95102
X162695Y-95102
X163140Y-67606
X163266Y-89006
X163457Y-74972
X165934Y-102966
X165940Y-88080
X166340Y-86180
X166374Y-87387
X167140Y-84080
X167140Y-94721
X167140Y-95991
X167458Y-79671
X167740Y-93380
X167839Y-71988
X167989Y-75013
X168283Y-97261
X168283Y-94721
X168300Y-84300
X169869Y-82080
X171522Y-89006
X171522Y-92244
X171585Y-79671
X172474Y-70908
X172474Y-73004
X172474Y-77512
X172474Y-83477
X172474Y-87863
X172474Y-98403
X173427Y-93451
X173540Y-87780
X176665Y-97261
X176729Y-73829
X177871Y-78592
X178379Y-82973
X178380Y-84243
X178443Y-72559
X178443Y-93451
X178443Y-95991
X179015Y-70908
X181682Y-76369
T2
X114340Y-76980
X119740Y-78380
X120740Y-78380
X121740Y-78380
T3
X100560Y-72115
X100577Y-74352
X100577Y-76572
X100577Y-78782
X172292Y-105569
X172292Y-107875
X173647Y-103704
X173647Y-109740
X175840Y-102992
X175840Y-110453
X178033Y-103704
X178033Y-109740
X179388Y-105569
X179388Y-107875
T4
X93163Y-108754
X93163Y-111294
X97163Y-110024
X99703Y-110024
X113800Y-62780
X116340Y-62780
X118880Y-62780
X121420Y-62780
X123960Y-62780
X126500Y-62780
X131580Y-62780
X133612Y-82592
X133612Y-85132
X133612Y-87672
X133612Y-90212
X133612Y-92752
X134120Y-62780
X134120Y-111074
X136660Y-62780
X136660Y-111074
X139200Y-62780
X139200Y-111074
X141740Y-111074
X144280Y-62780
X146820Y-62780
X146820Y-111040
X149360Y-62780
X149360Y-111040
X151900Y-62780
X151900Y-111040
X154440Y-111040
X156980Y-62780
X156980Y-111040
X159520Y-62780
X159520Y-111040
X162060Y-62780
X162060Y-111040
X164600Y-62780
X164600Y-111040
X167140Y-62780
X169680Y-62780
X172220Y-62780
X174760Y-62780
X184920Y-67860
X184920Y-70400
X184920Y-72940
X184920Y-75480
X184920Y-78020
X184920Y-80560
X184920Y-83100
X184920Y-85640
X184920Y-88180
X184920Y-90720
X184920Y-93260
X184920Y-95800
X184920Y-98340
X184920Y-100880
X187460Y-67860
X187460Y-70400
X187460Y-72940
X187460Y-75480
X187460Y-78020
X187460Y-80560
X187460Y-83100
X187460Y-85640
X187460Y-88180
X187460Y-90720
X187460Y-93260
X187460Y-95800
X187460Y-98340
X187460Y-100880
T5
X94306Y-102277
X94306Y-104817
X96846Y-102277
X96846Y-104817
X99386Y-102277
X99386Y-104817
X101926Y-102277
X101926Y-104817
T6
X104880Y-111020
X106150Y-62770
X181090Y-62780
X187420Y-111010
T7
X96640Y-72590
X96640Y-78370
T0
M30
