G04 #@! TF.GenerationSoftware,KiCad,Pcbnew,5.99.0+really5.1.12+dfsg1-1*
G04 #@! TF.CreationDate,2022-03-07T16:35:47+08:00*
G04 #@! TF.ProjectId,PSLab,50534c61-622e-46b6-9963-61645f706362,v6.0-beta*
G04 #@! TF.SameCoordinates,Original*
G04 #@! TF.FileFunction,Soldermask,Top*
G04 #@! TF.FilePolarity,Negative*
%FSLAX46Y46*%
G04 Gerber Fmt 4.6, Leading zero omitted, Abs format (unit mm)*
G04 Created by KiCad (PCBNEW 5.99.0+really5.1.12+dfsg1-1) date 2022-03-07 16:35:47*
%MOMM*%
%LPD*%
G01*
G04 APERTURE LIST*
%ADD10C,0.100000*%
%ADD11R,1.060000X0.650000*%
%ADD12R,0.650000X2.000000*%
%ADD13R,1.200000X0.900000*%
%ADD14R,2.600000X2.600000*%
%ADD15O,1.727200X1.727200*%
%ADD16R,1.727200X1.727200*%
%ADD17R,1.400000X1.200000*%
%ADD18R,2.200000X1.200000*%
%ADD19R,1.400000X1.600000*%
%ADD20R,1.600000X0.700000*%
%ADD21C,1.000000*%
%ADD22C,0.800000*%
%ADD23R,2.400000X2.000000*%
%ADD24R,0.800000X1.200000*%
%ADD25R,1.060000X0.400000*%
%ADD26R,1.500000X3.400000*%
%ADD27R,1.000000X2.600000*%
%ADD28R,1.500000X2.020000*%
%ADD29R,1.450000X0.600000*%
%ADD30R,1.450000X0.300000*%
%ADD31C,0.650000*%
%ADD32R,2.000000X0.650000*%
%ADD33O,0.700000X0.200000*%
%ADD34O,0.200000X0.700000*%
%ADD35R,1.600000X1.600000*%
%ADD36R,1.300000X0.900000*%
%ADD37R,1.500000X1.000000*%
%ADD38O,1.700000X1.700000*%
%ADD39R,1.700000X1.700000*%
%ADD40R,1.500000X0.550000*%
%ADD41R,0.550000X1.500000*%
%ADD42R,1.000000X1.400000*%
%ADD43R,1.200000X1.400000*%
%ADD44C,10.200000*%
%ADD45C,1.500000*%
%ADD46R,0.900000X0.800000*%
%ADD47R,0.800000X0.900000*%
%ADD48R,1.000000X1.000000*%
%ADD49R,1.700000X1.300000*%
%ADD50C,5.600000*%
%ADD51R,1.800000X1.000000*%
G04 APERTURE END LIST*
D10*
G36*
X119725000Y-59950000D02*
G01*
X119475000Y-59950000D01*
X119475000Y-59425000D01*
X119725000Y-59425000D01*
X119725000Y-59950000D01*
G37*
X119725000Y-59950000D02*
X119475000Y-59950000D01*
X119475000Y-59425000D01*
X119725000Y-59425000D01*
X119725000Y-59950000D01*
G36*
X134100000Y-95000000D02*
G01*
X133700000Y-95000000D01*
X133700000Y-93800000D01*
X134100000Y-93800000D01*
X134100000Y-95000000D01*
G37*
X134100000Y-95000000D02*
X133700000Y-95000000D01*
X133700000Y-93800000D01*
X134100000Y-93800000D01*
X134100000Y-95000000D01*
G36*
X125600000Y-74000000D02*
G01*
X124600000Y-74000000D01*
X124600000Y-72240000D01*
X125600000Y-72240000D01*
X125600000Y-74000000D01*
G37*
X125600000Y-74000000D02*
X124600000Y-74000000D01*
X124600000Y-72240000D01*
X125600000Y-72240000D01*
X125600000Y-74000000D01*
G36*
X127800000Y-72900000D02*
G01*
X126700000Y-72900000D01*
X126700000Y-72500000D01*
X127800000Y-72500000D01*
X127800000Y-72900000D01*
G37*
X127800000Y-72900000D02*
X126700000Y-72900000D01*
X126700000Y-72500000D01*
X127800000Y-72500000D01*
X127800000Y-72900000D01*
G36*
X132300000Y-96600000D02*
G01*
X131400000Y-96600000D01*
X131400000Y-96100000D01*
X132300000Y-96100000D01*
X132300000Y-96600000D01*
G37*
X132300000Y-96600000D02*
X131400000Y-96600000D01*
X131400000Y-96100000D01*
X132300000Y-96100000D01*
X132300000Y-96600000D01*
G36*
X110940000Y-73780000D02*
G01*
X110340000Y-73780000D01*
X110340000Y-72480000D01*
X110940000Y-72480000D01*
X110940000Y-73780000D01*
G37*
X110940000Y-73780000D02*
X110340000Y-73780000D01*
X110340000Y-72480000D01*
X110940000Y-72480000D01*
X110940000Y-73780000D01*
G36*
X126050000Y-53349398D02*
G01*
X126025466Y-53349398D01*
X125976635Y-53344588D01*
X125928510Y-53335016D01*
X125881555Y-53320772D01*
X125836222Y-53301995D01*
X125792949Y-53278864D01*
X125752150Y-53251604D01*
X125714221Y-53220476D01*
X125679524Y-53185779D01*
X125648396Y-53147850D01*
X125621136Y-53107051D01*
X125598005Y-53063778D01*
X125579228Y-53018445D01*
X125564984Y-52971490D01*
X125555412Y-52923365D01*
X125550602Y-52874534D01*
X125550602Y-52850000D01*
X125550000Y-52850000D01*
X125550000Y-52350000D01*
X125550602Y-52350000D01*
X125550602Y-52325466D01*
X125555412Y-52276635D01*
X125564984Y-52228510D01*
X125579228Y-52181555D01*
X125598005Y-52136222D01*
X125621136Y-52092949D01*
X125648396Y-52052150D01*
X125679524Y-52014221D01*
X125714221Y-51979524D01*
X125752150Y-51948396D01*
X125792949Y-51921136D01*
X125836222Y-51898005D01*
X125881555Y-51879228D01*
X125928510Y-51864984D01*
X125976635Y-51855412D01*
X126025466Y-51850602D01*
X126050000Y-51850602D01*
X126050000Y-51850000D01*
X126550000Y-51850000D01*
X126550000Y-53350000D01*
X126050000Y-53350000D01*
X126050000Y-53349398D01*
G37*
G36*
X126850000Y-51850000D02*
G01*
X127350000Y-51850000D01*
X127350000Y-51850602D01*
X127374534Y-51850602D01*
X127423365Y-51855412D01*
X127471490Y-51864984D01*
X127518445Y-51879228D01*
X127563778Y-51898005D01*
X127607051Y-51921136D01*
X127647850Y-51948396D01*
X127685779Y-51979524D01*
X127720476Y-52014221D01*
X127751604Y-52052150D01*
X127778864Y-52092949D01*
X127801995Y-52136222D01*
X127820772Y-52181555D01*
X127835016Y-52228510D01*
X127844588Y-52276635D01*
X127849398Y-52325466D01*
X127849398Y-52350000D01*
X127850000Y-52350000D01*
X127850000Y-52850000D01*
X127849398Y-52850000D01*
X127849398Y-52874534D01*
X127844588Y-52923365D01*
X127835016Y-52971490D01*
X127820772Y-53018445D01*
X127801995Y-53063778D01*
X127778864Y-53107051D01*
X127751604Y-53147850D01*
X127720476Y-53185779D01*
X127685779Y-53220476D01*
X127647850Y-53251604D01*
X127607051Y-53278864D01*
X127563778Y-53301995D01*
X127518445Y-53320772D01*
X127471490Y-53335016D01*
X127423365Y-53344588D01*
X127374534Y-53349398D01*
X127350000Y-53349398D01*
X127350000Y-53350000D01*
X126850000Y-53350000D01*
X126850000Y-51850000D01*
G37*
G36*
X135150000Y-51550000D02*
G01*
X135650000Y-51550000D01*
X135650000Y-51550602D01*
X135674534Y-51550602D01*
X135723365Y-51555412D01*
X135771490Y-51564984D01*
X135818445Y-51579228D01*
X135863778Y-51598005D01*
X135907051Y-51621136D01*
X135947850Y-51648396D01*
X135985779Y-51679524D01*
X136020476Y-51714221D01*
X136051604Y-51752150D01*
X136078864Y-51792949D01*
X136101995Y-51836222D01*
X136120772Y-51881555D01*
X136135016Y-51928510D01*
X136144588Y-51976635D01*
X136149398Y-52025466D01*
X136149398Y-52050000D01*
X136150000Y-52050000D01*
X136150000Y-52550000D01*
X136149398Y-52550000D01*
X136149398Y-52574534D01*
X136144588Y-52623365D01*
X136135016Y-52671490D01*
X136120772Y-52718445D01*
X136101995Y-52763778D01*
X136078864Y-52807051D01*
X136051604Y-52847850D01*
X136020476Y-52885779D01*
X135985779Y-52920476D01*
X135947850Y-52951604D01*
X135907051Y-52978864D01*
X135863778Y-53001995D01*
X135818445Y-53020772D01*
X135771490Y-53035016D01*
X135723365Y-53044588D01*
X135674534Y-53049398D01*
X135650000Y-53049398D01*
X135650000Y-53050000D01*
X135150000Y-53050000D01*
X135150000Y-51550000D01*
G37*
G36*
X134350000Y-53049398D02*
G01*
X134325466Y-53049398D01*
X134276635Y-53044588D01*
X134228510Y-53035016D01*
X134181555Y-53020772D01*
X134136222Y-53001995D01*
X134092949Y-52978864D01*
X134052150Y-52951604D01*
X134014221Y-52920476D01*
X133979524Y-52885779D01*
X133948396Y-52847850D01*
X133921136Y-52807051D01*
X133898005Y-52763778D01*
X133879228Y-52718445D01*
X133864984Y-52671490D01*
X133855412Y-52623365D01*
X133850602Y-52574534D01*
X133850602Y-52550000D01*
X133850000Y-52550000D01*
X133850000Y-52050000D01*
X133850602Y-52050000D01*
X133850602Y-52025466D01*
X133855412Y-51976635D01*
X133864984Y-51928510D01*
X133879228Y-51881555D01*
X133898005Y-51836222D01*
X133921136Y-51792949D01*
X133948396Y-51752150D01*
X133979524Y-51714221D01*
X134014221Y-51679524D01*
X134052150Y-51648396D01*
X134092949Y-51621136D01*
X134136222Y-51598005D01*
X134181555Y-51579228D01*
X134228510Y-51564984D01*
X134276635Y-51555412D01*
X134325466Y-51550602D01*
X134350000Y-51550602D01*
X134350000Y-51550000D01*
X134850000Y-51550000D01*
X134850000Y-53050000D01*
X134350000Y-53050000D01*
X134350000Y-53049398D01*
G37*
D11*
X134600000Y-58900000D03*
X134600000Y-57950000D03*
X134600000Y-59850000D03*
X132400000Y-59850000D03*
X132400000Y-58900000D03*
X132400000Y-57950000D03*
G36*
G01*
X130975000Y-58475000D02*
X130425000Y-58475000D01*
G75*
G02*
X130225000Y-58275000I0J200000D01*
G01*
X130225000Y-57875000D01*
G75*
G02*
X130425000Y-57675000I200000J0D01*
G01*
X130975000Y-57675000D01*
G75*
G02*
X131175000Y-57875000I0J-200000D01*
G01*
X131175000Y-58275000D01*
G75*
G02*
X130975000Y-58475000I-200000J0D01*
G01*
G37*
G36*
G01*
X130975000Y-60125000D02*
X130425000Y-60125000D01*
G75*
G02*
X130225000Y-59925000I0J200000D01*
G01*
X130225000Y-59525000D01*
G75*
G02*
X130425000Y-59325000I200000J0D01*
G01*
X130975000Y-59325000D01*
G75*
G02*
X131175000Y-59525000I0J-200000D01*
G01*
X131175000Y-59925000D01*
G75*
G02*
X130975000Y-60125000I-200000J0D01*
G01*
G37*
G36*
G01*
X130975000Y-54950000D02*
X130975000Y-55450000D01*
G75*
G02*
X130750000Y-55675000I-225000J0D01*
G01*
X130300000Y-55675000D01*
G75*
G02*
X130075000Y-55450000I0J225000D01*
G01*
X130075000Y-54950000D01*
G75*
G02*
X130300000Y-54725000I225000J0D01*
G01*
X130750000Y-54725000D01*
G75*
G02*
X130975000Y-54950000I0J-225000D01*
G01*
G37*
G36*
G01*
X132525000Y-54950000D02*
X132525000Y-55450000D01*
G75*
G02*
X132300000Y-55675000I-225000J0D01*
G01*
X131850000Y-55675000D01*
G75*
G02*
X131625000Y-55450000I0J225000D01*
G01*
X131625000Y-54950000D01*
G75*
G02*
X131850000Y-54725000I225000J0D01*
G01*
X132300000Y-54725000D01*
G75*
G02*
X132525000Y-54950000I0J-225000D01*
G01*
G37*
G36*
G01*
X137650000Y-59725000D02*
X138150000Y-59725000D01*
G75*
G02*
X138375000Y-59950000I0J-225000D01*
G01*
X138375000Y-60400000D01*
G75*
G02*
X138150000Y-60625000I-225000J0D01*
G01*
X137650000Y-60625000D01*
G75*
G02*
X137425000Y-60400000I0J225000D01*
G01*
X137425000Y-59950000D01*
G75*
G02*
X137650000Y-59725000I225000J0D01*
G01*
G37*
G36*
G01*
X137650000Y-58175000D02*
X138150000Y-58175000D01*
G75*
G02*
X138375000Y-58400000I0J-225000D01*
G01*
X138375000Y-58850000D01*
G75*
G02*
X138150000Y-59075000I-225000J0D01*
G01*
X137650000Y-59075000D01*
G75*
G02*
X137425000Y-58850000I0J225000D01*
G01*
X137425000Y-58400000D01*
G75*
G02*
X137650000Y-58175000I225000J0D01*
G01*
G37*
G36*
G01*
X133350000Y-55825000D02*
X133850000Y-55825000D01*
G75*
G02*
X134075000Y-56050000I0J-225000D01*
G01*
X134075000Y-56500000D01*
G75*
G02*
X133850000Y-56725000I-225000J0D01*
G01*
X133350000Y-56725000D01*
G75*
G02*
X133125000Y-56500000I0J225000D01*
G01*
X133125000Y-56050000D01*
G75*
G02*
X133350000Y-55825000I225000J0D01*
G01*
G37*
G36*
G01*
X133350000Y-54275000D02*
X133850000Y-54275000D01*
G75*
G02*
X134075000Y-54500000I0J-225000D01*
G01*
X134075000Y-54950000D01*
G75*
G02*
X133850000Y-55175000I-225000J0D01*
G01*
X133350000Y-55175000D01*
G75*
G02*
X133125000Y-54950000I0J225000D01*
G01*
X133125000Y-54500000D01*
G75*
G02*
X133350000Y-54275000I225000J0D01*
G01*
G37*
G36*
G01*
X135275000Y-61525000D02*
X135275000Y-62075000D01*
G75*
G02*
X135075000Y-62275000I-200000J0D01*
G01*
X134675000Y-62275000D01*
G75*
G02*
X134475000Y-62075000I0J200000D01*
G01*
X134475000Y-61525000D01*
G75*
G02*
X134675000Y-61325000I200000J0D01*
G01*
X135075000Y-61325000D01*
G75*
G02*
X135275000Y-61525000I0J-200000D01*
G01*
G37*
G36*
G01*
X136925000Y-61525000D02*
X136925000Y-62075000D01*
G75*
G02*
X136725000Y-62275000I-200000J0D01*
G01*
X136325000Y-62275000D01*
G75*
G02*
X136125000Y-62075000I0J200000D01*
G01*
X136125000Y-61525000D01*
G75*
G02*
X136325000Y-61325000I200000J0D01*
G01*
X136725000Y-61325000D01*
G75*
G02*
X136925000Y-61525000I0J-200000D01*
G01*
G37*
G36*
G01*
X136025000Y-59825000D02*
X136575000Y-59825000D01*
G75*
G02*
X136775000Y-60025000I0J-200000D01*
G01*
X136775000Y-60425000D01*
G75*
G02*
X136575000Y-60625000I-200000J0D01*
G01*
X136025000Y-60625000D01*
G75*
G02*
X135825000Y-60425000I0J200000D01*
G01*
X135825000Y-60025000D01*
G75*
G02*
X136025000Y-59825000I200000J0D01*
G01*
G37*
G36*
G01*
X136025000Y-58175000D02*
X136575000Y-58175000D01*
G75*
G02*
X136775000Y-58375000I0J-200000D01*
G01*
X136775000Y-58775000D01*
G75*
G02*
X136575000Y-58975000I-200000J0D01*
G01*
X136025000Y-58975000D01*
G75*
G02*
X135825000Y-58775000I0J200000D01*
G01*
X135825000Y-58375000D01*
G75*
G02*
X136025000Y-58175000I200000J0D01*
G01*
G37*
D12*
X136400000Y-54850000D03*
X135050000Y-54850000D03*
G36*
G01*
X130975000Y-52975000D02*
X130975000Y-53475000D01*
G75*
G02*
X130750000Y-53700000I-225000J0D01*
G01*
X130300000Y-53700000D01*
G75*
G02*
X130075000Y-53475000I0J225000D01*
G01*
X130075000Y-52975000D01*
G75*
G02*
X130300000Y-52750000I225000J0D01*
G01*
X130750000Y-52750000D01*
G75*
G02*
X130975000Y-52975000I0J-225000D01*
G01*
G37*
G36*
G01*
X132525000Y-52975000D02*
X132525000Y-53475000D01*
G75*
G02*
X132300000Y-53700000I-225000J0D01*
G01*
X131850000Y-53700000D01*
G75*
G02*
X131625000Y-53475000I0J225000D01*
G01*
X131625000Y-52975000D01*
G75*
G02*
X131850000Y-52750000I225000J0D01*
G01*
X132300000Y-52750000D01*
G75*
G02*
X132525000Y-52975000I0J-225000D01*
G01*
G37*
G36*
G01*
X131425000Y-65775000D02*
X131925000Y-65775000D01*
G75*
G02*
X132150000Y-66000000I0J-225000D01*
G01*
X132150000Y-66450000D01*
G75*
G02*
X131925000Y-66675000I-225000J0D01*
G01*
X131425000Y-66675000D01*
G75*
G02*
X131200000Y-66450000I0J225000D01*
G01*
X131200000Y-66000000D01*
G75*
G02*
X131425000Y-65775000I225000J0D01*
G01*
G37*
G36*
G01*
X131425000Y-64225000D02*
X131925000Y-64225000D01*
G75*
G02*
X132150000Y-64450000I0J-225000D01*
G01*
X132150000Y-64900000D01*
G75*
G02*
X131925000Y-65125000I-225000J0D01*
G01*
X131425000Y-65125000D01*
G75*
G02*
X131200000Y-64900000I0J225000D01*
G01*
X131200000Y-64450000D01*
G75*
G02*
X131425000Y-64225000I225000J0D01*
G01*
G37*
D13*
X141300000Y-58250000D03*
X141300000Y-54950000D03*
X135700000Y-73050000D03*
X135700000Y-69750000D03*
G36*
G01*
X127300000Y-65375000D02*
X126800000Y-65375000D01*
G75*
G02*
X126575000Y-65150000I0J225000D01*
G01*
X126575000Y-64700000D01*
G75*
G02*
X126800000Y-64475000I225000J0D01*
G01*
X127300000Y-64475000D01*
G75*
G02*
X127525000Y-64700000I0J-225000D01*
G01*
X127525000Y-65150000D01*
G75*
G02*
X127300000Y-65375000I-225000J0D01*
G01*
G37*
G36*
G01*
X127300000Y-66925000D02*
X126800000Y-66925000D01*
G75*
G02*
X126575000Y-66700000I0J225000D01*
G01*
X126575000Y-66250000D01*
G75*
G02*
X126800000Y-66025000I225000J0D01*
G01*
X127300000Y-66025000D01*
G75*
G02*
X127525000Y-66250000I0J-225000D01*
G01*
X127525000Y-66700000D01*
G75*
G02*
X127300000Y-66925000I-225000J0D01*
G01*
G37*
G36*
G01*
X130425000Y-87350000D02*
X130425000Y-86850000D01*
G75*
G02*
X130650000Y-86625000I225000J0D01*
G01*
X131100000Y-86625000D01*
G75*
G02*
X131325000Y-86850000I0J-225000D01*
G01*
X131325000Y-87350000D01*
G75*
G02*
X131100000Y-87575000I-225000J0D01*
G01*
X130650000Y-87575000D01*
G75*
G02*
X130425000Y-87350000I0J225000D01*
G01*
G37*
G36*
G01*
X128875000Y-87350000D02*
X128875000Y-86850000D01*
G75*
G02*
X129100000Y-86625000I225000J0D01*
G01*
X129550000Y-86625000D01*
G75*
G02*
X129775000Y-86850000I0J-225000D01*
G01*
X129775000Y-87350000D01*
G75*
G02*
X129550000Y-87575000I-225000J0D01*
G01*
X129100000Y-87575000D01*
G75*
G02*
X128875000Y-87350000I0J225000D01*
G01*
G37*
G36*
G01*
X134750000Y-93425000D02*
X135250000Y-93425000D01*
G75*
G02*
X135475000Y-93650000I0J-225000D01*
G01*
X135475000Y-94100000D01*
G75*
G02*
X135250000Y-94325000I-225000J0D01*
G01*
X134750000Y-94325000D01*
G75*
G02*
X134525000Y-94100000I0J225000D01*
G01*
X134525000Y-93650000D01*
G75*
G02*
X134750000Y-93425000I225000J0D01*
G01*
G37*
G36*
G01*
X134750000Y-91875000D02*
X135250000Y-91875000D01*
G75*
G02*
X135475000Y-92100000I0J-225000D01*
G01*
X135475000Y-92550000D01*
G75*
G02*
X135250000Y-92775000I-225000J0D01*
G01*
X134750000Y-92775000D01*
G75*
G02*
X134525000Y-92550000I0J225000D01*
G01*
X134525000Y-92100000D01*
G75*
G02*
X134750000Y-91875000I225000J0D01*
G01*
G37*
G36*
G01*
X188114000Y-80020500D02*
X188114000Y-79720500D01*
G75*
G02*
X188264000Y-79570500I150000J0D01*
G01*
X189914000Y-79570500D01*
G75*
G02*
X190064000Y-79720500I0J-150000D01*
G01*
X190064000Y-80020500D01*
G75*
G02*
X189914000Y-80170500I-150000J0D01*
G01*
X188264000Y-80170500D01*
G75*
G02*
X188114000Y-80020500I0J150000D01*
G01*
G37*
G36*
G01*
X188114000Y-81290500D02*
X188114000Y-80990500D01*
G75*
G02*
X188264000Y-80840500I150000J0D01*
G01*
X189914000Y-80840500D01*
G75*
G02*
X190064000Y-80990500I0J-150000D01*
G01*
X190064000Y-81290500D01*
G75*
G02*
X189914000Y-81440500I-150000J0D01*
G01*
X188264000Y-81440500D01*
G75*
G02*
X188114000Y-81290500I0J150000D01*
G01*
G37*
G36*
G01*
X188114000Y-82560500D02*
X188114000Y-82260500D01*
G75*
G02*
X188264000Y-82110500I150000J0D01*
G01*
X189914000Y-82110500D01*
G75*
G02*
X190064000Y-82260500I0J-150000D01*
G01*
X190064000Y-82560500D01*
G75*
G02*
X189914000Y-82710500I-150000J0D01*
G01*
X188264000Y-82710500D01*
G75*
G02*
X188114000Y-82560500I0J150000D01*
G01*
G37*
G36*
G01*
X188114000Y-83830500D02*
X188114000Y-83530500D01*
G75*
G02*
X188264000Y-83380500I150000J0D01*
G01*
X189914000Y-83380500D01*
G75*
G02*
X190064000Y-83530500I0J-150000D01*
G01*
X190064000Y-83830500D01*
G75*
G02*
X189914000Y-83980500I-150000J0D01*
G01*
X188264000Y-83980500D01*
G75*
G02*
X188114000Y-83830500I0J150000D01*
G01*
G37*
G36*
G01*
X183164000Y-83830500D02*
X183164000Y-83530500D01*
G75*
G02*
X183314000Y-83380500I150000J0D01*
G01*
X184964000Y-83380500D01*
G75*
G02*
X185114000Y-83530500I0J-150000D01*
G01*
X185114000Y-83830500D01*
G75*
G02*
X184964000Y-83980500I-150000J0D01*
G01*
X183314000Y-83980500D01*
G75*
G02*
X183164000Y-83830500I0J150000D01*
G01*
G37*
G36*
G01*
X183164000Y-82560500D02*
X183164000Y-82260500D01*
G75*
G02*
X183314000Y-82110500I150000J0D01*
G01*
X184964000Y-82110500D01*
G75*
G02*
X185114000Y-82260500I0J-150000D01*
G01*
X185114000Y-82560500D01*
G75*
G02*
X184964000Y-82710500I-150000J0D01*
G01*
X183314000Y-82710500D01*
G75*
G02*
X183164000Y-82560500I0J150000D01*
G01*
G37*
G36*
G01*
X183164000Y-81290500D02*
X183164000Y-80990500D01*
G75*
G02*
X183314000Y-80840500I150000J0D01*
G01*
X184964000Y-80840500D01*
G75*
G02*
X185114000Y-80990500I0J-150000D01*
G01*
X185114000Y-81290500D01*
G75*
G02*
X184964000Y-81440500I-150000J0D01*
G01*
X183314000Y-81440500D01*
G75*
G02*
X183164000Y-81290500I0J150000D01*
G01*
G37*
G36*
G01*
X183164000Y-80020500D02*
X183164000Y-79720500D01*
G75*
G02*
X183314000Y-79570500I150000J0D01*
G01*
X184964000Y-79570500D01*
G75*
G02*
X185114000Y-79720500I0J-150000D01*
G01*
X185114000Y-80020500D01*
G75*
G02*
X184964000Y-80170500I-150000J0D01*
G01*
X183314000Y-80170500D01*
G75*
G02*
X183164000Y-80020500I0J150000D01*
G01*
G37*
G36*
G01*
X161675000Y-61850000D02*
X161675000Y-62350000D01*
G75*
G02*
X161450000Y-62575000I-225000J0D01*
G01*
X161000000Y-62575000D01*
G75*
G02*
X160775000Y-62350000I0J225000D01*
G01*
X160775000Y-61850000D01*
G75*
G02*
X161000000Y-61625000I225000J0D01*
G01*
X161450000Y-61625000D01*
G75*
G02*
X161675000Y-61850000I0J-225000D01*
G01*
G37*
G36*
G01*
X163225000Y-61850000D02*
X163225000Y-62350000D01*
G75*
G02*
X163000000Y-62575000I-225000J0D01*
G01*
X162550000Y-62575000D01*
G75*
G02*
X162325000Y-62350000I0J225000D01*
G01*
X162325000Y-61850000D01*
G75*
G02*
X162550000Y-61625000I225000J0D01*
G01*
X163000000Y-61625000D01*
G75*
G02*
X163225000Y-61850000I0J-225000D01*
G01*
G37*
G36*
G01*
X178610000Y-73765000D02*
X178610000Y-73465000D01*
G75*
G02*
X178760000Y-73315000I150000J0D01*
G01*
X180410000Y-73315000D01*
G75*
G02*
X180560000Y-73465000I0J-150000D01*
G01*
X180560000Y-73765000D01*
G75*
G02*
X180410000Y-73915000I-150000J0D01*
G01*
X178760000Y-73915000D01*
G75*
G02*
X178610000Y-73765000I0J150000D01*
G01*
G37*
G36*
G01*
X178610000Y-75035000D02*
X178610000Y-74735000D01*
G75*
G02*
X178760000Y-74585000I150000J0D01*
G01*
X180410000Y-74585000D01*
G75*
G02*
X180560000Y-74735000I0J-150000D01*
G01*
X180560000Y-75035000D01*
G75*
G02*
X180410000Y-75185000I-150000J0D01*
G01*
X178760000Y-75185000D01*
G75*
G02*
X178610000Y-75035000I0J150000D01*
G01*
G37*
G36*
G01*
X178610000Y-76305000D02*
X178610000Y-76005000D01*
G75*
G02*
X178760000Y-75855000I150000J0D01*
G01*
X180410000Y-75855000D01*
G75*
G02*
X180560000Y-76005000I0J-150000D01*
G01*
X180560000Y-76305000D01*
G75*
G02*
X180410000Y-76455000I-150000J0D01*
G01*
X178760000Y-76455000D01*
G75*
G02*
X178610000Y-76305000I0J150000D01*
G01*
G37*
G36*
G01*
X178610000Y-77575000D02*
X178610000Y-77275000D01*
G75*
G02*
X178760000Y-77125000I150000J0D01*
G01*
X180410000Y-77125000D01*
G75*
G02*
X180560000Y-77275000I0J-150000D01*
G01*
X180560000Y-77575000D01*
G75*
G02*
X180410000Y-77725000I-150000J0D01*
G01*
X178760000Y-77725000D01*
G75*
G02*
X178610000Y-77575000I0J150000D01*
G01*
G37*
G36*
G01*
X173660000Y-77575000D02*
X173660000Y-77275000D01*
G75*
G02*
X173810000Y-77125000I150000J0D01*
G01*
X175460000Y-77125000D01*
G75*
G02*
X175610000Y-77275000I0J-150000D01*
G01*
X175610000Y-77575000D01*
G75*
G02*
X175460000Y-77725000I-150000J0D01*
G01*
X173810000Y-77725000D01*
G75*
G02*
X173660000Y-77575000I0J150000D01*
G01*
G37*
G36*
G01*
X173660000Y-76305000D02*
X173660000Y-76005000D01*
G75*
G02*
X173810000Y-75855000I150000J0D01*
G01*
X175460000Y-75855000D01*
G75*
G02*
X175610000Y-76005000I0J-150000D01*
G01*
X175610000Y-76305000D01*
G75*
G02*
X175460000Y-76455000I-150000J0D01*
G01*
X173810000Y-76455000D01*
G75*
G02*
X173660000Y-76305000I0J150000D01*
G01*
G37*
G36*
G01*
X173660000Y-75035000D02*
X173660000Y-74735000D01*
G75*
G02*
X173810000Y-74585000I150000J0D01*
G01*
X175460000Y-74585000D01*
G75*
G02*
X175610000Y-74735000I0J-150000D01*
G01*
X175610000Y-75035000D01*
G75*
G02*
X175460000Y-75185000I-150000J0D01*
G01*
X173810000Y-75185000D01*
G75*
G02*
X173660000Y-75035000I0J150000D01*
G01*
G37*
G36*
G01*
X173660000Y-73765000D02*
X173660000Y-73465000D01*
G75*
G02*
X173810000Y-73315000I150000J0D01*
G01*
X175460000Y-73315000D01*
G75*
G02*
X175610000Y-73465000I0J-150000D01*
G01*
X175610000Y-73765000D01*
G75*
G02*
X175460000Y-73915000I-150000J0D01*
G01*
X173810000Y-73915000D01*
G75*
G02*
X173660000Y-73765000I0J150000D01*
G01*
G37*
G36*
G01*
X167775000Y-73325000D02*
X167775000Y-73875000D01*
G75*
G02*
X167575000Y-74075000I-200000J0D01*
G01*
X167175000Y-74075000D01*
G75*
G02*
X166975000Y-73875000I0J200000D01*
G01*
X166975000Y-73325000D01*
G75*
G02*
X167175000Y-73125000I200000J0D01*
G01*
X167575000Y-73125000D01*
G75*
G02*
X167775000Y-73325000I0J-200000D01*
G01*
G37*
G36*
G01*
X169425000Y-73325000D02*
X169425000Y-73875000D01*
G75*
G02*
X169225000Y-74075000I-200000J0D01*
G01*
X168825000Y-74075000D01*
G75*
G02*
X168625000Y-73875000I0J200000D01*
G01*
X168625000Y-73325000D01*
G75*
G02*
X168825000Y-73125000I200000J0D01*
G01*
X169225000Y-73125000D01*
G75*
G02*
X169425000Y-73325000I0J-200000D01*
G01*
G37*
G36*
G01*
X171725000Y-73875000D02*
X171725000Y-73325000D01*
G75*
G02*
X171925000Y-73125000I200000J0D01*
G01*
X172325000Y-73125000D01*
G75*
G02*
X172525000Y-73325000I0J-200000D01*
G01*
X172525000Y-73875000D01*
G75*
G02*
X172325000Y-74075000I-200000J0D01*
G01*
X171925000Y-74075000D01*
G75*
G02*
X171725000Y-73875000I0J200000D01*
G01*
G37*
G36*
G01*
X170075000Y-73875000D02*
X170075000Y-73325000D01*
G75*
G02*
X170275000Y-73125000I200000J0D01*
G01*
X170675000Y-73125000D01*
G75*
G02*
X170875000Y-73325000I0J-200000D01*
G01*
X170875000Y-73875000D01*
G75*
G02*
X170675000Y-74075000I-200000J0D01*
G01*
X170275000Y-74075000D01*
G75*
G02*
X170075000Y-73875000I0J200000D01*
G01*
G37*
D14*
X131000000Y-92050000D03*
G36*
G01*
X129625000Y-90462500D02*
X129625000Y-89762500D01*
G75*
G02*
X129687500Y-89700000I62500J0D01*
G01*
X129812500Y-89700000D01*
G75*
G02*
X129875000Y-89762500I0J-62500D01*
G01*
X129875000Y-90462500D01*
G75*
G02*
X129812500Y-90525000I-62500J0D01*
G01*
X129687500Y-90525000D01*
G75*
G02*
X129625000Y-90462500I0J62500D01*
G01*
G37*
G36*
G01*
X130125000Y-90462500D02*
X130125000Y-89762500D01*
G75*
G02*
X130187500Y-89700000I62500J0D01*
G01*
X130312500Y-89700000D01*
G75*
G02*
X130375000Y-89762500I0J-62500D01*
G01*
X130375000Y-90462500D01*
G75*
G02*
X130312500Y-90525000I-62500J0D01*
G01*
X130187500Y-90525000D01*
G75*
G02*
X130125000Y-90462500I0J62500D01*
G01*
G37*
G36*
G01*
X130625000Y-90462500D02*
X130625000Y-89762500D01*
G75*
G02*
X130687500Y-89700000I62500J0D01*
G01*
X130812500Y-89700000D01*
G75*
G02*
X130875000Y-89762500I0J-62500D01*
G01*
X130875000Y-90462500D01*
G75*
G02*
X130812500Y-90525000I-62500J0D01*
G01*
X130687500Y-90525000D01*
G75*
G02*
X130625000Y-90462500I0J62500D01*
G01*
G37*
G36*
G01*
X131125000Y-90462500D02*
X131125000Y-89762500D01*
G75*
G02*
X131187500Y-89700000I62500J0D01*
G01*
X131312500Y-89700000D01*
G75*
G02*
X131375000Y-89762500I0J-62500D01*
G01*
X131375000Y-90462500D01*
G75*
G02*
X131312500Y-90525000I-62500J0D01*
G01*
X131187500Y-90525000D01*
G75*
G02*
X131125000Y-90462500I0J62500D01*
G01*
G37*
G36*
G01*
X131625000Y-90462500D02*
X131625000Y-89762500D01*
G75*
G02*
X131687500Y-89700000I62500J0D01*
G01*
X131812500Y-89700000D01*
G75*
G02*
X131875000Y-89762500I0J-62500D01*
G01*
X131875000Y-90462500D01*
G75*
G02*
X131812500Y-90525000I-62500J0D01*
G01*
X131687500Y-90525000D01*
G75*
G02*
X131625000Y-90462500I0J62500D01*
G01*
G37*
G36*
G01*
X132125000Y-90462500D02*
X132125000Y-89762500D01*
G75*
G02*
X132187500Y-89700000I62500J0D01*
G01*
X132312500Y-89700000D01*
G75*
G02*
X132375000Y-89762500I0J-62500D01*
G01*
X132375000Y-90462500D01*
G75*
G02*
X132312500Y-90525000I-62500J0D01*
G01*
X132187500Y-90525000D01*
G75*
G02*
X132125000Y-90462500I0J62500D01*
G01*
G37*
G36*
G01*
X132525000Y-90862500D02*
X132525000Y-90737500D01*
G75*
G02*
X132587500Y-90675000I62500J0D01*
G01*
X133287500Y-90675000D01*
G75*
G02*
X133350000Y-90737500I0J-62500D01*
G01*
X133350000Y-90862500D01*
G75*
G02*
X133287500Y-90925000I-62500J0D01*
G01*
X132587500Y-90925000D01*
G75*
G02*
X132525000Y-90862500I0J62500D01*
G01*
G37*
G36*
G01*
X132525000Y-91362500D02*
X132525000Y-91237500D01*
G75*
G02*
X132587500Y-91175000I62500J0D01*
G01*
X133287500Y-91175000D01*
G75*
G02*
X133350000Y-91237500I0J-62500D01*
G01*
X133350000Y-91362500D01*
G75*
G02*
X133287500Y-91425000I-62500J0D01*
G01*
X132587500Y-91425000D01*
G75*
G02*
X132525000Y-91362500I0J62500D01*
G01*
G37*
G36*
G01*
X132525000Y-91862500D02*
X132525000Y-91737500D01*
G75*
G02*
X132587500Y-91675000I62500J0D01*
G01*
X133287500Y-91675000D01*
G75*
G02*
X133350000Y-91737500I0J-62500D01*
G01*
X133350000Y-91862500D01*
G75*
G02*
X133287500Y-91925000I-62500J0D01*
G01*
X132587500Y-91925000D01*
G75*
G02*
X132525000Y-91862500I0J62500D01*
G01*
G37*
G36*
G01*
X132525000Y-92362500D02*
X132525000Y-92237500D01*
G75*
G02*
X132587500Y-92175000I62500J0D01*
G01*
X133287500Y-92175000D01*
G75*
G02*
X133350000Y-92237500I0J-62500D01*
G01*
X133350000Y-92362500D01*
G75*
G02*
X133287500Y-92425000I-62500J0D01*
G01*
X132587500Y-92425000D01*
G75*
G02*
X132525000Y-92362500I0J62500D01*
G01*
G37*
G36*
G01*
X132525000Y-92862500D02*
X132525000Y-92737500D01*
G75*
G02*
X132587500Y-92675000I62500J0D01*
G01*
X133287500Y-92675000D01*
G75*
G02*
X133350000Y-92737500I0J-62500D01*
G01*
X133350000Y-92862500D01*
G75*
G02*
X133287500Y-92925000I-62500J0D01*
G01*
X132587500Y-92925000D01*
G75*
G02*
X132525000Y-92862500I0J62500D01*
G01*
G37*
G36*
G01*
X132525000Y-93362500D02*
X132525000Y-93237500D01*
G75*
G02*
X132587500Y-93175000I62500J0D01*
G01*
X133287500Y-93175000D01*
G75*
G02*
X133350000Y-93237500I0J-62500D01*
G01*
X133350000Y-93362500D01*
G75*
G02*
X133287500Y-93425000I-62500J0D01*
G01*
X132587500Y-93425000D01*
G75*
G02*
X132525000Y-93362500I0J62500D01*
G01*
G37*
G36*
G01*
X132125000Y-94337500D02*
X132125000Y-93637500D01*
G75*
G02*
X132187500Y-93575000I62500J0D01*
G01*
X132312500Y-93575000D01*
G75*
G02*
X132375000Y-93637500I0J-62500D01*
G01*
X132375000Y-94337500D01*
G75*
G02*
X132312500Y-94400000I-62500J0D01*
G01*
X132187500Y-94400000D01*
G75*
G02*
X132125000Y-94337500I0J62500D01*
G01*
G37*
G36*
G01*
X131625000Y-94337500D02*
X131625000Y-93637500D01*
G75*
G02*
X131687500Y-93575000I62500J0D01*
G01*
X131812500Y-93575000D01*
G75*
G02*
X131875000Y-93637500I0J-62500D01*
G01*
X131875000Y-94337500D01*
G75*
G02*
X131812500Y-94400000I-62500J0D01*
G01*
X131687500Y-94400000D01*
G75*
G02*
X131625000Y-94337500I0J62500D01*
G01*
G37*
G36*
G01*
X131125000Y-94337500D02*
X131125000Y-93637500D01*
G75*
G02*
X131187500Y-93575000I62500J0D01*
G01*
X131312500Y-93575000D01*
G75*
G02*
X131375000Y-93637500I0J-62500D01*
G01*
X131375000Y-94337500D01*
G75*
G02*
X131312500Y-94400000I-62500J0D01*
G01*
X131187500Y-94400000D01*
G75*
G02*
X131125000Y-94337500I0J62500D01*
G01*
G37*
G36*
G01*
X130625000Y-94337500D02*
X130625000Y-93637500D01*
G75*
G02*
X130687500Y-93575000I62500J0D01*
G01*
X130812500Y-93575000D01*
G75*
G02*
X130875000Y-93637500I0J-62500D01*
G01*
X130875000Y-94337500D01*
G75*
G02*
X130812500Y-94400000I-62500J0D01*
G01*
X130687500Y-94400000D01*
G75*
G02*
X130625000Y-94337500I0J62500D01*
G01*
G37*
G36*
G01*
X130125000Y-94337500D02*
X130125000Y-93637500D01*
G75*
G02*
X130187500Y-93575000I62500J0D01*
G01*
X130312500Y-93575000D01*
G75*
G02*
X130375000Y-93637500I0J-62500D01*
G01*
X130375000Y-94337500D01*
G75*
G02*
X130312500Y-94400000I-62500J0D01*
G01*
X130187500Y-94400000D01*
G75*
G02*
X130125000Y-94337500I0J62500D01*
G01*
G37*
G36*
G01*
X129625000Y-94337500D02*
X129625000Y-93637500D01*
G75*
G02*
X129687500Y-93575000I62500J0D01*
G01*
X129812500Y-93575000D01*
G75*
G02*
X129875000Y-93637500I0J-62500D01*
G01*
X129875000Y-94337500D01*
G75*
G02*
X129812500Y-94400000I-62500J0D01*
G01*
X129687500Y-94400000D01*
G75*
G02*
X129625000Y-94337500I0J62500D01*
G01*
G37*
G36*
G01*
X128650000Y-93362500D02*
X128650000Y-93237500D01*
G75*
G02*
X128712500Y-93175000I62500J0D01*
G01*
X129412500Y-93175000D01*
G75*
G02*
X129475000Y-93237500I0J-62500D01*
G01*
X129475000Y-93362500D01*
G75*
G02*
X129412500Y-93425000I-62500J0D01*
G01*
X128712500Y-93425000D01*
G75*
G02*
X128650000Y-93362500I0J62500D01*
G01*
G37*
G36*
G01*
X128650000Y-92862500D02*
X128650000Y-92737500D01*
G75*
G02*
X128712500Y-92675000I62500J0D01*
G01*
X129412500Y-92675000D01*
G75*
G02*
X129475000Y-92737500I0J-62500D01*
G01*
X129475000Y-92862500D01*
G75*
G02*
X129412500Y-92925000I-62500J0D01*
G01*
X128712500Y-92925000D01*
G75*
G02*
X128650000Y-92862500I0J62500D01*
G01*
G37*
G36*
G01*
X128650000Y-92362500D02*
X128650000Y-92237500D01*
G75*
G02*
X128712500Y-92175000I62500J0D01*
G01*
X129412500Y-92175000D01*
G75*
G02*
X129475000Y-92237500I0J-62500D01*
G01*
X129475000Y-92362500D01*
G75*
G02*
X129412500Y-92425000I-62500J0D01*
G01*
X128712500Y-92425000D01*
G75*
G02*
X128650000Y-92362500I0J62500D01*
G01*
G37*
G36*
G01*
X128650000Y-91862500D02*
X128650000Y-91737500D01*
G75*
G02*
X128712500Y-91675000I62500J0D01*
G01*
X129412500Y-91675000D01*
G75*
G02*
X129475000Y-91737500I0J-62500D01*
G01*
X129475000Y-91862500D01*
G75*
G02*
X129412500Y-91925000I-62500J0D01*
G01*
X128712500Y-91925000D01*
G75*
G02*
X128650000Y-91862500I0J62500D01*
G01*
G37*
G36*
G01*
X128650000Y-91362500D02*
X128650000Y-91237500D01*
G75*
G02*
X128712500Y-91175000I62500J0D01*
G01*
X129412500Y-91175000D01*
G75*
G02*
X129475000Y-91237500I0J-62500D01*
G01*
X129475000Y-91362500D01*
G75*
G02*
X129412500Y-91425000I-62500J0D01*
G01*
X128712500Y-91425000D01*
G75*
G02*
X128650000Y-91362500I0J62500D01*
G01*
G37*
G36*
G01*
X128650000Y-90862500D02*
X128650000Y-90737500D01*
G75*
G02*
X128712500Y-90675000I62500J0D01*
G01*
X129412500Y-90675000D01*
G75*
G02*
X129475000Y-90737500I0J-62500D01*
G01*
X129475000Y-90862500D01*
G75*
G02*
X129412500Y-90925000I-62500J0D01*
G01*
X128712500Y-90925000D01*
G75*
G02*
X128650000Y-90862500I0J62500D01*
G01*
G37*
G36*
G01*
X126975000Y-88975000D02*
X126975000Y-88425000D01*
G75*
G02*
X127175000Y-88225000I200000J0D01*
G01*
X127575000Y-88225000D01*
G75*
G02*
X127775000Y-88425000I0J-200000D01*
G01*
X127775000Y-88975000D01*
G75*
G02*
X127575000Y-89175000I-200000J0D01*
G01*
X127175000Y-89175000D01*
G75*
G02*
X126975000Y-88975000I0J200000D01*
G01*
G37*
G36*
G01*
X125325000Y-88975000D02*
X125325000Y-88425000D01*
G75*
G02*
X125525000Y-88225000I200000J0D01*
G01*
X125925000Y-88225000D01*
G75*
G02*
X126125000Y-88425000I0J-200000D01*
G01*
X126125000Y-88975000D01*
G75*
G02*
X125925000Y-89175000I-200000J0D01*
G01*
X125525000Y-89175000D01*
G75*
G02*
X125325000Y-88975000I0J200000D01*
G01*
G37*
G36*
G01*
X132775000Y-86825000D02*
X132775000Y-87375000D01*
G75*
G02*
X132575000Y-87575000I-200000J0D01*
G01*
X132175000Y-87575000D01*
G75*
G02*
X131975000Y-87375000I0J200000D01*
G01*
X131975000Y-86825000D01*
G75*
G02*
X132175000Y-86625000I200000J0D01*
G01*
X132575000Y-86625000D01*
G75*
G02*
X132775000Y-86825000I0J-200000D01*
G01*
G37*
G36*
G01*
X134425000Y-86825000D02*
X134425000Y-87375000D01*
G75*
G02*
X134225000Y-87575000I-200000J0D01*
G01*
X133825000Y-87575000D01*
G75*
G02*
X133625000Y-87375000I0J200000D01*
G01*
X133625000Y-86825000D01*
G75*
G02*
X133825000Y-86625000I200000J0D01*
G01*
X134225000Y-86625000D01*
G75*
G02*
X134425000Y-86825000I0J-200000D01*
G01*
G37*
D15*
X110985500Y-88697000D03*
X110985500Y-91237000D03*
X108445500Y-88697000D03*
X108445500Y-91237000D03*
X105905500Y-88697000D03*
X105905500Y-91237000D03*
X103365500Y-88697000D03*
D16*
X103365500Y-91237000D03*
D17*
X115200000Y-70150000D03*
D18*
X105600000Y-85650000D03*
X105600000Y-70150000D03*
D19*
X115200000Y-84750000D03*
D20*
X115700000Y-71350000D03*
X115700000Y-72450000D03*
X115700000Y-73550000D03*
X115700000Y-74650000D03*
X115700000Y-75750000D03*
X115700000Y-76850000D03*
X115700000Y-77950000D03*
X115700000Y-79050000D03*
X115700000Y-80150000D03*
D21*
X105200000Y-80950000D03*
X105200000Y-72950000D03*
D22*
X129600000Y-74700000D03*
X145000000Y-53250000D03*
X145650000Y-58975000D03*
X132050000Y-67600000D03*
X176160000Y-88120000D03*
D23*
X153700000Y-60850000D03*
X153700000Y-64550000D03*
G36*
G01*
X120600000Y-87256250D02*
X120600000Y-86343750D01*
G75*
G02*
X120843750Y-86100000I243750J0D01*
G01*
X121331250Y-86100000D01*
G75*
G02*
X121575000Y-86343750I0J-243750D01*
G01*
X121575000Y-87256250D01*
G75*
G02*
X121331250Y-87500000I-243750J0D01*
G01*
X120843750Y-87500000D01*
G75*
G02*
X120600000Y-87256250I0J243750D01*
G01*
G37*
G36*
G01*
X118725000Y-87256250D02*
X118725000Y-86343750D01*
G75*
G02*
X118968750Y-86100000I243750J0D01*
G01*
X119456250Y-86100000D01*
G75*
G02*
X119700000Y-86343750I0J-243750D01*
G01*
X119700000Y-87256250D01*
G75*
G02*
X119456250Y-87500000I-243750J0D01*
G01*
X118968750Y-87500000D01*
G75*
G02*
X118725000Y-87256250I0J243750D01*
G01*
G37*
G36*
G01*
X124375000Y-87125000D02*
X124375000Y-86575000D01*
G75*
G02*
X124575000Y-86375000I200000J0D01*
G01*
X124975000Y-86375000D01*
G75*
G02*
X125175000Y-86575000I0J-200000D01*
G01*
X125175000Y-87125000D01*
G75*
G02*
X124975000Y-87325000I-200000J0D01*
G01*
X124575000Y-87325000D01*
G75*
G02*
X124375000Y-87125000I0J200000D01*
G01*
G37*
G36*
G01*
X122725000Y-87125000D02*
X122725000Y-86575000D01*
G75*
G02*
X122925000Y-86375000I200000J0D01*
G01*
X123325000Y-86375000D01*
G75*
G02*
X123525000Y-86575000I0J-200000D01*
G01*
X123525000Y-87125000D01*
G75*
G02*
X123325000Y-87325000I-200000J0D01*
G01*
X122925000Y-87325000D01*
G75*
G02*
X122725000Y-87125000I0J200000D01*
G01*
G37*
G36*
G01*
X130350000Y-67075000D02*
X129850000Y-67075000D01*
G75*
G02*
X129625000Y-66850000I0J225000D01*
G01*
X129625000Y-66400000D01*
G75*
G02*
X129850000Y-66175000I225000J0D01*
G01*
X130350000Y-66175000D01*
G75*
G02*
X130575000Y-66400000I0J-225000D01*
G01*
X130575000Y-66850000D01*
G75*
G02*
X130350000Y-67075000I-225000J0D01*
G01*
G37*
G36*
G01*
X130350000Y-68625000D02*
X129850000Y-68625000D01*
G75*
G02*
X129625000Y-68400000I0J225000D01*
G01*
X129625000Y-67950000D01*
G75*
G02*
X129850000Y-67725000I225000J0D01*
G01*
X130350000Y-67725000D01*
G75*
G02*
X130575000Y-67950000I0J-225000D01*
G01*
X130575000Y-68400000D01*
G75*
G02*
X130350000Y-68625000I-225000J0D01*
G01*
G37*
G36*
G01*
X128800000Y-67075000D02*
X128300000Y-67075000D01*
G75*
G02*
X128075000Y-66850000I0J225000D01*
G01*
X128075000Y-66400000D01*
G75*
G02*
X128300000Y-66175000I225000J0D01*
G01*
X128800000Y-66175000D01*
G75*
G02*
X129025000Y-66400000I0J-225000D01*
G01*
X129025000Y-66850000D01*
G75*
G02*
X128800000Y-67075000I-225000J0D01*
G01*
G37*
G36*
G01*
X128800000Y-68625000D02*
X128300000Y-68625000D01*
G75*
G02*
X128075000Y-68400000I0J225000D01*
G01*
X128075000Y-67950000D01*
G75*
G02*
X128300000Y-67725000I225000J0D01*
G01*
X128800000Y-67725000D01*
G75*
G02*
X129025000Y-67950000I0J-225000D01*
G01*
X129025000Y-68400000D01*
G75*
G02*
X128800000Y-68625000I-225000J0D01*
G01*
G37*
G36*
G01*
X126375000Y-54674999D02*
X126375000Y-56525001D01*
G75*
G02*
X126125001Y-56775000I-249999J0D01*
G01*
X125299999Y-56775000D01*
G75*
G02*
X125050000Y-56525001I0J249999D01*
G01*
X125050000Y-54674999D01*
G75*
G02*
X125299999Y-54425000I249999J0D01*
G01*
X126125001Y-54425000D01*
G75*
G02*
X126375000Y-54674999I0J-249999D01*
G01*
G37*
G36*
G01*
X129450000Y-54674999D02*
X129450000Y-56525001D01*
G75*
G02*
X129200001Y-56775000I-249999J0D01*
G01*
X128374999Y-56775000D01*
G75*
G02*
X128125000Y-56525001I0J249999D01*
G01*
X128125000Y-54674999D01*
G75*
G02*
X128374999Y-54425000I249999J0D01*
G01*
X129200001Y-54425000D01*
G75*
G02*
X129450000Y-54674999I0J-249999D01*
G01*
G37*
G36*
G01*
X170325000Y-88275000D02*
X170325000Y-87725000D01*
G75*
G02*
X170525000Y-87525000I200000J0D01*
G01*
X170925000Y-87525000D01*
G75*
G02*
X171125000Y-87725000I0J-200000D01*
G01*
X171125000Y-88275000D01*
G75*
G02*
X170925000Y-88475000I-200000J0D01*
G01*
X170525000Y-88475000D01*
G75*
G02*
X170325000Y-88275000I0J200000D01*
G01*
G37*
G36*
G01*
X168675000Y-88275000D02*
X168675000Y-87725000D01*
G75*
G02*
X168875000Y-87525000I200000J0D01*
G01*
X169275000Y-87525000D01*
G75*
G02*
X169475000Y-87725000I0J-200000D01*
G01*
X169475000Y-88275000D01*
G75*
G02*
X169275000Y-88475000I-200000J0D01*
G01*
X168875000Y-88475000D01*
G75*
G02*
X168675000Y-88275000I0J200000D01*
G01*
G37*
G36*
G01*
X167025000Y-88275000D02*
X167025000Y-87725000D01*
G75*
G02*
X167225000Y-87525000I200000J0D01*
G01*
X167625000Y-87525000D01*
G75*
G02*
X167825000Y-87725000I0J-200000D01*
G01*
X167825000Y-88275000D01*
G75*
G02*
X167625000Y-88475000I-200000J0D01*
G01*
X167225000Y-88475000D01*
G75*
G02*
X167025000Y-88275000I0J200000D01*
G01*
G37*
G36*
G01*
X165375000Y-88275000D02*
X165375000Y-87725000D01*
G75*
G02*
X165575000Y-87525000I200000J0D01*
G01*
X165975000Y-87525000D01*
G75*
G02*
X166175000Y-87725000I0J-200000D01*
G01*
X166175000Y-88275000D01*
G75*
G02*
X165975000Y-88475000I-200000J0D01*
G01*
X165575000Y-88475000D01*
G75*
G02*
X165375000Y-88275000I0J200000D01*
G01*
G37*
D24*
X146100000Y-82098000D03*
X143700000Y-82098000D03*
X143700000Y-85898000D03*
X146100000Y-85898000D03*
X146100000Y-62300000D03*
X143700000Y-62300000D03*
X143700000Y-66100000D03*
X146100000Y-66100000D03*
X140900000Y-62300000D03*
X138500000Y-62300000D03*
X138500000Y-66100000D03*
X140900000Y-66100000D03*
G36*
G01*
X172650000Y-89443750D02*
X172650000Y-90356250D01*
G75*
G02*
X172406250Y-90600000I-243750J0D01*
G01*
X171918750Y-90600000D01*
G75*
G02*
X171675000Y-90356250I0J243750D01*
G01*
X171675000Y-89443750D01*
G75*
G02*
X171918750Y-89200000I243750J0D01*
G01*
X172406250Y-89200000D01*
G75*
G02*
X172650000Y-89443750I0J-243750D01*
G01*
G37*
G36*
G01*
X174525000Y-89443750D02*
X174525000Y-90356250D01*
G75*
G02*
X174281250Y-90600000I-243750J0D01*
G01*
X173793750Y-90600000D01*
G75*
G02*
X173550000Y-90356250I0J243750D01*
G01*
X173550000Y-89443750D01*
G75*
G02*
X173793750Y-89200000I243750J0D01*
G01*
X174281250Y-89200000D01*
G75*
G02*
X174525000Y-89443750I0J-243750D01*
G01*
G37*
G36*
G01*
X168415000Y-84205000D02*
X168415000Y-84405000D01*
G75*
G02*
X168315000Y-84505000I-100000J0D01*
G01*
X167040000Y-84505000D01*
G75*
G02*
X166940000Y-84405000I0J100000D01*
G01*
X166940000Y-84205000D01*
G75*
G02*
X167040000Y-84105000I100000J0D01*
G01*
X168315000Y-84105000D01*
G75*
G02*
X168415000Y-84205000I0J-100000D01*
G01*
G37*
G36*
G01*
X168415000Y-83555000D02*
X168415000Y-83755000D01*
G75*
G02*
X168315000Y-83855000I-100000J0D01*
G01*
X167040000Y-83855000D01*
G75*
G02*
X166940000Y-83755000I0J100000D01*
G01*
X166940000Y-83555000D01*
G75*
G02*
X167040000Y-83455000I100000J0D01*
G01*
X168315000Y-83455000D01*
G75*
G02*
X168415000Y-83555000I0J-100000D01*
G01*
G37*
G36*
G01*
X168415000Y-82905000D02*
X168415000Y-83105000D01*
G75*
G02*
X168315000Y-83205000I-100000J0D01*
G01*
X167040000Y-83205000D01*
G75*
G02*
X166940000Y-83105000I0J100000D01*
G01*
X166940000Y-82905000D01*
G75*
G02*
X167040000Y-82805000I100000J0D01*
G01*
X168315000Y-82805000D01*
G75*
G02*
X168415000Y-82905000I0J-100000D01*
G01*
G37*
G36*
G01*
X168415000Y-82255000D02*
X168415000Y-82455000D01*
G75*
G02*
X168315000Y-82555000I-100000J0D01*
G01*
X167040000Y-82555000D01*
G75*
G02*
X166940000Y-82455000I0J100000D01*
G01*
X166940000Y-82255000D01*
G75*
G02*
X167040000Y-82155000I100000J0D01*
G01*
X168315000Y-82155000D01*
G75*
G02*
X168415000Y-82255000I0J-100000D01*
G01*
G37*
G36*
G01*
X168415000Y-81605000D02*
X168415000Y-81805000D01*
G75*
G02*
X168315000Y-81905000I-100000J0D01*
G01*
X167040000Y-81905000D01*
G75*
G02*
X166940000Y-81805000I0J100000D01*
G01*
X166940000Y-81605000D01*
G75*
G02*
X167040000Y-81505000I100000J0D01*
G01*
X168315000Y-81505000D01*
G75*
G02*
X168415000Y-81605000I0J-100000D01*
G01*
G37*
G36*
G01*
X168415000Y-80955000D02*
X168415000Y-81155000D01*
G75*
G02*
X168315000Y-81255000I-100000J0D01*
G01*
X167040000Y-81255000D01*
G75*
G02*
X166940000Y-81155000I0J100000D01*
G01*
X166940000Y-80955000D01*
G75*
G02*
X167040000Y-80855000I100000J0D01*
G01*
X168315000Y-80855000D01*
G75*
G02*
X168415000Y-80955000I0J-100000D01*
G01*
G37*
G36*
G01*
X168415000Y-80305000D02*
X168415000Y-80505000D01*
G75*
G02*
X168315000Y-80605000I-100000J0D01*
G01*
X167040000Y-80605000D01*
G75*
G02*
X166940000Y-80505000I0J100000D01*
G01*
X166940000Y-80305000D01*
G75*
G02*
X167040000Y-80205000I100000J0D01*
G01*
X168315000Y-80205000D01*
G75*
G02*
X168415000Y-80305000I0J-100000D01*
G01*
G37*
G36*
G01*
X168415000Y-79655000D02*
X168415000Y-79855000D01*
G75*
G02*
X168315000Y-79955000I-100000J0D01*
G01*
X167040000Y-79955000D01*
G75*
G02*
X166940000Y-79855000I0J100000D01*
G01*
X166940000Y-79655000D01*
G75*
G02*
X167040000Y-79555000I100000J0D01*
G01*
X168315000Y-79555000D01*
G75*
G02*
X168415000Y-79655000I0J-100000D01*
G01*
G37*
G36*
G01*
X174140000Y-79655000D02*
X174140000Y-79855000D01*
G75*
G02*
X174040000Y-79955000I-100000J0D01*
G01*
X172765000Y-79955000D01*
G75*
G02*
X172665000Y-79855000I0J100000D01*
G01*
X172665000Y-79655000D01*
G75*
G02*
X172765000Y-79555000I100000J0D01*
G01*
X174040000Y-79555000D01*
G75*
G02*
X174140000Y-79655000I0J-100000D01*
G01*
G37*
G36*
G01*
X174140000Y-80305000D02*
X174140000Y-80505000D01*
G75*
G02*
X174040000Y-80605000I-100000J0D01*
G01*
X172765000Y-80605000D01*
G75*
G02*
X172665000Y-80505000I0J100000D01*
G01*
X172665000Y-80305000D01*
G75*
G02*
X172765000Y-80205000I100000J0D01*
G01*
X174040000Y-80205000D01*
G75*
G02*
X174140000Y-80305000I0J-100000D01*
G01*
G37*
G36*
G01*
X174140000Y-80955000D02*
X174140000Y-81155000D01*
G75*
G02*
X174040000Y-81255000I-100000J0D01*
G01*
X172765000Y-81255000D01*
G75*
G02*
X172665000Y-81155000I0J100000D01*
G01*
X172665000Y-80955000D01*
G75*
G02*
X172765000Y-80855000I100000J0D01*
G01*
X174040000Y-80855000D01*
G75*
G02*
X174140000Y-80955000I0J-100000D01*
G01*
G37*
G36*
G01*
X174140000Y-81605000D02*
X174140000Y-81805000D01*
G75*
G02*
X174040000Y-81905000I-100000J0D01*
G01*
X172765000Y-81905000D01*
G75*
G02*
X172665000Y-81805000I0J100000D01*
G01*
X172665000Y-81605000D01*
G75*
G02*
X172765000Y-81505000I100000J0D01*
G01*
X174040000Y-81505000D01*
G75*
G02*
X174140000Y-81605000I0J-100000D01*
G01*
G37*
G36*
G01*
X174140000Y-82255000D02*
X174140000Y-82455000D01*
G75*
G02*
X174040000Y-82555000I-100000J0D01*
G01*
X172765000Y-82555000D01*
G75*
G02*
X172665000Y-82455000I0J100000D01*
G01*
X172665000Y-82255000D01*
G75*
G02*
X172765000Y-82155000I100000J0D01*
G01*
X174040000Y-82155000D01*
G75*
G02*
X174140000Y-82255000I0J-100000D01*
G01*
G37*
G36*
G01*
X174140000Y-82905000D02*
X174140000Y-83105000D01*
G75*
G02*
X174040000Y-83205000I-100000J0D01*
G01*
X172765000Y-83205000D01*
G75*
G02*
X172665000Y-83105000I0J100000D01*
G01*
X172665000Y-82905000D01*
G75*
G02*
X172765000Y-82805000I100000J0D01*
G01*
X174040000Y-82805000D01*
G75*
G02*
X174140000Y-82905000I0J-100000D01*
G01*
G37*
G36*
G01*
X174140000Y-83555000D02*
X174140000Y-83755000D01*
G75*
G02*
X174040000Y-83855000I-100000J0D01*
G01*
X172765000Y-83855000D01*
G75*
G02*
X172665000Y-83755000I0J100000D01*
G01*
X172665000Y-83555000D01*
G75*
G02*
X172765000Y-83455000I100000J0D01*
G01*
X174040000Y-83455000D01*
G75*
G02*
X174140000Y-83555000I0J-100000D01*
G01*
G37*
G36*
G01*
X174140000Y-84205000D02*
X174140000Y-84405000D01*
G75*
G02*
X174040000Y-84505000I-100000J0D01*
G01*
X172765000Y-84505000D01*
G75*
G02*
X172665000Y-84405000I0J100000D01*
G01*
X172665000Y-84205000D01*
G75*
G02*
X172765000Y-84105000I100000J0D01*
G01*
X174040000Y-84105000D01*
G75*
G02*
X174140000Y-84205000I0J-100000D01*
G01*
G37*
G36*
G01*
X160880000Y-56785000D02*
X160880000Y-56485000D01*
G75*
G02*
X161030000Y-56335000I150000J0D01*
G01*
X162680000Y-56335000D01*
G75*
G02*
X162830000Y-56485000I0J-150000D01*
G01*
X162830000Y-56785000D01*
G75*
G02*
X162680000Y-56935000I-150000J0D01*
G01*
X161030000Y-56935000D01*
G75*
G02*
X160880000Y-56785000I0J150000D01*
G01*
G37*
G36*
G01*
X160880000Y-58055000D02*
X160880000Y-57755000D01*
G75*
G02*
X161030000Y-57605000I150000J0D01*
G01*
X162680000Y-57605000D01*
G75*
G02*
X162830000Y-57755000I0J-150000D01*
G01*
X162830000Y-58055000D01*
G75*
G02*
X162680000Y-58205000I-150000J0D01*
G01*
X161030000Y-58205000D01*
G75*
G02*
X160880000Y-58055000I0J150000D01*
G01*
G37*
G36*
G01*
X160880000Y-59325000D02*
X160880000Y-59025000D01*
G75*
G02*
X161030000Y-58875000I150000J0D01*
G01*
X162680000Y-58875000D01*
G75*
G02*
X162830000Y-59025000I0J-150000D01*
G01*
X162830000Y-59325000D01*
G75*
G02*
X162680000Y-59475000I-150000J0D01*
G01*
X161030000Y-59475000D01*
G75*
G02*
X160880000Y-59325000I0J150000D01*
G01*
G37*
G36*
G01*
X160880000Y-60595000D02*
X160880000Y-60295000D01*
G75*
G02*
X161030000Y-60145000I150000J0D01*
G01*
X162680000Y-60145000D01*
G75*
G02*
X162830000Y-60295000I0J-150000D01*
G01*
X162830000Y-60595000D01*
G75*
G02*
X162680000Y-60745000I-150000J0D01*
G01*
X161030000Y-60745000D01*
G75*
G02*
X160880000Y-60595000I0J150000D01*
G01*
G37*
G36*
G01*
X155930000Y-60595000D02*
X155930000Y-60295000D01*
G75*
G02*
X156080000Y-60145000I150000J0D01*
G01*
X157730000Y-60145000D01*
G75*
G02*
X157880000Y-60295000I0J-150000D01*
G01*
X157880000Y-60595000D01*
G75*
G02*
X157730000Y-60745000I-150000J0D01*
G01*
X156080000Y-60745000D01*
G75*
G02*
X155930000Y-60595000I0J150000D01*
G01*
G37*
G36*
G01*
X155930000Y-59325000D02*
X155930000Y-59025000D01*
G75*
G02*
X156080000Y-58875000I150000J0D01*
G01*
X157730000Y-58875000D01*
G75*
G02*
X157880000Y-59025000I0J-150000D01*
G01*
X157880000Y-59325000D01*
G75*
G02*
X157730000Y-59475000I-150000J0D01*
G01*
X156080000Y-59475000D01*
G75*
G02*
X155930000Y-59325000I0J150000D01*
G01*
G37*
G36*
G01*
X155930000Y-58055000D02*
X155930000Y-57755000D01*
G75*
G02*
X156080000Y-57605000I150000J0D01*
G01*
X157730000Y-57605000D01*
G75*
G02*
X157880000Y-57755000I0J-150000D01*
G01*
X157880000Y-58055000D01*
G75*
G02*
X157730000Y-58205000I-150000J0D01*
G01*
X156080000Y-58205000D01*
G75*
G02*
X155930000Y-58055000I0J150000D01*
G01*
G37*
G36*
G01*
X155930000Y-56785000D02*
X155930000Y-56485000D01*
G75*
G02*
X156080000Y-56335000I150000J0D01*
G01*
X157730000Y-56335000D01*
G75*
G02*
X157880000Y-56485000I0J-150000D01*
G01*
X157880000Y-56785000D01*
G75*
G02*
X157730000Y-56935000I-150000J0D01*
G01*
X156080000Y-56935000D01*
G75*
G02*
X155930000Y-56785000I0J150000D01*
G01*
G37*
G36*
G01*
X172700000Y-68145000D02*
X172700000Y-67845000D01*
G75*
G02*
X172850000Y-67695000I150000J0D01*
G01*
X174500000Y-67695000D01*
G75*
G02*
X174650000Y-67845000I0J-150000D01*
G01*
X174650000Y-68145000D01*
G75*
G02*
X174500000Y-68295000I-150000J0D01*
G01*
X172850000Y-68295000D01*
G75*
G02*
X172700000Y-68145000I0J150000D01*
G01*
G37*
G36*
G01*
X172700000Y-69415000D02*
X172700000Y-69115000D01*
G75*
G02*
X172850000Y-68965000I150000J0D01*
G01*
X174500000Y-68965000D01*
G75*
G02*
X174650000Y-69115000I0J-150000D01*
G01*
X174650000Y-69415000D01*
G75*
G02*
X174500000Y-69565000I-150000J0D01*
G01*
X172850000Y-69565000D01*
G75*
G02*
X172700000Y-69415000I0J150000D01*
G01*
G37*
G36*
G01*
X172700000Y-70685000D02*
X172700000Y-70385000D01*
G75*
G02*
X172850000Y-70235000I150000J0D01*
G01*
X174500000Y-70235000D01*
G75*
G02*
X174650000Y-70385000I0J-150000D01*
G01*
X174650000Y-70685000D01*
G75*
G02*
X174500000Y-70835000I-150000J0D01*
G01*
X172850000Y-70835000D01*
G75*
G02*
X172700000Y-70685000I0J150000D01*
G01*
G37*
G36*
G01*
X172700000Y-71955000D02*
X172700000Y-71655000D01*
G75*
G02*
X172850000Y-71505000I150000J0D01*
G01*
X174500000Y-71505000D01*
G75*
G02*
X174650000Y-71655000I0J-150000D01*
G01*
X174650000Y-71955000D01*
G75*
G02*
X174500000Y-72105000I-150000J0D01*
G01*
X172850000Y-72105000D01*
G75*
G02*
X172700000Y-71955000I0J150000D01*
G01*
G37*
G36*
G01*
X167750000Y-71955000D02*
X167750000Y-71655000D01*
G75*
G02*
X167900000Y-71505000I150000J0D01*
G01*
X169550000Y-71505000D01*
G75*
G02*
X169700000Y-71655000I0J-150000D01*
G01*
X169700000Y-71955000D01*
G75*
G02*
X169550000Y-72105000I-150000J0D01*
G01*
X167900000Y-72105000D01*
G75*
G02*
X167750000Y-71955000I0J150000D01*
G01*
G37*
G36*
G01*
X167750000Y-70685000D02*
X167750000Y-70385000D01*
G75*
G02*
X167900000Y-70235000I150000J0D01*
G01*
X169550000Y-70235000D01*
G75*
G02*
X169700000Y-70385000I0J-150000D01*
G01*
X169700000Y-70685000D01*
G75*
G02*
X169550000Y-70835000I-150000J0D01*
G01*
X167900000Y-70835000D01*
G75*
G02*
X167750000Y-70685000I0J150000D01*
G01*
G37*
G36*
G01*
X167750000Y-69415000D02*
X167750000Y-69115000D01*
G75*
G02*
X167900000Y-68965000I150000J0D01*
G01*
X169550000Y-68965000D01*
G75*
G02*
X169700000Y-69115000I0J-150000D01*
G01*
X169700000Y-69415000D01*
G75*
G02*
X169550000Y-69565000I-150000J0D01*
G01*
X167900000Y-69565000D01*
G75*
G02*
X167750000Y-69415000I0J150000D01*
G01*
G37*
G36*
G01*
X167750000Y-68145000D02*
X167750000Y-67845000D01*
G75*
G02*
X167900000Y-67695000I150000J0D01*
G01*
X169550000Y-67695000D01*
G75*
G02*
X169700000Y-67845000I0J-150000D01*
G01*
X169700000Y-68145000D01*
G75*
G02*
X169550000Y-68295000I-150000J0D01*
G01*
X167900000Y-68295000D01*
G75*
G02*
X167750000Y-68145000I0J150000D01*
G01*
G37*
D25*
X179960000Y-69840000D03*
X179960000Y-70490000D03*
X179960000Y-71150000D03*
X179960000Y-71800000D03*
X177760000Y-71800000D03*
X177760000Y-71150000D03*
X177760000Y-70490000D03*
X177760000Y-69840000D03*
X178810000Y-82340000D03*
X178810000Y-82990000D03*
X178810000Y-83650000D03*
X178810000Y-84300000D03*
X176610000Y-84300000D03*
X176610000Y-83650000D03*
X176610000Y-82990000D03*
X176610000Y-82340000D03*
G36*
G01*
X172605000Y-76885000D02*
X172055000Y-76885000D01*
G75*
G02*
X171855000Y-76685000I0J200000D01*
G01*
X171855000Y-76285000D01*
G75*
G02*
X172055000Y-76085000I200000J0D01*
G01*
X172605000Y-76085000D01*
G75*
G02*
X172805000Y-76285000I0J-200000D01*
G01*
X172805000Y-76685000D01*
G75*
G02*
X172605000Y-76885000I-200000J0D01*
G01*
G37*
G36*
G01*
X172605000Y-78535000D02*
X172055000Y-78535000D01*
G75*
G02*
X171855000Y-78335000I0J200000D01*
G01*
X171855000Y-77935000D01*
G75*
G02*
X172055000Y-77735000I200000J0D01*
G01*
X172605000Y-77735000D01*
G75*
G02*
X172805000Y-77935000I0J-200000D01*
G01*
X172805000Y-78335000D01*
G75*
G02*
X172605000Y-78535000I-200000J0D01*
G01*
G37*
G36*
G01*
X156875000Y-54525000D02*
X156875000Y-55075000D01*
G75*
G02*
X156675000Y-55275000I-200000J0D01*
G01*
X156275000Y-55275000D01*
G75*
G02*
X156075000Y-55075000I0J200000D01*
G01*
X156075000Y-54525000D01*
G75*
G02*
X156275000Y-54325000I200000J0D01*
G01*
X156675000Y-54325000D01*
G75*
G02*
X156875000Y-54525000I0J-200000D01*
G01*
G37*
G36*
G01*
X158525000Y-54525000D02*
X158525000Y-55075000D01*
G75*
G02*
X158325000Y-55275000I-200000J0D01*
G01*
X157925000Y-55275000D01*
G75*
G02*
X157725000Y-55075000I0J200000D01*
G01*
X157725000Y-54525000D01*
G75*
G02*
X157925000Y-54325000I200000J0D01*
G01*
X158325000Y-54325000D01*
G75*
G02*
X158525000Y-54525000I0J-200000D01*
G01*
G37*
G36*
G01*
X170955000Y-76885000D02*
X170405000Y-76885000D01*
G75*
G02*
X170205000Y-76685000I0J200000D01*
G01*
X170205000Y-76285000D01*
G75*
G02*
X170405000Y-76085000I200000J0D01*
G01*
X170955000Y-76085000D01*
G75*
G02*
X171155000Y-76285000I0J-200000D01*
G01*
X171155000Y-76685000D01*
G75*
G02*
X170955000Y-76885000I-200000J0D01*
G01*
G37*
G36*
G01*
X170955000Y-78535000D02*
X170405000Y-78535000D01*
G75*
G02*
X170205000Y-78335000I0J200000D01*
G01*
X170205000Y-77935000D01*
G75*
G02*
X170405000Y-77735000I200000J0D01*
G01*
X170955000Y-77735000D01*
G75*
G02*
X171155000Y-77935000I0J-200000D01*
G01*
X171155000Y-78335000D01*
G75*
G02*
X170955000Y-78535000I-200000J0D01*
G01*
G37*
G36*
G01*
X167655000Y-76885000D02*
X167105000Y-76885000D01*
G75*
G02*
X166905000Y-76685000I0J200000D01*
G01*
X166905000Y-76285000D01*
G75*
G02*
X167105000Y-76085000I200000J0D01*
G01*
X167655000Y-76085000D01*
G75*
G02*
X167855000Y-76285000I0J-200000D01*
G01*
X167855000Y-76685000D01*
G75*
G02*
X167655000Y-76885000I-200000J0D01*
G01*
G37*
G36*
G01*
X167655000Y-78535000D02*
X167105000Y-78535000D01*
G75*
G02*
X166905000Y-78335000I0J200000D01*
G01*
X166905000Y-77935000D01*
G75*
G02*
X167105000Y-77735000I200000J0D01*
G01*
X167655000Y-77735000D01*
G75*
G02*
X167855000Y-77935000I0J-200000D01*
G01*
X167855000Y-78335000D01*
G75*
G02*
X167655000Y-78535000I-200000J0D01*
G01*
G37*
G36*
G01*
X169305000Y-76885000D02*
X168755000Y-76885000D01*
G75*
G02*
X168555000Y-76685000I0J200000D01*
G01*
X168555000Y-76285000D01*
G75*
G02*
X168755000Y-76085000I200000J0D01*
G01*
X169305000Y-76085000D01*
G75*
G02*
X169505000Y-76285000I0J-200000D01*
G01*
X169505000Y-76685000D01*
G75*
G02*
X169305000Y-76885000I-200000J0D01*
G01*
G37*
G36*
G01*
X169305000Y-78535000D02*
X168755000Y-78535000D01*
G75*
G02*
X168555000Y-78335000I0J200000D01*
G01*
X168555000Y-77935000D01*
G75*
G02*
X168755000Y-77735000I200000J0D01*
G01*
X169305000Y-77735000D01*
G75*
G02*
X169505000Y-77935000I0J-200000D01*
G01*
X169505000Y-78335000D01*
G75*
G02*
X169305000Y-78535000I-200000J0D01*
G01*
G37*
D26*
X118110000Y-97920000D03*
X124810000Y-97920000D03*
D27*
X120460000Y-92620000D03*
X122460000Y-92620000D03*
G36*
G01*
X132775000Y-85225000D02*
X132775000Y-85775000D01*
G75*
G02*
X132575000Y-85975000I-200000J0D01*
G01*
X132175000Y-85975000D01*
G75*
G02*
X131975000Y-85775000I0J200000D01*
G01*
X131975000Y-85225000D01*
G75*
G02*
X132175000Y-85025000I200000J0D01*
G01*
X132575000Y-85025000D01*
G75*
G02*
X132775000Y-85225000I0J-200000D01*
G01*
G37*
G36*
G01*
X134425000Y-85225000D02*
X134425000Y-85775000D01*
G75*
G02*
X134225000Y-85975000I-200000J0D01*
G01*
X133825000Y-85975000D01*
G75*
G02*
X133625000Y-85775000I0J200000D01*
G01*
X133625000Y-85225000D01*
G75*
G02*
X133825000Y-85025000I200000J0D01*
G01*
X134225000Y-85025000D01*
G75*
G02*
X134425000Y-85225000I0J-200000D01*
G01*
G37*
D28*
X106200000Y-67230000D03*
X106200000Y-56570000D03*
X102200000Y-67230000D03*
X102200000Y-56570000D03*
D29*
X107145000Y-65150000D03*
X107145000Y-64350000D03*
X107145000Y-59450000D03*
X107145000Y-58650000D03*
X107145000Y-58650000D03*
X107145000Y-59450000D03*
X107145000Y-64350000D03*
X107145000Y-65150000D03*
D30*
X107145000Y-60150000D03*
X107145000Y-60650000D03*
X107145000Y-61150000D03*
X107145000Y-62150000D03*
X107145000Y-62650000D03*
X107145000Y-63150000D03*
X107145000Y-63650000D03*
X107145000Y-61650000D03*
D31*
X105700000Y-59010000D03*
X105700000Y-64790000D03*
G36*
G01*
X151150000Y-60275000D02*
X150650000Y-60275000D01*
G75*
G02*
X150425000Y-60050000I0J225000D01*
G01*
X150425000Y-59600000D01*
G75*
G02*
X150650000Y-59375000I225000J0D01*
G01*
X151150000Y-59375000D01*
G75*
G02*
X151375000Y-59600000I0J-225000D01*
G01*
X151375000Y-60050000D01*
G75*
G02*
X151150000Y-60275000I-225000J0D01*
G01*
G37*
G36*
G01*
X151150000Y-61825000D02*
X150650000Y-61825000D01*
G75*
G02*
X150425000Y-61600000I0J225000D01*
G01*
X150425000Y-61150000D01*
G75*
G02*
X150650000Y-60925000I225000J0D01*
G01*
X151150000Y-60925000D01*
G75*
G02*
X151375000Y-61150000I0J-225000D01*
G01*
X151375000Y-61600000D01*
G75*
G02*
X151150000Y-61825000I-225000J0D01*
G01*
G37*
G36*
G01*
X152975000Y-58550000D02*
X152975000Y-59050000D01*
G75*
G02*
X152750000Y-59275000I-225000J0D01*
G01*
X152300000Y-59275000D01*
G75*
G02*
X152075000Y-59050000I0J225000D01*
G01*
X152075000Y-58550000D01*
G75*
G02*
X152300000Y-58325000I225000J0D01*
G01*
X152750000Y-58325000D01*
G75*
G02*
X152975000Y-58550000I0J-225000D01*
G01*
G37*
G36*
G01*
X154525000Y-58550000D02*
X154525000Y-59050000D01*
G75*
G02*
X154300000Y-59275000I-225000J0D01*
G01*
X153850000Y-59275000D01*
G75*
G02*
X153625000Y-59050000I0J225000D01*
G01*
X153625000Y-58550000D01*
G75*
G02*
X153850000Y-58325000I225000J0D01*
G01*
X154300000Y-58325000D01*
G75*
G02*
X154525000Y-58550000I0J-225000D01*
G01*
G37*
D32*
X161976000Y-64861000D03*
X161976000Y-63511000D03*
D33*
X119750000Y-62050000D03*
X119750000Y-61550000D03*
X119750000Y-61050000D03*
X119750000Y-60550000D03*
D34*
X119050000Y-59850000D03*
X118550000Y-59850000D03*
X118050000Y-59850000D03*
X117550000Y-59850000D03*
D33*
X116850000Y-60550000D03*
X116850000Y-61050000D03*
X116850000Y-61550000D03*
X116850000Y-62050000D03*
D34*
X117550000Y-62750000D03*
X118050000Y-62750000D03*
X118550000Y-62750000D03*
X119050000Y-62750000D03*
D35*
X118300000Y-61300000D03*
G36*
G01*
X119800000Y-62500000D02*
X119800000Y-62700000D01*
G75*
G02*
X119700000Y-62800000I-100000J0D01*
G01*
X119500000Y-62800000D01*
G75*
G02*
X119400000Y-62700000I0J100000D01*
G01*
X119400000Y-62500000D01*
G75*
G02*
X119500000Y-62400000I100000J0D01*
G01*
X119700000Y-62400000D01*
G75*
G02*
X119800000Y-62500000I0J-100000D01*
G01*
G37*
G36*
G01*
X119800000Y-59900000D02*
X119800000Y-60100000D01*
G75*
G02*
X119700000Y-60200000I-100000J0D01*
G01*
X119500000Y-60200000D01*
G75*
G02*
X119400000Y-60100000I0J100000D01*
G01*
X119400000Y-59900000D01*
G75*
G02*
X119500000Y-59800000I100000J0D01*
G01*
X119700000Y-59800000D01*
G75*
G02*
X119800000Y-59900000I0J-100000D01*
G01*
G37*
G36*
G01*
X117200000Y-62500000D02*
X117200000Y-62700000D01*
G75*
G02*
X117100000Y-62800000I-100000J0D01*
G01*
X116900000Y-62800000D01*
G75*
G02*
X116800000Y-62700000I0J100000D01*
G01*
X116800000Y-62500000D01*
G75*
G02*
X116900000Y-62400000I100000J0D01*
G01*
X117100000Y-62400000D01*
G75*
G02*
X117200000Y-62500000I0J-100000D01*
G01*
G37*
G36*
G01*
X117200000Y-59900000D02*
X117200000Y-60100000D01*
G75*
G02*
X117100000Y-60200000I-100000J0D01*
G01*
X116900000Y-60200000D01*
G75*
G02*
X116800000Y-60100000I0J100000D01*
G01*
X116800000Y-59900000D01*
G75*
G02*
X116900000Y-59800000I100000J0D01*
G01*
X117100000Y-59800000D01*
G75*
G02*
X117200000Y-59900000I0J-100000D01*
G01*
G37*
G36*
G01*
X117475000Y-56700000D02*
X117475000Y-57200000D01*
G75*
G02*
X117250000Y-57425000I-225000J0D01*
G01*
X116800000Y-57425000D01*
G75*
G02*
X116575000Y-57200000I0J225000D01*
G01*
X116575000Y-56700000D01*
G75*
G02*
X116800000Y-56475000I225000J0D01*
G01*
X117250000Y-56475000D01*
G75*
G02*
X117475000Y-56700000I0J-225000D01*
G01*
G37*
G36*
G01*
X119025000Y-56700000D02*
X119025000Y-57200000D01*
G75*
G02*
X118800000Y-57425000I-225000J0D01*
G01*
X118350000Y-57425000D01*
G75*
G02*
X118125000Y-57200000I0J225000D01*
G01*
X118125000Y-56700000D01*
G75*
G02*
X118350000Y-56475000I225000J0D01*
G01*
X118800000Y-56475000D01*
G75*
G02*
X119025000Y-56700000I0J-225000D01*
G01*
G37*
G36*
G01*
X117475000Y-55150000D02*
X117475000Y-55650000D01*
G75*
G02*
X117250000Y-55875000I-225000J0D01*
G01*
X116800000Y-55875000D01*
G75*
G02*
X116575000Y-55650000I0J225000D01*
G01*
X116575000Y-55150000D01*
G75*
G02*
X116800000Y-54925000I225000J0D01*
G01*
X117250000Y-54925000D01*
G75*
G02*
X117475000Y-55150000I0J-225000D01*
G01*
G37*
G36*
G01*
X119025000Y-55150000D02*
X119025000Y-55650000D01*
G75*
G02*
X118800000Y-55875000I-225000J0D01*
G01*
X118350000Y-55875000D01*
G75*
G02*
X118125000Y-55650000I0J225000D01*
G01*
X118125000Y-55150000D01*
G75*
G02*
X118350000Y-54925000I225000J0D01*
G01*
X118800000Y-54925000D01*
G75*
G02*
X119025000Y-55150000I0J-225000D01*
G01*
G37*
D12*
X126375000Y-72500000D03*
X125025000Y-72500000D03*
X132525000Y-96000000D03*
X133875000Y-96000000D03*
D10*
G36*
X128560000Y-81353500D02*
G01*
X131685000Y-81353500D01*
X131685000Y-81770000D01*
X133160000Y-81770000D01*
X133160000Y-82670000D01*
X131685000Y-82670000D01*
X131685000Y-83086500D01*
X128560000Y-83086500D01*
X128560000Y-81353500D01*
G37*
D36*
X132510000Y-80720000D03*
X132510000Y-83720000D03*
G36*
G01*
X123200000Y-61830000D02*
X123200000Y-62130000D01*
G75*
G02*
X123050000Y-62280000I-150000J0D01*
G01*
X121400000Y-62280000D01*
G75*
G02*
X121250000Y-62130000I0J150000D01*
G01*
X121250000Y-61830000D01*
G75*
G02*
X121400000Y-61680000I150000J0D01*
G01*
X123050000Y-61680000D01*
G75*
G02*
X123200000Y-61830000I0J-150000D01*
G01*
G37*
G36*
G01*
X123200000Y-60560000D02*
X123200000Y-60860000D01*
G75*
G02*
X123050000Y-61010000I-150000J0D01*
G01*
X121400000Y-61010000D01*
G75*
G02*
X121250000Y-60860000I0J150000D01*
G01*
X121250000Y-60560000D01*
G75*
G02*
X121400000Y-60410000I150000J0D01*
G01*
X123050000Y-60410000D01*
G75*
G02*
X123200000Y-60560000I0J-150000D01*
G01*
G37*
G36*
G01*
X123200000Y-59290000D02*
X123200000Y-59590000D01*
G75*
G02*
X123050000Y-59740000I-150000J0D01*
G01*
X121400000Y-59740000D01*
G75*
G02*
X121250000Y-59590000I0J150000D01*
G01*
X121250000Y-59290000D01*
G75*
G02*
X121400000Y-59140000I150000J0D01*
G01*
X123050000Y-59140000D01*
G75*
G02*
X123200000Y-59290000I0J-150000D01*
G01*
G37*
G36*
G01*
X123200000Y-58020000D02*
X123200000Y-58320000D01*
G75*
G02*
X123050000Y-58470000I-150000J0D01*
G01*
X121400000Y-58470000D01*
G75*
G02*
X121250000Y-58320000I0J150000D01*
G01*
X121250000Y-58020000D01*
G75*
G02*
X121400000Y-57870000I150000J0D01*
G01*
X123050000Y-57870000D01*
G75*
G02*
X123200000Y-58020000I0J-150000D01*
G01*
G37*
G36*
G01*
X128150000Y-58020000D02*
X128150000Y-58320000D01*
G75*
G02*
X128000000Y-58470000I-150000J0D01*
G01*
X126350000Y-58470000D01*
G75*
G02*
X126200000Y-58320000I0J150000D01*
G01*
X126200000Y-58020000D01*
G75*
G02*
X126350000Y-57870000I150000J0D01*
G01*
X128000000Y-57870000D01*
G75*
G02*
X128150000Y-58020000I0J-150000D01*
G01*
G37*
G36*
G01*
X128150000Y-59290000D02*
X128150000Y-59590000D01*
G75*
G02*
X128000000Y-59740000I-150000J0D01*
G01*
X126350000Y-59740000D01*
G75*
G02*
X126200000Y-59590000I0J150000D01*
G01*
X126200000Y-59290000D01*
G75*
G02*
X126350000Y-59140000I150000J0D01*
G01*
X128000000Y-59140000D01*
G75*
G02*
X128150000Y-59290000I0J-150000D01*
G01*
G37*
G36*
G01*
X128150000Y-60560000D02*
X128150000Y-60860000D01*
G75*
G02*
X128000000Y-61010000I-150000J0D01*
G01*
X126350000Y-61010000D01*
G75*
G02*
X126200000Y-60860000I0J150000D01*
G01*
X126200000Y-60560000D01*
G75*
G02*
X126350000Y-60410000I150000J0D01*
G01*
X128000000Y-60410000D01*
G75*
G02*
X128150000Y-60560000I0J-150000D01*
G01*
G37*
G36*
G01*
X128150000Y-61830000D02*
X128150000Y-62130000D01*
G75*
G02*
X128000000Y-62280000I-150000J0D01*
G01*
X126350000Y-62280000D01*
G75*
G02*
X126200000Y-62130000I0J150000D01*
G01*
X126200000Y-61830000D01*
G75*
G02*
X126350000Y-61680000I150000J0D01*
G01*
X128000000Y-61680000D01*
G75*
G02*
X128150000Y-61830000I0J-150000D01*
G01*
G37*
D11*
X124250000Y-69110000D03*
X124250000Y-70060000D03*
X124250000Y-68160000D03*
X126450000Y-68160000D03*
X126450000Y-69110000D03*
X126450000Y-70060000D03*
G36*
G01*
X122775000Y-66225000D02*
X122775000Y-66775000D01*
G75*
G02*
X122575000Y-66975000I-200000J0D01*
G01*
X122175000Y-66975000D01*
G75*
G02*
X121975000Y-66775000I0J200000D01*
G01*
X121975000Y-66225000D01*
G75*
G02*
X122175000Y-66025000I200000J0D01*
G01*
X122575000Y-66025000D01*
G75*
G02*
X122775000Y-66225000I0J-200000D01*
G01*
G37*
G36*
G01*
X124425000Y-66225000D02*
X124425000Y-66775000D01*
G75*
G02*
X124225000Y-66975000I-200000J0D01*
G01*
X123825000Y-66975000D01*
G75*
G02*
X123625000Y-66775000I0J200000D01*
G01*
X123625000Y-66225000D01*
G75*
G02*
X123825000Y-66025000I200000J0D01*
G01*
X124225000Y-66025000D01*
G75*
G02*
X124425000Y-66225000I0J-200000D01*
G01*
G37*
G36*
G01*
X125225000Y-66125000D02*
X125775000Y-66125000D01*
G75*
G02*
X125975000Y-66325000I0J-200000D01*
G01*
X125975000Y-66725000D01*
G75*
G02*
X125775000Y-66925000I-200000J0D01*
G01*
X125225000Y-66925000D01*
G75*
G02*
X125025000Y-66725000I0J200000D01*
G01*
X125025000Y-66325000D01*
G75*
G02*
X125225000Y-66125000I200000J0D01*
G01*
G37*
G36*
G01*
X125225000Y-64475000D02*
X125775000Y-64475000D01*
G75*
G02*
X125975000Y-64675000I0J-200000D01*
G01*
X125975000Y-65075000D01*
G75*
G02*
X125775000Y-65275000I-200000J0D01*
G01*
X125225000Y-65275000D01*
G75*
G02*
X125025000Y-65075000I0J200000D01*
G01*
X125025000Y-64675000D01*
G75*
G02*
X125225000Y-64475000I200000J0D01*
G01*
G37*
G36*
G01*
X131175000Y-96775000D02*
X130625000Y-96775000D01*
G75*
G02*
X130425000Y-96575000I0J200000D01*
G01*
X130425000Y-96175000D01*
G75*
G02*
X130625000Y-95975000I200000J0D01*
G01*
X131175000Y-95975000D01*
G75*
G02*
X131375000Y-96175000I0J-200000D01*
G01*
X131375000Y-96575000D01*
G75*
G02*
X131175000Y-96775000I-200000J0D01*
G01*
G37*
G36*
G01*
X131175000Y-98425000D02*
X130625000Y-98425000D01*
G75*
G02*
X130425000Y-98225000I0J200000D01*
G01*
X130425000Y-97825000D01*
G75*
G02*
X130625000Y-97625000I200000J0D01*
G01*
X131175000Y-97625000D01*
G75*
G02*
X131375000Y-97825000I0J-200000D01*
G01*
X131375000Y-98225000D01*
G75*
G02*
X131175000Y-98425000I-200000J0D01*
G01*
G37*
G36*
G01*
X122225000Y-71325000D02*
X122775000Y-71325000D01*
G75*
G02*
X122975000Y-71525000I0J-200000D01*
G01*
X122975000Y-71925000D01*
G75*
G02*
X122775000Y-72125000I-200000J0D01*
G01*
X122225000Y-72125000D01*
G75*
G02*
X122025000Y-71925000I0J200000D01*
G01*
X122025000Y-71525000D01*
G75*
G02*
X122225000Y-71325000I200000J0D01*
G01*
G37*
G36*
G01*
X122225000Y-69675000D02*
X122775000Y-69675000D01*
G75*
G02*
X122975000Y-69875000I0J-200000D01*
G01*
X122975000Y-70275000D01*
G75*
G02*
X122775000Y-70475000I-200000J0D01*
G01*
X122225000Y-70475000D01*
G75*
G02*
X122025000Y-70275000I0J200000D01*
G01*
X122025000Y-69875000D01*
G75*
G02*
X122225000Y-69675000I200000J0D01*
G01*
G37*
D13*
X128500000Y-73050000D03*
X128500000Y-69750000D03*
G36*
G01*
X127210000Y-95095000D02*
X126710000Y-95095000D01*
G75*
G02*
X126485000Y-94870000I0J225000D01*
G01*
X126485000Y-94420000D01*
G75*
G02*
X126710000Y-94195000I225000J0D01*
G01*
X127210000Y-94195000D01*
G75*
G02*
X127435000Y-94420000I0J-225000D01*
G01*
X127435000Y-94870000D01*
G75*
G02*
X127210000Y-95095000I-225000J0D01*
G01*
G37*
G36*
G01*
X127210000Y-96645000D02*
X126710000Y-96645000D01*
G75*
G02*
X126485000Y-96420000I0J225000D01*
G01*
X126485000Y-95970000D01*
G75*
G02*
X126710000Y-95745000I225000J0D01*
G01*
X127210000Y-95745000D01*
G75*
G02*
X127435000Y-95970000I0J-225000D01*
G01*
X127435000Y-96420000D01*
G75*
G02*
X127210000Y-96645000I-225000J0D01*
G01*
G37*
G36*
G01*
X128175000Y-97750000D02*
X128175000Y-98250000D01*
G75*
G02*
X127950000Y-98475000I-225000J0D01*
G01*
X127500000Y-98475000D01*
G75*
G02*
X127275000Y-98250000I0J225000D01*
G01*
X127275000Y-97750000D01*
G75*
G02*
X127500000Y-97525000I225000J0D01*
G01*
X127950000Y-97525000D01*
G75*
G02*
X128175000Y-97750000I0J-225000D01*
G01*
G37*
G36*
G01*
X129725000Y-97750000D02*
X129725000Y-98250000D01*
G75*
G02*
X129500000Y-98475000I-225000J0D01*
G01*
X129050000Y-98475000D01*
G75*
G02*
X128825000Y-98250000I0J225000D01*
G01*
X128825000Y-97750000D01*
G75*
G02*
X129050000Y-97525000I225000J0D01*
G01*
X129500000Y-97525000D01*
G75*
G02*
X129725000Y-97750000I0J-225000D01*
G01*
G37*
G36*
G01*
X126750000Y-92625000D02*
X127250000Y-92625000D01*
G75*
G02*
X127475000Y-92850000I0J-225000D01*
G01*
X127475000Y-93300000D01*
G75*
G02*
X127250000Y-93525000I-225000J0D01*
G01*
X126750000Y-93525000D01*
G75*
G02*
X126525000Y-93300000I0J225000D01*
G01*
X126525000Y-92850000D01*
G75*
G02*
X126750000Y-92625000I225000J0D01*
G01*
G37*
G36*
G01*
X126750000Y-91075000D02*
X127250000Y-91075000D01*
G75*
G02*
X127475000Y-91300000I0J-225000D01*
G01*
X127475000Y-91750000D01*
G75*
G02*
X127250000Y-91975000I-225000J0D01*
G01*
X126750000Y-91975000D01*
G75*
G02*
X126525000Y-91750000I0J225000D01*
G01*
X126525000Y-91300000D01*
G75*
G02*
X126750000Y-91075000I225000J0D01*
G01*
G37*
D37*
X121299000Y-80429500D03*
X121299000Y-83629500D03*
X126199000Y-80429500D03*
X126199000Y-83629500D03*
D38*
X144660000Y-79172000D03*
X144660000Y-76632000D03*
X144660000Y-74092000D03*
X144660000Y-71552000D03*
D39*
X144660000Y-69012000D03*
G36*
G01*
X184817000Y-67445500D02*
X184817000Y-66895500D01*
G75*
G02*
X185017000Y-66695500I200000J0D01*
G01*
X185417000Y-66695500D01*
G75*
G02*
X185617000Y-66895500I0J-200000D01*
G01*
X185617000Y-67445500D01*
G75*
G02*
X185417000Y-67645500I-200000J0D01*
G01*
X185017000Y-67645500D01*
G75*
G02*
X184817000Y-67445500I0J200000D01*
G01*
G37*
G36*
G01*
X183167000Y-67445500D02*
X183167000Y-66895500D01*
G75*
G02*
X183367000Y-66695500I200000J0D01*
G01*
X183767000Y-66695500D01*
G75*
G02*
X183967000Y-66895500I0J-200000D01*
G01*
X183967000Y-67445500D01*
G75*
G02*
X183767000Y-67645500I-200000J0D01*
G01*
X183367000Y-67645500D01*
G75*
G02*
X183167000Y-67445500I0J200000D01*
G01*
G37*
G36*
G01*
X188178000Y-59129000D02*
X188178000Y-58829000D01*
G75*
G02*
X188328000Y-58679000I150000J0D01*
G01*
X189978000Y-58679000D01*
G75*
G02*
X190128000Y-58829000I0J-150000D01*
G01*
X190128000Y-59129000D01*
G75*
G02*
X189978000Y-59279000I-150000J0D01*
G01*
X188328000Y-59279000D01*
G75*
G02*
X188178000Y-59129000I0J150000D01*
G01*
G37*
G36*
G01*
X188178000Y-60399000D02*
X188178000Y-60099000D01*
G75*
G02*
X188328000Y-59949000I150000J0D01*
G01*
X189978000Y-59949000D01*
G75*
G02*
X190128000Y-60099000I0J-150000D01*
G01*
X190128000Y-60399000D01*
G75*
G02*
X189978000Y-60549000I-150000J0D01*
G01*
X188328000Y-60549000D01*
G75*
G02*
X188178000Y-60399000I0J150000D01*
G01*
G37*
G36*
G01*
X188178000Y-61669000D02*
X188178000Y-61369000D01*
G75*
G02*
X188328000Y-61219000I150000J0D01*
G01*
X189978000Y-61219000D01*
G75*
G02*
X190128000Y-61369000I0J-150000D01*
G01*
X190128000Y-61669000D01*
G75*
G02*
X189978000Y-61819000I-150000J0D01*
G01*
X188328000Y-61819000D01*
G75*
G02*
X188178000Y-61669000I0J150000D01*
G01*
G37*
G36*
G01*
X188178000Y-62939000D02*
X188178000Y-62639000D01*
G75*
G02*
X188328000Y-62489000I150000J0D01*
G01*
X189978000Y-62489000D01*
G75*
G02*
X190128000Y-62639000I0J-150000D01*
G01*
X190128000Y-62939000D01*
G75*
G02*
X189978000Y-63089000I-150000J0D01*
G01*
X188328000Y-63089000D01*
G75*
G02*
X188178000Y-62939000I0J150000D01*
G01*
G37*
G36*
G01*
X183228000Y-62939000D02*
X183228000Y-62639000D01*
G75*
G02*
X183378000Y-62489000I150000J0D01*
G01*
X185028000Y-62489000D01*
G75*
G02*
X185178000Y-62639000I0J-150000D01*
G01*
X185178000Y-62939000D01*
G75*
G02*
X185028000Y-63089000I-150000J0D01*
G01*
X183378000Y-63089000D01*
G75*
G02*
X183228000Y-62939000I0J150000D01*
G01*
G37*
G36*
G01*
X183228000Y-61669000D02*
X183228000Y-61369000D01*
G75*
G02*
X183378000Y-61219000I150000J0D01*
G01*
X185028000Y-61219000D01*
G75*
G02*
X185178000Y-61369000I0J-150000D01*
G01*
X185178000Y-61669000D01*
G75*
G02*
X185028000Y-61819000I-150000J0D01*
G01*
X183378000Y-61819000D01*
G75*
G02*
X183228000Y-61669000I0J150000D01*
G01*
G37*
G36*
G01*
X183228000Y-60399000D02*
X183228000Y-60099000D01*
G75*
G02*
X183378000Y-59949000I150000J0D01*
G01*
X185028000Y-59949000D01*
G75*
G02*
X185178000Y-60099000I0J-150000D01*
G01*
X185178000Y-60399000D01*
G75*
G02*
X185028000Y-60549000I-150000J0D01*
G01*
X183378000Y-60549000D01*
G75*
G02*
X183228000Y-60399000I0J150000D01*
G01*
G37*
G36*
G01*
X183228000Y-59129000D02*
X183228000Y-58829000D01*
G75*
G02*
X183378000Y-58679000I150000J0D01*
G01*
X185028000Y-58679000D01*
G75*
G02*
X185178000Y-58829000I0J-150000D01*
G01*
X185178000Y-59129000D01*
G75*
G02*
X185028000Y-59279000I-150000J0D01*
G01*
X183378000Y-59279000D01*
G75*
G02*
X183228000Y-59129000I0J150000D01*
G01*
G37*
D40*
X151450000Y-78219000D03*
X151450000Y-77419000D03*
X151450000Y-76619000D03*
X151450000Y-75819000D03*
X151450000Y-75019000D03*
X151450000Y-74219000D03*
X151450000Y-73419000D03*
X151450000Y-72619000D03*
X151450000Y-71819000D03*
X151450000Y-71019000D03*
X151450000Y-70219000D03*
D41*
X153150000Y-68519000D03*
X153950000Y-68519000D03*
X154750000Y-68519000D03*
X155550000Y-68519000D03*
X156350000Y-68519000D03*
X157150000Y-68519000D03*
X157950000Y-68519000D03*
X158750000Y-68519000D03*
X159550000Y-68519000D03*
X160350000Y-68519000D03*
X161150000Y-68519000D03*
D40*
X162850000Y-70219000D03*
X162850000Y-71019000D03*
X162850000Y-71819000D03*
X162850000Y-72619000D03*
X162850000Y-73419000D03*
X162850000Y-74219000D03*
X162850000Y-75019000D03*
X162850000Y-75819000D03*
X162850000Y-76619000D03*
X162850000Y-77419000D03*
X162850000Y-78219000D03*
D41*
X161150000Y-79919000D03*
X160350000Y-79919000D03*
X159550000Y-79919000D03*
X158750000Y-79919000D03*
X157950000Y-79919000D03*
X157150000Y-79919000D03*
X156350000Y-79919000D03*
X155550000Y-79919000D03*
X154750000Y-79919000D03*
X153950000Y-79919000D03*
X153150000Y-79919000D03*
D42*
X114250000Y-63000000D03*
X112350000Y-63000000D03*
X112350000Y-60800000D03*
D43*
X114070000Y-60800000D03*
D10*
G36*
X176050000Y-95392000D02*
G01*
X176050000Y-90892000D01*
X178550000Y-90292000D01*
X178550000Y-95992000D01*
X176050000Y-95392000D01*
G37*
G36*
X191250000Y-95992000D02*
G01*
X191250000Y-90292000D01*
X193750000Y-90892000D01*
X193750000Y-95392000D01*
X191250000Y-95992000D01*
G37*
D44*
X184900000Y-93142000D03*
G36*
G01*
X175175000Y-85750000D02*
X175175000Y-86250000D01*
G75*
G02*
X174950000Y-86475000I-225000J0D01*
G01*
X174500000Y-86475000D01*
G75*
G02*
X174275000Y-86250000I0J225000D01*
G01*
X174275000Y-85750000D01*
G75*
G02*
X174500000Y-85525000I225000J0D01*
G01*
X174950000Y-85525000D01*
G75*
G02*
X175175000Y-85750000I0J-225000D01*
G01*
G37*
G36*
G01*
X176725000Y-85750000D02*
X176725000Y-86250000D01*
G75*
G02*
X176500000Y-86475000I-225000J0D01*
G01*
X176050000Y-86475000D01*
G75*
G02*
X175825000Y-86250000I0J225000D01*
G01*
X175825000Y-85750000D01*
G75*
G02*
X176050000Y-85525000I225000J0D01*
G01*
X176500000Y-85525000D01*
G75*
G02*
X176725000Y-85750000I0J-225000D01*
G01*
G37*
D45*
X105560000Y-48620000D03*
X197060000Y-92420000D03*
X197060000Y-48820000D03*
G36*
G01*
X103316250Y-52410000D02*
X102403750Y-52410000D01*
G75*
G02*
X102160000Y-52166250I0J243750D01*
G01*
X102160000Y-51678750D01*
G75*
G02*
X102403750Y-51435000I243750J0D01*
G01*
X103316250Y-51435000D01*
G75*
G02*
X103560000Y-51678750I0J-243750D01*
G01*
X103560000Y-52166250D01*
G75*
G02*
X103316250Y-52410000I-243750J0D01*
G01*
G37*
G36*
G01*
X103316250Y-54285000D02*
X102403750Y-54285000D01*
G75*
G02*
X102160000Y-54041250I0J243750D01*
G01*
X102160000Y-53553750D01*
G75*
G02*
X102403750Y-53310000I243750J0D01*
G01*
X103316250Y-53310000D01*
G75*
G02*
X103560000Y-53553750I0J-243750D01*
G01*
X103560000Y-54041250D01*
G75*
G02*
X103316250Y-54285000I-243750J0D01*
G01*
G37*
G36*
G01*
X143268000Y-93754000D02*
X143268000Y-94054000D01*
G75*
G02*
X143118000Y-94204000I-150000J0D01*
G01*
X141468000Y-94204000D01*
G75*
G02*
X141318000Y-94054000I0J150000D01*
G01*
X141318000Y-93754000D01*
G75*
G02*
X141468000Y-93604000I150000J0D01*
G01*
X143118000Y-93604000D01*
G75*
G02*
X143268000Y-93754000I0J-150000D01*
G01*
G37*
G36*
G01*
X143268000Y-92484000D02*
X143268000Y-92784000D01*
G75*
G02*
X143118000Y-92934000I-150000J0D01*
G01*
X141468000Y-92934000D01*
G75*
G02*
X141318000Y-92784000I0J150000D01*
G01*
X141318000Y-92484000D01*
G75*
G02*
X141468000Y-92334000I150000J0D01*
G01*
X143118000Y-92334000D01*
G75*
G02*
X143268000Y-92484000I0J-150000D01*
G01*
G37*
G36*
G01*
X143268000Y-91214000D02*
X143268000Y-91514000D01*
G75*
G02*
X143118000Y-91664000I-150000J0D01*
G01*
X141468000Y-91664000D01*
G75*
G02*
X141318000Y-91514000I0J150000D01*
G01*
X141318000Y-91214000D01*
G75*
G02*
X141468000Y-91064000I150000J0D01*
G01*
X143118000Y-91064000D01*
G75*
G02*
X143268000Y-91214000I0J-150000D01*
G01*
G37*
G36*
G01*
X143268000Y-89944000D02*
X143268000Y-90244000D01*
G75*
G02*
X143118000Y-90394000I-150000J0D01*
G01*
X141468000Y-90394000D01*
G75*
G02*
X141318000Y-90244000I0J150000D01*
G01*
X141318000Y-89944000D01*
G75*
G02*
X141468000Y-89794000I150000J0D01*
G01*
X143118000Y-89794000D01*
G75*
G02*
X143268000Y-89944000I0J-150000D01*
G01*
G37*
G36*
G01*
X148218000Y-89944000D02*
X148218000Y-90244000D01*
G75*
G02*
X148068000Y-90394000I-150000J0D01*
G01*
X146418000Y-90394000D01*
G75*
G02*
X146268000Y-90244000I0J150000D01*
G01*
X146268000Y-89944000D01*
G75*
G02*
X146418000Y-89794000I150000J0D01*
G01*
X148068000Y-89794000D01*
G75*
G02*
X148218000Y-89944000I0J-150000D01*
G01*
G37*
G36*
G01*
X148218000Y-91214000D02*
X148218000Y-91514000D01*
G75*
G02*
X148068000Y-91664000I-150000J0D01*
G01*
X146418000Y-91664000D01*
G75*
G02*
X146268000Y-91514000I0J150000D01*
G01*
X146268000Y-91214000D01*
G75*
G02*
X146418000Y-91064000I150000J0D01*
G01*
X148068000Y-91064000D01*
G75*
G02*
X148218000Y-91214000I0J-150000D01*
G01*
G37*
G36*
G01*
X148218000Y-92484000D02*
X148218000Y-92784000D01*
G75*
G02*
X148068000Y-92934000I-150000J0D01*
G01*
X146418000Y-92934000D01*
G75*
G02*
X146268000Y-92784000I0J150000D01*
G01*
X146268000Y-92484000D01*
G75*
G02*
X146418000Y-92334000I150000J0D01*
G01*
X148068000Y-92334000D01*
G75*
G02*
X148218000Y-92484000I0J-150000D01*
G01*
G37*
G36*
G01*
X148218000Y-93754000D02*
X148218000Y-94054000D01*
G75*
G02*
X148068000Y-94204000I-150000J0D01*
G01*
X146418000Y-94204000D01*
G75*
G02*
X146268000Y-94054000I0J150000D01*
G01*
X146268000Y-93754000D01*
G75*
G02*
X146418000Y-93604000I150000J0D01*
G01*
X148068000Y-93604000D01*
G75*
G02*
X148218000Y-93754000I0J-150000D01*
G01*
G37*
G36*
G01*
X188114000Y-69543000D02*
X188114000Y-69243000D01*
G75*
G02*
X188264000Y-69093000I150000J0D01*
G01*
X189914000Y-69093000D01*
G75*
G02*
X190064000Y-69243000I0J-150000D01*
G01*
X190064000Y-69543000D01*
G75*
G02*
X189914000Y-69693000I-150000J0D01*
G01*
X188264000Y-69693000D01*
G75*
G02*
X188114000Y-69543000I0J150000D01*
G01*
G37*
G36*
G01*
X188114000Y-70813000D02*
X188114000Y-70513000D01*
G75*
G02*
X188264000Y-70363000I150000J0D01*
G01*
X189914000Y-70363000D01*
G75*
G02*
X190064000Y-70513000I0J-150000D01*
G01*
X190064000Y-70813000D01*
G75*
G02*
X189914000Y-70963000I-150000J0D01*
G01*
X188264000Y-70963000D01*
G75*
G02*
X188114000Y-70813000I0J150000D01*
G01*
G37*
G36*
G01*
X188114000Y-72083000D02*
X188114000Y-71783000D01*
G75*
G02*
X188264000Y-71633000I150000J0D01*
G01*
X189914000Y-71633000D01*
G75*
G02*
X190064000Y-71783000I0J-150000D01*
G01*
X190064000Y-72083000D01*
G75*
G02*
X189914000Y-72233000I-150000J0D01*
G01*
X188264000Y-72233000D01*
G75*
G02*
X188114000Y-72083000I0J150000D01*
G01*
G37*
G36*
G01*
X188114000Y-73353000D02*
X188114000Y-73053000D01*
G75*
G02*
X188264000Y-72903000I150000J0D01*
G01*
X189914000Y-72903000D01*
G75*
G02*
X190064000Y-73053000I0J-150000D01*
G01*
X190064000Y-73353000D01*
G75*
G02*
X189914000Y-73503000I-150000J0D01*
G01*
X188264000Y-73503000D01*
G75*
G02*
X188114000Y-73353000I0J150000D01*
G01*
G37*
G36*
G01*
X183164000Y-73353000D02*
X183164000Y-73053000D01*
G75*
G02*
X183314000Y-72903000I150000J0D01*
G01*
X184964000Y-72903000D01*
G75*
G02*
X185114000Y-73053000I0J-150000D01*
G01*
X185114000Y-73353000D01*
G75*
G02*
X184964000Y-73503000I-150000J0D01*
G01*
X183314000Y-73503000D01*
G75*
G02*
X183164000Y-73353000I0J150000D01*
G01*
G37*
G36*
G01*
X183164000Y-72083000D02*
X183164000Y-71783000D01*
G75*
G02*
X183314000Y-71633000I150000J0D01*
G01*
X184964000Y-71633000D01*
G75*
G02*
X185114000Y-71783000I0J-150000D01*
G01*
X185114000Y-72083000D01*
G75*
G02*
X184964000Y-72233000I-150000J0D01*
G01*
X183314000Y-72233000D01*
G75*
G02*
X183164000Y-72083000I0J150000D01*
G01*
G37*
G36*
G01*
X183164000Y-70813000D02*
X183164000Y-70513000D01*
G75*
G02*
X183314000Y-70363000I150000J0D01*
G01*
X184964000Y-70363000D01*
G75*
G02*
X185114000Y-70513000I0J-150000D01*
G01*
X185114000Y-70813000D01*
G75*
G02*
X184964000Y-70963000I-150000J0D01*
G01*
X183314000Y-70963000D01*
G75*
G02*
X183164000Y-70813000I0J150000D01*
G01*
G37*
G36*
G01*
X183164000Y-69543000D02*
X183164000Y-69243000D01*
G75*
G02*
X183314000Y-69093000I150000J0D01*
G01*
X184964000Y-69093000D01*
G75*
G02*
X185114000Y-69243000I0J-150000D01*
G01*
X185114000Y-69543000D01*
G75*
G02*
X184964000Y-69693000I-150000J0D01*
G01*
X183314000Y-69693000D01*
G75*
G02*
X183164000Y-69543000I0J150000D01*
G01*
G37*
G36*
G01*
X166128000Y-93817000D02*
X166128000Y-94117000D01*
G75*
G02*
X165978000Y-94267000I-150000J0D01*
G01*
X164328000Y-94267000D01*
G75*
G02*
X164178000Y-94117000I0J150000D01*
G01*
X164178000Y-93817000D01*
G75*
G02*
X164328000Y-93667000I150000J0D01*
G01*
X165978000Y-93667000D01*
G75*
G02*
X166128000Y-93817000I0J-150000D01*
G01*
G37*
G36*
G01*
X166128000Y-92547000D02*
X166128000Y-92847000D01*
G75*
G02*
X165978000Y-92997000I-150000J0D01*
G01*
X164328000Y-92997000D01*
G75*
G02*
X164178000Y-92847000I0J150000D01*
G01*
X164178000Y-92547000D01*
G75*
G02*
X164328000Y-92397000I150000J0D01*
G01*
X165978000Y-92397000D01*
G75*
G02*
X166128000Y-92547000I0J-150000D01*
G01*
G37*
G36*
G01*
X166128000Y-91277000D02*
X166128000Y-91577000D01*
G75*
G02*
X165978000Y-91727000I-150000J0D01*
G01*
X164328000Y-91727000D01*
G75*
G02*
X164178000Y-91577000I0J150000D01*
G01*
X164178000Y-91277000D01*
G75*
G02*
X164328000Y-91127000I150000J0D01*
G01*
X165978000Y-91127000D01*
G75*
G02*
X166128000Y-91277000I0J-150000D01*
G01*
G37*
G36*
G01*
X166128000Y-90007000D02*
X166128000Y-90307000D01*
G75*
G02*
X165978000Y-90457000I-150000J0D01*
G01*
X164328000Y-90457000D01*
G75*
G02*
X164178000Y-90307000I0J150000D01*
G01*
X164178000Y-90007000D01*
G75*
G02*
X164328000Y-89857000I150000J0D01*
G01*
X165978000Y-89857000D01*
G75*
G02*
X166128000Y-90007000I0J-150000D01*
G01*
G37*
G36*
G01*
X171078000Y-90007000D02*
X171078000Y-90307000D01*
G75*
G02*
X170928000Y-90457000I-150000J0D01*
G01*
X169278000Y-90457000D01*
G75*
G02*
X169128000Y-90307000I0J150000D01*
G01*
X169128000Y-90007000D01*
G75*
G02*
X169278000Y-89857000I150000J0D01*
G01*
X170928000Y-89857000D01*
G75*
G02*
X171078000Y-90007000I0J-150000D01*
G01*
G37*
G36*
G01*
X171078000Y-91277000D02*
X171078000Y-91577000D01*
G75*
G02*
X170928000Y-91727000I-150000J0D01*
G01*
X169278000Y-91727000D01*
G75*
G02*
X169128000Y-91577000I0J150000D01*
G01*
X169128000Y-91277000D01*
G75*
G02*
X169278000Y-91127000I150000J0D01*
G01*
X170928000Y-91127000D01*
G75*
G02*
X171078000Y-91277000I0J-150000D01*
G01*
G37*
G36*
G01*
X171078000Y-92547000D02*
X171078000Y-92847000D01*
G75*
G02*
X170928000Y-92997000I-150000J0D01*
G01*
X169278000Y-92997000D01*
G75*
G02*
X169128000Y-92847000I0J150000D01*
G01*
X169128000Y-92547000D01*
G75*
G02*
X169278000Y-92397000I150000J0D01*
G01*
X170928000Y-92397000D01*
G75*
G02*
X171078000Y-92547000I0J-150000D01*
G01*
G37*
G36*
G01*
X171078000Y-93817000D02*
X171078000Y-94117000D01*
G75*
G02*
X170928000Y-94267000I-150000J0D01*
G01*
X169278000Y-94267000D01*
G75*
G02*
X169128000Y-94117000I0J150000D01*
G01*
X169128000Y-93817000D01*
G75*
G02*
X169278000Y-93667000I150000J0D01*
G01*
X170928000Y-93667000D01*
G75*
G02*
X171078000Y-93817000I0J-150000D01*
G01*
G37*
D46*
X131700000Y-70100000D03*
X133700000Y-69150000D03*
X133700000Y-71050000D03*
D47*
X144200000Y-54700000D03*
X145150000Y-56700000D03*
X143250000Y-56700000D03*
D46*
X175486000Y-59487000D03*
X173486000Y-60437000D03*
X173486000Y-58537000D03*
G36*
G01*
X137839000Y-86161000D02*
X137839000Y-86661000D01*
G75*
G02*
X137614000Y-86886000I-225000J0D01*
G01*
X137164000Y-86886000D01*
G75*
G02*
X136939000Y-86661000I0J225000D01*
G01*
X136939000Y-86161000D01*
G75*
G02*
X137164000Y-85936000I225000J0D01*
G01*
X137614000Y-85936000D01*
G75*
G02*
X137839000Y-86161000I0J-225000D01*
G01*
G37*
G36*
G01*
X139389000Y-86161000D02*
X139389000Y-86661000D01*
G75*
G02*
X139164000Y-86886000I-225000J0D01*
G01*
X138714000Y-86886000D01*
G75*
G02*
X138489000Y-86661000I0J225000D01*
G01*
X138489000Y-86161000D01*
G75*
G02*
X138714000Y-85936000I225000J0D01*
G01*
X139164000Y-85936000D01*
G75*
G02*
X139389000Y-86161000I0J-225000D01*
G01*
G37*
G36*
G01*
X138993000Y-97023000D02*
X139493000Y-97023000D01*
G75*
G02*
X139718000Y-97248000I0J-225000D01*
G01*
X139718000Y-97698000D01*
G75*
G02*
X139493000Y-97923000I-225000J0D01*
G01*
X138993000Y-97923000D01*
G75*
G02*
X138768000Y-97698000I0J225000D01*
G01*
X138768000Y-97248000D01*
G75*
G02*
X138993000Y-97023000I225000J0D01*
G01*
G37*
G36*
G01*
X138993000Y-95473000D02*
X139493000Y-95473000D01*
G75*
G02*
X139718000Y-95698000I0J-225000D01*
G01*
X139718000Y-96148000D01*
G75*
G02*
X139493000Y-96373000I-225000J0D01*
G01*
X138993000Y-96373000D01*
G75*
G02*
X138768000Y-96148000I0J225000D01*
G01*
X138768000Y-95698000D01*
G75*
G02*
X138993000Y-95473000I225000J0D01*
G01*
G37*
G36*
G01*
X129585000Y-79150000D02*
X129585000Y-78650000D01*
G75*
G02*
X129810000Y-78425000I225000J0D01*
G01*
X130260000Y-78425000D01*
G75*
G02*
X130485000Y-78650000I0J-225000D01*
G01*
X130485000Y-79150000D01*
G75*
G02*
X130260000Y-79375000I-225000J0D01*
G01*
X129810000Y-79375000D01*
G75*
G02*
X129585000Y-79150000I0J225000D01*
G01*
G37*
G36*
G01*
X128035000Y-79150000D02*
X128035000Y-78650000D01*
G75*
G02*
X128260000Y-78425000I225000J0D01*
G01*
X128710000Y-78425000D01*
G75*
G02*
X128935000Y-78650000I0J-225000D01*
G01*
X128935000Y-79150000D01*
G75*
G02*
X128710000Y-79375000I-225000J0D01*
G01*
X128260000Y-79375000D01*
G75*
G02*
X128035000Y-79150000I0J225000D01*
G01*
G37*
G36*
G01*
X129775000Y-85250000D02*
X129775000Y-85750000D01*
G75*
G02*
X129550000Y-85975000I-225000J0D01*
G01*
X129100000Y-85975000D01*
G75*
G02*
X128875000Y-85750000I0J225000D01*
G01*
X128875000Y-85250000D01*
G75*
G02*
X129100000Y-85025000I225000J0D01*
G01*
X129550000Y-85025000D01*
G75*
G02*
X129775000Y-85250000I0J-225000D01*
G01*
G37*
G36*
G01*
X131325000Y-85250000D02*
X131325000Y-85750000D01*
G75*
G02*
X131100000Y-85975000I-225000J0D01*
G01*
X130650000Y-85975000D01*
G75*
G02*
X130425000Y-85750000I0J225000D01*
G01*
X130425000Y-85250000D01*
G75*
G02*
X130650000Y-85025000I225000J0D01*
G01*
X131100000Y-85025000D01*
G75*
G02*
X131325000Y-85250000I0J-225000D01*
G01*
G37*
G36*
G01*
X178351000Y-85750000D02*
X178351000Y-86250000D01*
G75*
G02*
X178126000Y-86475000I-225000J0D01*
G01*
X177676000Y-86475000D01*
G75*
G02*
X177451000Y-86250000I0J225000D01*
G01*
X177451000Y-85750000D01*
G75*
G02*
X177676000Y-85525000I225000J0D01*
G01*
X178126000Y-85525000D01*
G75*
G02*
X178351000Y-85750000I0J-225000D01*
G01*
G37*
G36*
G01*
X179901000Y-85750000D02*
X179901000Y-86250000D01*
G75*
G02*
X179676000Y-86475000I-225000J0D01*
G01*
X179226000Y-86475000D01*
G75*
G02*
X179001000Y-86250000I0J225000D01*
G01*
X179001000Y-85750000D01*
G75*
G02*
X179226000Y-85525000I225000J0D01*
G01*
X179676000Y-85525000D01*
G75*
G02*
X179901000Y-85750000I0J-225000D01*
G01*
G37*
G36*
G01*
X184717000Y-75675500D02*
X184717000Y-75175500D01*
G75*
G02*
X184942000Y-74950500I225000J0D01*
G01*
X185392000Y-74950500D01*
G75*
G02*
X185617000Y-75175500I0J-225000D01*
G01*
X185617000Y-75675500D01*
G75*
G02*
X185392000Y-75900500I-225000J0D01*
G01*
X184942000Y-75900500D01*
G75*
G02*
X184717000Y-75675500I0J225000D01*
G01*
G37*
G36*
G01*
X183167000Y-75675500D02*
X183167000Y-75175500D01*
G75*
G02*
X183392000Y-74950500I225000J0D01*
G01*
X183842000Y-74950500D01*
G75*
G02*
X184067000Y-75175500I0J-225000D01*
G01*
X184067000Y-75675500D01*
G75*
G02*
X183842000Y-75900500I-225000J0D01*
G01*
X183392000Y-75900500D01*
G75*
G02*
X183167000Y-75675500I0J225000D01*
G01*
G37*
G36*
G01*
X160825000Y-55050000D02*
X160825000Y-54550000D01*
G75*
G02*
X161050000Y-54325000I225000J0D01*
G01*
X161500000Y-54325000D01*
G75*
G02*
X161725000Y-54550000I0J-225000D01*
G01*
X161725000Y-55050000D01*
G75*
G02*
X161500000Y-55275000I-225000J0D01*
G01*
X161050000Y-55275000D01*
G75*
G02*
X160825000Y-55050000I0J225000D01*
G01*
G37*
G36*
G01*
X159275000Y-55050000D02*
X159275000Y-54550000D01*
G75*
G02*
X159500000Y-54325000I225000J0D01*
G01*
X159950000Y-54325000D01*
G75*
G02*
X160175000Y-54550000I0J-225000D01*
G01*
X160175000Y-55050000D01*
G75*
G02*
X159950000Y-55275000I-225000J0D01*
G01*
X159500000Y-55275000D01*
G75*
G02*
X159275000Y-55050000I0J225000D01*
G01*
G37*
G36*
G01*
X189161000Y-77834500D02*
X189161000Y-77334500D01*
G75*
G02*
X189386000Y-77109500I225000J0D01*
G01*
X189836000Y-77109500D01*
G75*
G02*
X190061000Y-77334500I0J-225000D01*
G01*
X190061000Y-77834500D01*
G75*
G02*
X189836000Y-78059500I-225000J0D01*
G01*
X189386000Y-78059500D01*
G75*
G02*
X189161000Y-77834500I0J225000D01*
G01*
G37*
G36*
G01*
X187611000Y-77834500D02*
X187611000Y-77334500D01*
G75*
G02*
X187836000Y-77109500I225000J0D01*
G01*
X188286000Y-77109500D01*
G75*
G02*
X188511000Y-77334500I0J-225000D01*
G01*
X188511000Y-77834500D01*
G75*
G02*
X188286000Y-78059500I-225000J0D01*
G01*
X187836000Y-78059500D01*
G75*
G02*
X187611000Y-77834500I0J225000D01*
G01*
G37*
G36*
G01*
X181284000Y-83307000D02*
X181784000Y-83307000D01*
G75*
G02*
X182009000Y-83532000I0J-225000D01*
G01*
X182009000Y-83982000D01*
G75*
G02*
X181784000Y-84207000I-225000J0D01*
G01*
X181284000Y-84207000D01*
G75*
G02*
X181059000Y-83982000I0J225000D01*
G01*
X181059000Y-83532000D01*
G75*
G02*
X181284000Y-83307000I225000J0D01*
G01*
G37*
G36*
G01*
X181284000Y-81757000D02*
X181784000Y-81757000D01*
G75*
G02*
X182009000Y-81982000I0J-225000D01*
G01*
X182009000Y-82432000D01*
G75*
G02*
X181784000Y-82657000I-225000J0D01*
G01*
X181284000Y-82657000D01*
G75*
G02*
X181059000Y-82432000I0J225000D01*
G01*
X181059000Y-81982000D01*
G75*
G02*
X181284000Y-81757000I225000J0D01*
G01*
G37*
G36*
G01*
X167025000Y-54250000D02*
X167025000Y-53750000D01*
G75*
G02*
X167250000Y-53525000I225000J0D01*
G01*
X167700000Y-53525000D01*
G75*
G02*
X167925000Y-53750000I0J-225000D01*
G01*
X167925000Y-54250000D01*
G75*
G02*
X167700000Y-54475000I-225000J0D01*
G01*
X167250000Y-54475000D01*
G75*
G02*
X167025000Y-54250000I0J225000D01*
G01*
G37*
G36*
G01*
X165475000Y-54250000D02*
X165475000Y-53750000D01*
G75*
G02*
X165700000Y-53525000I225000J0D01*
G01*
X166150000Y-53525000D01*
G75*
G02*
X166375000Y-53750000I0J-225000D01*
G01*
X166375000Y-54250000D01*
G75*
G02*
X166150000Y-54475000I-225000J0D01*
G01*
X165700000Y-54475000D01*
G75*
G02*
X165475000Y-54250000I0J225000D01*
G01*
G37*
G36*
G01*
X181660000Y-74595000D02*
X182160000Y-74595000D01*
G75*
G02*
X182385000Y-74820000I0J-225000D01*
G01*
X182385000Y-75270000D01*
G75*
G02*
X182160000Y-75495000I-225000J0D01*
G01*
X181660000Y-75495000D01*
G75*
G02*
X181435000Y-75270000I0J225000D01*
G01*
X181435000Y-74820000D01*
G75*
G02*
X181660000Y-74595000I225000J0D01*
G01*
G37*
G36*
G01*
X181660000Y-73045000D02*
X182160000Y-73045000D01*
G75*
G02*
X182385000Y-73270000I0J-225000D01*
G01*
X182385000Y-73720000D01*
G75*
G02*
X182160000Y-73945000I-225000J0D01*
G01*
X181660000Y-73945000D01*
G75*
G02*
X181435000Y-73720000I0J225000D01*
G01*
X181435000Y-73270000D01*
G75*
G02*
X181660000Y-73045000I225000J0D01*
G01*
G37*
G36*
G01*
X184717000Y-65261500D02*
X184717000Y-64761500D01*
G75*
G02*
X184942000Y-64536500I225000J0D01*
G01*
X185392000Y-64536500D01*
G75*
G02*
X185617000Y-64761500I0J-225000D01*
G01*
X185617000Y-65261500D01*
G75*
G02*
X185392000Y-65486500I-225000J0D01*
G01*
X184942000Y-65486500D01*
G75*
G02*
X184717000Y-65261500I0J225000D01*
G01*
G37*
G36*
G01*
X183167000Y-65261500D02*
X183167000Y-64761500D01*
G75*
G02*
X183392000Y-64536500I225000J0D01*
G01*
X183842000Y-64536500D01*
G75*
G02*
X184067000Y-64761500I0J-225000D01*
G01*
X184067000Y-65261500D01*
G75*
G02*
X183842000Y-65486500I-225000J0D01*
G01*
X183392000Y-65486500D01*
G75*
G02*
X183167000Y-65261500I0J225000D01*
G01*
G37*
G36*
G01*
X139493000Y-88880000D02*
X138993000Y-88880000D01*
G75*
G02*
X138768000Y-88655000I0J225000D01*
G01*
X138768000Y-88205000D01*
G75*
G02*
X138993000Y-87980000I225000J0D01*
G01*
X139493000Y-87980000D01*
G75*
G02*
X139718000Y-88205000I0J-225000D01*
G01*
X139718000Y-88655000D01*
G75*
G02*
X139493000Y-88880000I-225000J0D01*
G01*
G37*
G36*
G01*
X139493000Y-90430000D02*
X138993000Y-90430000D01*
G75*
G02*
X138768000Y-90205000I0J225000D01*
G01*
X138768000Y-89755000D01*
G75*
G02*
X138993000Y-89530000I225000J0D01*
G01*
X139493000Y-89530000D01*
G75*
G02*
X139718000Y-89755000I0J-225000D01*
G01*
X139718000Y-90205000D01*
G75*
G02*
X139493000Y-90430000I-225000J0D01*
G01*
G37*
G36*
G01*
X181660000Y-71445000D02*
X182160000Y-71445000D01*
G75*
G02*
X182385000Y-71670000I0J-225000D01*
G01*
X182385000Y-72120000D01*
G75*
G02*
X182160000Y-72345000I-225000J0D01*
G01*
X181660000Y-72345000D01*
G75*
G02*
X181435000Y-72120000I0J225000D01*
G01*
X181435000Y-71670000D01*
G75*
G02*
X181660000Y-71445000I225000J0D01*
G01*
G37*
G36*
G01*
X181660000Y-69895000D02*
X182160000Y-69895000D01*
G75*
G02*
X182385000Y-70120000I0J-225000D01*
G01*
X182385000Y-70570000D01*
G75*
G02*
X182160000Y-70795000I-225000J0D01*
G01*
X181660000Y-70795000D01*
G75*
G02*
X181435000Y-70570000I0J225000D01*
G01*
X181435000Y-70120000D01*
G75*
G02*
X181660000Y-69895000I225000J0D01*
G01*
G37*
G36*
G01*
X170175000Y-54250000D02*
X170175000Y-53750000D01*
G75*
G02*
X170400000Y-53525000I225000J0D01*
G01*
X170850000Y-53525000D01*
G75*
G02*
X171075000Y-53750000I0J-225000D01*
G01*
X171075000Y-54250000D01*
G75*
G02*
X170850000Y-54475000I-225000J0D01*
G01*
X170400000Y-54475000D01*
G75*
G02*
X170175000Y-54250000I0J225000D01*
G01*
G37*
G36*
G01*
X168625000Y-54250000D02*
X168625000Y-53750000D01*
G75*
G02*
X168850000Y-53525000I225000J0D01*
G01*
X169300000Y-53525000D01*
G75*
G02*
X169525000Y-53750000I0J-225000D01*
G01*
X169525000Y-54250000D01*
G75*
G02*
X169300000Y-54475000I-225000J0D01*
G01*
X168850000Y-54475000D01*
G75*
G02*
X168625000Y-54250000I0J225000D01*
G01*
G37*
G36*
G01*
X151375000Y-87050000D02*
X151375000Y-87550000D01*
G75*
G02*
X151150000Y-87775000I-225000J0D01*
G01*
X150700000Y-87775000D01*
G75*
G02*
X150475000Y-87550000I0J225000D01*
G01*
X150475000Y-87050000D01*
G75*
G02*
X150700000Y-86825000I225000J0D01*
G01*
X151150000Y-86825000D01*
G75*
G02*
X151375000Y-87050000I0J-225000D01*
G01*
G37*
G36*
G01*
X152925000Y-87050000D02*
X152925000Y-87550000D01*
G75*
G02*
X152700000Y-87775000I-225000J0D01*
G01*
X152250000Y-87775000D01*
G75*
G02*
X152025000Y-87550000I0J225000D01*
G01*
X152025000Y-87050000D01*
G75*
G02*
X152250000Y-86825000I225000J0D01*
G01*
X152700000Y-86825000D01*
G75*
G02*
X152925000Y-87050000I0J-225000D01*
G01*
G37*
G36*
G01*
X178351000Y-64698000D02*
X178351000Y-65198000D01*
G75*
G02*
X178126000Y-65423000I-225000J0D01*
G01*
X177676000Y-65423000D01*
G75*
G02*
X177451000Y-65198000I0J225000D01*
G01*
X177451000Y-64698000D01*
G75*
G02*
X177676000Y-64473000I225000J0D01*
G01*
X178126000Y-64473000D01*
G75*
G02*
X178351000Y-64698000I0J-225000D01*
G01*
G37*
G36*
G01*
X179901000Y-64698000D02*
X179901000Y-65198000D01*
G75*
G02*
X179676000Y-65423000I-225000J0D01*
G01*
X179226000Y-65423000D01*
G75*
G02*
X179001000Y-65198000I0J225000D01*
G01*
X179001000Y-64698000D01*
G75*
G02*
X179226000Y-64473000I225000J0D01*
G01*
X179676000Y-64473000D01*
G75*
G02*
X179901000Y-64698000I0J-225000D01*
G01*
G37*
G36*
G01*
X142220000Y-88122000D02*
X142220000Y-88622000D01*
G75*
G02*
X141995000Y-88847000I-225000J0D01*
G01*
X141545000Y-88847000D01*
G75*
G02*
X141320000Y-88622000I0J225000D01*
G01*
X141320000Y-88122000D01*
G75*
G02*
X141545000Y-87897000I225000J0D01*
G01*
X141995000Y-87897000D01*
G75*
G02*
X142220000Y-88122000I0J-225000D01*
G01*
G37*
G36*
G01*
X143770000Y-88122000D02*
X143770000Y-88622000D01*
G75*
G02*
X143545000Y-88847000I-225000J0D01*
G01*
X143095000Y-88847000D01*
G75*
G02*
X142870000Y-88622000I0J225000D01*
G01*
X142870000Y-88122000D01*
G75*
G02*
X143095000Y-87897000I225000J0D01*
G01*
X143545000Y-87897000D01*
G75*
G02*
X143770000Y-88122000I0J-225000D01*
G01*
G37*
G36*
G01*
X151106000Y-92627000D02*
X150606000Y-92627000D01*
G75*
G02*
X150381000Y-92402000I0J225000D01*
G01*
X150381000Y-91952000D01*
G75*
G02*
X150606000Y-91727000I225000J0D01*
G01*
X151106000Y-91727000D01*
G75*
G02*
X151331000Y-91952000I0J-225000D01*
G01*
X151331000Y-92402000D01*
G75*
G02*
X151106000Y-92627000I-225000J0D01*
G01*
G37*
G36*
G01*
X151106000Y-94177000D02*
X150606000Y-94177000D01*
G75*
G02*
X150381000Y-93952000I0J225000D01*
G01*
X150381000Y-93502000D01*
G75*
G02*
X150606000Y-93277000I225000J0D01*
G01*
X151106000Y-93277000D01*
G75*
G02*
X151331000Y-93502000I0J-225000D01*
G01*
X151331000Y-93952000D01*
G75*
G02*
X151106000Y-94177000I-225000J0D01*
G01*
G37*
G36*
G01*
X181284000Y-62415500D02*
X181784000Y-62415500D01*
G75*
G02*
X182009000Y-62640500I0J-225000D01*
G01*
X182009000Y-63090500D01*
G75*
G02*
X181784000Y-63315500I-225000J0D01*
G01*
X181284000Y-63315500D01*
G75*
G02*
X181059000Y-63090500I0J225000D01*
G01*
X181059000Y-62640500D01*
G75*
G02*
X181284000Y-62415500I225000J0D01*
G01*
G37*
G36*
G01*
X181284000Y-60865500D02*
X181784000Y-60865500D01*
G75*
G02*
X182009000Y-61090500I0J-225000D01*
G01*
X182009000Y-61540500D01*
G75*
G02*
X181784000Y-61765500I-225000J0D01*
G01*
X181284000Y-61765500D01*
G75*
G02*
X181059000Y-61540500I0J225000D01*
G01*
X181059000Y-61090500D01*
G75*
G02*
X181284000Y-60865500I225000J0D01*
G01*
G37*
G36*
G01*
X147315000Y-88622000D02*
X147315000Y-88122000D01*
G75*
G02*
X147540000Y-87897000I225000J0D01*
G01*
X147990000Y-87897000D01*
G75*
G02*
X148215000Y-88122000I0J-225000D01*
G01*
X148215000Y-88622000D01*
G75*
G02*
X147990000Y-88847000I-225000J0D01*
G01*
X147540000Y-88847000D01*
G75*
G02*
X147315000Y-88622000I0J225000D01*
G01*
G37*
G36*
G01*
X145765000Y-88622000D02*
X145765000Y-88122000D01*
G75*
G02*
X145990000Y-87897000I225000J0D01*
G01*
X146440000Y-87897000D01*
G75*
G02*
X146665000Y-88122000I0J-225000D01*
G01*
X146665000Y-88622000D01*
G75*
G02*
X146440000Y-88847000I-225000J0D01*
G01*
X145990000Y-88847000D01*
G75*
G02*
X145765000Y-88622000I0J225000D01*
G01*
G37*
G36*
G01*
X152025000Y-85950000D02*
X152025000Y-85450000D01*
G75*
G02*
X152250000Y-85225000I225000J0D01*
G01*
X152700000Y-85225000D01*
G75*
G02*
X152925000Y-85450000I0J-225000D01*
G01*
X152925000Y-85950000D01*
G75*
G02*
X152700000Y-86175000I-225000J0D01*
G01*
X152250000Y-86175000D01*
G75*
G02*
X152025000Y-85950000I0J225000D01*
G01*
G37*
G36*
G01*
X150475000Y-85950000D02*
X150475000Y-85450000D01*
G75*
G02*
X150700000Y-85225000I225000J0D01*
G01*
X151150000Y-85225000D01*
G75*
G02*
X151375000Y-85450000I0J-225000D01*
G01*
X151375000Y-85950000D01*
G75*
G02*
X151150000Y-86175000I-225000J0D01*
G01*
X150700000Y-86175000D01*
G75*
G02*
X150475000Y-85950000I0J225000D01*
G01*
G37*
G36*
G01*
X182150000Y-77075000D02*
X181650000Y-77075000D01*
G75*
G02*
X181425000Y-76850000I0J225000D01*
G01*
X181425000Y-76400000D01*
G75*
G02*
X181650000Y-76175000I225000J0D01*
G01*
X182150000Y-76175000D01*
G75*
G02*
X182375000Y-76400000I0J-225000D01*
G01*
X182375000Y-76850000D01*
G75*
G02*
X182150000Y-77075000I-225000J0D01*
G01*
G37*
G36*
G01*
X182150000Y-78625000D02*
X181650000Y-78625000D01*
G75*
G02*
X181425000Y-78400000I0J225000D01*
G01*
X181425000Y-77950000D01*
G75*
G02*
X181650000Y-77725000I225000J0D01*
G01*
X182150000Y-77725000D01*
G75*
G02*
X182375000Y-77950000I0J-225000D01*
G01*
X182375000Y-78400000D01*
G75*
G02*
X182150000Y-78625000I-225000J0D01*
G01*
G37*
G36*
G01*
X189225000Y-54276000D02*
X189225000Y-53776000D01*
G75*
G02*
X189450000Y-53551000I225000J0D01*
G01*
X189900000Y-53551000D01*
G75*
G02*
X190125000Y-53776000I0J-225000D01*
G01*
X190125000Y-54276000D01*
G75*
G02*
X189900000Y-54501000I-225000J0D01*
G01*
X189450000Y-54501000D01*
G75*
G02*
X189225000Y-54276000I0J225000D01*
G01*
G37*
G36*
G01*
X187675000Y-54276000D02*
X187675000Y-53776000D01*
G75*
G02*
X187900000Y-53551000I225000J0D01*
G01*
X188350000Y-53551000D01*
G75*
G02*
X188575000Y-53776000I0J-225000D01*
G01*
X188575000Y-54276000D01*
G75*
G02*
X188350000Y-54501000I-225000J0D01*
G01*
X187900000Y-54501000D01*
G75*
G02*
X187675000Y-54276000I0J225000D01*
G01*
G37*
G36*
G01*
X159225000Y-87622000D02*
X159225000Y-88122000D01*
G75*
G02*
X159000000Y-88347000I-225000J0D01*
G01*
X158550000Y-88347000D01*
G75*
G02*
X158325000Y-88122000I0J225000D01*
G01*
X158325000Y-87622000D01*
G75*
G02*
X158550000Y-87397000I225000J0D01*
G01*
X159000000Y-87397000D01*
G75*
G02*
X159225000Y-87622000I0J-225000D01*
G01*
G37*
G36*
G01*
X160775000Y-87622000D02*
X160775000Y-88122000D01*
G75*
G02*
X160550000Y-88347000I-225000J0D01*
G01*
X160100000Y-88347000D01*
G75*
G02*
X159875000Y-88122000I0J225000D01*
G01*
X159875000Y-87622000D01*
G75*
G02*
X160100000Y-87397000I225000J0D01*
G01*
X160550000Y-87397000D01*
G75*
G02*
X160775000Y-87622000I0J-225000D01*
G01*
G37*
G36*
G01*
X162925000Y-88122000D02*
X162925000Y-87622000D01*
G75*
G02*
X163150000Y-87397000I225000J0D01*
G01*
X163600000Y-87397000D01*
G75*
G02*
X163825000Y-87622000I0J-225000D01*
G01*
X163825000Y-88122000D01*
G75*
G02*
X163600000Y-88347000I-225000J0D01*
G01*
X163150000Y-88347000D01*
G75*
G02*
X162925000Y-88122000I0J225000D01*
G01*
G37*
G36*
G01*
X161375000Y-88122000D02*
X161375000Y-87622000D01*
G75*
G02*
X161600000Y-87397000I225000J0D01*
G01*
X162050000Y-87397000D01*
G75*
G02*
X162275000Y-87622000I0J-225000D01*
G01*
X162275000Y-88122000D01*
G75*
G02*
X162050000Y-88347000I-225000J0D01*
G01*
X161600000Y-88347000D01*
G75*
G02*
X161375000Y-88122000I0J225000D01*
G01*
G37*
G36*
G01*
X148383000Y-73767000D02*
X147883000Y-73767000D01*
G75*
G02*
X147658000Y-73542000I0J225000D01*
G01*
X147658000Y-73092000D01*
G75*
G02*
X147883000Y-72867000I225000J0D01*
G01*
X148383000Y-72867000D01*
G75*
G02*
X148608000Y-73092000I0J-225000D01*
G01*
X148608000Y-73542000D01*
G75*
G02*
X148383000Y-73767000I-225000J0D01*
G01*
G37*
G36*
G01*
X148383000Y-75317000D02*
X147883000Y-75317000D01*
G75*
G02*
X147658000Y-75092000I0J225000D01*
G01*
X147658000Y-74642000D01*
G75*
G02*
X147883000Y-74417000I225000J0D01*
G01*
X148383000Y-74417000D01*
G75*
G02*
X148608000Y-74642000I0J-225000D01*
G01*
X148608000Y-75092000D01*
G75*
G02*
X148383000Y-75317000I-225000J0D01*
G01*
G37*
G36*
G01*
X157908000Y-63861000D02*
X157408000Y-63861000D01*
G75*
G02*
X157183000Y-63636000I0J225000D01*
G01*
X157183000Y-63186000D01*
G75*
G02*
X157408000Y-62961000I225000J0D01*
G01*
X157908000Y-62961000D01*
G75*
G02*
X158133000Y-63186000I0J-225000D01*
G01*
X158133000Y-63636000D01*
G75*
G02*
X157908000Y-63861000I-225000J0D01*
G01*
G37*
G36*
G01*
X157908000Y-65411000D02*
X157408000Y-65411000D01*
G75*
G02*
X157183000Y-65186000I0J225000D01*
G01*
X157183000Y-64736000D01*
G75*
G02*
X157408000Y-64511000I225000J0D01*
G01*
X157908000Y-64511000D01*
G75*
G02*
X158133000Y-64736000I0J-225000D01*
G01*
X158133000Y-65186000D01*
G75*
G02*
X157908000Y-65411000I-225000J0D01*
G01*
G37*
G36*
G01*
X165350000Y-75325000D02*
X165850000Y-75325000D01*
G75*
G02*
X166075000Y-75550000I0J-225000D01*
G01*
X166075000Y-76000000D01*
G75*
G02*
X165850000Y-76225000I-225000J0D01*
G01*
X165350000Y-76225000D01*
G75*
G02*
X165125000Y-76000000I0J225000D01*
G01*
X165125000Y-75550000D01*
G75*
G02*
X165350000Y-75325000I225000J0D01*
G01*
G37*
G36*
G01*
X165350000Y-73775000D02*
X165850000Y-73775000D01*
G75*
G02*
X166075000Y-74000000I0J-225000D01*
G01*
X166075000Y-74450000D01*
G75*
G02*
X165850000Y-74675000I-225000J0D01*
G01*
X165350000Y-74675000D01*
G75*
G02*
X165125000Y-74450000I0J225000D01*
G01*
X165125000Y-74000000D01*
G75*
G02*
X165350000Y-73775000I225000J0D01*
G01*
G37*
G36*
G01*
X157789000Y-84069000D02*
X158289000Y-84069000D01*
G75*
G02*
X158514000Y-84294000I0J-225000D01*
G01*
X158514000Y-84744000D01*
G75*
G02*
X158289000Y-84969000I-225000J0D01*
G01*
X157789000Y-84969000D01*
G75*
G02*
X157564000Y-84744000I0J225000D01*
G01*
X157564000Y-84294000D01*
G75*
G02*
X157789000Y-84069000I225000J0D01*
G01*
G37*
G36*
G01*
X157789000Y-82519000D02*
X158289000Y-82519000D01*
G75*
G02*
X158514000Y-82744000I0J-225000D01*
G01*
X158514000Y-83194000D01*
G75*
G02*
X158289000Y-83419000I-225000J0D01*
G01*
X157789000Y-83419000D01*
G75*
G02*
X157564000Y-83194000I0J225000D01*
G01*
X157564000Y-82744000D01*
G75*
G02*
X157789000Y-82519000I225000J0D01*
G01*
G37*
G36*
G01*
X114575000Y-91850000D02*
X114575000Y-92350000D01*
G75*
G02*
X114350000Y-92575000I-225000J0D01*
G01*
X113900000Y-92575000D01*
G75*
G02*
X113675000Y-92350000I0J225000D01*
G01*
X113675000Y-91850000D01*
G75*
G02*
X113900000Y-91625000I225000J0D01*
G01*
X114350000Y-91625000D01*
G75*
G02*
X114575000Y-91850000I0J-225000D01*
G01*
G37*
G36*
G01*
X116125000Y-91850000D02*
X116125000Y-92350000D01*
G75*
G02*
X115900000Y-92575000I-225000J0D01*
G01*
X115450000Y-92575000D01*
G75*
G02*
X115225000Y-92350000I0J225000D01*
G01*
X115225000Y-91850000D01*
G75*
G02*
X115450000Y-91625000I225000J0D01*
G01*
X115900000Y-91625000D01*
G75*
G02*
X116125000Y-91850000I0J-225000D01*
G01*
G37*
G36*
G01*
X113525000Y-59250000D02*
X113525000Y-58750000D01*
G75*
G02*
X113750000Y-58525000I225000J0D01*
G01*
X114200000Y-58525000D01*
G75*
G02*
X114425000Y-58750000I0J-225000D01*
G01*
X114425000Y-59250000D01*
G75*
G02*
X114200000Y-59475000I-225000J0D01*
G01*
X113750000Y-59475000D01*
G75*
G02*
X113525000Y-59250000I0J225000D01*
G01*
G37*
G36*
G01*
X111975000Y-59250000D02*
X111975000Y-58750000D01*
G75*
G02*
X112200000Y-58525000I225000J0D01*
G01*
X112650000Y-58525000D01*
G75*
G02*
X112875000Y-58750000I0J-225000D01*
G01*
X112875000Y-59250000D01*
G75*
G02*
X112650000Y-59475000I-225000J0D01*
G01*
X112200000Y-59475000D01*
G75*
G02*
X111975000Y-59250000I0J225000D01*
G01*
G37*
G36*
G01*
X173725000Y-88275000D02*
X173725000Y-87725000D01*
G75*
G02*
X173925000Y-87525000I200000J0D01*
G01*
X174325000Y-87525000D01*
G75*
G02*
X174525000Y-87725000I0J-200000D01*
G01*
X174525000Y-88275000D01*
G75*
G02*
X174325000Y-88475000I-200000J0D01*
G01*
X173925000Y-88475000D01*
G75*
G02*
X173725000Y-88275000I0J200000D01*
G01*
G37*
G36*
G01*
X172075000Y-88275000D02*
X172075000Y-87725000D01*
G75*
G02*
X172275000Y-87525000I200000J0D01*
G01*
X172675000Y-87525000D01*
G75*
G02*
X172875000Y-87725000I0J-200000D01*
G01*
X172875000Y-88275000D01*
G75*
G02*
X172675000Y-88475000I-200000J0D01*
G01*
X172275000Y-88475000D01*
G75*
G02*
X172075000Y-88275000I0J200000D01*
G01*
G37*
G36*
G01*
X139518000Y-92527000D02*
X138968000Y-92527000D01*
G75*
G02*
X138768000Y-92327000I0J200000D01*
G01*
X138768000Y-91927000D01*
G75*
G02*
X138968000Y-91727000I200000J0D01*
G01*
X139518000Y-91727000D01*
G75*
G02*
X139718000Y-91927000I0J-200000D01*
G01*
X139718000Y-92327000D01*
G75*
G02*
X139518000Y-92527000I-200000J0D01*
G01*
G37*
G36*
G01*
X139518000Y-94177000D02*
X138968000Y-94177000D01*
G75*
G02*
X138768000Y-93977000I0J200000D01*
G01*
X138768000Y-93577000D01*
G75*
G02*
X138968000Y-93377000I200000J0D01*
G01*
X139518000Y-93377000D01*
G75*
G02*
X139718000Y-93577000I0J-200000D01*
G01*
X139718000Y-93977000D01*
G75*
G02*
X139518000Y-94177000I-200000J0D01*
G01*
G37*
G36*
G01*
X152239000Y-93377000D02*
X152789000Y-93377000D01*
G75*
G02*
X152989000Y-93577000I0J-200000D01*
G01*
X152989000Y-93977000D01*
G75*
G02*
X152789000Y-94177000I-200000J0D01*
G01*
X152239000Y-94177000D01*
G75*
G02*
X152039000Y-93977000I0J200000D01*
G01*
X152039000Y-93577000D01*
G75*
G02*
X152239000Y-93377000I200000J0D01*
G01*
G37*
G36*
G01*
X152239000Y-91727000D02*
X152789000Y-91727000D01*
G75*
G02*
X152989000Y-91927000I0J-200000D01*
G01*
X152989000Y-92327000D01*
G75*
G02*
X152789000Y-92527000I-200000J0D01*
G01*
X152239000Y-92527000D01*
G75*
G02*
X152039000Y-92327000I0J200000D01*
G01*
X152039000Y-91927000D01*
G75*
G02*
X152239000Y-91727000I200000J0D01*
G01*
G37*
G36*
G01*
X130975000Y-72625000D02*
X130975000Y-73175000D01*
G75*
G02*
X130775000Y-73375000I-200000J0D01*
G01*
X130375000Y-73375000D01*
G75*
G02*
X130175000Y-73175000I0J200000D01*
G01*
X130175000Y-72625000D01*
G75*
G02*
X130375000Y-72425000I200000J0D01*
G01*
X130775000Y-72425000D01*
G75*
G02*
X130975000Y-72625000I0J-200000D01*
G01*
G37*
G36*
G01*
X132625000Y-72625000D02*
X132625000Y-73175000D01*
G75*
G02*
X132425000Y-73375000I-200000J0D01*
G01*
X132025000Y-73375000D01*
G75*
G02*
X131825000Y-73175000I0J200000D01*
G01*
X131825000Y-72625000D01*
G75*
G02*
X132025000Y-72425000I200000J0D01*
G01*
X132425000Y-72425000D01*
G75*
G02*
X132625000Y-72625000I0J-200000D01*
G01*
G37*
G36*
G01*
X143150000Y-53532000D02*
X143150000Y-52982000D01*
G75*
G02*
X143350000Y-52782000I200000J0D01*
G01*
X143750000Y-52782000D01*
G75*
G02*
X143950000Y-52982000I0J-200000D01*
G01*
X143950000Y-53532000D01*
G75*
G02*
X143750000Y-53732000I-200000J0D01*
G01*
X143350000Y-53732000D01*
G75*
G02*
X143150000Y-53532000I0J200000D01*
G01*
G37*
G36*
G01*
X141500000Y-53532000D02*
X141500000Y-52982000D01*
G75*
G02*
X141700000Y-52782000I200000J0D01*
G01*
X142100000Y-52782000D01*
G75*
G02*
X142300000Y-52982000I0J-200000D01*
G01*
X142300000Y-53532000D01*
G75*
G02*
X142100000Y-53732000I-200000J0D01*
G01*
X141700000Y-53732000D01*
G75*
G02*
X141500000Y-53532000I0J200000D01*
G01*
G37*
G36*
G01*
X179101000Y-63064000D02*
X179101000Y-62514000D01*
G75*
G02*
X179301000Y-62314000I200000J0D01*
G01*
X179701000Y-62314000D01*
G75*
G02*
X179901000Y-62514000I0J-200000D01*
G01*
X179901000Y-63064000D01*
G75*
G02*
X179701000Y-63264000I-200000J0D01*
G01*
X179301000Y-63264000D01*
G75*
G02*
X179101000Y-63064000I0J200000D01*
G01*
G37*
G36*
G01*
X177451000Y-63064000D02*
X177451000Y-62514000D01*
G75*
G02*
X177651000Y-62314000I200000J0D01*
G01*
X178051000Y-62314000D01*
G75*
G02*
X178251000Y-62514000I0J-200000D01*
G01*
X178251000Y-63064000D01*
G75*
G02*
X178051000Y-63264000I-200000J0D01*
G01*
X177651000Y-63264000D01*
G75*
G02*
X177451000Y-63064000I0J200000D01*
G01*
G37*
G36*
G01*
X150581000Y-90130000D02*
X151131000Y-90130000D01*
G75*
G02*
X151331000Y-90330000I0J-200000D01*
G01*
X151331000Y-90730000D01*
G75*
G02*
X151131000Y-90930000I-200000J0D01*
G01*
X150581000Y-90930000D01*
G75*
G02*
X150381000Y-90730000I0J200000D01*
G01*
X150381000Y-90330000D01*
G75*
G02*
X150581000Y-90130000I200000J0D01*
G01*
G37*
G36*
G01*
X150581000Y-88480000D02*
X151131000Y-88480000D01*
G75*
G02*
X151331000Y-88680000I0J-200000D01*
G01*
X151331000Y-89080000D01*
G75*
G02*
X151131000Y-89280000I-200000J0D01*
G01*
X150581000Y-89280000D01*
G75*
G02*
X150381000Y-89080000I0J200000D01*
G01*
X150381000Y-88680000D01*
G75*
G02*
X150581000Y-88480000I200000J0D01*
G01*
G37*
G36*
G01*
X175935000Y-78795000D02*
X175935000Y-79345000D01*
G75*
G02*
X175735000Y-79545000I-200000J0D01*
G01*
X175335000Y-79545000D01*
G75*
G02*
X175135000Y-79345000I0J200000D01*
G01*
X175135000Y-78795000D01*
G75*
G02*
X175335000Y-78595000I200000J0D01*
G01*
X175735000Y-78595000D01*
G75*
G02*
X175935000Y-78795000I0J-200000D01*
G01*
G37*
G36*
G01*
X177585000Y-78795000D02*
X177585000Y-79345000D01*
G75*
G02*
X177385000Y-79545000I-200000J0D01*
G01*
X176985000Y-79545000D01*
G75*
G02*
X176785000Y-79345000I0J200000D01*
G01*
X176785000Y-78795000D01*
G75*
G02*
X176985000Y-78595000I200000J0D01*
G01*
X177385000Y-78595000D01*
G75*
G02*
X177585000Y-78795000I0J-200000D01*
G01*
G37*
G36*
G01*
X179885000Y-79345000D02*
X179885000Y-78795000D01*
G75*
G02*
X180085000Y-78595000I200000J0D01*
G01*
X180485000Y-78595000D01*
G75*
G02*
X180685000Y-78795000I0J-200000D01*
G01*
X180685000Y-79345000D01*
G75*
G02*
X180485000Y-79545000I-200000J0D01*
G01*
X180085000Y-79545000D01*
G75*
G02*
X179885000Y-79345000I0J200000D01*
G01*
G37*
G36*
G01*
X178235000Y-79345000D02*
X178235000Y-78795000D01*
G75*
G02*
X178435000Y-78595000I200000J0D01*
G01*
X178835000Y-78595000D01*
G75*
G02*
X179035000Y-78795000I0J-200000D01*
G01*
X179035000Y-79345000D01*
G75*
G02*
X178835000Y-79545000I-200000J0D01*
G01*
X178435000Y-79545000D01*
G75*
G02*
X178235000Y-79345000I0J200000D01*
G01*
G37*
G36*
G01*
X164025000Y-55075000D02*
X164025000Y-54525000D01*
G75*
G02*
X164225000Y-54325000I200000J0D01*
G01*
X164625000Y-54325000D01*
G75*
G02*
X164825000Y-54525000I0J-200000D01*
G01*
X164825000Y-55075000D01*
G75*
G02*
X164625000Y-55275000I-200000J0D01*
G01*
X164225000Y-55275000D01*
G75*
G02*
X164025000Y-55075000I0J200000D01*
G01*
G37*
G36*
G01*
X162375000Y-55075000D02*
X162375000Y-54525000D01*
G75*
G02*
X162575000Y-54325000I200000J0D01*
G01*
X162975000Y-54325000D01*
G75*
G02*
X163175000Y-54525000I0J-200000D01*
G01*
X163175000Y-55075000D01*
G75*
G02*
X162975000Y-55275000I-200000J0D01*
G01*
X162575000Y-55275000D01*
G75*
G02*
X162375000Y-55075000I0J200000D01*
G01*
G37*
G36*
G01*
X163175000Y-52925000D02*
X163175000Y-53475000D01*
G75*
G02*
X162975000Y-53675000I-200000J0D01*
G01*
X162575000Y-53675000D01*
G75*
G02*
X162375000Y-53475000I0J200000D01*
G01*
X162375000Y-52925000D01*
G75*
G02*
X162575000Y-52725000I200000J0D01*
G01*
X162975000Y-52725000D01*
G75*
G02*
X163175000Y-52925000I0J-200000D01*
G01*
G37*
G36*
G01*
X164825000Y-52925000D02*
X164825000Y-53475000D01*
G75*
G02*
X164625000Y-53675000I-200000J0D01*
G01*
X164225000Y-53675000D01*
G75*
G02*
X164025000Y-53475000I0J200000D01*
G01*
X164025000Y-52925000D01*
G75*
G02*
X164225000Y-52725000I200000J0D01*
G01*
X164625000Y-52725000D01*
G75*
G02*
X164825000Y-52925000I0J-200000D01*
G01*
G37*
G36*
G01*
X183967000Y-77309500D02*
X183967000Y-77859500D01*
G75*
G02*
X183767000Y-78059500I-200000J0D01*
G01*
X183367000Y-78059500D01*
G75*
G02*
X183167000Y-77859500I0J200000D01*
G01*
X183167000Y-77309500D01*
G75*
G02*
X183367000Y-77109500I200000J0D01*
G01*
X183767000Y-77109500D01*
G75*
G02*
X183967000Y-77309500I0J-200000D01*
G01*
G37*
G36*
G01*
X185617000Y-77309500D02*
X185617000Y-77859500D01*
G75*
G02*
X185417000Y-78059500I-200000J0D01*
G01*
X185017000Y-78059500D01*
G75*
G02*
X184817000Y-77859500I0J200000D01*
G01*
X184817000Y-77309500D01*
G75*
G02*
X185017000Y-77109500I200000J0D01*
G01*
X185417000Y-77109500D01*
G75*
G02*
X185617000Y-77309500I0J-200000D01*
G01*
G37*
G36*
G01*
X179035000Y-80345000D02*
X179035000Y-80895000D01*
G75*
G02*
X178835000Y-81095000I-200000J0D01*
G01*
X178435000Y-81095000D01*
G75*
G02*
X178235000Y-80895000I0J200000D01*
G01*
X178235000Y-80345000D01*
G75*
G02*
X178435000Y-80145000I200000J0D01*
G01*
X178835000Y-80145000D01*
G75*
G02*
X179035000Y-80345000I0J-200000D01*
G01*
G37*
G36*
G01*
X180685000Y-80345000D02*
X180685000Y-80895000D01*
G75*
G02*
X180485000Y-81095000I-200000J0D01*
G01*
X180085000Y-81095000D01*
G75*
G02*
X179885000Y-80895000I0J200000D01*
G01*
X179885000Y-80345000D01*
G75*
G02*
X180085000Y-80145000I200000J0D01*
G01*
X180485000Y-80145000D01*
G75*
G02*
X180685000Y-80345000I0J-200000D01*
G01*
G37*
G36*
G01*
X189261000Y-75700500D02*
X189261000Y-75150500D01*
G75*
G02*
X189461000Y-74950500I200000J0D01*
G01*
X189861000Y-74950500D01*
G75*
G02*
X190061000Y-75150500I0J-200000D01*
G01*
X190061000Y-75700500D01*
G75*
G02*
X189861000Y-75900500I-200000J0D01*
G01*
X189461000Y-75900500D01*
G75*
G02*
X189261000Y-75700500I0J200000D01*
G01*
G37*
G36*
G01*
X187611000Y-75700500D02*
X187611000Y-75150500D01*
G75*
G02*
X187811000Y-74950500I200000J0D01*
G01*
X188211000Y-74950500D01*
G75*
G02*
X188411000Y-75150500I0J-200000D01*
G01*
X188411000Y-75700500D01*
G75*
G02*
X188211000Y-75900500I-200000J0D01*
G01*
X187811000Y-75900500D01*
G75*
G02*
X187611000Y-75700500I0J200000D01*
G01*
G37*
G36*
G01*
X174720000Y-54301000D02*
X174720000Y-53751000D01*
G75*
G02*
X174920000Y-53551000I200000J0D01*
G01*
X175320000Y-53551000D01*
G75*
G02*
X175520000Y-53751000I0J-200000D01*
G01*
X175520000Y-54301000D01*
G75*
G02*
X175320000Y-54501000I-200000J0D01*
G01*
X174920000Y-54501000D01*
G75*
G02*
X174720000Y-54301000I0J200000D01*
G01*
G37*
G36*
G01*
X173070000Y-54301000D02*
X173070000Y-53751000D01*
G75*
G02*
X173270000Y-53551000I200000J0D01*
G01*
X173670000Y-53551000D01*
G75*
G02*
X173870000Y-53751000I0J-200000D01*
G01*
X173870000Y-54301000D01*
G75*
G02*
X173670000Y-54501000I-200000J0D01*
G01*
X173270000Y-54501000D01*
G75*
G02*
X173070000Y-54301000I0J200000D01*
G01*
G37*
G36*
G01*
X173870000Y-55973500D02*
X173870000Y-56523500D01*
G75*
G02*
X173670000Y-56723500I-200000J0D01*
G01*
X173270000Y-56723500D01*
G75*
G02*
X173070000Y-56523500I0J200000D01*
G01*
X173070000Y-55973500D01*
G75*
G02*
X173270000Y-55773500I200000J0D01*
G01*
X173670000Y-55773500D01*
G75*
G02*
X173870000Y-55973500I0J-200000D01*
G01*
G37*
G36*
G01*
X175520000Y-55973500D02*
X175520000Y-56523500D01*
G75*
G02*
X175320000Y-56723500I-200000J0D01*
G01*
X174920000Y-56723500D01*
G75*
G02*
X174720000Y-56523500I0J200000D01*
G01*
X174720000Y-55973500D01*
G75*
G02*
X174920000Y-55773500I200000J0D01*
G01*
X175320000Y-55773500D01*
G75*
G02*
X175520000Y-55973500I0J-200000D01*
G01*
G37*
G36*
G01*
X175725000Y-71495000D02*
X176275000Y-71495000D01*
G75*
G02*
X176475000Y-71695000I0J-200000D01*
G01*
X176475000Y-72095000D01*
G75*
G02*
X176275000Y-72295000I-200000J0D01*
G01*
X175725000Y-72295000D01*
G75*
G02*
X175525000Y-72095000I0J200000D01*
G01*
X175525000Y-71695000D01*
G75*
G02*
X175725000Y-71495000I200000J0D01*
G01*
G37*
G36*
G01*
X175725000Y-69845000D02*
X176275000Y-69845000D01*
G75*
G02*
X176475000Y-70045000I0J-200000D01*
G01*
X176475000Y-70445000D01*
G75*
G02*
X176275000Y-70645000I-200000J0D01*
G01*
X175725000Y-70645000D01*
G75*
G02*
X175525000Y-70445000I0J200000D01*
G01*
X175525000Y-70045000D01*
G75*
G02*
X175725000Y-69845000I200000J0D01*
G01*
G37*
G36*
G01*
X178275000Y-66325000D02*
X178275000Y-66875000D01*
G75*
G02*
X178075000Y-67075000I-200000J0D01*
G01*
X177675000Y-67075000D01*
G75*
G02*
X177475000Y-66875000I0J200000D01*
G01*
X177475000Y-66325000D01*
G75*
G02*
X177675000Y-66125000I200000J0D01*
G01*
X178075000Y-66125000D01*
G75*
G02*
X178275000Y-66325000I0J-200000D01*
G01*
G37*
G36*
G01*
X179925000Y-66325000D02*
X179925000Y-66875000D01*
G75*
G02*
X179725000Y-67075000I-200000J0D01*
G01*
X179325000Y-67075000D01*
G75*
G02*
X179125000Y-66875000I0J200000D01*
G01*
X179125000Y-66325000D01*
G75*
G02*
X179325000Y-66125000I200000J0D01*
G01*
X179725000Y-66125000D01*
G75*
G02*
X179925000Y-66325000I0J-200000D01*
G01*
G37*
G36*
G01*
X178251000Y-60291500D02*
X178251000Y-60841500D01*
G75*
G02*
X178051000Y-61041500I-200000J0D01*
G01*
X177651000Y-61041500D01*
G75*
G02*
X177451000Y-60841500I0J200000D01*
G01*
X177451000Y-60291500D01*
G75*
G02*
X177651000Y-60091500I200000J0D01*
G01*
X178051000Y-60091500D01*
G75*
G02*
X178251000Y-60291500I0J-200000D01*
G01*
G37*
G36*
G01*
X179901000Y-60291500D02*
X179901000Y-60841500D01*
G75*
G02*
X179701000Y-61041500I-200000J0D01*
G01*
X179301000Y-61041500D01*
G75*
G02*
X179101000Y-60841500I0J200000D01*
G01*
X179101000Y-60291500D01*
G75*
G02*
X179301000Y-60091500I200000J0D01*
G01*
X179701000Y-60091500D01*
G75*
G02*
X179901000Y-60291500I0J-200000D01*
G01*
G37*
G36*
G01*
X179101000Y-58682500D02*
X179101000Y-58132500D01*
G75*
G02*
X179301000Y-57932500I200000J0D01*
G01*
X179701000Y-57932500D01*
G75*
G02*
X179901000Y-58132500I0J-200000D01*
G01*
X179901000Y-58682500D01*
G75*
G02*
X179701000Y-58882500I-200000J0D01*
G01*
X179301000Y-58882500D01*
G75*
G02*
X179101000Y-58682500I0J200000D01*
G01*
G37*
G36*
G01*
X177451000Y-58682500D02*
X177451000Y-58132500D01*
G75*
G02*
X177651000Y-57932500I200000J0D01*
G01*
X178051000Y-57932500D01*
G75*
G02*
X178251000Y-58132500I0J-200000D01*
G01*
X178251000Y-58682500D01*
G75*
G02*
X178051000Y-58882500I-200000J0D01*
G01*
X177651000Y-58882500D01*
G75*
G02*
X177451000Y-58682500I0J200000D01*
G01*
G37*
G36*
G01*
X179101000Y-56523500D02*
X179101000Y-55973500D01*
G75*
G02*
X179301000Y-55773500I200000J0D01*
G01*
X179701000Y-55773500D01*
G75*
G02*
X179901000Y-55973500I0J-200000D01*
G01*
X179901000Y-56523500D01*
G75*
G02*
X179701000Y-56723500I-200000J0D01*
G01*
X179301000Y-56723500D01*
G75*
G02*
X179101000Y-56523500I0J200000D01*
G01*
G37*
G36*
G01*
X177451000Y-56523500D02*
X177451000Y-55973500D01*
G75*
G02*
X177651000Y-55773500I200000J0D01*
G01*
X178051000Y-55773500D01*
G75*
G02*
X178251000Y-55973500I0J-200000D01*
G01*
X178251000Y-56523500D01*
G75*
G02*
X178051000Y-56723500I-200000J0D01*
G01*
X177651000Y-56723500D01*
G75*
G02*
X177451000Y-56523500I0J200000D01*
G01*
G37*
G36*
G01*
X189261000Y-67445500D02*
X189261000Y-66895500D01*
G75*
G02*
X189461000Y-66695500I200000J0D01*
G01*
X189861000Y-66695500D01*
G75*
G02*
X190061000Y-66895500I0J-200000D01*
G01*
X190061000Y-67445500D01*
G75*
G02*
X189861000Y-67645500I-200000J0D01*
G01*
X189461000Y-67645500D01*
G75*
G02*
X189261000Y-67445500I0J200000D01*
G01*
G37*
G36*
G01*
X187611000Y-67445500D02*
X187611000Y-66895500D01*
G75*
G02*
X187811000Y-66695500I200000J0D01*
G01*
X188211000Y-66695500D01*
G75*
G02*
X188411000Y-66895500I0J-200000D01*
G01*
X188411000Y-67445500D01*
G75*
G02*
X188211000Y-67645500I-200000J0D01*
G01*
X187811000Y-67645500D01*
G75*
G02*
X187611000Y-67445500I0J200000D01*
G01*
G37*
G36*
G01*
X165513000Y-63064000D02*
X165513000Y-62514000D01*
G75*
G02*
X165713000Y-62314000I200000J0D01*
G01*
X166113000Y-62314000D01*
G75*
G02*
X166313000Y-62514000I0J-200000D01*
G01*
X166313000Y-63064000D01*
G75*
G02*
X166113000Y-63264000I-200000J0D01*
G01*
X165713000Y-63264000D01*
G75*
G02*
X165513000Y-63064000I0J200000D01*
G01*
G37*
G36*
G01*
X163863000Y-63064000D02*
X163863000Y-62514000D01*
G75*
G02*
X164063000Y-62314000I200000J0D01*
G01*
X164463000Y-62314000D01*
G75*
G02*
X164663000Y-62514000I0J-200000D01*
G01*
X164663000Y-63064000D01*
G75*
G02*
X164463000Y-63264000I-200000J0D01*
G01*
X164063000Y-63264000D01*
G75*
G02*
X163863000Y-63064000I0J200000D01*
G01*
G37*
G36*
G01*
X174657000Y-63127500D02*
X174657000Y-62577500D01*
G75*
G02*
X174857000Y-62377500I200000J0D01*
G01*
X175257000Y-62377500D01*
G75*
G02*
X175457000Y-62577500I0J-200000D01*
G01*
X175457000Y-63127500D01*
G75*
G02*
X175257000Y-63327500I-200000J0D01*
G01*
X174857000Y-63327500D01*
G75*
G02*
X174657000Y-63127500I0J200000D01*
G01*
G37*
G36*
G01*
X173007000Y-63127500D02*
X173007000Y-62577500D01*
G75*
G02*
X173207000Y-62377500I200000J0D01*
G01*
X173607000Y-62377500D01*
G75*
G02*
X173807000Y-62577500I0J-200000D01*
G01*
X173807000Y-63127500D01*
G75*
G02*
X173607000Y-63327500I-200000J0D01*
G01*
X173207000Y-63327500D01*
G75*
G02*
X173007000Y-63127500I0J200000D01*
G01*
G37*
G36*
G01*
X170211000Y-63064000D02*
X170211000Y-62514000D01*
G75*
G02*
X170411000Y-62314000I200000J0D01*
G01*
X170811000Y-62314000D01*
G75*
G02*
X171011000Y-62514000I0J-200000D01*
G01*
X171011000Y-63064000D01*
G75*
G02*
X170811000Y-63264000I-200000J0D01*
G01*
X170411000Y-63264000D01*
G75*
G02*
X170211000Y-63064000I0J200000D01*
G01*
G37*
G36*
G01*
X168561000Y-63064000D02*
X168561000Y-62514000D01*
G75*
G02*
X168761000Y-62314000I200000J0D01*
G01*
X169161000Y-62314000D01*
G75*
G02*
X169361000Y-62514000I0J-200000D01*
G01*
X169361000Y-63064000D01*
G75*
G02*
X169161000Y-63264000I-200000J0D01*
G01*
X168761000Y-63264000D01*
G75*
G02*
X168561000Y-63064000I0J200000D01*
G01*
G37*
G36*
G01*
X184093500Y-55973500D02*
X184093500Y-56523500D01*
G75*
G02*
X183893500Y-56723500I-200000J0D01*
G01*
X183493500Y-56723500D01*
G75*
G02*
X183293500Y-56523500I0J200000D01*
G01*
X183293500Y-55973500D01*
G75*
G02*
X183493500Y-55773500I200000J0D01*
G01*
X183893500Y-55773500D01*
G75*
G02*
X184093500Y-55973500I0J-200000D01*
G01*
G37*
G36*
G01*
X185743500Y-55973500D02*
X185743500Y-56523500D01*
G75*
G02*
X185543500Y-56723500I-200000J0D01*
G01*
X185143500Y-56723500D01*
G75*
G02*
X184943500Y-56523500I0J200000D01*
G01*
X184943500Y-55973500D01*
G75*
G02*
X185143500Y-55773500I200000J0D01*
G01*
X185543500Y-55773500D01*
G75*
G02*
X185743500Y-55973500I0J-200000D01*
G01*
G37*
G36*
G01*
X178251000Y-53751000D02*
X178251000Y-54301000D01*
G75*
G02*
X178051000Y-54501000I-200000J0D01*
G01*
X177651000Y-54501000D01*
G75*
G02*
X177451000Y-54301000I0J200000D01*
G01*
X177451000Y-53751000D01*
G75*
G02*
X177651000Y-53551000I200000J0D01*
G01*
X178051000Y-53551000D01*
G75*
G02*
X178251000Y-53751000I0J-200000D01*
G01*
G37*
G36*
G01*
X179901000Y-53751000D02*
X179901000Y-54301000D01*
G75*
G02*
X179701000Y-54501000I-200000J0D01*
G01*
X179301000Y-54501000D01*
G75*
G02*
X179101000Y-54301000I0J200000D01*
G01*
X179101000Y-53751000D01*
G75*
G02*
X179301000Y-53551000I200000J0D01*
G01*
X179701000Y-53551000D01*
G75*
G02*
X179901000Y-53751000I0J-200000D01*
G01*
G37*
G36*
G01*
X155963000Y-87597000D02*
X155963000Y-88147000D01*
G75*
G02*
X155763000Y-88347000I-200000J0D01*
G01*
X155363000Y-88347000D01*
G75*
G02*
X155163000Y-88147000I0J200000D01*
G01*
X155163000Y-87597000D01*
G75*
G02*
X155363000Y-87397000I200000J0D01*
G01*
X155763000Y-87397000D01*
G75*
G02*
X155963000Y-87597000I0J-200000D01*
G01*
G37*
G36*
G01*
X157613000Y-87597000D02*
X157613000Y-88147000D01*
G75*
G02*
X157413000Y-88347000I-200000J0D01*
G01*
X157013000Y-88347000D01*
G75*
G02*
X156813000Y-88147000I0J200000D01*
G01*
X156813000Y-87597000D01*
G75*
G02*
X157013000Y-87397000I200000J0D01*
G01*
X157413000Y-87397000D01*
G75*
G02*
X157613000Y-87597000I0J-200000D01*
G01*
G37*
G36*
G01*
X137359000Y-88780000D02*
X136809000Y-88780000D01*
G75*
G02*
X136609000Y-88580000I0J200000D01*
G01*
X136609000Y-88180000D01*
G75*
G02*
X136809000Y-87980000I200000J0D01*
G01*
X137359000Y-87980000D01*
G75*
G02*
X137559000Y-88180000I0J-200000D01*
G01*
X137559000Y-88580000D01*
G75*
G02*
X137359000Y-88780000I-200000J0D01*
G01*
G37*
G36*
G01*
X137359000Y-90430000D02*
X136809000Y-90430000D01*
G75*
G02*
X136609000Y-90230000I0J200000D01*
G01*
X136609000Y-89830000D01*
G75*
G02*
X136809000Y-89630000I200000J0D01*
G01*
X137359000Y-89630000D01*
G75*
G02*
X137559000Y-89830000I0J-200000D01*
G01*
X137559000Y-90230000D01*
G75*
G02*
X137359000Y-90430000I-200000J0D01*
G01*
G37*
G36*
G01*
X137359000Y-92527000D02*
X136809000Y-92527000D01*
G75*
G02*
X136609000Y-92327000I0J200000D01*
G01*
X136609000Y-91927000D01*
G75*
G02*
X136809000Y-91727000I200000J0D01*
G01*
X137359000Y-91727000D01*
G75*
G02*
X137559000Y-91927000I0J-200000D01*
G01*
X137559000Y-92327000D01*
G75*
G02*
X137359000Y-92527000I-200000J0D01*
G01*
G37*
G36*
G01*
X137359000Y-94177000D02*
X136809000Y-94177000D01*
G75*
G02*
X136609000Y-93977000I0J200000D01*
G01*
X136609000Y-93577000D01*
G75*
G02*
X136809000Y-93377000I200000J0D01*
G01*
X137359000Y-93377000D01*
G75*
G02*
X137559000Y-93577000I0J-200000D01*
G01*
X137559000Y-93977000D01*
G75*
G02*
X137359000Y-94177000I-200000J0D01*
G01*
G37*
G36*
G01*
X152789000Y-89280000D02*
X152239000Y-89280000D01*
G75*
G02*
X152039000Y-89080000I0J200000D01*
G01*
X152039000Y-88680000D01*
G75*
G02*
X152239000Y-88480000I200000J0D01*
G01*
X152789000Y-88480000D01*
G75*
G02*
X152989000Y-88680000I0J-200000D01*
G01*
X152989000Y-89080000D01*
G75*
G02*
X152789000Y-89280000I-200000J0D01*
G01*
G37*
G36*
G01*
X152789000Y-90930000D02*
X152239000Y-90930000D01*
G75*
G02*
X152039000Y-90730000I0J200000D01*
G01*
X152039000Y-90330000D01*
G75*
G02*
X152239000Y-90130000I200000J0D01*
G01*
X152789000Y-90130000D01*
G75*
G02*
X152989000Y-90330000I0J-200000D01*
G01*
X152989000Y-90730000D01*
G75*
G02*
X152789000Y-90930000I-200000J0D01*
G01*
G37*
G36*
G01*
X189261000Y-65286500D02*
X189261000Y-64736500D01*
G75*
G02*
X189461000Y-64536500I200000J0D01*
G01*
X189861000Y-64536500D01*
G75*
G02*
X190061000Y-64736500I0J-200000D01*
G01*
X190061000Y-65286500D01*
G75*
G02*
X189861000Y-65486500I-200000J0D01*
G01*
X189461000Y-65486500D01*
G75*
G02*
X189261000Y-65286500I0J200000D01*
G01*
G37*
G36*
G01*
X187611000Y-65286500D02*
X187611000Y-64736500D01*
G75*
G02*
X187811000Y-64536500I200000J0D01*
G01*
X188211000Y-64536500D01*
G75*
G02*
X188411000Y-64736500I0J-200000D01*
G01*
X188411000Y-65286500D01*
G75*
G02*
X188211000Y-65486500I-200000J0D01*
G01*
X187811000Y-65486500D01*
G75*
G02*
X187611000Y-65286500I0J200000D01*
G01*
G37*
G36*
G01*
X188475000Y-55973500D02*
X188475000Y-56523500D01*
G75*
G02*
X188275000Y-56723500I-200000J0D01*
G01*
X187875000Y-56723500D01*
G75*
G02*
X187675000Y-56523500I0J200000D01*
G01*
X187675000Y-55973500D01*
G75*
G02*
X187875000Y-55773500I200000J0D01*
G01*
X188275000Y-55773500D01*
G75*
G02*
X188475000Y-55973500I0J-200000D01*
G01*
G37*
G36*
G01*
X190125000Y-55973500D02*
X190125000Y-56523500D01*
G75*
G02*
X189925000Y-56723500I-200000J0D01*
G01*
X189525000Y-56723500D01*
G75*
G02*
X189325000Y-56523500I0J200000D01*
G01*
X189325000Y-55973500D01*
G75*
G02*
X189525000Y-55773500I200000J0D01*
G01*
X189925000Y-55773500D01*
G75*
G02*
X190125000Y-55973500I0J-200000D01*
G01*
G37*
G36*
G01*
X184093000Y-53751000D02*
X184093000Y-54301000D01*
G75*
G02*
X183893000Y-54501000I-200000J0D01*
G01*
X183493000Y-54501000D01*
G75*
G02*
X183293000Y-54301000I0J200000D01*
G01*
X183293000Y-53751000D01*
G75*
G02*
X183493000Y-53551000I200000J0D01*
G01*
X183893000Y-53551000D01*
G75*
G02*
X184093000Y-53751000I0J-200000D01*
G01*
G37*
G36*
G01*
X185743000Y-53751000D02*
X185743000Y-54301000D01*
G75*
G02*
X185543000Y-54501000I-200000J0D01*
G01*
X185143000Y-54501000D01*
G75*
G02*
X184943000Y-54301000I0J200000D01*
G01*
X184943000Y-53751000D01*
G75*
G02*
X185143000Y-53551000I200000J0D01*
G01*
X185543000Y-53551000D01*
G75*
G02*
X185743000Y-53751000I0J-200000D01*
G01*
G37*
G36*
G01*
X105275000Y-52675000D02*
X104725000Y-52675000D01*
G75*
G02*
X104525000Y-52475000I0J200000D01*
G01*
X104525000Y-52075000D01*
G75*
G02*
X104725000Y-51875000I200000J0D01*
G01*
X105275000Y-51875000D01*
G75*
G02*
X105475000Y-52075000I0J-200000D01*
G01*
X105475000Y-52475000D01*
G75*
G02*
X105275000Y-52675000I-200000J0D01*
G01*
G37*
G36*
G01*
X105275000Y-54325000D02*
X104725000Y-54325000D01*
G75*
G02*
X104525000Y-54125000I0J200000D01*
G01*
X104525000Y-53725000D01*
G75*
G02*
X104725000Y-53525000I200000J0D01*
G01*
X105275000Y-53525000D01*
G75*
G02*
X105475000Y-53725000I0J-200000D01*
G01*
X105475000Y-54125000D01*
G75*
G02*
X105275000Y-54325000I-200000J0D01*
G01*
G37*
G36*
G01*
X118816000Y-68187000D02*
X119366000Y-68187000D01*
G75*
G02*
X119566000Y-68387000I0J-200000D01*
G01*
X119566000Y-68787000D01*
G75*
G02*
X119366000Y-68987000I-200000J0D01*
G01*
X118816000Y-68987000D01*
G75*
G02*
X118616000Y-68787000I0J200000D01*
G01*
X118616000Y-68387000D01*
G75*
G02*
X118816000Y-68187000I200000J0D01*
G01*
G37*
G36*
G01*
X118816000Y-66537000D02*
X119366000Y-66537000D01*
G75*
G02*
X119566000Y-66737000I0J-200000D01*
G01*
X119566000Y-67137000D01*
G75*
G02*
X119366000Y-67337000I-200000J0D01*
G01*
X118816000Y-67337000D01*
G75*
G02*
X118616000Y-67137000I0J200000D01*
G01*
X118616000Y-66737000D01*
G75*
G02*
X118816000Y-66537000I200000J0D01*
G01*
G37*
G36*
G01*
X117175000Y-68187000D02*
X117725000Y-68187000D01*
G75*
G02*
X117925000Y-68387000I0J-200000D01*
G01*
X117925000Y-68787000D01*
G75*
G02*
X117725000Y-68987000I-200000J0D01*
G01*
X117175000Y-68987000D01*
G75*
G02*
X116975000Y-68787000I0J200000D01*
G01*
X116975000Y-68387000D01*
G75*
G02*
X117175000Y-68187000I200000J0D01*
G01*
G37*
G36*
G01*
X117175000Y-66537000D02*
X117725000Y-66537000D01*
G75*
G02*
X117925000Y-66737000I0J-200000D01*
G01*
X117925000Y-67137000D01*
G75*
G02*
X117725000Y-67337000I-200000J0D01*
G01*
X117175000Y-67337000D01*
G75*
G02*
X116975000Y-67137000I0J200000D01*
G01*
X116975000Y-66737000D01*
G75*
G02*
X117175000Y-66537000I200000J0D01*
G01*
G37*
G36*
G01*
X137359000Y-96337000D02*
X136809000Y-96337000D01*
G75*
G02*
X136609000Y-96137000I0J200000D01*
G01*
X136609000Y-95737000D01*
G75*
G02*
X136809000Y-95537000I200000J0D01*
G01*
X137359000Y-95537000D01*
G75*
G02*
X137559000Y-95737000I0J-200000D01*
G01*
X137559000Y-96137000D01*
G75*
G02*
X137359000Y-96337000I-200000J0D01*
G01*
G37*
G36*
G01*
X137359000Y-97987000D02*
X136809000Y-97987000D01*
G75*
G02*
X136609000Y-97787000I0J200000D01*
G01*
X136609000Y-97387000D01*
G75*
G02*
X136809000Y-97187000I200000J0D01*
G01*
X137359000Y-97187000D01*
G75*
G02*
X137559000Y-97387000I0J-200000D01*
G01*
X137559000Y-97787000D01*
G75*
G02*
X137359000Y-97987000I-200000J0D01*
G01*
G37*
G36*
G01*
X114625000Y-55633000D02*
X114075000Y-55633000D01*
G75*
G02*
X113875000Y-55433000I0J200000D01*
G01*
X113875000Y-55033000D01*
G75*
G02*
X114075000Y-54833000I200000J0D01*
G01*
X114625000Y-54833000D01*
G75*
G02*
X114825000Y-55033000I0J-200000D01*
G01*
X114825000Y-55433000D01*
G75*
G02*
X114625000Y-55633000I-200000J0D01*
G01*
G37*
G36*
G01*
X114625000Y-57283000D02*
X114075000Y-57283000D01*
G75*
G02*
X113875000Y-57083000I0J200000D01*
G01*
X113875000Y-56683000D01*
G75*
G02*
X114075000Y-56483000I200000J0D01*
G01*
X114625000Y-56483000D01*
G75*
G02*
X114825000Y-56683000I0J-200000D01*
G01*
X114825000Y-57083000D01*
G75*
G02*
X114625000Y-57283000I-200000J0D01*
G01*
G37*
G36*
G01*
X108835000Y-52145000D02*
X108835000Y-52695000D01*
G75*
G02*
X108635000Y-52895000I-200000J0D01*
G01*
X108235000Y-52895000D01*
G75*
G02*
X108035000Y-52695000I0J200000D01*
G01*
X108035000Y-52145000D01*
G75*
G02*
X108235000Y-51945000I200000J0D01*
G01*
X108635000Y-51945000D01*
G75*
G02*
X108835000Y-52145000I0J-200000D01*
G01*
G37*
G36*
G01*
X110485000Y-52145000D02*
X110485000Y-52695000D01*
G75*
G02*
X110285000Y-52895000I-200000J0D01*
G01*
X109885000Y-52895000D01*
G75*
G02*
X109685000Y-52695000I0J200000D01*
G01*
X109685000Y-52145000D01*
G75*
G02*
X109885000Y-51945000I200000J0D01*
G01*
X110285000Y-51945000D01*
G75*
G02*
X110485000Y-52145000I0J-200000D01*
G01*
G37*
G36*
G01*
X108835000Y-50245000D02*
X108835000Y-50795000D01*
G75*
G02*
X108635000Y-50995000I-200000J0D01*
G01*
X108235000Y-50995000D01*
G75*
G02*
X108035000Y-50795000I0J200000D01*
G01*
X108035000Y-50245000D01*
G75*
G02*
X108235000Y-50045000I200000J0D01*
G01*
X108635000Y-50045000D01*
G75*
G02*
X108835000Y-50245000I0J-200000D01*
G01*
G37*
G36*
G01*
X110485000Y-50245000D02*
X110485000Y-50795000D01*
G75*
G02*
X110285000Y-50995000I-200000J0D01*
G01*
X109885000Y-50995000D01*
G75*
G02*
X109685000Y-50795000I0J200000D01*
G01*
X109685000Y-50245000D01*
G75*
G02*
X109885000Y-50045000I200000J0D01*
G01*
X110285000Y-50045000D01*
G75*
G02*
X110485000Y-50245000I0J-200000D01*
G01*
G37*
G36*
G01*
X112525000Y-56475000D02*
X113075000Y-56475000D01*
G75*
G02*
X113275000Y-56675000I0J-200000D01*
G01*
X113275000Y-57075000D01*
G75*
G02*
X113075000Y-57275000I-200000J0D01*
G01*
X112525000Y-57275000D01*
G75*
G02*
X112325000Y-57075000I0J200000D01*
G01*
X112325000Y-56675000D01*
G75*
G02*
X112525000Y-56475000I200000J0D01*
G01*
G37*
G36*
G01*
X112525000Y-54825000D02*
X113075000Y-54825000D01*
G75*
G02*
X113275000Y-55025000I0J-200000D01*
G01*
X113275000Y-55425000D01*
G75*
G02*
X113075000Y-55625000I-200000J0D01*
G01*
X112525000Y-55625000D01*
G75*
G02*
X112325000Y-55425000I0J200000D01*
G01*
X112325000Y-55025000D01*
G75*
G02*
X112525000Y-54825000I200000J0D01*
G01*
G37*
G36*
G01*
X110965000Y-56483000D02*
X111515000Y-56483000D01*
G75*
G02*
X111715000Y-56683000I0J-200000D01*
G01*
X111715000Y-57083000D01*
G75*
G02*
X111515000Y-57283000I-200000J0D01*
G01*
X110965000Y-57283000D01*
G75*
G02*
X110765000Y-57083000I0J200000D01*
G01*
X110765000Y-56683000D01*
G75*
G02*
X110965000Y-56483000I200000J0D01*
G01*
G37*
G36*
G01*
X110965000Y-54833000D02*
X111515000Y-54833000D01*
G75*
G02*
X111715000Y-55033000I0J-200000D01*
G01*
X111715000Y-55433000D01*
G75*
G02*
X111515000Y-55633000I-200000J0D01*
G01*
X110965000Y-55633000D01*
G75*
G02*
X110765000Y-55433000I0J200000D01*
G01*
X110765000Y-55033000D01*
G75*
G02*
X110965000Y-54833000I200000J0D01*
G01*
G37*
G36*
G01*
X159935000Y-83319000D02*
X159385000Y-83319000D01*
G75*
G02*
X159185000Y-83119000I0J200000D01*
G01*
X159185000Y-82719000D01*
G75*
G02*
X159385000Y-82519000I200000J0D01*
G01*
X159935000Y-82519000D01*
G75*
G02*
X160135000Y-82719000I0J-200000D01*
G01*
X160135000Y-83119000D01*
G75*
G02*
X159935000Y-83319000I-200000J0D01*
G01*
G37*
G36*
G01*
X159935000Y-84969000D02*
X159385000Y-84969000D01*
G75*
G02*
X159185000Y-84769000I0J200000D01*
G01*
X159185000Y-84369000D01*
G75*
G02*
X159385000Y-84169000I200000J0D01*
G01*
X159935000Y-84169000D01*
G75*
G02*
X160135000Y-84369000I0J-200000D01*
G01*
X160135000Y-84769000D01*
G75*
G02*
X159935000Y-84969000I-200000J0D01*
G01*
G37*
G36*
G01*
X161585000Y-83319000D02*
X161035000Y-83319000D01*
G75*
G02*
X160835000Y-83119000I0J200000D01*
G01*
X160835000Y-82719000D01*
G75*
G02*
X161035000Y-82519000I200000J0D01*
G01*
X161585000Y-82519000D01*
G75*
G02*
X161785000Y-82719000I0J-200000D01*
G01*
X161785000Y-83119000D01*
G75*
G02*
X161585000Y-83319000I-200000J0D01*
G01*
G37*
G36*
G01*
X161585000Y-84969000D02*
X161035000Y-84969000D01*
G75*
G02*
X160835000Y-84769000I0J200000D01*
G01*
X160835000Y-84369000D01*
G75*
G02*
X161035000Y-84169000I200000J0D01*
G01*
X161585000Y-84169000D01*
G75*
G02*
X161785000Y-84369000I0J-200000D01*
G01*
X161785000Y-84769000D01*
G75*
G02*
X161585000Y-84969000I-200000J0D01*
G01*
G37*
G36*
G01*
X163241000Y-83319000D02*
X162691000Y-83319000D01*
G75*
G02*
X162491000Y-83119000I0J200000D01*
G01*
X162491000Y-82719000D01*
G75*
G02*
X162691000Y-82519000I200000J0D01*
G01*
X163241000Y-82519000D01*
G75*
G02*
X163441000Y-82719000I0J-200000D01*
G01*
X163441000Y-83119000D01*
G75*
G02*
X163241000Y-83319000I-200000J0D01*
G01*
G37*
G36*
G01*
X163241000Y-84969000D02*
X162691000Y-84969000D01*
G75*
G02*
X162491000Y-84769000I0J200000D01*
G01*
X162491000Y-84369000D01*
G75*
G02*
X162691000Y-84169000I200000J0D01*
G01*
X163241000Y-84169000D01*
G75*
G02*
X163441000Y-84369000I0J-200000D01*
G01*
X163441000Y-84769000D01*
G75*
G02*
X163241000Y-84969000I-200000J0D01*
G01*
G37*
G36*
G01*
X164885000Y-83319000D02*
X164335000Y-83319000D01*
G75*
G02*
X164135000Y-83119000I0J200000D01*
G01*
X164135000Y-82719000D01*
G75*
G02*
X164335000Y-82519000I200000J0D01*
G01*
X164885000Y-82519000D01*
G75*
G02*
X165085000Y-82719000I0J-200000D01*
G01*
X165085000Y-83119000D01*
G75*
G02*
X164885000Y-83319000I-200000J0D01*
G01*
G37*
G36*
G01*
X164885000Y-84969000D02*
X164335000Y-84969000D01*
G75*
G02*
X164135000Y-84769000I0J200000D01*
G01*
X164135000Y-84369000D01*
G75*
G02*
X164335000Y-84169000I200000J0D01*
G01*
X164885000Y-84169000D01*
G75*
G02*
X165085000Y-84369000I0J-200000D01*
G01*
X165085000Y-84769000D01*
G75*
G02*
X164885000Y-84969000I-200000J0D01*
G01*
G37*
G36*
G01*
X182175000Y-54900000D02*
X181625000Y-54900000D01*
G75*
G02*
X181425000Y-54700000I0J200000D01*
G01*
X181425000Y-54300000D01*
G75*
G02*
X181625000Y-54100000I200000J0D01*
G01*
X182175000Y-54100000D01*
G75*
G02*
X182375000Y-54300000I0J-200000D01*
G01*
X182375000Y-54700000D01*
G75*
G02*
X182175000Y-54900000I-200000J0D01*
G01*
G37*
G36*
G01*
X182175000Y-56550000D02*
X181625000Y-56550000D01*
G75*
G02*
X181425000Y-56350000I0J200000D01*
G01*
X181425000Y-55950000D01*
G75*
G02*
X181625000Y-55750000I200000J0D01*
G01*
X182175000Y-55750000D01*
G75*
G02*
X182375000Y-55950000I0J-200000D01*
G01*
X182375000Y-56350000D01*
G75*
G02*
X182175000Y-56550000I-200000J0D01*
G01*
G37*
G36*
G01*
X159975000Y-63761000D02*
X159425000Y-63761000D01*
G75*
G02*
X159225000Y-63561000I0J200000D01*
G01*
X159225000Y-63161000D01*
G75*
G02*
X159425000Y-62961000I200000J0D01*
G01*
X159975000Y-62961000D01*
G75*
G02*
X160175000Y-63161000I0J-200000D01*
G01*
X160175000Y-63561000D01*
G75*
G02*
X159975000Y-63761000I-200000J0D01*
G01*
G37*
G36*
G01*
X159975000Y-65411000D02*
X159425000Y-65411000D01*
G75*
G02*
X159225000Y-65211000I0J200000D01*
G01*
X159225000Y-64811000D01*
G75*
G02*
X159425000Y-64611000I200000J0D01*
G01*
X159975000Y-64611000D01*
G75*
G02*
X160175000Y-64811000I0J-200000D01*
G01*
X160175000Y-65211000D01*
G75*
G02*
X159975000Y-65411000I-200000J0D01*
G01*
G37*
G36*
G01*
X149575000Y-63761000D02*
X149025000Y-63761000D01*
G75*
G02*
X148825000Y-63561000I0J200000D01*
G01*
X148825000Y-63161000D01*
G75*
G02*
X149025000Y-62961000I200000J0D01*
G01*
X149575000Y-62961000D01*
G75*
G02*
X149775000Y-63161000I0J-200000D01*
G01*
X149775000Y-63561000D01*
G75*
G02*
X149575000Y-63761000I-200000J0D01*
G01*
G37*
G36*
G01*
X149575000Y-65411000D02*
X149025000Y-65411000D01*
G75*
G02*
X148825000Y-65211000I0J200000D01*
G01*
X148825000Y-64811000D01*
G75*
G02*
X149025000Y-64611000I200000J0D01*
G01*
X149575000Y-64611000D01*
G75*
G02*
X149775000Y-64811000I0J-200000D01*
G01*
X149775000Y-65211000D01*
G75*
G02*
X149575000Y-65411000I-200000J0D01*
G01*
G37*
G36*
G01*
X151203000Y-63761000D02*
X150653000Y-63761000D01*
G75*
G02*
X150453000Y-63561000I0J200000D01*
G01*
X150453000Y-63161000D01*
G75*
G02*
X150653000Y-62961000I200000J0D01*
G01*
X151203000Y-62961000D01*
G75*
G02*
X151403000Y-63161000I0J-200000D01*
G01*
X151403000Y-63561000D01*
G75*
G02*
X151203000Y-63761000I-200000J0D01*
G01*
G37*
G36*
G01*
X151203000Y-65411000D02*
X150653000Y-65411000D01*
G75*
G02*
X150453000Y-65211000I0J200000D01*
G01*
X150453000Y-64811000D01*
G75*
G02*
X150653000Y-64611000I200000J0D01*
G01*
X151203000Y-64611000D01*
G75*
G02*
X151403000Y-64811000I0J-200000D01*
G01*
X151403000Y-65211000D01*
G75*
G02*
X151203000Y-65411000I-200000J0D01*
G01*
G37*
G36*
G01*
X165513000Y-65223000D02*
X165513000Y-64673000D01*
G75*
G02*
X165713000Y-64473000I200000J0D01*
G01*
X166113000Y-64473000D01*
G75*
G02*
X166313000Y-64673000I0J-200000D01*
G01*
X166313000Y-65223000D01*
G75*
G02*
X166113000Y-65423000I-200000J0D01*
G01*
X165713000Y-65423000D01*
G75*
G02*
X165513000Y-65223000I0J200000D01*
G01*
G37*
G36*
G01*
X163863000Y-65223000D02*
X163863000Y-64673000D01*
G75*
G02*
X164063000Y-64473000I200000J0D01*
G01*
X164463000Y-64473000D01*
G75*
G02*
X164663000Y-64673000I0J-200000D01*
G01*
X164663000Y-65223000D01*
G75*
G02*
X164463000Y-65423000I-200000J0D01*
G01*
X164063000Y-65423000D01*
G75*
G02*
X163863000Y-65223000I0J200000D01*
G01*
G37*
G36*
G01*
X168625000Y-65175000D02*
X168625000Y-64625000D01*
G75*
G02*
X168825000Y-64425000I200000J0D01*
G01*
X169225000Y-64425000D01*
G75*
G02*
X169425000Y-64625000I0J-200000D01*
G01*
X169425000Y-65175000D01*
G75*
G02*
X169225000Y-65375000I-200000J0D01*
G01*
X168825000Y-65375000D01*
G75*
G02*
X168625000Y-65175000I0J200000D01*
G01*
G37*
G36*
G01*
X166975000Y-65175000D02*
X166975000Y-64625000D01*
G75*
G02*
X167175000Y-64425000I200000J0D01*
G01*
X167575000Y-64425000D01*
G75*
G02*
X167775000Y-64625000I0J-200000D01*
G01*
X167775000Y-65175000D01*
G75*
G02*
X167575000Y-65375000I-200000J0D01*
G01*
X167175000Y-65375000D01*
G75*
G02*
X166975000Y-65175000I0J200000D01*
G01*
G37*
G36*
G01*
X114307000Y-87406000D02*
X114307000Y-87956000D01*
G75*
G02*
X114107000Y-88156000I-200000J0D01*
G01*
X113707000Y-88156000D01*
G75*
G02*
X113507000Y-87956000I0J200000D01*
G01*
X113507000Y-87406000D01*
G75*
G02*
X113707000Y-87206000I200000J0D01*
G01*
X114107000Y-87206000D01*
G75*
G02*
X114307000Y-87406000I0J-200000D01*
G01*
G37*
G36*
G01*
X115957000Y-87406000D02*
X115957000Y-87956000D01*
G75*
G02*
X115757000Y-88156000I-200000J0D01*
G01*
X115357000Y-88156000D01*
G75*
G02*
X115157000Y-87956000I0J200000D01*
G01*
X115157000Y-87406000D01*
G75*
G02*
X115357000Y-87206000I200000J0D01*
G01*
X115757000Y-87206000D01*
G75*
G02*
X115957000Y-87406000I0J-200000D01*
G01*
G37*
G36*
G01*
X114307000Y-89565000D02*
X114307000Y-90115000D01*
G75*
G02*
X114107000Y-90315000I-200000J0D01*
G01*
X113707000Y-90315000D01*
G75*
G02*
X113507000Y-90115000I0J200000D01*
G01*
X113507000Y-89565000D01*
G75*
G02*
X113707000Y-89365000I200000J0D01*
G01*
X114107000Y-89365000D01*
G75*
G02*
X114307000Y-89565000I0J-200000D01*
G01*
G37*
G36*
G01*
X115957000Y-89565000D02*
X115957000Y-90115000D01*
G75*
G02*
X115757000Y-90315000I-200000J0D01*
G01*
X115357000Y-90315000D01*
G75*
G02*
X115157000Y-90115000I0J200000D01*
G01*
X115157000Y-89565000D01*
G75*
G02*
X115357000Y-89365000I200000J0D01*
G01*
X115757000Y-89365000D01*
G75*
G02*
X115957000Y-89565000I0J-200000D01*
G01*
G37*
D48*
X197028000Y-90348000D03*
D49*
X135000000Y-63750000D03*
X135000000Y-67250000D03*
X138800000Y-56850000D03*
X138800000Y-53350000D03*
G36*
G01*
X113625000Y-66425000D02*
X113625000Y-65175000D01*
G75*
G02*
X113875000Y-64925000I250000J0D01*
G01*
X114625000Y-64925000D01*
G75*
G02*
X114875000Y-65175000I0J-250000D01*
G01*
X114875000Y-66425000D01*
G75*
G02*
X114625000Y-66675000I-250000J0D01*
G01*
X113875000Y-66675000D01*
G75*
G02*
X113625000Y-66425000I0J250000D01*
G01*
G37*
G36*
G01*
X110825000Y-66425000D02*
X110825000Y-65175000D01*
G75*
G02*
X111075000Y-64925000I250000J0D01*
G01*
X111825000Y-64925000D01*
G75*
G02*
X112075000Y-65175000I0J-250000D01*
G01*
X112075000Y-66425000D01*
G75*
G02*
X111825000Y-66675000I-250000J0D01*
G01*
X111075000Y-66675000D01*
G75*
G02*
X110825000Y-66425000I0J250000D01*
G01*
G37*
D50*
X113940000Y-97440000D03*
X190150000Y-49200000D03*
X115210000Y-49190000D03*
X196480000Y-97430000D03*
G36*
G01*
X122675000Y-56525001D02*
X122675000Y-54674999D01*
G75*
G02*
X122924999Y-54425000I249999J0D01*
G01*
X123750001Y-54425000D01*
G75*
G02*
X124000000Y-54674999I0J-249999D01*
G01*
X124000000Y-56525001D01*
G75*
G02*
X123750001Y-56775000I-249999J0D01*
G01*
X122924999Y-56775000D01*
G75*
G02*
X122675000Y-56525001I0J249999D01*
G01*
G37*
G36*
G01*
X119600000Y-56525001D02*
X119600000Y-54674999D01*
G75*
G02*
X119849999Y-54425000I249999J0D01*
G01*
X120675001Y-54425000D01*
G75*
G02*
X120925000Y-54674999I0J-249999D01*
G01*
X120925000Y-56525001D01*
G75*
G02*
X120675001Y-56775000I-249999J0D01*
G01*
X119849999Y-56775000D01*
G75*
G02*
X119600000Y-56525001I0J249999D01*
G01*
G37*
D38*
X193980000Y-87300000D03*
X196520000Y-87300000D03*
X193980000Y-84760000D03*
X196520000Y-84760000D03*
X193980000Y-82220000D03*
X196520000Y-82220000D03*
X193980000Y-79680000D03*
X196520000Y-79680000D03*
X193980000Y-77140000D03*
X196520000Y-77140000D03*
X193980000Y-74600000D03*
X196520000Y-74600000D03*
X193980000Y-72060000D03*
X196520000Y-72060000D03*
X193980000Y-69520000D03*
X196520000Y-69520000D03*
X193980000Y-66980000D03*
X196520000Y-66980000D03*
X193980000Y-64440000D03*
X196520000Y-64440000D03*
X193980000Y-61900000D03*
X196520000Y-61900000D03*
X193980000Y-59360000D03*
X196520000Y-59360000D03*
X193980000Y-56820000D03*
X196520000Y-56820000D03*
X193980000Y-54280000D03*
D39*
X196520000Y-54280000D03*
D51*
X172600000Y-92250000D03*
X172600000Y-94750000D03*
D38*
X183820000Y-49200000D03*
X181280000Y-49200000D03*
X178740000Y-49200000D03*
X176200000Y-49200000D03*
X173660000Y-49200000D03*
X171120000Y-49200000D03*
X168580000Y-49200000D03*
D39*
X166040000Y-49200000D03*
D38*
X173660000Y-97460000D03*
X171120000Y-97460000D03*
X168580000Y-97460000D03*
X166040000Y-97460000D03*
X163500000Y-97460000D03*
X160960000Y-97460000D03*
X158420000Y-97460000D03*
D39*
X155880000Y-97460000D03*
D38*
X148260000Y-49200000D03*
X145720000Y-49200000D03*
X143180000Y-49200000D03*
D39*
X140640000Y-49200000D03*
D38*
X160960000Y-49200000D03*
X158420000Y-49200000D03*
X155880000Y-49200000D03*
D39*
X153340000Y-49200000D03*
D38*
X150800000Y-97494000D03*
X148260000Y-97494000D03*
X145720000Y-97494000D03*
D39*
X143180000Y-97494000D03*
D38*
X135560000Y-49200000D03*
X133020000Y-49200000D03*
X130480000Y-49200000D03*
X127940000Y-49200000D03*
X125400000Y-49200000D03*
D39*
X122860000Y-49200000D03*
G36*
G01*
X169562000Y-56684500D02*
X169562000Y-56484500D01*
G75*
G02*
X169662000Y-56384500I100000J0D01*
G01*
X170937000Y-56384500D01*
G75*
G02*
X171037000Y-56484500I0J-100000D01*
G01*
X171037000Y-56684500D01*
G75*
G02*
X170937000Y-56784500I-100000J0D01*
G01*
X169662000Y-56784500D01*
G75*
G02*
X169562000Y-56684500I0J100000D01*
G01*
G37*
G36*
G01*
X169562000Y-57334500D02*
X169562000Y-57134500D01*
G75*
G02*
X169662000Y-57034500I100000J0D01*
G01*
X170937000Y-57034500D01*
G75*
G02*
X171037000Y-57134500I0J-100000D01*
G01*
X171037000Y-57334500D01*
G75*
G02*
X170937000Y-57434500I-100000J0D01*
G01*
X169662000Y-57434500D01*
G75*
G02*
X169562000Y-57334500I0J100000D01*
G01*
G37*
G36*
G01*
X169562000Y-57984500D02*
X169562000Y-57784500D01*
G75*
G02*
X169662000Y-57684500I100000J0D01*
G01*
X170937000Y-57684500D01*
G75*
G02*
X171037000Y-57784500I0J-100000D01*
G01*
X171037000Y-57984500D01*
G75*
G02*
X170937000Y-58084500I-100000J0D01*
G01*
X169662000Y-58084500D01*
G75*
G02*
X169562000Y-57984500I0J100000D01*
G01*
G37*
G36*
G01*
X169562000Y-58634500D02*
X169562000Y-58434500D01*
G75*
G02*
X169662000Y-58334500I100000J0D01*
G01*
X170937000Y-58334500D01*
G75*
G02*
X171037000Y-58434500I0J-100000D01*
G01*
X171037000Y-58634500D01*
G75*
G02*
X170937000Y-58734500I-100000J0D01*
G01*
X169662000Y-58734500D01*
G75*
G02*
X169562000Y-58634500I0J100000D01*
G01*
G37*
G36*
G01*
X169562000Y-59284500D02*
X169562000Y-59084500D01*
G75*
G02*
X169662000Y-58984500I100000J0D01*
G01*
X170937000Y-58984500D01*
G75*
G02*
X171037000Y-59084500I0J-100000D01*
G01*
X171037000Y-59284500D01*
G75*
G02*
X170937000Y-59384500I-100000J0D01*
G01*
X169662000Y-59384500D01*
G75*
G02*
X169562000Y-59284500I0J100000D01*
G01*
G37*
G36*
G01*
X169562000Y-59934500D02*
X169562000Y-59734500D01*
G75*
G02*
X169662000Y-59634500I100000J0D01*
G01*
X170937000Y-59634500D01*
G75*
G02*
X171037000Y-59734500I0J-100000D01*
G01*
X171037000Y-59934500D01*
G75*
G02*
X170937000Y-60034500I-100000J0D01*
G01*
X169662000Y-60034500D01*
G75*
G02*
X169562000Y-59934500I0J100000D01*
G01*
G37*
G36*
G01*
X169562000Y-60584500D02*
X169562000Y-60384500D01*
G75*
G02*
X169662000Y-60284500I100000J0D01*
G01*
X170937000Y-60284500D01*
G75*
G02*
X171037000Y-60384500I0J-100000D01*
G01*
X171037000Y-60584500D01*
G75*
G02*
X170937000Y-60684500I-100000J0D01*
G01*
X169662000Y-60684500D01*
G75*
G02*
X169562000Y-60584500I0J100000D01*
G01*
G37*
G36*
G01*
X163837000Y-60584500D02*
X163837000Y-60384500D01*
G75*
G02*
X163937000Y-60284500I100000J0D01*
G01*
X165212000Y-60284500D01*
G75*
G02*
X165312000Y-60384500I0J-100000D01*
G01*
X165312000Y-60584500D01*
G75*
G02*
X165212000Y-60684500I-100000J0D01*
G01*
X163937000Y-60684500D01*
G75*
G02*
X163837000Y-60584500I0J100000D01*
G01*
G37*
G36*
G01*
X163837000Y-59934500D02*
X163837000Y-59734500D01*
G75*
G02*
X163937000Y-59634500I100000J0D01*
G01*
X165212000Y-59634500D01*
G75*
G02*
X165312000Y-59734500I0J-100000D01*
G01*
X165312000Y-59934500D01*
G75*
G02*
X165212000Y-60034500I-100000J0D01*
G01*
X163937000Y-60034500D01*
G75*
G02*
X163837000Y-59934500I0J100000D01*
G01*
G37*
G36*
G01*
X163837000Y-59284500D02*
X163837000Y-59084500D01*
G75*
G02*
X163937000Y-58984500I100000J0D01*
G01*
X165212000Y-58984500D01*
G75*
G02*
X165312000Y-59084500I0J-100000D01*
G01*
X165312000Y-59284500D01*
G75*
G02*
X165212000Y-59384500I-100000J0D01*
G01*
X163937000Y-59384500D01*
G75*
G02*
X163837000Y-59284500I0J100000D01*
G01*
G37*
G36*
G01*
X163837000Y-58634500D02*
X163837000Y-58434500D01*
G75*
G02*
X163937000Y-58334500I100000J0D01*
G01*
X165212000Y-58334500D01*
G75*
G02*
X165312000Y-58434500I0J-100000D01*
G01*
X165312000Y-58634500D01*
G75*
G02*
X165212000Y-58734500I-100000J0D01*
G01*
X163937000Y-58734500D01*
G75*
G02*
X163837000Y-58634500I0J100000D01*
G01*
G37*
G36*
G01*
X163837000Y-57984500D02*
X163837000Y-57784500D01*
G75*
G02*
X163937000Y-57684500I100000J0D01*
G01*
X165212000Y-57684500D01*
G75*
G02*
X165312000Y-57784500I0J-100000D01*
G01*
X165312000Y-57984500D01*
G75*
G02*
X165212000Y-58084500I-100000J0D01*
G01*
X163937000Y-58084500D01*
G75*
G02*
X163837000Y-57984500I0J100000D01*
G01*
G37*
G36*
G01*
X163837000Y-57334500D02*
X163837000Y-57134500D01*
G75*
G02*
X163937000Y-57034500I100000J0D01*
G01*
X165212000Y-57034500D01*
G75*
G02*
X165312000Y-57134500I0J-100000D01*
G01*
X165312000Y-57334500D01*
G75*
G02*
X165212000Y-57434500I-100000J0D01*
G01*
X163937000Y-57434500D01*
G75*
G02*
X163837000Y-57334500I0J100000D01*
G01*
G37*
G36*
G01*
X163837000Y-56684500D02*
X163837000Y-56484500D01*
G75*
G02*
X163937000Y-56384500I100000J0D01*
G01*
X165212000Y-56384500D01*
G75*
G02*
X165312000Y-56484500I0J-100000D01*
G01*
X165312000Y-56684500D01*
G75*
G02*
X165212000Y-56784500I-100000J0D01*
G01*
X163937000Y-56784500D01*
G75*
G02*
X163837000Y-56684500I0J100000D01*
G01*
G37*
G36*
G01*
X137802000Y-81754500D02*
X137802000Y-82304500D01*
G75*
G02*
X137602000Y-82504500I-200000J0D01*
G01*
X137202000Y-82504500D01*
G75*
G02*
X137002000Y-82304500I0J200000D01*
G01*
X137002000Y-81754500D01*
G75*
G02*
X137202000Y-81554500I200000J0D01*
G01*
X137602000Y-81554500D01*
G75*
G02*
X137802000Y-81754500I0J-200000D01*
G01*
G37*
G36*
G01*
X139452000Y-81754500D02*
X139452000Y-82304500D01*
G75*
G02*
X139252000Y-82504500I-200000J0D01*
G01*
X138852000Y-82504500D01*
G75*
G02*
X138652000Y-82304500I0J200000D01*
G01*
X138652000Y-81754500D01*
G75*
G02*
X138852000Y-81554500I200000J0D01*
G01*
X139252000Y-81554500D01*
G75*
G02*
X139452000Y-81754500I0J-200000D01*
G01*
G37*
G36*
G01*
X160862500Y-90212000D02*
X160862500Y-90012000D01*
G75*
G02*
X160962500Y-89912000I100000J0D01*
G01*
X162237500Y-89912000D01*
G75*
G02*
X162337500Y-90012000I0J-100000D01*
G01*
X162337500Y-90212000D01*
G75*
G02*
X162237500Y-90312000I-100000J0D01*
G01*
X160962500Y-90312000D01*
G75*
G02*
X160862500Y-90212000I0J100000D01*
G01*
G37*
G36*
G01*
X160862500Y-90862000D02*
X160862500Y-90662000D01*
G75*
G02*
X160962500Y-90562000I100000J0D01*
G01*
X162237500Y-90562000D01*
G75*
G02*
X162337500Y-90662000I0J-100000D01*
G01*
X162337500Y-90862000D01*
G75*
G02*
X162237500Y-90962000I-100000J0D01*
G01*
X160962500Y-90962000D01*
G75*
G02*
X160862500Y-90862000I0J100000D01*
G01*
G37*
G36*
G01*
X160862500Y-91512000D02*
X160862500Y-91312000D01*
G75*
G02*
X160962500Y-91212000I100000J0D01*
G01*
X162237500Y-91212000D01*
G75*
G02*
X162337500Y-91312000I0J-100000D01*
G01*
X162337500Y-91512000D01*
G75*
G02*
X162237500Y-91612000I-100000J0D01*
G01*
X160962500Y-91612000D01*
G75*
G02*
X160862500Y-91512000I0J100000D01*
G01*
G37*
G36*
G01*
X160862500Y-92162000D02*
X160862500Y-91962000D01*
G75*
G02*
X160962500Y-91862000I100000J0D01*
G01*
X162237500Y-91862000D01*
G75*
G02*
X162337500Y-91962000I0J-100000D01*
G01*
X162337500Y-92162000D01*
G75*
G02*
X162237500Y-92262000I-100000J0D01*
G01*
X160962500Y-92262000D01*
G75*
G02*
X160862500Y-92162000I0J100000D01*
G01*
G37*
G36*
G01*
X160862500Y-92812000D02*
X160862500Y-92612000D01*
G75*
G02*
X160962500Y-92512000I100000J0D01*
G01*
X162237500Y-92512000D01*
G75*
G02*
X162337500Y-92612000I0J-100000D01*
G01*
X162337500Y-92812000D01*
G75*
G02*
X162237500Y-92912000I-100000J0D01*
G01*
X160962500Y-92912000D01*
G75*
G02*
X160862500Y-92812000I0J100000D01*
G01*
G37*
G36*
G01*
X160862500Y-93462000D02*
X160862500Y-93262000D01*
G75*
G02*
X160962500Y-93162000I100000J0D01*
G01*
X162237500Y-93162000D01*
G75*
G02*
X162337500Y-93262000I0J-100000D01*
G01*
X162337500Y-93462000D01*
G75*
G02*
X162237500Y-93562000I-100000J0D01*
G01*
X160962500Y-93562000D01*
G75*
G02*
X160862500Y-93462000I0J100000D01*
G01*
G37*
G36*
G01*
X160862500Y-94112000D02*
X160862500Y-93912000D01*
G75*
G02*
X160962500Y-93812000I100000J0D01*
G01*
X162237500Y-93812000D01*
G75*
G02*
X162337500Y-93912000I0J-100000D01*
G01*
X162337500Y-94112000D01*
G75*
G02*
X162237500Y-94212000I-100000J0D01*
G01*
X160962500Y-94212000D01*
G75*
G02*
X160862500Y-94112000I0J100000D01*
G01*
G37*
G36*
G01*
X155137500Y-94112000D02*
X155137500Y-93912000D01*
G75*
G02*
X155237500Y-93812000I100000J0D01*
G01*
X156512500Y-93812000D01*
G75*
G02*
X156612500Y-93912000I0J-100000D01*
G01*
X156612500Y-94112000D01*
G75*
G02*
X156512500Y-94212000I-100000J0D01*
G01*
X155237500Y-94212000D01*
G75*
G02*
X155137500Y-94112000I0J100000D01*
G01*
G37*
G36*
G01*
X155137500Y-93462000D02*
X155137500Y-93262000D01*
G75*
G02*
X155237500Y-93162000I100000J0D01*
G01*
X156512500Y-93162000D01*
G75*
G02*
X156612500Y-93262000I0J-100000D01*
G01*
X156612500Y-93462000D01*
G75*
G02*
X156512500Y-93562000I-100000J0D01*
G01*
X155237500Y-93562000D01*
G75*
G02*
X155137500Y-93462000I0J100000D01*
G01*
G37*
G36*
G01*
X155137500Y-92812000D02*
X155137500Y-92612000D01*
G75*
G02*
X155237500Y-92512000I100000J0D01*
G01*
X156512500Y-92512000D01*
G75*
G02*
X156612500Y-92612000I0J-100000D01*
G01*
X156612500Y-92812000D01*
G75*
G02*
X156512500Y-92912000I-100000J0D01*
G01*
X155237500Y-92912000D01*
G75*
G02*
X155137500Y-92812000I0J100000D01*
G01*
G37*
G36*
G01*
X155137500Y-92162000D02*
X155137500Y-91962000D01*
G75*
G02*
X155237500Y-91862000I100000J0D01*
G01*
X156512500Y-91862000D01*
G75*
G02*
X156612500Y-91962000I0J-100000D01*
G01*
X156612500Y-92162000D01*
G75*
G02*
X156512500Y-92262000I-100000J0D01*
G01*
X155237500Y-92262000D01*
G75*
G02*
X155137500Y-92162000I0J100000D01*
G01*
G37*
G36*
G01*
X155137500Y-91512000D02*
X155137500Y-91312000D01*
G75*
G02*
X155237500Y-91212000I100000J0D01*
G01*
X156512500Y-91212000D01*
G75*
G02*
X156612500Y-91312000I0J-100000D01*
G01*
X156612500Y-91512000D01*
G75*
G02*
X156512500Y-91612000I-100000J0D01*
G01*
X155237500Y-91612000D01*
G75*
G02*
X155137500Y-91512000I0J100000D01*
G01*
G37*
G36*
G01*
X155137500Y-90862000D02*
X155137500Y-90662000D01*
G75*
G02*
X155237500Y-90562000I100000J0D01*
G01*
X156512500Y-90562000D01*
G75*
G02*
X156612500Y-90662000I0J-100000D01*
G01*
X156612500Y-90862000D01*
G75*
G02*
X156512500Y-90962000I-100000J0D01*
G01*
X155237500Y-90962000D01*
G75*
G02*
X155137500Y-90862000I0J100000D01*
G01*
G37*
G36*
G01*
X155137500Y-90212000D02*
X155137500Y-90012000D01*
G75*
G02*
X155237500Y-89912000I100000J0D01*
G01*
X156512500Y-89912000D01*
G75*
G02*
X156612500Y-90012000I0J-100000D01*
G01*
X156612500Y-90212000D01*
G75*
G02*
X156512500Y-90312000I-100000J0D01*
G01*
X155237500Y-90312000D01*
G75*
G02*
X155137500Y-90212000I0J100000D01*
G01*
G37*
M02*
