G04 #@! TF.GenerationSoftware,KiCad,Pcbnew,6.0.2+dfsg-1*
G04 #@! TF.CreationDate,2022-04-19T16:57:22+08:00*
G04 #@! TF.ProjectId,PSLab,50534c61-622e-46b6-9963-61645f706362,v6.0-beta*
G04 #@! TF.SameCoordinates,Original*
G04 #@! TF.FileFunction,Soldermask,Top*
G04 #@! TF.FilePolarity,Negative*
%FSLAX46Y46*%
G04 Gerber Fmt 4.6, Leading zero omitted, Abs format (unit mm)*
G04 Created by KiCad (PCBNEW 6.0.2+dfsg-1) date 2022-04-19 16:57:22*
%MOMM*%
%LPD*%
G01*
G04 APERTURE LIST*
G04 Aperture macros list*
%AMRoundRect*
0 Rectangle with rounded corners*
0 $1 Rounding radius*
0 $2 $3 $4 $5 $6 $7 $8 $9 X,Y pos of 4 corners*
0 Add a 4 corners polygon primitive as box body*
4,1,4,$2,$3,$4,$5,$6,$7,$8,$9,$2,$3,0*
0 Add four circle primitives for the rounded corners*
1,1,$1+$1,$2,$3*
1,1,$1+$1,$4,$5*
1,1,$1+$1,$6,$7*
1,1,$1+$1,$8,$9*
0 Add four rect primitives between the rounded corners*
20,1,$1+$1,$2,$3,$4,$5,0*
20,1,$1+$1,$4,$5,$6,$7,0*
20,1,$1+$1,$6,$7,$8,$9,0*
20,1,$1+$1,$8,$9,$2,$3,0*%
%AMOutline4P*
0 Free polygon, 4 corners , with rotation*
0 The origin of the aperture is its center*
0 number of corners: always 4*
0 $1 to $8 corner X, Y*
0 $9 Rotation angle, in degrees counterclockwise*
0 create outline with 4 corners*
4,1,4,$1,$2,$3,$4,$5,$6,$7,$8,$1,$2,$9*%
%AMFreePoly0*
4,1,22,0.500000,-0.750000,0.000000,-0.750000,0.000000,-0.745033,-0.079941,-0.743568,-0.215256,-0.701293,-0.333266,-0.622738,-0.424486,-0.514219,-0.481581,-0.384460,-0.499164,-0.250000,-0.500000,-0.250000,-0.500000,0.250000,-0.499164,0.250000,-0.499963,0.256109,-0.478152,0.396186,-0.417904,0.524511,-0.324060,0.630769,-0.204165,0.706417,-0.067858,0.745374,0.000000,0.744959,0.000000,0.750000,
0.500000,0.750000,0.500000,-0.750000,0.500000,-0.750000,$1*%
%AMFreePoly1*
4,1,20,0.000000,0.744959,0.073905,0.744508,0.209726,0.703889,0.328688,0.626782,0.421226,0.519385,0.479903,0.390333,0.500000,0.250000,0.500000,-0.250000,0.499851,-0.262216,0.476331,-0.402017,0.414519,-0.529596,0.319384,-0.634700,0.198574,-0.708877,0.061801,-0.746166,0.000000,-0.745033,0.000000,-0.750000,-0.500000,-0.750000,-0.500000,0.750000,0.000000,0.750000,0.000000,0.744959,
0.000000,0.744959,$1*%
G04 Aperture macros list end*
%ADD10C,0.100000*%
%ADD11R,1.700000X1.700000*%
%ADD12O,1.700000X1.700000*%
%ADD13RoundRect,0.200000X-0.200000X-0.275000X0.200000X-0.275000X0.200000X0.275000X-0.200000X0.275000X0*%
%ADD14RoundRect,0.200000X-0.275000X0.200000X-0.275000X-0.200000X0.275000X-0.200000X0.275000X0.200000X0*%
%ADD15RoundRect,0.200000X0.200000X0.275000X-0.200000X0.275000X-0.200000X-0.275000X0.200000X-0.275000X0*%
%ADD16RoundRect,0.200000X0.275000X-0.200000X0.275000X0.200000X-0.275000X0.200000X-0.275000X-0.200000X0*%
%ADD17R,0.800000X1.200000*%
%ADD18RoundRect,0.250000X-0.375000X-0.625000X0.375000X-0.625000X0.375000X0.625000X-0.375000X0.625000X0*%
%ADD19RoundRect,0.225000X-0.225000X-0.250000X0.225000X-0.250000X0.225000X0.250000X-0.225000X0.250000X0*%
%ADD20RoundRect,0.225000X0.225000X0.250000X-0.225000X0.250000X-0.225000X-0.250000X0.225000X-0.250000X0*%
%ADD21RoundRect,0.225000X0.250000X-0.225000X0.250000X0.225000X-0.250000X0.225000X-0.250000X-0.225000X0*%
%ADD22R,1.700000X1.300000*%
%ADD23RoundRect,0.243750X0.243750X0.456250X-0.243750X0.456250X-0.243750X-0.456250X0.243750X-0.456250X0*%
%ADD24RoundRect,0.243750X0.456250X-0.243750X0.456250X0.243750X-0.456250X0.243750X-0.456250X-0.243750X0*%
%ADD25R,1.500000X1.000000*%
%ADD26RoundRect,0.150000X0.150000X-0.825000X0.150000X0.825000X-0.150000X0.825000X-0.150000X-0.825000X0*%
%ADD27RoundRect,0.150000X-0.825000X-0.150000X0.825000X-0.150000X0.825000X0.150000X-0.825000X0.150000X0*%
%ADD28RoundRect,0.150000X0.825000X0.150000X-0.825000X0.150000X-0.825000X-0.150000X0.825000X-0.150000X0*%
%ADD29RoundRect,0.100000X0.637500X0.100000X-0.637500X0.100000X-0.637500X-0.100000X0.637500X-0.100000X0*%
%ADD30R,1.060000X0.400000*%
%ADD31R,1.200000X1.400000*%
%ADD32R,1.000000X1.400000*%
%ADD33C,5.600000*%
%ADD34RoundRect,0.225000X-0.250000X0.225000X-0.250000X-0.225000X0.250000X-0.225000X0.250000X0.225000X0*%
%ADD35R,1.800000X1.000000*%
%ADD36R,0.550000X1.500000*%
%ADD37R,1.500000X0.550000*%
%ADD38R,0.900000X0.800000*%
%ADD39C,1.500000*%
%ADD40RoundRect,0.100000X-0.637500X-0.100000X0.637500X-0.100000X0.637500X0.100000X-0.637500X0.100000X0*%
%ADD41Outline4P,-1.250000X-2.250000X1.250000X-2.850000X1.250000X2.850000X-1.250000X2.250000X0.000000*%
%ADD42Outline4P,-1.250000X-2.850000X1.250000X-2.250000X1.250000X2.250000X-1.250000X2.850000X0.000000*%
%ADD43C,10.200000*%
%ADD44R,0.800000X0.900000*%
%ADD45C,0.800000*%
%ADD46R,2.000000X1.500000*%
%ADD47R,2.000000X3.800000*%
%ADD48R,0.650000X2.000000*%
%ADD49R,1.200000X0.900000*%
%ADD50RoundRect,0.100000X0.100000X0.100000X-0.100000X0.100000X-0.100000X-0.100000X0.100000X-0.100000X0*%
%ADD51O,0.700000X0.200000*%
%ADD52O,0.200000X0.700000*%
%ADD53R,1.600000X1.600000*%
%ADD54R,0.500000X0.500000*%
%ADD55C,0.650000*%
%ADD56R,1.450000X0.600000*%
%ADD57R,1.450000X0.300000*%
%ADD58R,1.500000X2.020000*%
%ADD59RoundRect,0.243750X-0.243750X-0.456250X0.243750X-0.456250X0.243750X0.456250X-0.243750X0.456250X0*%
%ADD60RoundRect,0.249999X0.412501X0.925001X-0.412501X0.925001X-0.412501X-0.925001X0.412501X-0.925001X0*%
%ADD61RoundRect,0.249999X-0.412501X-0.925001X0.412501X-0.925001X0.412501X0.925001X-0.412501X0.925001X0*%
%ADD62R,1.000000X2.600000*%
%ADD63R,1.500000X3.400000*%
%ADD64R,2.400000X2.000000*%
%ADD65RoundRect,0.062500X-0.350000X-0.062500X0.350000X-0.062500X0.350000X0.062500X-0.350000X0.062500X0*%
%ADD66RoundRect,0.062500X-0.062500X-0.350000X0.062500X-0.350000X0.062500X0.350000X-0.062500X0.350000X0*%
%ADD67R,2.600000X2.600000*%
%ADD68C,0.500000*%
%ADD69R,1.600000X0.700000*%
%ADD70R,1.400000X1.600000*%
%ADD71R,2.200000X1.200000*%
%ADD72R,1.400000X1.200000*%
%ADD73O,1.727200X1.727200*%
%ADD74R,1.727200X1.727200*%
%ADD75R,2.000000X0.650000*%
%ADD76R,1.060000X0.650000*%
%ADD77FreePoly0,180.000000*%
%ADD78FreePoly1,180.000000*%
%ADD79RoundRect,0.150000X0.512500X0.150000X-0.512500X0.150000X-0.512500X-0.150000X0.512500X-0.150000X0*%
G04 APERTURE END LIST*
D10*
X119725000Y-59650000D02*
X119725000Y-59775000D01*
X119725000Y-59775000D02*
X119725000Y-59950000D01*
X119725000Y-59950000D02*
X119475000Y-59950000D01*
X119475000Y-59950000D02*
X119475000Y-59650000D01*
X119475000Y-59650000D02*
X119475000Y-59500000D01*
X119475000Y-59500000D02*
X119475000Y-59425000D01*
X119475000Y-59425000D02*
X119725000Y-59425000D01*
X119725000Y-59425000D02*
X119725000Y-59650000D01*
G36*
X119725000Y-59950000D02*
G01*
X119475000Y-59950000D01*
X119475000Y-59425000D01*
X119725000Y-59425000D01*
X119725000Y-59950000D01*
G37*
X119725000Y-59950000D02*
X119475000Y-59950000D01*
X119475000Y-59425000D01*
X119725000Y-59425000D01*
X119725000Y-59950000D01*
X110940000Y-73780000D02*
X110340000Y-73780000D01*
X110340000Y-73780000D02*
X110340000Y-72480000D01*
X110340000Y-72480000D02*
X110940000Y-72480000D01*
X110940000Y-72480000D02*
X110940000Y-73780000D01*
G36*
X110940000Y-73780000D02*
G01*
X110340000Y-73780000D01*
X110340000Y-72480000D01*
X110940000Y-72480000D01*
X110940000Y-73780000D01*
G37*
X110940000Y-73780000D02*
X110340000Y-73780000D01*
X110340000Y-72480000D01*
X110940000Y-72480000D01*
X110940000Y-73780000D01*
D11*
X196520000Y-54280000D03*
D12*
X193980000Y-54280000D03*
X196520000Y-56820000D03*
X193980000Y-56820000D03*
X196520000Y-59360000D03*
X193980000Y-59360000D03*
X196520000Y-61900000D03*
X193980000Y-61900000D03*
X196520000Y-64440000D03*
X193980000Y-64440000D03*
X196520000Y-66980000D03*
X193980000Y-66980000D03*
X196520000Y-69520000D03*
X193980000Y-69520000D03*
X196520000Y-72060000D03*
X193980000Y-72060000D03*
X196520000Y-74600000D03*
X193980000Y-74600000D03*
X196520000Y-77140000D03*
X193980000Y-77140000D03*
X196520000Y-79680000D03*
X193980000Y-79680000D03*
X196520000Y-82220000D03*
X193980000Y-82220000D03*
X196520000Y-84760000D03*
X193980000Y-84760000D03*
X196520000Y-87300000D03*
X193980000Y-87300000D03*
D13*
X177851000Y-62789000D03*
X179501000Y-62789000D03*
D14*
X150856000Y-88880000D03*
X150856000Y-90530000D03*
D13*
X162775000Y-54800000D03*
X164425000Y-54800000D03*
D15*
X164425000Y-53200000D03*
X162775000Y-53200000D03*
X189925000Y-76200000D03*
X188275000Y-76200000D03*
D14*
X152514000Y-92127000D03*
X152514000Y-93777000D03*
D13*
X188575000Y-83850000D03*
X190225000Y-83850000D03*
X173470000Y-54026000D03*
X175120000Y-54026000D03*
D15*
X185150000Y-76200000D03*
X183500000Y-76200000D03*
X179501000Y-60566500D03*
X177851000Y-60566500D03*
D13*
X177851000Y-58407500D03*
X179501000Y-58407500D03*
X177851000Y-56248500D03*
X179501000Y-56248500D03*
X164263000Y-62789000D03*
X165913000Y-62789000D03*
X173407000Y-62852500D03*
X175057000Y-62852500D03*
X168961000Y-62789000D03*
X170611000Y-62789000D03*
D15*
X185343500Y-56248500D03*
X183693500Y-56248500D03*
X179501000Y-54026000D03*
X177851000Y-54026000D03*
D16*
X137084000Y-90030000D03*
X137084000Y-88380000D03*
X139243000Y-93777000D03*
X139243000Y-92127000D03*
X137084000Y-93777000D03*
X137084000Y-92127000D03*
X152514000Y-90530000D03*
X152514000Y-88880000D03*
X189800000Y-66125000D03*
X189800000Y-64475000D03*
D13*
X172475000Y-88000000D03*
X174125000Y-88000000D03*
D16*
X105000000Y-53925000D03*
X105000000Y-52275000D03*
D14*
X119091000Y-66937000D03*
X119091000Y-68587000D03*
X117450000Y-66937000D03*
X117450000Y-68587000D03*
D16*
X114350000Y-56883000D03*
X114350000Y-55233000D03*
D15*
X186225000Y-83900000D03*
X184575000Y-83900000D03*
X157213000Y-87872000D03*
X155563000Y-87872000D03*
D16*
X137084000Y-97587000D03*
X137084000Y-95937000D03*
D17*
X140900000Y-66100000D03*
X140900000Y-62300000D03*
X138500000Y-62300000D03*
X138500000Y-66100000D03*
D15*
X110085000Y-52420000D03*
X108435000Y-52420000D03*
X110085000Y-50520000D03*
X108435000Y-50520000D03*
D18*
X111450000Y-65800000D03*
X114250000Y-65800000D03*
D19*
X124975000Y-77950000D03*
X126525000Y-77950000D03*
D20*
X185100000Y-74500000D03*
X183550000Y-74500000D03*
D19*
X159725000Y-54800000D03*
X161275000Y-54800000D03*
X188625000Y-85500000D03*
X190175000Y-85500000D03*
D20*
X189875000Y-74500000D03*
X188325000Y-74500000D03*
D19*
X169075000Y-54000000D03*
X170625000Y-54000000D03*
D20*
X143320000Y-88372000D03*
X141770000Y-88372000D03*
D21*
X150856000Y-93727000D03*
X150856000Y-92177000D03*
D19*
X146215000Y-88372000D03*
X147765000Y-88372000D03*
X188125000Y-54026000D03*
X189675000Y-54026000D03*
D22*
X138800000Y-56850000D03*
X138800000Y-53350000D03*
D23*
X174037500Y-89900000D03*
X172162500Y-89900000D03*
D24*
X102860000Y-53797500D03*
X102860000Y-51922500D03*
D22*
X135000000Y-67250000D03*
X135000000Y-63750000D03*
D21*
X139243000Y-89980000D03*
X139243000Y-88430000D03*
D20*
X138939000Y-86411000D03*
X137389000Y-86411000D03*
D19*
X150925000Y-85700000D03*
X152475000Y-85700000D03*
X165925000Y-54000000D03*
X167475000Y-54000000D03*
D13*
X179700000Y-82400000D03*
X181350000Y-82400000D03*
D15*
X185343000Y-54026000D03*
X183693000Y-54026000D03*
X189725000Y-56248500D03*
X188075000Y-56248500D03*
D25*
X121100000Y-80425000D03*
X121100000Y-83625000D03*
X126000000Y-83625000D03*
X126000000Y-80425000D03*
D14*
X111240000Y-55233000D03*
X111240000Y-56883000D03*
X112800000Y-55225000D03*
X112800000Y-56875000D03*
D15*
X175120000Y-56248500D03*
X173470000Y-56248500D03*
D26*
X183495000Y-72075000D03*
X184765000Y-72075000D03*
X186035000Y-72075000D03*
X187305000Y-72075000D03*
X187305000Y-67125000D03*
X186035000Y-67125000D03*
X184765000Y-67125000D03*
X183495000Y-67125000D03*
D27*
X184203000Y-78045000D03*
X184203000Y-79315000D03*
X184203000Y-80585000D03*
X184203000Y-81855000D03*
X189153000Y-81855000D03*
X189153000Y-80585000D03*
X189153000Y-79315000D03*
X189153000Y-78045000D03*
D28*
X147243000Y-93904000D03*
X147243000Y-92634000D03*
X147243000Y-91364000D03*
X147243000Y-90094000D03*
X142293000Y-90094000D03*
X142293000Y-91364000D03*
X142293000Y-92634000D03*
X142293000Y-93904000D03*
D27*
X184203000Y-58979000D03*
X184203000Y-60249000D03*
X184203000Y-61519000D03*
X184203000Y-62789000D03*
X189153000Y-62789000D03*
X189153000Y-61519000D03*
X189153000Y-60249000D03*
X189153000Y-58979000D03*
D29*
X173402500Y-84305000D03*
X173402500Y-83655000D03*
X173402500Y-83005000D03*
X173402500Y-82355000D03*
X173402500Y-81705000D03*
X173402500Y-81055000D03*
X173402500Y-80405000D03*
X173402500Y-79755000D03*
X167677500Y-79755000D03*
X167677500Y-80405000D03*
X167677500Y-81055000D03*
X167677500Y-81705000D03*
X167677500Y-82355000D03*
X167677500Y-83005000D03*
X167677500Y-83655000D03*
X167677500Y-84305000D03*
D30*
X178700000Y-70920000D03*
X178700000Y-71570000D03*
X178700000Y-72230000D03*
X178700000Y-72880000D03*
X180900000Y-72880000D03*
X180900000Y-72230000D03*
X180900000Y-71570000D03*
X180900000Y-70920000D03*
D31*
X114070000Y-60800000D03*
D32*
X112350000Y-60800000D03*
X112350000Y-63000000D03*
X114250000Y-63000000D03*
D33*
X113940000Y-97440000D03*
X190150000Y-49200000D03*
X115210000Y-49190000D03*
X196480000Y-97430000D03*
D20*
X160325000Y-87872000D03*
X158775000Y-87872000D03*
D16*
X159660000Y-84569000D03*
X159660000Y-82919000D03*
X161310000Y-84569000D03*
X161310000Y-82919000D03*
X162966000Y-84569000D03*
X162966000Y-82919000D03*
X164610000Y-84569000D03*
X164610000Y-82919000D03*
D19*
X161825000Y-87872000D03*
X163375000Y-87872000D03*
D21*
X148133000Y-74867000D03*
X148133000Y-73317000D03*
X150900000Y-61375000D03*
X150900000Y-59825000D03*
D20*
X154075000Y-58800000D03*
X152525000Y-58800000D03*
D21*
X157658000Y-64961000D03*
X157658000Y-63411000D03*
D34*
X165600000Y-74225000D03*
X165600000Y-75775000D03*
X158039000Y-82969000D03*
X158039000Y-84519000D03*
D16*
X181900000Y-56150000D03*
X181900000Y-54500000D03*
D28*
X170103000Y-93967000D03*
X170103000Y-92697000D03*
X170103000Y-91427000D03*
X170103000Y-90157000D03*
X165153000Y-90157000D03*
X165153000Y-91427000D03*
X165153000Y-92697000D03*
X165153000Y-93967000D03*
D35*
X172600000Y-94750000D03*
X172600000Y-92250000D03*
D16*
X159700000Y-65011000D03*
X159700000Y-63361000D03*
X149300000Y-65011000D03*
X149300000Y-63361000D03*
X150928000Y-65011000D03*
X150928000Y-63361000D03*
D13*
X164263000Y-64948000D03*
X165913000Y-64948000D03*
D36*
X153150000Y-79919000D03*
X153950000Y-79919000D03*
X154750000Y-79919000D03*
X155550000Y-79919000D03*
X156350000Y-79919000D03*
X157150000Y-79919000D03*
X157950000Y-79919000D03*
X158750000Y-79919000D03*
X159550000Y-79919000D03*
X160350000Y-79919000D03*
X161150000Y-79919000D03*
D37*
X162850000Y-78219000D03*
X162850000Y-77419000D03*
X162850000Y-76619000D03*
X162850000Y-75819000D03*
X162850000Y-75019000D03*
X162850000Y-74219000D03*
X162850000Y-73419000D03*
X162850000Y-72619000D03*
X162850000Y-71819000D03*
X162850000Y-71019000D03*
X162850000Y-70219000D03*
D36*
X161150000Y-68519000D03*
X160350000Y-68519000D03*
X159550000Y-68519000D03*
X158750000Y-68519000D03*
X157950000Y-68519000D03*
X157150000Y-68519000D03*
X156350000Y-68519000D03*
X155550000Y-68519000D03*
X154750000Y-68519000D03*
X153950000Y-68519000D03*
X153150000Y-68519000D03*
D37*
X151450000Y-70219000D03*
X151450000Y-71019000D03*
X151450000Y-71819000D03*
X151450000Y-72619000D03*
X151450000Y-73419000D03*
X151450000Y-74219000D03*
X151450000Y-75019000D03*
X151450000Y-75819000D03*
X151450000Y-76619000D03*
X151450000Y-77419000D03*
X151450000Y-78219000D03*
D11*
X122860000Y-49200000D03*
D12*
X125400000Y-49200000D03*
X127940000Y-49200000D03*
X130480000Y-49200000D03*
X133020000Y-49200000D03*
X135560000Y-49200000D03*
X138100000Y-49200000D03*
X140640000Y-49200000D03*
X143180000Y-49200000D03*
X145720000Y-49200000D03*
X148260000Y-49200000D03*
X150800000Y-49200000D03*
X153340000Y-49200000D03*
X155880000Y-49200000D03*
X158420000Y-49200000D03*
X160960000Y-49200000D03*
X163500000Y-49200000D03*
X166040000Y-49200000D03*
X168580000Y-49200000D03*
X171120000Y-49200000D03*
X173660000Y-49200000D03*
X176200000Y-49200000D03*
X178740000Y-49200000D03*
X181280000Y-49200000D03*
X183820000Y-49200000D03*
D11*
X143180000Y-97494000D03*
D12*
X145720000Y-97494000D03*
X148260000Y-97494000D03*
X150800000Y-97494000D03*
X153340000Y-97494000D03*
X155880000Y-97494000D03*
X158420000Y-97494000D03*
X160960000Y-97494000D03*
X163500000Y-97494000D03*
X166040000Y-97494000D03*
X168580000Y-97494000D03*
X171120000Y-97494000D03*
X173660000Y-97494000D03*
D38*
X173486000Y-58537000D03*
X173486000Y-60437000D03*
X175486000Y-59487000D03*
D19*
X112425000Y-59000000D03*
X113975000Y-59000000D03*
D39*
X197060000Y-92420000D03*
X197060000Y-48820000D03*
D15*
X115557000Y-87681000D03*
X113907000Y-87681000D03*
X115557000Y-89840000D03*
X113907000Y-89840000D03*
D39*
X105560000Y-48620000D03*
D30*
X178700000Y-66020000D03*
X178700000Y-66670000D03*
X178700000Y-67330000D03*
X178700000Y-67980000D03*
X180900000Y-67980000D03*
X180900000Y-67330000D03*
X180900000Y-66670000D03*
X180900000Y-66020000D03*
D40*
X164574500Y-56584500D03*
X164574500Y-57234500D03*
X164574500Y-57884500D03*
X164574500Y-58534500D03*
X164574500Y-59184500D03*
X164574500Y-59834500D03*
X164574500Y-60484500D03*
X170299500Y-60484500D03*
X170299500Y-59834500D03*
X170299500Y-59184500D03*
X170299500Y-58534500D03*
X170299500Y-57884500D03*
X170299500Y-57234500D03*
X170299500Y-56584500D03*
D41*
X177000000Y-93075000D03*
D42*
X192200000Y-93075000D03*
D43*
X184600000Y-93075000D03*
D21*
X181800000Y-62975000D03*
X181800000Y-61425000D03*
D20*
X115675000Y-92100000D03*
X114125000Y-92100000D03*
D34*
X139243000Y-95923000D03*
X139243000Y-97473000D03*
D13*
X141900000Y-53257000D03*
X143550000Y-53257000D03*
D11*
X144660000Y-69012000D03*
D12*
X144660000Y-71552000D03*
X144660000Y-74092000D03*
X144660000Y-76632000D03*
X144660000Y-79172000D03*
D44*
X144200000Y-54700000D03*
X145150000Y-56700000D03*
X143250000Y-56700000D03*
D45*
X145000000Y-53250000D03*
D15*
X139052000Y-82029500D03*
X137402000Y-82029500D03*
D17*
X146100000Y-85898000D03*
X146100000Y-82098000D03*
X143700000Y-82098000D03*
X143700000Y-85898000D03*
D40*
X155875000Y-90112000D03*
X155875000Y-90762000D03*
X155875000Y-91412000D03*
X155875000Y-92062000D03*
X155875000Y-92712000D03*
X155875000Y-93362000D03*
X155875000Y-94012000D03*
X161600000Y-94012000D03*
X161600000Y-93362000D03*
X161600000Y-92712000D03*
X161600000Y-92062000D03*
X161600000Y-91412000D03*
X161600000Y-90762000D03*
X161600000Y-90112000D03*
D13*
X167375000Y-64900000D03*
X169025000Y-64900000D03*
D20*
X129275000Y-98000000D03*
X127725000Y-98000000D03*
D46*
X128550000Y-78825000D03*
X128550000Y-81125000D03*
D47*
X134850000Y-81125000D03*
D46*
X128550000Y-83425000D03*
D48*
X133875000Y-96000000D03*
X132525000Y-96000000D03*
D16*
X130900000Y-98025000D03*
X130900000Y-96375000D03*
D49*
X128500000Y-69750000D03*
X128500000Y-73050000D03*
D48*
X125025000Y-72500000D03*
X126375000Y-72500000D03*
D15*
X124025000Y-66500000D03*
X122375000Y-66500000D03*
D50*
X119600000Y-62600000D03*
D51*
X119750000Y-62050000D03*
X119750000Y-61550000D03*
X119750000Y-61050000D03*
X119750000Y-60550000D03*
D50*
X119600000Y-60000000D03*
D52*
X119050000Y-59850000D03*
X118550000Y-59850000D03*
X118050000Y-59850000D03*
X117550000Y-59850000D03*
D50*
X117000000Y-60000000D03*
D51*
X116850000Y-60550000D03*
X116850000Y-61050000D03*
X116850000Y-61550000D03*
X116850000Y-62050000D03*
D50*
X117000000Y-62600000D03*
D52*
X117550000Y-62750000D03*
X118050000Y-62750000D03*
X118550000Y-62750000D03*
X119050000Y-62750000D03*
D53*
X118300000Y-61300000D03*
D20*
X118575000Y-55400000D03*
X117025000Y-55400000D03*
X118575000Y-56950000D03*
X117025000Y-56950000D03*
D45*
X145650000Y-58975000D03*
X176660000Y-75420000D03*
D54*
X197028000Y-90348000D03*
D16*
X169030000Y-78135000D03*
X169030000Y-76485000D03*
X167380000Y-78135000D03*
X167380000Y-76485000D03*
X170680000Y-78135000D03*
X170680000Y-76485000D03*
D15*
X158125000Y-54800000D03*
X156475000Y-54800000D03*
D16*
X172330000Y-78135000D03*
X172330000Y-76485000D03*
D21*
X126960000Y-96195000D03*
X126960000Y-94645000D03*
D55*
X105700000Y-64790000D03*
X105700000Y-59010000D03*
D56*
X107145000Y-58650000D03*
X107145000Y-59450000D03*
D57*
X107145000Y-60650000D03*
X107145000Y-61650000D03*
X107145000Y-62150000D03*
X107145000Y-63150000D03*
D56*
X107145000Y-64350000D03*
X107145000Y-65150000D03*
X107145000Y-65150000D03*
X107145000Y-64350000D03*
D57*
X107145000Y-63650000D03*
X107145000Y-62650000D03*
X107145000Y-61150000D03*
X107145000Y-60150000D03*
D56*
X107145000Y-59450000D03*
X107145000Y-58650000D03*
D58*
X106200000Y-67230000D03*
X106200000Y-56570000D03*
X102200000Y-56570000D03*
X102200000Y-67230000D03*
D15*
X134025000Y-85500000D03*
X132375000Y-85500000D03*
D17*
X146100000Y-66100000D03*
X146100000Y-62300000D03*
X143700000Y-62300000D03*
X143700000Y-66100000D03*
D20*
X152475000Y-87300000D03*
X150925000Y-87300000D03*
X176575000Y-66000000D03*
X175025000Y-66000000D03*
D13*
X165775000Y-88000000D03*
X167425000Y-88000000D03*
X169075000Y-88000000D03*
X170725000Y-88000000D03*
X123125000Y-86850000D03*
X124775000Y-86850000D03*
D27*
X156905000Y-56635000D03*
X156905000Y-57905000D03*
X156905000Y-59175000D03*
X156905000Y-60445000D03*
X161855000Y-60445000D03*
X161855000Y-59175000D03*
X161855000Y-57905000D03*
X161855000Y-56635000D03*
D59*
X119212500Y-86800000D03*
X121087500Y-86800000D03*
D21*
X128550000Y-68175000D03*
X128550000Y-66625000D03*
X130100000Y-68175000D03*
X130100000Y-66625000D03*
D28*
X127175000Y-61980000D03*
X127175000Y-60710000D03*
X127175000Y-59440000D03*
X127175000Y-58170000D03*
X122225000Y-58170000D03*
X122225000Y-59440000D03*
X122225000Y-60710000D03*
X122225000Y-61980000D03*
D60*
X128787500Y-55600000D03*
X125712500Y-55600000D03*
D61*
X120262500Y-55600000D03*
X123337500Y-55600000D03*
D62*
X122460000Y-92620000D03*
X120460000Y-92620000D03*
D63*
X124810000Y-97920000D03*
X118110000Y-97920000D03*
D34*
X127000000Y-91525000D03*
X127000000Y-93075000D03*
D13*
X179700000Y-80670000D03*
X181350000Y-80670000D03*
D15*
X178150000Y-82400000D03*
X176500000Y-82400000D03*
D27*
X168725000Y-67995000D03*
X168725000Y-69265000D03*
X168725000Y-70535000D03*
X168725000Y-71805000D03*
X173675000Y-71805000D03*
X173675000Y-70535000D03*
X173675000Y-69265000D03*
X173675000Y-67995000D03*
D13*
X171575000Y-66000000D03*
X173225000Y-66000000D03*
D34*
X181800000Y-58325000D03*
X181800000Y-59875000D03*
D64*
X153700000Y-64550000D03*
X153700000Y-60850000D03*
D21*
X127050000Y-66475000D03*
X127050000Y-64925000D03*
D15*
X134025000Y-87100000D03*
X132375000Y-87100000D03*
D13*
X125725000Y-88700000D03*
X127375000Y-88700000D03*
D65*
X129062500Y-90800000D03*
X129062500Y-91300000D03*
X129062500Y-91800000D03*
X129062500Y-92300000D03*
X129062500Y-92800000D03*
X129062500Y-93300000D03*
D66*
X129750000Y-93987500D03*
X130250000Y-93987500D03*
X130750000Y-93987500D03*
X131250000Y-93987500D03*
X131750000Y-93987500D03*
X132250000Y-93987500D03*
D65*
X132937500Y-93300000D03*
X132937500Y-92800000D03*
X132937500Y-92300000D03*
X132937500Y-91800000D03*
X132937500Y-91300000D03*
X132937500Y-90800000D03*
D66*
X132250000Y-90112500D03*
X131750000Y-90112500D03*
X131250000Y-90112500D03*
X130750000Y-90112500D03*
X130250000Y-90112500D03*
X129750000Y-90112500D03*
D67*
X131000000Y-92050000D03*
D68*
X105200000Y-72950000D03*
X105200000Y-80950000D03*
D69*
X115700000Y-80150000D03*
X115700000Y-79050000D03*
X115700000Y-77950000D03*
X115700000Y-76850000D03*
X115700000Y-75750000D03*
X115700000Y-74650000D03*
X115700000Y-73550000D03*
X115700000Y-72450000D03*
X115700000Y-71350000D03*
D70*
X115200000Y-84750000D03*
D71*
X105600000Y-85650000D03*
X105600000Y-70150000D03*
D72*
X115200000Y-70150000D03*
D73*
X103365500Y-88697000D03*
D74*
X103365500Y-91237000D03*
D73*
X105905500Y-88697000D03*
X105905500Y-91237000D03*
X108445500Y-88697000D03*
X108445500Y-91237000D03*
X110985500Y-88697000D03*
X110985500Y-91237000D03*
D15*
X178150000Y-84130000D03*
X176500000Y-84130000D03*
D75*
X161976000Y-63511000D03*
X161976000Y-64861000D03*
D20*
X130875000Y-85500000D03*
X129325000Y-85500000D03*
X162775000Y-62100000D03*
X161225000Y-62100000D03*
D34*
X135000000Y-92325000D03*
X135000000Y-93875000D03*
D19*
X129325000Y-87100000D03*
X130875000Y-87100000D03*
D34*
X135600000Y-54825000D03*
X135600000Y-56375000D03*
X137900000Y-58525000D03*
X137900000Y-60075000D03*
X131400000Y-54725000D03*
X131400000Y-56275000D03*
D13*
X131775000Y-61500000D03*
X133425000Y-61500000D03*
D14*
X136300000Y-58275000D03*
X136300000Y-59925000D03*
D76*
X132400000Y-57950000D03*
X132400000Y-58900000D03*
X132400000Y-59850000D03*
X134600000Y-59850000D03*
X134600000Y-58900000D03*
X134600000Y-57950000D03*
D22*
X141300000Y-58450000D03*
X141300000Y-54950000D03*
D14*
X125500000Y-64875000D03*
X125500000Y-66525000D03*
D45*
X129600000Y-74700000D03*
X132050000Y-67600000D03*
D15*
X132225000Y-72900000D03*
X130575000Y-72900000D03*
D22*
X135700000Y-69575000D03*
X135700000Y-73075000D03*
D38*
X133700000Y-71050000D03*
X133700000Y-69150000D03*
X131700000Y-70100000D03*
D77*
X135650000Y-52300000D03*
D78*
X134350000Y-52300000D03*
D77*
X127350000Y-52600000D03*
D78*
X126050000Y-52600000D03*
D20*
X132075000Y-53225000D03*
X130525000Y-53225000D03*
D48*
X134175000Y-55700000D03*
X132825000Y-55700000D03*
D15*
X136450000Y-61500000D03*
X134800000Y-61500000D03*
D34*
X131675000Y-64675000D03*
X131675000Y-66225000D03*
D19*
X179750000Y-84200000D03*
X181300000Y-84200000D03*
D79*
X126337500Y-70060000D03*
X126337500Y-69110000D03*
X126337500Y-68160000D03*
X124062500Y-68160000D03*
X124062500Y-70060000D03*
D16*
X189800000Y-69325000D03*
X189800000Y-67675000D03*
X189800000Y-72625000D03*
X189800000Y-70975000D03*
D20*
X178100000Y-80600000D03*
X176550000Y-80600000D03*
M02*
