G04 #@! TF.GenerationSoftware,KiCad,Pcbnew,5.99.0+really5.1.12+dfsg1-1*
G04 #@! TF.CreationDate,2022-02-16T15:30:31+08:00*
G04 #@! TF.ProjectId,PSLab,50534c61-622e-46b6-9963-61645f706362,v6.0-beta*
G04 #@! TF.SameCoordinates,Original*
G04 #@! TF.FileFunction,Copper,L3,Inr*
G04 #@! TF.FilePolarity,Positive*
%FSLAX46Y46*%
G04 Gerber Fmt 4.6, Leading zero omitted, Abs format (unit mm)*
G04 Created by KiCad (PCBNEW 5.99.0+really5.1.12+dfsg1-1) date 2022-02-16 15:30:31*
%MOMM*%
%LPD*%
G01*
G04 APERTURE LIST*
G04 #@! TA.AperFunction,ComponentPad*
%ADD10R,1.727200X1.727200*%
G04 #@! TD*
G04 #@! TA.AperFunction,ComponentPad*
%ADD11O,1.727200X1.727200*%
G04 #@! TD*
G04 #@! TA.AperFunction,ComponentPad*
%ADD12O,1.700000X1.700000*%
G04 #@! TD*
G04 #@! TA.AperFunction,ComponentPad*
%ADD13R,1.700000X1.700000*%
G04 #@! TD*
G04 #@! TA.AperFunction,ComponentPad*
%ADD14C,5.600000*%
G04 #@! TD*
G04 #@! TA.AperFunction,ViaPad*
%ADD15C,0.500000*%
G04 #@! TD*
G04 #@! TA.AperFunction,ViaPad*
%ADD16C,0.914400*%
G04 #@! TD*
G04 #@! TA.AperFunction,ViaPad*
%ADD17C,0.700000*%
G04 #@! TD*
G04 #@! TA.AperFunction,Conductor*
%ADD18C,0.400000*%
G04 #@! TD*
G04 #@! TA.AperFunction,Conductor*
%ADD19C,0.150000*%
G04 #@! TD*
G04 #@! TA.AperFunction,Conductor*
%ADD20C,0.200000*%
G04 #@! TD*
G04 #@! TA.AperFunction,Conductor*
%ADD21C,0.250000*%
G04 #@! TD*
G04 APERTURE END LIST*
D10*
X103365500Y-91237000D03*
D11*
X103365500Y-88697000D03*
X105905500Y-91237000D03*
X105905500Y-88697000D03*
X108445500Y-91237000D03*
X108445500Y-88697000D03*
X110985500Y-91237000D03*
X110985500Y-88697000D03*
D12*
X144660000Y-79172000D03*
X144660000Y-76632000D03*
X144660000Y-74092000D03*
X144660000Y-71552000D03*
D13*
X144660000Y-69012000D03*
D14*
X113940000Y-97440000D03*
X190150000Y-49200000D03*
X115210000Y-49190000D03*
X196480000Y-97430000D03*
D13*
X196520000Y-54280000D03*
D12*
X193980000Y-54280000D03*
X196520000Y-56820000D03*
X193980000Y-56820000D03*
X196520000Y-59360000D03*
X193980000Y-59360000D03*
X196520000Y-61900000D03*
X193980000Y-61900000D03*
X196520000Y-64440000D03*
X193980000Y-64440000D03*
X196520000Y-66980000D03*
X193980000Y-66980000D03*
X196520000Y-69520000D03*
X193980000Y-69520000D03*
X196520000Y-72060000D03*
X193980000Y-72060000D03*
X196520000Y-74600000D03*
X193980000Y-74600000D03*
X196520000Y-77140000D03*
X193980000Y-77140000D03*
X196520000Y-79680000D03*
X193980000Y-79680000D03*
X196520000Y-82220000D03*
X193980000Y-82220000D03*
X196520000Y-84760000D03*
X193980000Y-84760000D03*
X196520000Y-87300000D03*
X193980000Y-87300000D03*
D13*
X166040000Y-49200000D03*
D12*
X168580000Y-49200000D03*
X171120000Y-49200000D03*
X173660000Y-49200000D03*
X176200000Y-49200000D03*
X178740000Y-49200000D03*
X181280000Y-49200000D03*
X183820000Y-49200000D03*
X173660000Y-97460000D03*
X171120000Y-97460000D03*
X168580000Y-97460000D03*
X166040000Y-97460000D03*
X163500000Y-97460000D03*
X160960000Y-97460000D03*
X158420000Y-97460000D03*
D13*
X155880000Y-97460000D03*
X140640000Y-49200000D03*
D12*
X143180000Y-49200000D03*
X145720000Y-49200000D03*
X148260000Y-49200000D03*
D13*
X153340000Y-49200000D03*
D12*
X155880000Y-49200000D03*
X158420000Y-49200000D03*
X160960000Y-49200000D03*
X150800000Y-97494000D03*
X148260000Y-97494000D03*
X145720000Y-97494000D03*
D13*
X143180000Y-97494000D03*
X122860000Y-49200000D03*
D12*
X125400000Y-49200000D03*
X127940000Y-49200000D03*
X130480000Y-49200000D03*
X133020000Y-49200000D03*
X135560000Y-49200000D03*
D15*
X157259002Y-90112000D03*
X125000000Y-73200000D03*
X135600000Y-95600000D03*
X127813000Y-76822506D03*
X119050000Y-58134257D03*
X150068352Y-71849241D03*
X141412128Y-60787872D03*
X142800000Y-60600000D03*
X180250000Y-84250000D03*
X167000000Y-70750000D03*
X162500000Y-67000000D03*
X180000000Y-72500000D03*
X158500000Y-61750000D03*
X151100000Y-57824990D03*
X117950000Y-75950000D03*
X166738500Y-91427500D03*
X153811558Y-70320697D03*
X145700000Y-55500000D03*
X166738500Y-90157500D03*
X154991000Y-70345500D03*
X142350000Y-62450000D03*
X143300000Y-61100000D03*
X177750000Y-84000000D03*
X170500000Y-71750000D03*
X177500000Y-72500000D03*
X168250000Y-73000000D03*
X148700000Y-69600000D03*
X150500000Y-58400000D03*
X118250000Y-77950000D03*
X172516992Y-61392000D03*
X170750000Y-55750000D03*
X172000000Y-62000000D03*
X172750000Y-64750000D03*
X172000000Y-69474979D03*
X185700000Y-80400000D03*
X187100000Y-83800000D03*
X186460000Y-68170000D03*
X187310000Y-71470000D03*
X116637004Y-87681000D03*
X184500000Y-56200000D03*
X180600000Y-56100000D03*
X188074512Y-57328000D03*
X181534000Y-57327996D03*
X116637000Y-89840000D03*
X180200000Y-57200000D03*
X164400000Y-76900000D03*
X185788500Y-60249000D03*
X161468000Y-73457000D03*
X159817000Y-62217496D03*
X151700000Y-68000000D03*
X117970500Y-74536500D03*
X149900000Y-71100000D03*
X152900000Y-81400000D03*
X166000000Y-79600000D03*
X127559000Y-80442000D03*
X152959000Y-77330500D03*
D16*
X109620000Y-58534501D03*
D15*
X128000000Y-92400000D03*
X131260000Y-88860000D03*
X108500000Y-53800000D03*
X105800000Y-63200000D03*
X107900000Y-53300000D03*
X105700000Y-60600000D03*
X115500000Y-57900000D03*
X118095950Y-58300010D03*
D16*
X109637000Y-62991500D03*
D15*
X118600000Y-65700000D03*
D16*
X109637000Y-60771500D03*
D15*
X119651746Y-65355366D03*
X168900000Y-84600000D03*
X165212074Y-76657575D03*
X154546500Y-92888000D03*
X153594000Y-84094000D03*
X154546500Y-90983000D03*
X154265316Y-84596501D03*
X164760000Y-85720000D03*
X163160000Y-85620000D03*
X161510000Y-85620000D03*
X160210000Y-85720000D03*
X118900000Y-73800000D03*
X172000000Y-84000000D03*
X156700000Y-82100000D03*
X156800000Y-84200000D03*
X167600000Y-85500000D03*
X151600000Y-81900000D03*
X150101500Y-73393500D03*
X150183142Y-80072418D03*
X182900000Y-57700000D03*
X166100000Y-59000000D03*
X163300000Y-57400000D03*
X170000000Y-64400000D03*
X171600000Y-59200000D03*
X136322000Y-82029500D03*
X149086000Y-62154500D03*
X157860000Y-66320000D03*
X133860000Y-81120000D03*
X150400000Y-62400000D03*
X117650000Y-77100000D03*
X160324998Y-91427500D03*
X156297641Y-84612493D03*
X154740326Y-83507176D03*
X144100000Y-93700000D03*
X144132016Y-87872000D03*
X166549619Y-58218619D03*
X165675010Y-54800000D03*
X137300000Y-76400000D03*
X133600000Y-74200000D03*
X133600000Y-64900000D03*
X175056500Y-64122000D03*
X179700000Y-83800000D03*
X176300000Y-79900000D03*
X167700000Y-75700000D03*
X169500000Y-75600000D03*
X170800000Y-75600000D03*
X179600000Y-78200000D03*
X175500000Y-87400000D03*
X172200000Y-75600000D03*
X179540372Y-72959628D03*
X159800000Y-57800000D03*
X159400000Y-58800000D03*
X145402500Y-87871500D03*
X144600000Y-83875010D03*
X132575500Y-74224500D03*
X137200000Y-77400000D03*
X140500000Y-83700000D03*
X142036998Y-54407000D03*
X126335500Y-55600000D03*
X168120116Y-58138118D03*
X168500000Y-55250000D03*
X185725000Y-83680500D03*
X180645000Y-66091000D03*
X144155000Y-59500000D03*
X180643720Y-72590220D03*
X181534000Y-59423500D03*
X187503000Y-79870500D03*
X187503000Y-58979000D03*
X136100000Y-68100000D03*
X182486500Y-79870506D03*
X182038390Y-69393000D03*
X187535010Y-69393000D03*
X160324998Y-93586500D03*
X155314960Y-83811004D03*
X158737504Y-66472000D03*
X159200000Y-67000000D03*
X166600000Y-64300000D03*
X165100000Y-64500000D03*
X177900000Y-77200000D03*
X177700000Y-81700000D03*
X112827000Y-89776500D03*
X112827000Y-87681000D03*
X108000000Y-86450000D03*
X108000000Y-85850000D03*
X107400000Y-84650000D03*
X108000000Y-85250000D03*
X107400000Y-85850000D03*
X107400000Y-86450000D03*
X108000000Y-84650000D03*
X107400000Y-85250000D03*
X117250000Y-85550000D03*
X117250000Y-84950000D03*
X116650000Y-83750000D03*
X117250000Y-84350000D03*
X116650000Y-84950000D03*
X116650000Y-85550000D03*
X117250000Y-83750000D03*
X116650000Y-84350000D03*
X107900000Y-71300000D03*
X107900000Y-70700000D03*
X107300000Y-69500000D03*
X107900000Y-70100000D03*
X107300000Y-70700000D03*
X107300000Y-71300000D03*
X107900000Y-69500000D03*
X107300000Y-70100000D03*
X115800000Y-67600000D03*
X115200000Y-67600000D03*
X114000000Y-68200000D03*
X114600000Y-67600000D03*
X115200000Y-68200000D03*
X115800000Y-68200000D03*
X114000000Y-67600000D03*
X114600000Y-68200000D03*
X103900000Y-86400000D03*
X103900000Y-85800000D03*
X103300000Y-84600000D03*
X103900000Y-85200000D03*
X103300000Y-85800000D03*
X103300000Y-86400000D03*
X103900000Y-84600000D03*
X103300000Y-85200000D03*
X113700000Y-85550000D03*
X113700000Y-84950000D03*
X113100000Y-83750000D03*
X113700000Y-84350000D03*
X113100000Y-84950000D03*
X113100000Y-85550000D03*
X113700000Y-83750000D03*
X113100000Y-84350000D03*
X134700000Y-71600000D03*
X134700000Y-72200000D03*
X103600000Y-68800000D03*
D16*
X109637000Y-65202000D03*
X184900000Y-89411500D03*
D15*
X142293000Y-89147000D03*
D16*
X182707267Y-90123962D03*
X181352084Y-91989212D03*
X181352084Y-94294788D03*
X182707267Y-96160038D03*
X184900000Y-96872500D03*
X187092733Y-96160038D03*
X188447916Y-94294788D03*
X188447916Y-91989212D03*
X187092733Y-90123962D03*
D15*
X137084000Y-98603000D03*
X139243000Y-98603000D03*
X154546500Y-94031000D03*
X158039000Y-85839500D03*
X181534000Y-84823496D03*
X152959000Y-74219002D03*
X190741500Y-62789000D03*
X186931500Y-65011500D03*
X112827000Y-91999000D03*
X136322000Y-84188504D03*
X156320890Y-70345500D03*
X181534000Y-63932000D03*
X127846675Y-67419298D03*
X124000000Y-70000000D03*
D17*
X123400000Y-63400000D03*
D15*
X124600000Y-83600000D03*
X128025000Y-95200000D03*
X128600000Y-98200000D03*
X113300000Y-61900000D03*
X118900000Y-53500000D03*
X100800000Y-55100000D03*
X100800000Y-55800000D03*
X100800000Y-56500000D03*
X100800000Y-57200000D03*
X101600000Y-55100000D03*
X103400000Y-56500000D03*
X103400000Y-57100000D03*
X105000000Y-57200000D03*
X105000000Y-56600000D03*
X105000000Y-55900000D03*
X105000000Y-55100000D03*
X105800000Y-55100000D03*
X106500000Y-55100000D03*
X107900000Y-57600000D03*
X107900000Y-56100000D03*
X107900000Y-56900000D03*
X107900000Y-55300000D03*
X100800000Y-66300000D03*
X100800000Y-66900000D03*
X100800000Y-67500000D03*
X100800000Y-68200000D03*
X100800000Y-68800000D03*
X101500000Y-68800000D03*
X102300000Y-68800000D03*
X103000000Y-68800000D03*
X103600000Y-68000000D03*
X103570000Y-67230000D03*
X104970000Y-67230000D03*
X105000000Y-68100000D03*
X105000000Y-68800000D03*
X105800000Y-68800000D03*
X106500000Y-68800000D03*
X107200000Y-68800000D03*
X107900000Y-68800000D03*
X107900000Y-67900000D03*
X107900000Y-66400000D03*
X105000000Y-66400000D03*
X103600000Y-66400000D03*
X107900000Y-67100000D03*
X134700000Y-71000000D03*
X147860000Y-62520000D03*
X109400000Y-51500000D03*
X172115000Y-81055000D03*
X182760000Y-71870000D03*
X182860000Y-74420000D03*
X187610000Y-73220000D03*
X177460000Y-83020000D03*
X156800000Y-64300000D03*
X175300000Y-69500000D03*
X167900000Y-52900000D03*
X170800000Y-53100000D03*
X173600000Y-79100000D03*
X175900000Y-77300000D03*
X177900000Y-85100000D03*
X179600000Y-79300000D03*
X160500000Y-58100000D03*
X158975337Y-55424990D03*
X172700000Y-53700000D03*
X157100000Y-78500000D03*
X161500000Y-75000000D03*
X128700000Y-80100000D03*
X131235000Y-84565000D03*
X130500000Y-85100000D03*
X151800000Y-86400000D03*
X148700000Y-88500000D03*
X145736000Y-91364000D03*
X144515207Y-82839172D03*
X141400000Y-59300000D03*
X140900000Y-64200000D03*
X143700000Y-64700000D03*
X158000000Y-87300000D03*
X168600000Y-90200000D03*
X173100000Y-90000000D03*
X174800000Y-83000000D03*
X170900000Y-85400000D03*
X164300000Y-88300000D03*
X129700000Y-65300000D03*
X131200000Y-65400000D03*
X127500000Y-57100000D03*
X131010000Y-92040000D03*
X130300000Y-91300000D03*
X131000000Y-91300000D03*
X131700000Y-91300000D03*
X131700000Y-92000000D03*
X131700000Y-92700000D03*
X130300000Y-92000000D03*
X131000000Y-92700000D03*
X130300000Y-92700000D03*
X151800000Y-59800000D03*
X125700000Y-53100000D03*
X125700000Y-53900000D03*
X133000000Y-58700000D03*
X133800000Y-58700000D03*
X114200000Y-74650000D03*
X119550000Y-87850000D03*
X176900000Y-60700000D03*
X165605883Y-70265883D03*
X176898500Y-58407504D03*
X164750000Y-71250000D03*
X168500000Y-74700000D03*
X175000000Y-81800000D03*
X173500000Y-66750000D03*
X165750000Y-72250000D03*
X123750000Y-91550000D03*
X126050000Y-89800000D03*
X114700000Y-56000000D03*
X119200000Y-55500000D03*
X132060000Y-86620000D03*
X131550000Y-94900000D03*
X130000000Y-95000000D03*
X138225000Y-79475000D03*
X182300000Y-81000000D03*
X181300000Y-80200000D03*
X170300000Y-83300000D03*
X169200000Y-81700000D03*
X171500000Y-77500000D03*
X158500000Y-58250000D03*
X166750000Y-71500000D03*
X163750000Y-67500000D03*
X186924990Y-83000000D03*
X180000000Y-82750000D03*
X170000000Y-84400000D03*
X156700000Y-77400000D03*
X153600000Y-77900000D03*
X150613588Y-79585354D03*
X166100000Y-85000000D03*
X128950000Y-89400000D03*
X127375000Y-89825000D03*
D18*
X143180000Y-97494000D02*
X150562000Y-90112000D01*
X150562000Y-90112000D02*
X157259002Y-90112000D01*
X127813000Y-76822506D02*
X127022506Y-76822506D01*
X127022506Y-76822506D02*
X124200000Y-74000000D01*
X124200000Y-74000000D02*
X125000000Y-73200000D01*
X135600000Y-95600000D02*
X137494000Y-97494000D01*
X137494000Y-97494000D02*
X143180000Y-97494000D01*
X121800000Y-74000000D02*
X124200000Y-74000000D01*
X120500000Y-72700000D02*
X120500000Y-58500000D01*
X120500000Y-72700000D02*
X121800000Y-74000000D01*
X120134257Y-58134257D02*
X119050000Y-58134257D01*
X120500000Y-58500000D02*
X120134257Y-58134257D01*
D19*
X162500000Y-67000000D02*
X158500000Y-63000000D01*
X158500000Y-63000000D02*
X158500000Y-61750000D01*
X148700000Y-69900000D02*
X148700000Y-69600000D01*
X150789776Y-70971999D02*
X150036777Y-70219000D01*
X150036777Y-70219000D02*
X149019000Y-70219000D01*
X162971999Y-70971999D02*
X150789776Y-70971999D01*
X149019000Y-70219000D02*
X148700000Y-69900000D01*
X165000000Y-73000000D02*
X162971999Y-70971999D01*
X168250000Y-73000000D02*
X165000000Y-73000000D01*
X173660000Y-49200000D02*
X173660000Y-60248992D01*
X173660000Y-60248992D02*
X172516992Y-61392000D01*
X170750000Y-55750000D02*
X172250000Y-57250000D01*
X172250000Y-57250000D02*
X172250000Y-60750000D01*
X172250000Y-60750000D02*
X172000000Y-61000000D01*
X172000000Y-61000000D02*
X172000000Y-62000000D01*
X188074512Y-57328000D02*
X187824513Y-57078001D01*
X187824513Y-57078001D02*
X181783995Y-57078001D01*
X181783995Y-57078001D02*
X181534000Y-57327996D01*
X152900000Y-81400000D02*
X163800000Y-81400000D01*
X163800000Y-81400000D02*
X165600000Y-79600000D01*
X165600000Y-79600000D02*
X166000000Y-79600000D01*
D18*
X143180000Y-49200000D02*
X143180000Y-50340000D01*
X143180000Y-50340000D02*
X143960000Y-51120000D01*
X151420000Y-51120000D02*
X153340000Y-49200000D01*
X143960000Y-51120000D02*
X151420000Y-51120000D01*
X116739999Y-81399999D02*
X116739999Y-78890001D01*
X149086000Y-65846000D02*
X149860000Y-66620000D01*
X149086000Y-65846000D02*
X149086000Y-62154500D01*
X157560000Y-66620000D02*
X157860000Y-66320000D01*
X149860000Y-66620000D02*
X157560000Y-66620000D01*
X149086000Y-67678000D02*
X149086000Y-65846000D01*
X145212000Y-71552000D02*
X149086000Y-67678000D01*
X139789998Y-71552000D02*
X144660000Y-71552000D01*
X136322000Y-75019998D02*
X139789998Y-71552000D01*
X136322000Y-82029500D02*
X136322000Y-75019998D01*
X132950500Y-82029500D02*
X133860000Y-81120000D01*
X117369500Y-82029500D02*
X132950500Y-82029500D01*
X116739999Y-81399999D02*
X117369500Y-82029500D01*
X135629500Y-82029500D02*
X136322000Y-82029500D01*
X134720000Y-81120000D02*
X135629500Y-82029500D01*
X133860000Y-81120000D02*
X134720000Y-81120000D01*
X149331500Y-62400000D02*
X149086000Y-62154500D01*
X150400000Y-62400000D02*
X149331500Y-62400000D01*
D20*
X110985500Y-91237000D02*
X109748500Y-90000000D01*
X107142500Y-90000000D02*
X105905500Y-91237000D01*
X109748500Y-90000000D02*
X107142500Y-90000000D01*
X109700000Y-86978202D02*
X109700000Y-90000000D01*
D18*
X117590000Y-78040000D02*
X117650000Y-77980000D01*
X116739999Y-78890001D02*
X117590000Y-78040000D01*
X117650000Y-77980000D02*
X117650000Y-77100000D01*
X109700000Y-85000000D02*
X109700000Y-86978202D01*
X113300001Y-81399999D02*
X109700000Y-85000000D01*
X116739999Y-81399999D02*
X113300001Y-81399999D01*
D21*
X166585804Y-58182434D02*
X166549619Y-58218619D01*
X166585804Y-55261433D02*
X166585804Y-58182434D01*
X144132016Y-93667984D02*
X144132016Y-87872000D01*
X144100000Y-93700000D02*
X144132016Y-93667984D01*
X141629865Y-83450135D02*
X141629865Y-85889865D01*
X143612000Y-87872000D02*
X144132016Y-87872000D01*
X141629865Y-85889865D02*
X143612000Y-87872000D01*
X165762186Y-54437814D02*
X166585804Y-55261433D01*
X165675010Y-54524990D02*
X165675010Y-54800000D01*
X165762186Y-54437814D02*
X165675010Y-54524990D01*
X141629865Y-83450135D02*
X141629865Y-81129865D01*
X141629865Y-81129865D02*
X141629865Y-80729865D01*
X141629865Y-80729865D02*
X137300000Y-76400000D01*
X133600000Y-64150000D02*
X133600000Y-64570006D01*
X143312186Y-54437814D02*
X133600000Y-64150000D01*
X165762186Y-54437814D02*
X143312186Y-54437814D01*
X133600000Y-64900000D02*
X133600000Y-74200000D01*
X133600000Y-64570006D02*
X133600000Y-64900000D01*
D18*
X177722000Y-64122000D02*
X175056500Y-64122000D01*
X178929000Y-65329000D02*
X177722000Y-64122000D01*
D19*
X179700000Y-84158000D02*
X178929000Y-84929000D01*
X179700000Y-83800000D02*
X179700000Y-84158000D01*
D18*
X178929000Y-87551000D02*
X178929000Y-84929000D01*
D19*
X176371000Y-79971000D02*
X176300000Y-79900000D01*
X178929000Y-79971000D02*
X176371000Y-79971000D01*
D18*
X178929000Y-84929000D02*
X178929000Y-79971000D01*
D19*
X167800000Y-75600000D02*
X167700000Y-75700000D01*
X169500000Y-75600000D02*
X167800000Y-75600000D01*
X170800000Y-75600000D02*
X169500000Y-75600000D01*
X179571000Y-78171000D02*
X179600000Y-78200000D01*
X178929000Y-78171000D02*
X179571000Y-78171000D01*
D18*
X178929000Y-79971000D02*
X178929000Y-78171000D01*
X178929000Y-78171000D02*
X178929000Y-72971000D01*
X178929000Y-72971000D02*
X178929000Y-65329000D01*
D19*
X175651000Y-87551000D02*
X175500000Y-87400000D01*
X178929000Y-87551000D02*
X175651000Y-87551000D01*
X172200000Y-75600000D02*
X170800000Y-75600000D01*
X179529000Y-72971000D02*
X179540372Y-72959628D01*
X178929000Y-72971000D02*
X179529000Y-72971000D01*
X159800000Y-58400000D02*
X159400000Y-58800000D01*
X159800000Y-57800000D02*
X159800000Y-58400000D01*
D21*
X145402500Y-84677510D02*
X144600000Y-83875010D01*
X145402500Y-87871500D02*
X145402500Y-84677510D01*
X132575500Y-64630500D02*
X132575500Y-74224500D01*
X140500000Y-80700000D02*
X137200000Y-77400000D01*
X140500000Y-83700000D02*
X140500000Y-80700000D01*
X130261253Y-60738747D02*
X126335500Y-56812994D01*
X126335500Y-56812994D02*
X126335500Y-55600000D01*
X168120116Y-55370116D02*
X168240232Y-55250000D01*
X168120116Y-55370116D02*
X168120116Y-58138118D01*
X168500000Y-55250000D02*
X168240232Y-55250000D01*
X168000000Y-55250000D02*
X168240232Y-55250000D01*
X142036998Y-54407000D02*
X142693998Y-53750000D01*
X142693998Y-53750000D02*
X166500000Y-53750000D01*
X166500000Y-53750000D02*
X168000000Y-55250000D01*
X132575500Y-64630500D02*
X132575500Y-64152994D01*
X132575500Y-64224500D02*
X132575500Y-64630500D01*
X132575500Y-63868498D02*
X132575500Y-64224500D01*
X142036998Y-54407000D02*
X132575500Y-63868498D01*
X130261253Y-61554251D02*
X132575500Y-63868498D01*
X130261253Y-60738747D02*
X130261253Y-61554251D01*
D18*
X180645000Y-72588940D02*
X180643720Y-72590220D01*
X180645000Y-66091000D02*
X180645000Y-72588940D01*
X185725000Y-83680500D02*
X181818502Y-83680500D01*
X180643720Y-82505718D02*
X180643720Y-72590220D01*
X181818502Y-83680500D02*
X180643720Y-82505718D01*
X160500000Y-57200000D02*
X146455000Y-57200000D01*
X163600000Y-60300000D02*
X160500000Y-57200000D01*
X146455000Y-57200000D02*
X144155000Y-59500000D01*
X168600000Y-60300000D02*
X163600000Y-60300000D01*
X171821999Y-63521999D02*
X168600000Y-60300000D01*
X178075999Y-63521999D02*
X171821999Y-63521999D01*
X180645000Y-66091000D02*
X178075999Y-63521999D01*
X182038390Y-69393000D02*
X181534000Y-69897390D01*
X181978500Y-58979000D02*
X178359000Y-62598500D01*
X187503000Y-58979000D02*
X181978500Y-58979000D01*
X181534000Y-65434000D02*
X181534000Y-69897390D01*
X178698500Y-62598500D02*
X181534000Y-65434000D01*
X178359000Y-62598500D02*
X178698500Y-62598500D01*
X181534000Y-78918006D02*
X182486500Y-79870506D01*
X181534000Y-69897390D02*
X181534000Y-78918006D01*
X182038390Y-69393000D02*
X187535010Y-69393000D01*
X187503000Y-79870500D02*
X187253001Y-79620501D01*
X187253001Y-79620501D02*
X182736505Y-79620501D01*
X182736505Y-79620501D02*
X182486500Y-79870506D01*
X136100000Y-63646000D02*
X136100000Y-68100000D01*
X143376011Y-56369989D02*
X136100000Y-63646000D01*
X160769989Y-56369989D02*
X143376011Y-56369989D01*
X164100000Y-59700000D02*
X160769989Y-56369989D01*
X168811996Y-59700000D02*
X164100000Y-59700000D01*
X171711998Y-62600002D02*
X168811996Y-59700000D01*
X178357498Y-62600002D02*
X171711998Y-62600002D01*
X178359000Y-62598500D02*
X178357498Y-62600002D01*
M02*
