M48
; DRILL file {KiCad 5.99.0+really5.1.12+dfsg1-1} date Wed 16 Feb 2022 01:53:09 PM CST
; FORMAT={3:3/ absolute / metric / suppress leading zeros}
; #@! TF.CreationDate,2022-02-16T13:53:09+08:00
; #@! TF.GenerationSoftware,Kicad,Pcbnew,5.99.0+really5.1.12+dfsg1-1
FMAT,2
METRIC,TZ
T1C0.300
T2C0.400
T3C0.406
T4C1.000
T5C1.016
T6C3.200
T7C0.650
T8C1.000
%
G90
G05
T1
X100800Y-55100
X100800Y-55800
X100800Y-56500
X100800Y-57200
X100800Y-66300
X100800Y-66900
X100800Y-67500
X100800Y-68200
X100800Y-68800
X101500Y-68800
X101600Y-55100
X102300Y-68800
X103000Y-68800
X103300Y-84600
X103300Y-85200
X103300Y-85800
X103300Y-86400
X103400Y-56500
X103400Y-57100
X103570Y-67230
X103600Y-66400
X103600Y-68000
X103600Y-68800
X103650Y-95250
X103650Y-95850
X103650Y-96450
X103650Y-97050
X103900Y-84600
X103900Y-85200
X103900Y-85800
X103900Y-86400
X104250Y-95250
X104250Y-95850
X104250Y-96450
X104250Y-97050
X104970Y-67230
X105000Y-55100
X105000Y-55900
X105000Y-56600
X105000Y-57200
X105000Y-66400
X105000Y-68100
X105000Y-68800
X105700Y-60600
X105800Y-55100
X105800Y-63200
X105800Y-68800
X106500Y-55100
X106500Y-68800
X107200Y-68800
X107300Y-69500
X107300Y-70100
X107300Y-70700
X107300Y-71300
X107400Y-84650
X107400Y-85250
X107400Y-85850
X107400Y-86450
X107900Y-53300
X107900Y-55300
X107900Y-56100
X107900Y-56900
X107900Y-57600
X107900Y-66400
X107900Y-67100
X107900Y-67900
X107900Y-68800
X107900Y-69500
X107900Y-70100
X107900Y-70700
X107900Y-71300
X108000Y-84650
X108000Y-85250
X108000Y-85850
X108000Y-86450
X108500Y-53800
X109400Y-51500
X112827Y-87681
X112827Y-89777
X112827Y-91999
X113100Y-83750
X113100Y-84350
X113100Y-84950
X113100Y-85550
X113300Y-61900
X113700Y-83750
X113700Y-84350
X113700Y-84950
X113700Y-85550
X114000Y-67600
X114000Y-68200
X114200Y-74650
X114600Y-67600
X114600Y-68200
X114700Y-56000
X115200Y-67600
X115200Y-68200
X115500Y-57900
X115800Y-67600
X115800Y-68200
X116637Y-89840
X116637Y-87681
X116650Y-83750
X116650Y-84350
X116650Y-84950
X116650Y-85550
X117250Y-83750
X117250Y-84350
X117250Y-84950
X117250Y-85550
X117650Y-77100
X117950Y-75950
X117971Y-74536
X118096Y-58300
X118250Y-77950
X118600Y-65700
X118900Y-53500
X118900Y-73800
X119050Y-58134
X119200Y-55500
X119400Y-89050
X119652Y-65355
X124000Y-70000
X124600Y-83600
X125000Y-73200
X125700Y-53100
X125700Y-53900
X126336Y-55600
X126400Y-89700
X127500Y-57100
X127559Y-80442
X127813Y-76823
X127847Y-67419
X127960Y-93520
X128000Y-92400
X128025Y-95200
X128600Y-98200
X128700Y-80100
X129700Y-65300
X130000Y-95000
X130300Y-91300
X130300Y-92000
X130300Y-92700
X130500Y-85100
X131000Y-91300
X131000Y-92700
X131010Y-92040
X131200Y-65400
X131235Y-84565
X131260Y-88860
X131700Y-91300
X131700Y-92000
X131700Y-92700
X132060Y-86620
X132576Y-74224
X133000Y-58700
X133600Y-64900
X133600Y-74200
X133800Y-58700
X133860Y-81120
X134000Y-86600
X134000Y-90400
X134700Y-71000
X134700Y-71600
X134700Y-72200
X135600Y-95600
X136100Y-68100
X136322Y-82029
X136322Y-84189
X137084Y-98603
X137200Y-77400
X137300Y-76400
X138225Y-79475
X139243Y-98603
X140500Y-83700
X140900Y-64200
X141400Y-59300
X141412Y-60788
X142037Y-54407
X142293Y-89147
X142350Y-62450
X142800Y-60600
X143300Y-61100
X143700Y-64700
X144100Y-93700
X144132Y-87872
X144155Y-59500
X144515Y-82839
X144600Y-83875
X145403Y-87872
X145700Y-55500
X145736Y-91364
X147860Y-62520
X148700Y-69600
X148700Y-88500
X149086Y-62155
X149900Y-71100
X150068Y-71849
X150101Y-73394
X150183Y-80072
X150400Y-62400
X150500Y-58400
X150614Y-79585
X151100Y-57825
X151600Y-81900
X151700Y-68000
X151800Y-59800
X151800Y-86400
X152900Y-81400
X152959Y-74219
X152959Y-77331
X153594Y-84094
X153600Y-77900
X153812Y-70321
X154265Y-84597
X154546Y-90983
X154546Y-92888
X154546Y-94031
X154740Y-83507
X154991Y-70346
X155315Y-83811
X156298Y-84612
X156321Y-70346
X156700Y-77400
X156700Y-82100
X156800Y-64300
X156800Y-84200
X157100Y-78500
X157259Y-90112
X157860Y-66320
X158000Y-87300
X158039Y-85840
X158500Y-58250
X158500Y-61750
X158738Y-66472
X158975Y-55425
X159200Y-67000
X159400Y-58800
X159800Y-57800
X159817Y-62217
X160210Y-85720
X160325Y-91428
X160325Y-93587
X160500Y-58100
X161468Y-73457
X161500Y-75000
X161510Y-85620
X162500Y-67000
X163160Y-85620
X163300Y-57400
X163750Y-67500
X164300Y-88300
X164400Y-76900
X164750Y-71250
X164760Y-85720
X165100Y-64500
X165212Y-76658
X165606Y-70266
X165675Y-54800
X165750Y-72250
X166000Y-79600
X166100Y-59000
X166100Y-85000
X166550Y-58219
X166600Y-64300
X166739Y-90158
X166739Y-91428
X166750Y-71500
X167000Y-70750
X167600Y-85500
X167700Y-75700
X167900Y-52900
X168120Y-58138
X168250Y-73000
X168500Y-55250
X168500Y-74700
X168600Y-90200
X168900Y-84600
X169200Y-81700
X169500Y-75600
X170000Y-64400
X170000Y-84400
X170300Y-83300
X170500Y-71750
X170750Y-55750
X170800Y-53100
X170800Y-75600
X170900Y-85400
X171500Y-77500
X171600Y-59200
X172000Y-62000
X172000Y-69475
X172000Y-84000
X172115Y-81055
X172200Y-75600
X172517Y-61392
X172700Y-53700
X172750Y-64750
X173100Y-90000
X173500Y-66750
X173600Y-79100
X174800Y-83000
X175000Y-81800
X175057Y-64122
X175300Y-69500
X175500Y-87400
X175900Y-77300
X176300Y-79900
X176899Y-58408
X176900Y-60700
X177460Y-83020
X177500Y-72500
X177700Y-81700
X177750Y-84000
X177900Y-77200
X177900Y-85100
X179540Y-72960
X179600Y-78200
X179600Y-79300
X179700Y-83800
X180000Y-72500
X180000Y-82750
X180200Y-57200
X180250Y-84250
X180600Y-56100
X180644Y-72590
X180645Y-66091
X181300Y-80200
X181534Y-57328
X181534Y-59424
X181534Y-63932
X181534Y-84823
X182038Y-69393
X182300Y-81000
X182486Y-79871
X182760Y-71870
X182860Y-74420
X182900Y-57700
X184500Y-56200
X185700Y-80400
X185725Y-83681
X185789Y-60249
X186460Y-68170
X186925Y-83000
X186932Y-65012
X187100Y-83800
X187310Y-71470
X187503Y-58979
X187503Y-79871
X187535Y-69393
X187610Y-73220
X188075Y-57328
X190742Y-62789
T2
X123400Y-63400
T3
X109620Y-58535
X109637Y-60772
X109637Y-62992
X109637Y-65202
X181352Y-91989
X181352Y-94295
X182707Y-90124
X182707Y-96160
X184900Y-89412
X184900Y-96873
X187093Y-90124
X187093Y-96160
X188448Y-91989
X188448Y-94295
T4
X122860Y-49200
X125400Y-49200
X127940Y-49200
X130480Y-49200
X133020Y-49200
X135560Y-49200
X140640Y-49200
X143180Y-49200
X143180Y-97494
X144660Y-69012
X144660Y-71552
X144660Y-74092
X144660Y-76632
X144660Y-79172
X145720Y-49200
X145720Y-97494
X148260Y-49200
X148260Y-97494
X150800Y-97494
X153340Y-49200
X155880Y-49200
X155880Y-97460
X158420Y-49200
X158420Y-97460
X160960Y-49200
X160960Y-97460
X163500Y-97460
X166040Y-49200
X166040Y-97460
X168580Y-49200
X168580Y-97460
X171120Y-49200
X171120Y-97460
X173660Y-49200
X173660Y-97460
X176200Y-49200
X178740Y-49200
X181280Y-49200
X183820Y-49200
X193980Y-54280
X193980Y-56820
X193980Y-59360
X193980Y-61900
X193980Y-64440
X193980Y-66980
X193980Y-69520
X193980Y-72060
X193980Y-74600
X193980Y-77140
X193980Y-79680
X193980Y-82220
X193980Y-84760
X193980Y-87300
X196520Y-54280
X196520Y-56820
X196520Y-59360
X196520Y-61900
X196520Y-64440
X196520Y-66980
X196520Y-69520
X196520Y-72060
X196520Y-74600
X196520Y-77140
X196520Y-79680
X196520Y-82220
X196520Y-84760
X196520Y-87300
T5
X103366Y-88697
X103366Y-91237
X105906Y-88697
X105906Y-91237
X108446Y-88697
X108446Y-91237
X110986Y-88697
X110986Y-91237
T6
X113940Y-97440
X115210Y-49190
X190150Y-49200
X196480Y-97430
T7
X105700Y-59010
X105700Y-64790
T8
X105200Y-72950
X105200Y-80950
T0
M30
